<?xml version="1.0" encoding="utf-8" standalone="no"?>
<!DOCTYPE svg PUBLIC "-//W3C//DTD SVG 1.1//EN"
  "http://www.w3.org/Graphics/SVG/1.1/DTD/svg11.dtd">
<svg xmlns:xlink="http://www.w3.org/1999/xlink" width="432pt" height="288pt" viewBox="0 0 432 288" xmlns="http://www.w3.org/2000/svg" version="1.1">
 <metadata>
  <rdf:RDF xmlns:dc="http://purl.org/dc/elements/1.1/" xmlns:cc="http://creativecommons.org/ns#" xmlns:rdf="http://www.w3.org/1999/02/22-rdf-syntax-ns#">
   <cc:Work>
    <dc:type rdf:resource="http://purl.org/dc/dcmitype/StillImage"/>
    <dc:date>2025-06-05T13:47:52.387281</dc:date>
    <dc:format>image/svg+xml</dc:format>
    <dc:creator>
     <cc:Agent>
      <dc:title>Matplotlib v3.9.2, https://matplotlib.org/</dc:title>
     </cc:Agent>
    </dc:creator>
   </cc:Work>
  </rdf:RDF>
 </metadata>
 <defs>
  <style type="text/css">*{stroke-linejoin: round; stroke-linecap: butt}</style>
 </defs>
 <g id="figure_1">
  <g id="patch_1">
   <path d="M 0 288 
L 432 288 
L 432 0 
L 0 0 
z
" style="fill: #ffffff"/>
  </g>
  <g id="axes_1">
   <g id="patch_2">
    <path d="M 54 256.32 
L 388.8 256.32 
L 388.8 34.56 
L 54 34.56 
z
" style="fill: #ffffff"/>
   </g>
   <g id="matplotlib.axis_1">
    <g id="xtick_1">
     <g id="line2d_1">
      <defs>
       <path id="m364bf71daf" d="M 0 0 
L 0 3.5 
" style="stroke: #000000; stroke-width: 0.8"/>
      </defs>
      <g>
       <use xlink:href="#m364bf71daf" x="113.97754" y="256.32" style="stroke: #000000; stroke-width: 0.8"/>
      </g>
     </g>
     <g id="text_1">
      <!-- 0.4 -->
      <g transform="translate(94.89379 281.55625) scale(0.24 -0.24)">
       <defs>
        <path id="DejaVuSans-30" d="M 2034 4250 
Q 1547 4250 1301 3770 
Q 1056 3291 1056 2328 
Q 1056 1369 1301 889 
Q 1547 409 2034 409 
Q 2525 409 2770 889 
Q 3016 1369 3016 2328 
Q 3016 3291 2770 3770 
Q 2525 4250 2034 4250 
z
M 2034 4750 
Q 2819 4750 3233 4129 
Q 3647 3509 3647 2328 
Q 3647 1150 3233 529 
Q 2819 -91 2034 -91 
Q 1250 -91 836 529 
Q 422 1150 422 2328 
Q 422 3509 836 4129 
Q 1250 4750 2034 4750 
z
" transform="scale(0.015625)"/>
        <path id="DejaVuSans-2e" d="M 684 794 
L 1344 794 
L 1344 0 
L 684 0 
L 684 794 
z
" transform="scale(0.015625)"/>
        <path id="DejaVuSans-34" d="M 2419 4116 
L 825 1625 
L 2419 1625 
L 2419 4116 
z
M 2253 4666 
L 3047 4666 
L 3047 1625 
L 3713 1625 
L 3713 1100 
L 3047 1100 
L 3047 0 
L 2419 0 
L 2419 1100 
L 313 1100 
L 313 1709 
L 2253 4666 
z
" transform="scale(0.015625)"/>
       </defs>
       <use xlink:href="#DejaVuSans-30"/>
       <use xlink:href="#DejaVuSans-2e" x="63.623047"/>
       <use xlink:href="#DejaVuSans-34" x="95.410156"/>
      </g>
     </g>
    </g>
    <g id="xtick_2">
     <g id="line2d_2">
      <g>
       <use xlink:href="#m364bf71daf" x="203.496257" y="256.32" style="stroke: #000000; stroke-width: 0.8"/>
      </g>
     </g>
     <g id="text_2">
      <!-- 0.6 -->
      <g transform="translate(184.412507 281.55625) scale(0.24 -0.24)">
       <defs>
        <path id="DejaVuSans-36" d="M 2113 2584 
Q 1688 2584 1439 2293 
Q 1191 2003 1191 1497 
Q 1191 994 1439 701 
Q 1688 409 2113 409 
Q 2538 409 2786 701 
Q 3034 994 3034 1497 
Q 3034 2003 2786 2293 
Q 2538 2584 2113 2584 
z
M 3366 4563 
L 3366 3988 
Q 3128 4100 2886 4159 
Q 2644 4219 2406 4219 
Q 1781 4219 1451 3797 
Q 1122 3375 1075 2522 
Q 1259 2794 1537 2939 
Q 1816 3084 2150 3084 
Q 2853 3084 3261 2657 
Q 3669 2231 3669 1497 
Q 3669 778 3244 343 
Q 2819 -91 2113 -91 
Q 1303 -91 875 529 
Q 447 1150 447 2328 
Q 447 3434 972 4092 
Q 1497 4750 2381 4750 
Q 2619 4750 2861 4703 
Q 3103 4656 3366 4563 
z
" transform="scale(0.015625)"/>
       </defs>
       <use xlink:href="#DejaVuSans-30"/>
       <use xlink:href="#DejaVuSans-2e" x="63.623047"/>
       <use xlink:href="#DejaVuSans-36" x="95.410156"/>
      </g>
     </g>
    </g>
    <g id="xtick_3">
     <g id="line2d_3">
      <g>
       <use xlink:href="#m364bf71daf" x="293.014973" y="256.32" style="stroke: #000000; stroke-width: 0.8"/>
      </g>
     </g>
     <g id="text_3">
      <!-- 0.8 -->
      <g transform="translate(273.931223 281.55625) scale(0.24 -0.24)">
       <defs>
        <path id="DejaVuSans-38" d="M 2034 2216 
Q 1584 2216 1326 1975 
Q 1069 1734 1069 1313 
Q 1069 891 1326 650 
Q 1584 409 2034 409 
Q 2484 409 2743 651 
Q 3003 894 3003 1313 
Q 3003 1734 2745 1975 
Q 2488 2216 2034 2216 
z
M 1403 2484 
Q 997 2584 770 2862 
Q 544 3141 544 3541 
Q 544 4100 942 4425 
Q 1341 4750 2034 4750 
Q 2731 4750 3128 4425 
Q 3525 4100 3525 3541 
Q 3525 3141 3298 2862 
Q 3072 2584 2669 2484 
Q 3125 2378 3379 2068 
Q 3634 1759 3634 1313 
Q 3634 634 3220 271 
Q 2806 -91 2034 -91 
Q 1263 -91 848 271 
Q 434 634 434 1313 
Q 434 1759 690 2068 
Q 947 2378 1403 2484 
z
M 1172 3481 
Q 1172 3119 1398 2916 
Q 1625 2713 2034 2713 
Q 2441 2713 2670 2916 
Q 2900 3119 2900 3481 
Q 2900 3844 2670 4047 
Q 2441 4250 2034 4250 
Q 1625 4250 1398 4047 
Q 1172 3844 1172 3481 
z
" transform="scale(0.015625)"/>
       </defs>
       <use xlink:href="#DejaVuSans-30"/>
       <use xlink:href="#DejaVuSans-2e" x="63.623047"/>
       <use xlink:href="#DejaVuSans-38" x="95.410156"/>
      </g>
     </g>
    </g>
    <g id="xtick_4">
     <g id="line2d_4">
      <g>
       <use xlink:href="#m364bf71daf" x="382.53369" y="256.32" style="stroke: #000000; stroke-width: 0.8"/>
      </g>
     </g>
     <g id="text_4">
      <!-- 1.0 -->
      <g transform="translate(363.44994 281.55625) scale(0.24 -0.24)">
       <defs>
        <path id="DejaVuSans-31" d="M 794 531 
L 1825 531 
L 1825 4091 
L 703 3866 
L 703 4441 
L 1819 4666 
L 2450 4666 
L 2450 531 
L 3481 531 
L 3481 0 
L 794 0 
L 794 531 
z
" transform="scale(0.015625)"/>
       </defs>
       <use xlink:href="#DejaVuSans-31"/>
       <use xlink:href="#DejaVuSans-2e" x="63.623047"/>
       <use xlink:href="#DejaVuSans-30" x="95.410156"/>
      </g>
     </g>
    </g>
    <g id="text_5">
     <!-- $\eta$ -->
     <g transform="translate(213.72 308.735) scale(0.24 -0.24)">
      <defs>
       <path id="DejaVuSans-Oblique-3b7" d="M 3703 2113 
L 3034 -1331 
L 2459 -1331 
L 3125 2094 
Q 3222 2591 3075 2838 
Q 2931 3084 2544 3084 
Q 2078 3084 1750 2788 
Q 1425 2491 1325 1978 
L 941 0 
L 363 0 
L 1044 3500 
L 1622 3500 
L 1516 2956 
Q 1781 3272 2094 3428 
Q 2403 3584 2769 3584 
Q 3372 3584 3609 3213 
Q 3844 2838 3703 2113 
z
" transform="scale(0.015625)"/>
      </defs>
      <use xlink:href="#DejaVuSans-Oblique-3b7"/>
     </g>
    </g>
   </g>
   <g id="matplotlib.axis_2">
    <g id="ytick_1">
     <g id="line2d_5">
      <defs>
       <path id="m1d75773976" d="M 0 0 
L -3.5 0 
" style="stroke: #000000; stroke-width: 0.8"/>
      </defs>
      <g>
       <use xlink:href="#m1d75773976" x="54" y="256.32" style="stroke: #000000; stroke-width: 0.8"/>
      </g>
     </g>
     <g id="text_6">
      <!-- 0 -->
      <g transform="translate(31.73 265.438125) scale(0.24 -0.24)">
       <use xlink:href="#DejaVuSans-30"/>
      </g>
     </g>
    </g>
    <g id="ytick_2">
     <g id="line2d_6">
      <g>
       <use xlink:href="#m1d75773976" x="54" y="182.4" style="stroke: #000000; stroke-width: 0.8"/>
      </g>
     </g>
     <g id="text_7">
      <!-- 5 -->
      <g transform="translate(31.73 191.518125) scale(0.24 -0.24)">
       <defs>
        <path id="DejaVuSans-35" d="M 691 4666 
L 3169 4666 
L 3169 4134 
L 1269 4134 
L 1269 2991 
Q 1406 3038 1543 3061 
Q 1681 3084 1819 3084 
Q 2600 3084 3056 2656 
Q 3513 2228 3513 1497 
Q 3513 744 3044 326 
Q 2575 -91 1722 -91 
Q 1428 -91 1123 -41 
Q 819 9 494 109 
L 494 744 
Q 775 591 1075 516 
Q 1375 441 1709 441 
Q 2250 441 2565 725 
Q 2881 1009 2881 1497 
Q 2881 1984 2565 2268 
Q 2250 2553 1709 2553 
Q 1456 2553 1204 2497 
Q 953 2441 691 2322 
L 691 4666 
z
" transform="scale(0.015625)"/>
       </defs>
       <use xlink:href="#DejaVuSans-35"/>
      </g>
     </g>
    </g>
    <g id="ytick_3">
     <g id="line2d_7">
      <g>
       <use xlink:href="#m1d75773976" x="54" y="108.48" style="stroke: #000000; stroke-width: 0.8"/>
      </g>
     </g>
     <g id="text_8">
      <!-- 10 -->
      <g transform="translate(16.46 117.598125) scale(0.24 -0.24)">
       <use xlink:href="#DejaVuSans-31"/>
       <use xlink:href="#DejaVuSans-30" x="63.623047"/>
      </g>
     </g>
    </g>
    <g id="ytick_4">
     <g id="line2d_8">
      <g>
       <use xlink:href="#m1d75773976" x="54" y="34.56" style="stroke: #000000; stroke-width: 0.8"/>
      </g>
     </g>
     <g id="text_9">
      <!-- 15 -->
      <g transform="translate(16.46 43.678125) scale(0.24 -0.24)">
       <use xlink:href="#DejaVuSans-31"/>
       <use xlink:href="#DejaVuSans-35" x="63.623047"/>
      </g>
     </g>
    </g>
    <g id="text_10">
     <!-- Avg. time to  -->
     <g transform="translate(-19.406 222.076875) rotate(-90) scale(0.24 -0.24)">
      <defs>
       <path id="DejaVuSans-41" d="M 2188 4044 
L 1331 1722 
L 3047 1722 
L 2188 4044 
z
M 1831 4666 
L 2547 4666 
L 4325 0 
L 3669 0 
L 3244 1197 
L 1141 1197 
L 716 0 
L 50 0 
L 1831 4666 
z
" transform="scale(0.015625)"/>
       <path id="DejaVuSans-76" d="M 191 3500 
L 800 3500 
L 1894 563 
L 2988 3500 
L 3597 3500 
L 2284 0 
L 1503 0 
L 191 3500 
z
" transform="scale(0.015625)"/>
       <path id="DejaVuSans-67" d="M 2906 1791 
Q 2906 2416 2648 2759 
Q 2391 3103 1925 3103 
Q 1463 3103 1205 2759 
Q 947 2416 947 1791 
Q 947 1169 1205 825 
Q 1463 481 1925 481 
Q 2391 481 2648 825 
Q 2906 1169 2906 1791 
z
M 3481 434 
Q 3481 -459 3084 -895 
Q 2688 -1331 1869 -1331 
Q 1566 -1331 1297 -1286 
Q 1028 -1241 775 -1147 
L 775 -588 
Q 1028 -725 1275 -790 
Q 1522 -856 1778 -856 
Q 2344 -856 2625 -561 
Q 2906 -266 2906 331 
L 2906 616 
Q 2728 306 2450 153 
Q 2172 0 1784 0 
Q 1141 0 747 490 
Q 353 981 353 1791 
Q 353 2603 747 3093 
Q 1141 3584 1784 3584 
Q 2172 3584 2450 3431 
Q 2728 3278 2906 2969 
L 2906 3500 
L 3481 3500 
L 3481 434 
z
" transform="scale(0.015625)"/>
       <path id="DejaVuSans-20" transform="scale(0.015625)"/>
       <path id="DejaVuSans-74" d="M 1172 4494 
L 1172 3500 
L 2356 3500 
L 2356 3053 
L 1172 3053 
L 1172 1153 
Q 1172 725 1289 603 
Q 1406 481 1766 481 
L 2356 481 
L 2356 0 
L 1766 0 
Q 1100 0 847 248 
Q 594 497 594 1153 
L 594 3053 
L 172 3053 
L 172 3500 
L 594 3500 
L 594 4494 
L 1172 4494 
z
" transform="scale(0.015625)"/>
       <path id="DejaVuSans-69" d="M 603 3500 
L 1178 3500 
L 1178 0 
L 603 0 
L 603 3500 
z
M 603 4863 
L 1178 4863 
L 1178 4134 
L 603 4134 
L 603 4863 
z
" transform="scale(0.015625)"/>
       <path id="DejaVuSans-6d" d="M 3328 2828 
Q 3544 3216 3844 3400 
Q 4144 3584 4550 3584 
Q 5097 3584 5394 3201 
Q 5691 2819 5691 2113 
L 5691 0 
L 5113 0 
L 5113 2094 
Q 5113 2597 4934 2840 
Q 4756 3084 4391 3084 
Q 3944 3084 3684 2787 
Q 3425 2491 3425 1978 
L 3425 0 
L 2847 0 
L 2847 2094 
Q 2847 2600 2669 2842 
Q 2491 3084 2119 3084 
Q 1678 3084 1418 2786 
Q 1159 2488 1159 1978 
L 1159 0 
L 581 0 
L 581 3500 
L 1159 3500 
L 1159 2956 
Q 1356 3278 1631 3431 
Q 1906 3584 2284 3584 
Q 2666 3584 2933 3390 
Q 3200 3197 3328 2828 
z
" transform="scale(0.015625)"/>
       <path id="DejaVuSans-65" d="M 3597 1894 
L 3597 1613 
L 953 1613 
Q 991 1019 1311 708 
Q 1631 397 2203 397 
Q 2534 397 2845 478 
Q 3156 559 3463 722 
L 3463 178 
Q 3153 47 2828 -22 
Q 2503 -91 2169 -91 
Q 1331 -91 842 396 
Q 353 884 353 1716 
Q 353 2575 817 3079 
Q 1281 3584 2069 3584 
Q 2775 3584 3186 3129 
Q 3597 2675 3597 1894 
z
M 3022 2063 
Q 3016 2534 2758 2815 
Q 2500 3097 2075 3097 
Q 1594 3097 1305 2825 
Q 1016 2553 972 2059 
L 3022 2063 
z
" transform="scale(0.015625)"/>
       <path id="DejaVuSans-6f" d="M 1959 3097 
Q 1497 3097 1228 2736 
Q 959 2375 959 1747 
Q 959 1119 1226 758 
Q 1494 397 1959 397 
Q 2419 397 2687 759 
Q 2956 1122 2956 1747 
Q 2956 2369 2687 2733 
Q 2419 3097 1959 3097 
z
M 1959 3584 
Q 2709 3584 3137 3096 
Q 3566 2609 3566 1747 
Q 3566 888 3137 398 
Q 2709 -91 1959 -91 
Q 1206 -91 779 398 
Q 353 888 353 1747 
Q 353 2609 779 3096 
Q 1206 3584 1959 3584 
z
" transform="scale(0.015625)"/>
      </defs>
      <use xlink:href="#DejaVuSans-41"/>
      <use xlink:href="#DejaVuSans-76" x="62.533203"/>
      <use xlink:href="#DejaVuSans-67" x="121.712891"/>
      <use xlink:href="#DejaVuSans-2e" x="185.189453"/>
      <use xlink:href="#DejaVuSans-20" x="216.976562"/>
      <use xlink:href="#DejaVuSans-74" x="248.763672"/>
      <use xlink:href="#DejaVuSans-69" x="287.972656"/>
      <use xlink:href="#DejaVuSans-6d" x="315.755859"/>
      <use xlink:href="#DejaVuSans-65" x="413.167969"/>
      <use xlink:href="#DejaVuSans-20" x="474.691406"/>
      <use xlink:href="#DejaVuSans-74" x="506.478516"/>
      <use xlink:href="#DejaVuSans-6f" x="545.6875"/>
      <use xlink:href="#DejaVuSans-20" x="606.869141"/>
     </g>
     <!--  complete task -->
     <g transform="translate(7.46875 234.37875) rotate(-90) scale(0.24 -0.24)">
      <defs>
       <path id="DejaVuSans-63" d="M 3122 3366 
L 3122 2828 
Q 2878 2963 2633 3030 
Q 2388 3097 2138 3097 
Q 1578 3097 1268 2742 
Q 959 2388 959 1747 
Q 959 1106 1268 751 
Q 1578 397 2138 397 
Q 2388 397 2633 464 
Q 2878 531 3122 666 
L 3122 134 
Q 2881 22 2623 -34 
Q 2366 -91 2075 -91 
Q 1284 -91 818 406 
Q 353 903 353 1747 
Q 353 2603 823 3093 
Q 1294 3584 2113 3584 
Q 2378 3584 2631 3529 
Q 2884 3475 3122 3366 
z
" transform="scale(0.015625)"/>
       <path id="DejaVuSans-70" d="M 1159 525 
L 1159 -1331 
L 581 -1331 
L 581 3500 
L 1159 3500 
L 1159 2969 
Q 1341 3281 1617 3432 
Q 1894 3584 2278 3584 
Q 2916 3584 3314 3078 
Q 3713 2572 3713 1747 
Q 3713 922 3314 415 
Q 2916 -91 2278 -91 
Q 1894 -91 1617 61 
Q 1341 213 1159 525 
z
M 3116 1747 
Q 3116 2381 2855 2742 
Q 2594 3103 2138 3103 
Q 1681 3103 1420 2742 
Q 1159 2381 1159 1747 
Q 1159 1113 1420 752 
Q 1681 391 2138 391 
Q 2594 391 2855 752 
Q 3116 1113 3116 1747 
z
" transform="scale(0.015625)"/>
       <path id="DejaVuSans-6c" d="M 603 4863 
L 1178 4863 
L 1178 0 
L 603 0 
L 603 4863 
z
" transform="scale(0.015625)"/>
       <path id="DejaVuSans-61" d="M 2194 1759 
Q 1497 1759 1228 1600 
Q 959 1441 959 1056 
Q 959 750 1161 570 
Q 1363 391 1709 391 
Q 2188 391 2477 730 
Q 2766 1069 2766 1631 
L 2766 1759 
L 2194 1759 
z
M 3341 1997 
L 3341 0 
L 2766 0 
L 2766 531 
Q 2569 213 2275 61 
Q 1981 -91 1556 -91 
Q 1019 -91 701 211 
Q 384 513 384 1019 
Q 384 1609 779 1909 
Q 1175 2209 1959 2209 
L 2766 2209 
L 2766 2266 
Q 2766 2663 2505 2880 
Q 2244 3097 1772 3097 
Q 1472 3097 1187 3025 
Q 903 2953 641 2809 
L 641 3341 
Q 956 3463 1253 3523 
Q 1550 3584 1831 3584 
Q 2591 3584 2966 3190 
Q 3341 2797 3341 1997 
z
" transform="scale(0.015625)"/>
       <path id="DejaVuSans-73" d="M 2834 3397 
L 2834 2853 
Q 2591 2978 2328 3040 
Q 2066 3103 1784 3103 
Q 1356 3103 1142 2972 
Q 928 2841 928 2578 
Q 928 2378 1081 2264 
Q 1234 2150 1697 2047 
L 1894 2003 
Q 2506 1872 2764 1633 
Q 3022 1394 3022 966 
Q 3022 478 2636 193 
Q 2250 -91 1575 -91 
Q 1294 -91 989 -36 
Q 684 19 347 128 
L 347 722 
Q 666 556 975 473 
Q 1284 391 1588 391 
Q 1994 391 2212 530 
Q 2431 669 2431 922 
Q 2431 1156 2273 1281 
Q 2116 1406 1581 1522 
L 1381 1569 
Q 847 1681 609 1914 
Q 372 2147 372 2553 
Q 372 3047 722 3315 
Q 1072 3584 1716 3584 
Q 2034 3584 2315 3537 
Q 2597 3491 2834 3397 
z
" transform="scale(0.015625)"/>
       <path id="DejaVuSans-6b" d="M 581 4863 
L 1159 4863 
L 1159 1991 
L 2875 3500 
L 3609 3500 
L 1753 1863 
L 3688 0 
L 2938 0 
L 1159 1709 
L 1159 0 
L 581 0 
L 581 4863 
z
" transform="scale(0.015625)"/>
      </defs>
      <use xlink:href="#DejaVuSans-20"/>
      <use xlink:href="#DejaVuSans-63" x="31.787109"/>
      <use xlink:href="#DejaVuSans-6f" x="86.767578"/>
      <use xlink:href="#DejaVuSans-6d" x="147.949219"/>
      <use xlink:href="#DejaVuSans-70" x="245.361328"/>
      <use xlink:href="#DejaVuSans-6c" x="308.837891"/>
      <use xlink:href="#DejaVuSans-65" x="336.621094"/>
      <use xlink:href="#DejaVuSans-74" x="398.144531"/>
      <use xlink:href="#DejaVuSans-65" x="437.353516"/>
      <use xlink:href="#DejaVuSans-20" x="498.876953"/>
      <use xlink:href="#DejaVuSans-74" x="530.664062"/>
      <use xlink:href="#DejaVuSans-61" x="569.873047"/>
      <use xlink:href="#DejaVuSans-73" x="631.152344"/>
      <use xlink:href="#DejaVuSans-6b" x="683.251953"/>
     </g>
    </g>
   </g>
   <g id="LineCollection_1">
    <path clip-path="url(#pdd215c3156)" style="fill: none; stroke: #b7d4ea; stroke-width: 3"/>
    <path clip-path="url(#pdd215c3156)" style="fill: none; stroke: #b7d4ea; stroke-width: 3"/>
    <path clip-path="url(#pdd215c3156)" style="fill: none; stroke: #b7d4ea; stroke-width: 3"/>
    <path clip-path="url(#pdd215c3156)" style="fill: none; stroke: #b7d4ea; stroke-width: 3"/>
    <path clip-path="url(#pdd215c3156)" style="fill: none; stroke: #b7d4ea; stroke-width: 3"/>
    <path d="M 238.309091 49.344 
L 238.309091 49.344 
" clip-path="url(#pdd215c3156)" style="fill: none; stroke: #b7d4ea; stroke-width: 3"/>
    <path d="M 272.127273 49.344 
L 272.127273 49.344 
" clip-path="url(#pdd215c3156)" style="fill: none; stroke: #b7d4ea; stroke-width: 3"/>
    <path d="M 305.945455 49.344 
L 305.945455 49.344 
" clip-path="url(#pdd215c3156)" style="fill: none; stroke: #b7d4ea; stroke-width: 3"/>
    <path d="M 339.763636 49.344 
L 339.763636 49.344 
" clip-path="url(#pdd215c3156)" style="fill: none; stroke: #b7d4ea; stroke-width: 3"/>
    <path d="M 373.581818 49.344 
L 373.581818 49.344 
" clip-path="url(#pdd215c3156)" style="fill: none; stroke: #b7d4ea; stroke-width: 3"/>
   </g>
   <g id="LineCollection_2">
    <path clip-path="url(#pdd215c3156)" style="fill: none; stroke: #60a7d2; stroke-width: 3"/>
    <path clip-path="url(#pdd215c3156)" style="fill: none; stroke: #60a7d2; stroke-width: 3"/>
    <path d="M 136.854545 49.344 
L 136.854545 49.344 
" clip-path="url(#pdd215c3156)" style="fill: none; stroke: #60a7d2; stroke-width: 3"/>
    <path d="M 170.672727 51.192 
L 170.672727 49.344 
" clip-path="url(#pdd215c3156)" style="fill: none; stroke: #60a7d2; stroke-width: 3"/>
    <path d="M 204.490909 49.344 
L 204.490909 49.344 
" clip-path="url(#pdd215c3156)" style="fill: none; stroke: #60a7d2; stroke-width: 3"/>
    <path d="M 238.309091 49.564657 
L 238.309091 49.344 
" clip-path="url(#pdd215c3156)" style="fill: none; stroke: #60a7d2; stroke-width: 3"/>
    <path d="M 272.127273 49.705872 
L 272.127273 49.48328 
" clip-path="url(#pdd215c3156)" style="fill: none; stroke: #60a7d2; stroke-width: 3"/>
    <path d="M 305.945455 49.890618 
L 305.945455 49.64826 
" clip-path="url(#pdd215c3156)" style="fill: none; stroke: #60a7d2; stroke-width: 3"/>
    <path d="M 339.763636 49.678882 
L 339.763636 49.49612 
" clip-path="url(#pdd215c3156)" style="fill: none; stroke: #60a7d2; stroke-width: 3"/>
    <path d="M 373.581818 49.383372 
L 373.581818 49.344 
" clip-path="url(#pdd215c3156)" style="fill: none; stroke: #60a7d2; stroke-width: 3"/>
   </g>
   <g id="LineCollection_3">
    <path d="M 69.218182 64.943565 
L 69.218182 62.988697 
" clip-path="url(#pdd215c3156)" style="fill: none; stroke: #1d6cb1; stroke-width: 3"/>
    <path d="M 103.036364 67.171421 
L 103.036364 65.65925 
" clip-path="url(#pdd215c3156)" style="fill: none; stroke: #1d6cb1; stroke-width: 3"/>
    <path d="M 136.854545 71.074885 
L 136.854545 69.577773 
" clip-path="url(#pdd215c3156)" style="fill: none; stroke: #1d6cb1; stroke-width: 3"/>
    <path d="M 170.672727 73.071291 
L 170.672727 71.615631 
" clip-path="url(#pdd215c3156)" style="fill: none; stroke: #1d6cb1; stroke-width: 3"/>
    <path d="M 204.490909 76.837286 
L 204.490909 75.356359 
" clip-path="url(#pdd215c3156)" style="fill: none; stroke: #1d6cb1; stroke-width: 3"/>
    <path d="M 238.309091 78.050553 
L 238.309091 76.566506 
" clip-path="url(#pdd215c3156)" style="fill: none; stroke: #1d6cb1; stroke-width: 3"/>
    <path d="M 272.127273 79.551808 
L 272.127273 78.055008 
" clip-path="url(#pdd215c3156)" style="fill: none; stroke: #1d6cb1; stroke-width: 3"/>
    <path d="M 305.945455 83.852429 
L 305.945455 82.090653 
" clip-path="url(#pdd215c3156)" style="fill: none; stroke: #1d6cb1; stroke-width: 3"/>
    <path d="M 339.763636 84.345927 
L 339.763636 82.575919 
" clip-path="url(#pdd215c3156)" style="fill: none; stroke: #1d6cb1; stroke-width: 3"/>
    <path d="M 373.581818 81.496554 
L 373.581818 79.698974 
" clip-path="url(#pdd215c3156)" style="fill: none; stroke: #1d6cb1; stroke-width: 3"/>
   </g>
   <g id="LineCollection_4">
    <path d="M 69.218182 85.424758 
L 69.218182 83.059157 
" clip-path="url(#pdd215c3156)" style="fill: none; stroke: #08306b; stroke-width: 3"/>
    <path d="M 103.036364 94.937854 
L 103.036364 92.674803 
" clip-path="url(#pdd215c3156)" style="fill: none; stroke: #08306b; stroke-width: 3"/>
    <path d="M 136.854545 106.149591 
L 136.854545 103.825089 
" clip-path="url(#pdd215c3156)" style="fill: none; stroke: #08306b; stroke-width: 3"/>
    <path d="M 170.672727 120.212675 
L 170.672727 117.66808 
" clip-path="url(#pdd215c3156)" style="fill: none; stroke: #08306b; stroke-width: 3"/>
    <path d="M 204.490909 135.222556 
L 204.490909 132.575231 
" clip-path="url(#pdd215c3156)" style="fill: none; stroke: #08306b; stroke-width: 3"/>
    <path d="M 238.309091 150.482131 
L 238.309091 147.745428 
" clip-path="url(#pdd215c3156)" style="fill: none; stroke: #08306b; stroke-width: 3"/>
    <path d="M 272.127273 164.753726 
L 272.127273 162.169666 
" clip-path="url(#pdd215c3156)" style="fill: none; stroke: #08306b; stroke-width: 3"/>
    <path d="M 305.945455 177.117777 
L 305.945455 174.748073 
" clip-path="url(#pdd215c3156)" style="fill: none; stroke: #08306b; stroke-width: 3"/>
    <path d="M 339.763636 187.359548 
L 339.763636 185.039428 
" clip-path="url(#pdd215c3156)" style="fill: none; stroke: #08306b; stroke-width: 3"/>
    <path d="M 373.581818 200.472226 
L 373.581818 198.301406 
" clip-path="url(#pdd215c3156)" style="fill: none; stroke: #08306b; stroke-width: 3"/>
   </g>
   <g id="line2d_9">
    <path d="M 170.672727 49.344 
M 238.309091 49.344 
L 272.127273 49.344 
L 305.945455 49.344 
L 339.763636 49.344 
L 373.581818 49.344 
" clip-path="url(#pdd215c3156)" style="fill: none; stroke-dasharray: 11.1,4.8; stroke-dashoffset: 0; stroke: #b7d4ea; stroke-width: 3"/>
    <defs>
     <path id="mcec6209bee" d="M 0 3 
C 0.795609 3 1.55874 2.683901 2.12132 2.12132 
C 2.683901 1.55874 3 0.795609 3 0 
C 3 -0.795609 2.683901 -1.55874 2.12132 -2.12132 
C 1.55874 -2.683901 0.795609 -3 0 -3 
C -0.795609 -3 -1.55874 -2.683901 -2.12132 -2.12132 
C -2.683901 -1.55874 -3 -0.795609 -3 0 
C -3 0.795609 -2.683901 1.55874 -2.12132 2.12132 
C -1.55874 2.683901 -0.795609 3 0 3 
z
" style="stroke: #b7d4ea"/>
    </defs>
    <g clip-path="url(#pdd215c3156)">
     <use xlink:href="#mcec6209bee" x="170.672727" y="49.344" style="fill: #b7d4ea; stroke: #b7d4ea"/>
     <use xlink:href="#mcec6209bee" x="238.309091" y="49.344" style="fill: #b7d4ea; stroke: #b7d4ea"/>
     <use xlink:href="#mcec6209bee" x="272.127273" y="49.344" style="fill: #b7d4ea; stroke: #b7d4ea"/>
     <use xlink:href="#mcec6209bee" x="305.945455" y="49.344" style="fill: #b7d4ea; stroke: #b7d4ea"/>
     <use xlink:href="#mcec6209bee" x="339.763636" y="49.344" style="fill: #b7d4ea; stroke: #b7d4ea"/>
     <use xlink:href="#mcec6209bee" x="373.581818" y="49.344" style="fill: #b7d4ea; stroke: #b7d4ea"/>
    </g>
   </g>
   <g id="line2d_10">
    <path d="M 136.854545 49.344 
L 170.672727 50.268 
L 204.490909 49.344 
L 238.309091 49.454328 
L 272.127273 49.594576 
L 305.945455 49.769439 
L 339.763636 49.587501 
L 373.581818 49.363686 
" clip-path="url(#pdd215c3156)" style="fill: none; stroke-dasharray: 11.1,4.8; stroke-dashoffset: 0; stroke: #60a7d2; stroke-width: 3"/>
    <defs>
     <path id="m1970634b97" d="M 0 3 
C 0.795609 3 1.55874 2.683901 2.12132 2.12132 
C 2.683901 1.55874 3 0.795609 3 0 
C 3 -0.795609 2.683901 -1.55874 2.12132 -2.12132 
C 1.55874 -2.683901 0.795609 -3 0 -3 
C -0.795609 -3 -1.55874 -2.683901 -2.12132 -2.12132 
C -2.683901 -1.55874 -3 -0.795609 -3 0 
C -3 0.795609 -2.683901 1.55874 -2.12132 2.12132 
C -1.55874 2.683901 -0.795609 3 0 3 
z
" style="stroke: #60a7d2"/>
    </defs>
    <g clip-path="url(#pdd215c3156)">
     <use xlink:href="#m1970634b97" x="136.854545" y="49.344" style="fill: #60a7d2; stroke: #60a7d2"/>
     <use xlink:href="#m1970634b97" x="170.672727" y="50.268" style="fill: #60a7d2; stroke: #60a7d2"/>
     <use xlink:href="#m1970634b97" x="204.490909" y="49.344" style="fill: #60a7d2; stroke: #60a7d2"/>
     <use xlink:href="#m1970634b97" x="238.309091" y="49.454328" style="fill: #60a7d2; stroke: #60a7d2"/>
     <use xlink:href="#m1970634b97" x="272.127273" y="49.594576" style="fill: #60a7d2; stroke: #60a7d2"/>
     <use xlink:href="#m1970634b97" x="305.945455" y="49.769439" style="fill: #60a7d2; stroke: #60a7d2"/>
     <use xlink:href="#m1970634b97" x="339.763636" y="49.587501" style="fill: #60a7d2; stroke: #60a7d2"/>
     <use xlink:href="#m1970634b97" x="373.581818" y="49.363686" style="fill: #60a7d2; stroke: #60a7d2"/>
    </g>
   </g>
   <g id="line2d_11">
    <path d="M 69.218182 63.966131 
L 103.036364 66.415336 
L 136.854545 70.326329 
L 170.672727 72.343461 
L 204.490909 76.096822 
L 238.309091 77.308529 
L 272.127273 78.803408 
L 305.945455 82.971541 
L 339.763636 83.460923 
L 373.581818 80.597764 
" clip-path="url(#pdd215c3156)" style="fill: none; stroke-dasharray: 11.1,4.8; stroke-dashoffset: 0; stroke: #1d6cb1; stroke-width: 3"/>
    <defs>
     <path id="m6cd54c5608" d="M 0 3 
C 0.795609 3 1.55874 2.683901 2.12132 2.12132 
C 2.683901 1.55874 3 0.795609 3 0 
C 3 -0.795609 2.683901 -1.55874 2.12132 -2.12132 
C 1.55874 -2.683901 0.795609 -3 0 -3 
C -0.795609 -3 -1.55874 -2.683901 -2.12132 -2.12132 
C -2.683901 -1.55874 -3 -0.795609 -3 0 
C -3 0.795609 -2.683901 1.55874 -2.12132 2.12132 
C -1.55874 2.683901 -0.795609 3 0 3 
z
" style="stroke: #1d6cb1"/>
    </defs>
    <g clip-path="url(#pdd215c3156)">
     <use xlink:href="#m6cd54c5608" x="69.218182" y="63.966131" style="fill: #1d6cb1; stroke: #1d6cb1"/>
     <use xlink:href="#m6cd54c5608" x="103.036364" y="66.415336" style="fill: #1d6cb1; stroke: #1d6cb1"/>
     <use xlink:href="#m6cd54c5608" x="136.854545" y="70.326329" style="fill: #1d6cb1; stroke: #1d6cb1"/>
     <use xlink:href="#m6cd54c5608" x="170.672727" y="72.343461" style="fill: #1d6cb1; stroke: #1d6cb1"/>
     <use xlink:href="#m6cd54c5608" x="204.490909" y="76.096822" style="fill: #1d6cb1; stroke: #1d6cb1"/>
     <use xlink:href="#m6cd54c5608" x="238.309091" y="77.308529" style="fill: #1d6cb1; stroke: #1d6cb1"/>
     <use xlink:href="#m6cd54c5608" x="272.127273" y="78.803408" style="fill: #1d6cb1; stroke: #1d6cb1"/>
     <use xlink:href="#m6cd54c5608" x="305.945455" y="82.971541" style="fill: #1d6cb1; stroke: #1d6cb1"/>
     <use xlink:href="#m6cd54c5608" x="339.763636" y="83.460923" style="fill: #1d6cb1; stroke: #1d6cb1"/>
     <use xlink:href="#m6cd54c5608" x="373.581818" y="80.597764" style="fill: #1d6cb1; stroke: #1d6cb1"/>
    </g>
   </g>
   <g id="line2d_12">
    <path d="M 69.218182 84.241958 
L 103.036364 93.806328 
L 136.854545 104.98734 
L 170.672727 118.940377 
L 204.490909 133.898894 
L 238.309091 149.11378 
L 272.127273 163.461696 
L 305.945455 175.932925 
L 339.763636 186.199488 
L 373.581818 199.386816 
" clip-path="url(#pdd215c3156)" style="fill: none; stroke-dasharray: 11.1,4.8; stroke-dashoffset: 0; stroke: #08306b; stroke-width: 3"/>
    <defs>
     <path id="mc490a4fe90" d="M 0 3 
C 0.795609 3 1.55874 2.683901 2.12132 2.12132 
C 2.683901 1.55874 3 0.795609 3 0 
C 3 -0.795609 2.683901 -1.55874 2.12132 -2.12132 
C 1.55874 -2.683901 0.795609 -3 0 -3 
C -0.795609 -3 -1.55874 -2.683901 -2.12132 -2.12132 
C -2.683901 -1.55874 -3 -0.795609 -3 0 
C -3 0.795609 -2.683901 1.55874 -2.12132 2.12132 
C -1.55874 2.683901 -0.795609 3 0 3 
z
" style="stroke: #08306b"/>
    </defs>
    <g clip-path="url(#pdd215c3156)">
     <use xlink:href="#mc490a4fe90" x="69.218182" y="84.241958" style="fill: #08306b; stroke: #08306b"/>
     <use xlink:href="#mc490a4fe90" x="103.036364" y="93.806328" style="fill: #08306b; stroke: #08306b"/>
     <use xlink:href="#mc490a4fe90" x="136.854545" y="104.98734" style="fill: #08306b; stroke: #08306b"/>
     <use xlink:href="#mc490a4fe90" x="170.672727" y="118.940377" style="fill: #08306b; stroke: #08306b"/>
     <use xlink:href="#mc490a4fe90" x="204.490909" y="133.898894" style="fill: #08306b; stroke: #08306b"/>
     <use xlink:href="#mc490a4fe90" x="238.309091" y="149.11378" style="fill: #08306b; stroke: #08306b"/>
     <use xlink:href="#mc490a4fe90" x="272.127273" y="163.461696" style="fill: #08306b; stroke: #08306b"/>
     <use xlink:href="#mc490a4fe90" x="305.945455" y="175.932925" style="fill: #08306b; stroke: #08306b"/>
     <use xlink:href="#mc490a4fe90" x="339.763636" y="186.199488" style="fill: #08306b; stroke: #08306b"/>
     <use xlink:href="#mc490a4fe90" x="373.581818" y="199.386816" style="fill: #08306b; stroke: #08306b"/>
    </g>
   </g>
   <g id="patch_3">
    <path d="M 54 256.32 
L 54 34.56 
" style="fill: none; stroke: #000000; stroke-width: 2; stroke-linejoin: miter; stroke-linecap: square"/>
   </g>
   <g id="patch_4">
    <path d="M 54 256.32 
L 388.8 256.32 
" style="fill: none; stroke: #000000; stroke-width: 2; stroke-linejoin: miter; stroke-linecap: square"/>
   </g>
   <g id="legend_1">
    <g id="LineCollection_5">
     <path d="M 70.709063 11.697187 
L 70.709063 -1 
" style="fill: none; stroke: #b7d4ea; stroke-width: 3"/>
    </g>
    <g id="line2d_13">
     <path d="M 52.709063 2.697187 
L 88.709063 2.697187 
" style="fill: none; stroke-dasharray: 11.1,4.8; stroke-dashoffset: 0; stroke: #b7d4ea; stroke-width: 3"/>
    </g>
    <g id="line2d_14">
     <g>
      <use xlink:href="#mcec6209bee" x="70.709063" y="2.697187" style="fill: #b7d4ea; stroke: #b7d4ea"/>
     </g>
    </g>
    <g id="text_11">
     <!-- 0.3 -->
     <g transform="translate(103.109063 8.997187) scale(0.18 -0.18)">
      <defs>
       <path id="DejaVuSans-33" d="M 2597 2516 
Q 3050 2419 3304 2112 
Q 3559 1806 3559 1356 
Q 3559 666 3084 287 
Q 2609 -91 1734 -91 
Q 1441 -91 1130 -33 
Q 819 25 488 141 
L 488 750 
Q 750 597 1062 519 
Q 1375 441 1716 441 
Q 2309 441 2620 675 
Q 2931 909 2931 1356 
Q 2931 1769 2642 2001 
Q 2353 2234 1838 2234 
L 1294 2234 
L 1294 2753 
L 1863 2753 
Q 2328 2753 2575 2939 
Q 2822 3125 2822 3475 
Q 2822 3834 2567 4026 
Q 2313 4219 1838 4219 
Q 1578 4219 1281 4162 
Q 984 4106 628 3988 
L 628 4550 
Q 988 4650 1302 4700 
Q 1616 4750 1894 4750 
Q 2613 4750 3031 4423 
Q 3450 4097 3450 3541 
Q 3450 3153 3228 2886 
Q 3006 2619 2597 2516 
z
" transform="scale(0.015625)"/>
      </defs>
      <use xlink:href="#DejaVuSans-30"/>
      <use xlink:href="#DejaVuSans-2e" x="63.623047"/>
      <use xlink:href="#DejaVuSans-33" x="95.410156"/>
     </g>
    </g>
    <g id="LineCollection_6">
     <path d="M 158.734688 11.697187 
L 158.734688 -1 
" style="fill: none; stroke: #60a7d2; stroke-width: 3"/>
    </g>
    <g id="line2d_15">
     <path d="M 140.734688 2.697187 
L 176.734688 2.697187 
" style="fill: none; stroke-dasharray: 11.1,4.8; stroke-dashoffset: 0; stroke: #60a7d2; stroke-width: 3"/>
    </g>
    <g id="line2d_16">
     <g>
      <use xlink:href="#m1970634b97" x="158.734688" y="2.697187" style="fill: #60a7d2; stroke: #60a7d2"/>
     </g>
    </g>
    <g id="text_12">
     <!-- 0.6 -->
     <g transform="translate(191.134688 8.997187) scale(0.18 -0.18)">
      <use xlink:href="#DejaVuSans-30"/>
      <use xlink:href="#DejaVuSans-2e" x="63.623047"/>
      <use xlink:href="#DejaVuSans-36" x="95.410156"/>
     </g>
    </g>
    <g id="LineCollection_7">
     <path d="M 246.760313 11.697187 
L 246.760313 -1 
" style="fill: none; stroke: #1d6cb1; stroke-width: 3"/>
    </g>
    <g id="line2d_17">
     <path d="M 228.760313 2.697187 
L 264.760313 2.697187 
" style="fill: none; stroke-dasharray: 11.1,4.8; stroke-dashoffset: 0; stroke: #1d6cb1; stroke-width: 3"/>
    </g>
    <g id="line2d_18">
     <g>
      <use xlink:href="#m6cd54c5608" x="246.760313" y="2.697187" style="fill: #1d6cb1; stroke: #1d6cb1"/>
     </g>
    </g>
    <g id="text_13">
     <!-- 0.95 -->
     <g transform="translate(279.160313 8.997187) scale(0.18 -0.18)">
      <defs>
       <path id="DejaVuSans-39" d="M 703 97 
L 703 672 
Q 941 559 1184 500 
Q 1428 441 1663 441 
Q 2288 441 2617 861 
Q 2947 1281 2994 2138 
Q 2813 1869 2534 1725 
Q 2256 1581 1919 1581 
Q 1219 1581 811 2004 
Q 403 2428 403 3163 
Q 403 3881 828 4315 
Q 1253 4750 1959 4750 
Q 2769 4750 3195 4129 
Q 3622 3509 3622 2328 
Q 3622 1225 3098 567 
Q 2575 -91 1691 -91 
Q 1453 -91 1209 -44 
Q 966 3 703 97 
z
M 1959 2075 
Q 2384 2075 2632 2365 
Q 2881 2656 2881 3163 
Q 2881 3666 2632 3958 
Q 2384 4250 1959 4250 
Q 1534 4250 1286 3958 
Q 1038 3666 1038 3163 
Q 1038 2656 1286 2365 
Q 1534 2075 1959 2075 
z
" transform="scale(0.015625)"/>
      </defs>
      <use xlink:href="#DejaVuSans-30"/>
      <use xlink:href="#DejaVuSans-2e" x="63.623047"/>
      <use xlink:href="#DejaVuSans-39" x="95.410156"/>
      <use xlink:href="#DejaVuSans-35" x="159.033203"/>
     </g>
    </g>
    <g id="LineCollection_8">
     <path d="M 346.238438 11.697187 
L 346.238438 -1 
" style="fill: none; stroke: #08306b; stroke-width: 3"/>
    </g>
    <g id="line2d_19">
     <path d="M 328.238438 2.697187 
L 364.238438 2.697187 
" style="fill: none; stroke-dasharray: 11.1,4.8; stroke-dashoffset: 0; stroke: #08306b; stroke-width: 3"/>
    </g>
    <g id="line2d_20">
     <g>
      <use xlink:href="#mc490a4fe90" x="346.238438" y="2.697187" style="fill: #08306b; stroke: #08306b"/>
     </g>
    </g>
    <g id="text_14">
     <!-- 1 -->
     <g transform="translate(378.638438 8.997187) scale(0.18 -0.18)">
      <use xlink:href="#DejaVuSans-31"/>
     </g>
    </g>
   </g>
  </g>
  <g id="text_15">
   <!-- $\gamma$ -->
   <g transform="translate(31.68 6.57375) scale(0.24 -0.24)">
    <defs>
     <path id="DejaVuSans-Oblique-3b3" d="M 1491 2950 
L 1838 788 
L 3456 3500 
L 4066 3500 
L 1972 0 
L 1713 -1331 
L 1138 -1331 
L 1397 0 
L 988 2613 
Q 925 3006 628 3006 
L 475 3006 
L 569 3500 
L 788 3500 
Q 1403 3500 1491 2950 
z
" transform="scale(0.015625)"/>
    </defs>
    <use xlink:href="#DejaVuSans-Oblique-3b3" transform="translate(0 0.3125)"/>
   </g>
  </g>
 </g>
 <defs>
  <clipPath id="pdd215c3156">
   <rect x="54" y="34.56" width="334.8" height="221.76"/>
  </clipPath>
 </defs>
</svg>
