<?xml version="1.0" encoding="utf-8" standalone="no"?>
<!DOCTYPE svg PUBLIC "-//W3C//DTD SVG 1.1//EN"
  "http://www.w3.org/Graphics/SVG/1.1/DTD/svg11.dtd">
<svg xmlns:xlink="http://www.w3.org/1999/xlink" width="432pt" height="288pt" viewBox="0 0 432 288" xmlns="http://www.w3.org/2000/svg" version="1.1">
 <metadata>
  <rdf:RDF xmlns:dc="http://purl.org/dc/elements/1.1/" xmlns:cc="http://creativecommons.org/ns#" xmlns:rdf="http://www.w3.org/1999/02/22-rdf-syntax-ns#">
   <cc:Work>
    <dc:type rdf:resource="http://purl.org/dc/dcmitype/StillImage"/>
    <dc:date>2024-07-09T16:29:36.269063</dc:date>
    <dc:format>image/svg+xml</dc:format>
    <dc:creator>
     <cc:Agent>
      <dc:title>Matplotlib v3.8.0, https://matplotlib.org/</dc:title>
     </cc:Agent>
    </dc:creator>
   </cc:Work>
  </rdf:RDF>
 </metadata>
 <defs>
  <style type="text/css">*{stroke-linejoin: round; stroke-linecap: butt}</style>
 </defs>
 <g id="figure_1">
  <g id="patch_1">
   <path d="M 0 288 
L 432 288 
L 432 0 
L 0 0 
z
" style="fill: #ffffff"/>
  </g>
  <g id="axes_1">
   <g id="patch_2">
    <path d="M 54 252 
L 388.8 252 
L 388.8 34.56 
L 54 34.56 
z
" style="fill: #ffffff"/>
   </g>
   <g id="matplotlib.axis_1">
    <g id="xtick_1">
     <g id="line2d_1">
      <defs>
       <path id="mbfe048c8db" d="M 0 0 
L 0 3.5 
" style="stroke: #000000; stroke-width: 0.8"/>
      </defs>
      <g>
       <use xlink:href="#mbfe048c8db" x="69.218182" y="252" style="stroke: #000000; stroke-width: 0.8"/>
      </g>
     </g>
     <g id="text_1">
      <!-- −1.0 -->
      <g transform="translate(40.078807 277.23625) scale(0.24 -0.24)">
       <defs>
        <path id="DejaVuSans-2212" d="M 678 2272 
L 4684 2272 
L 4684 1741 
L 678 1741 
L 678 2272 
z
" transform="scale(0.015625)"/>
        <path id="DejaVuSans-31" d="M 794 531 
L 1825 531 
L 1825 4091 
L 703 3866 
L 703 4441 
L 1819 4666 
L 2450 4666 
L 2450 531 
L 3481 531 
L 3481 0 
L 794 0 
L 794 531 
z
" transform="scale(0.015625)"/>
        <path id="DejaVuSans-2e" d="M 684 794 
L 1344 794 
L 1344 0 
L 684 0 
L 684 794 
z
" transform="scale(0.015625)"/>
        <path id="DejaVuSans-30" d="M 2034 4250 
Q 1547 4250 1301 3770 
Q 1056 3291 1056 2328 
Q 1056 1369 1301 889 
Q 1547 409 2034 409 
Q 2525 409 2770 889 
Q 3016 1369 3016 2328 
Q 3016 3291 2770 3770 
Q 2525 4250 2034 4250 
z
M 2034 4750 
Q 2819 4750 3233 4129 
Q 3647 3509 3647 2328 
Q 3647 1150 3233 529 
Q 2819 -91 2034 -91 
Q 1250 -91 836 529 
Q 422 1150 422 2328 
Q 422 3509 836 4129 
Q 1250 4750 2034 4750 
z
" transform="scale(0.015625)"/>
       </defs>
       <use xlink:href="#DejaVuSans-2212"/>
       <use xlink:href="#DejaVuSans-31" x="83.789062"/>
       <use xlink:href="#DejaVuSans-2e" x="147.412109"/>
       <use xlink:href="#DejaVuSans-30" x="179.199219"/>
      </g>
     </g>
    </g>
    <g id="xtick_2">
     <g id="line2d_2">
      <g>
       <use xlink:href="#mbfe048c8db" x="156.179221" y="252" style="stroke: #000000; stroke-width: 0.8"/>
      </g>
     </g>
     <g id="text_2">
      <!-- −0.8 -->
      <g transform="translate(127.039846 277.23625) scale(0.24 -0.24)">
       <defs>
        <path id="DejaVuSans-38" d="M 2034 2216 
Q 1584 2216 1326 1975 
Q 1069 1734 1069 1313 
Q 1069 891 1326 650 
Q 1584 409 2034 409 
Q 2484 409 2743 651 
Q 3003 894 3003 1313 
Q 3003 1734 2745 1975 
Q 2488 2216 2034 2216 
z
M 1403 2484 
Q 997 2584 770 2862 
Q 544 3141 544 3541 
Q 544 4100 942 4425 
Q 1341 4750 2034 4750 
Q 2731 4750 3128 4425 
Q 3525 4100 3525 3541 
Q 3525 3141 3298 2862 
Q 3072 2584 2669 2484 
Q 3125 2378 3379 2068 
Q 3634 1759 3634 1313 
Q 3634 634 3220 271 
Q 2806 -91 2034 -91 
Q 1263 -91 848 271 
Q 434 634 434 1313 
Q 434 1759 690 2068 
Q 947 2378 1403 2484 
z
M 1172 3481 
Q 1172 3119 1398 2916 
Q 1625 2713 2034 2713 
Q 2441 2713 2670 2916 
Q 2900 3119 2900 3481 
Q 2900 3844 2670 4047 
Q 2441 4250 2034 4250 
Q 1625 4250 1398 4047 
Q 1172 3844 1172 3481 
z
" transform="scale(0.015625)"/>
       </defs>
       <use xlink:href="#DejaVuSans-2212"/>
       <use xlink:href="#DejaVuSans-30" x="83.789062"/>
       <use xlink:href="#DejaVuSans-2e" x="147.412109"/>
       <use xlink:href="#DejaVuSans-38" x="179.199219"/>
      </g>
     </g>
    </g>
    <g id="xtick_3">
     <g id="line2d_3">
      <g>
       <use xlink:href="#mbfe048c8db" x="243.14026" y="252" style="stroke: #000000; stroke-width: 0.8"/>
      </g>
     </g>
     <g id="text_3">
      <!-- −0.6 -->
      <g transform="translate(214.000885 277.23625) scale(0.24 -0.24)">
       <defs>
        <path id="DejaVuSans-36" d="M 2113 2584 
Q 1688 2584 1439 2293 
Q 1191 2003 1191 1497 
Q 1191 994 1439 701 
Q 1688 409 2113 409 
Q 2538 409 2786 701 
Q 3034 994 3034 1497 
Q 3034 2003 2786 2293 
Q 2538 2584 2113 2584 
z
M 3366 4563 
L 3366 3988 
Q 3128 4100 2886 4159 
Q 2644 4219 2406 4219 
Q 1781 4219 1451 3797 
Q 1122 3375 1075 2522 
Q 1259 2794 1537 2939 
Q 1816 3084 2150 3084 
Q 2853 3084 3261 2657 
Q 3669 2231 3669 1497 
Q 3669 778 3244 343 
Q 2819 -91 2113 -91 
Q 1303 -91 875 529 
Q 447 1150 447 2328 
Q 447 3434 972 4092 
Q 1497 4750 2381 4750 
Q 2619 4750 2861 4703 
Q 3103 4656 3366 4563 
z
" transform="scale(0.015625)"/>
       </defs>
       <use xlink:href="#DejaVuSans-2212"/>
       <use xlink:href="#DejaVuSans-30" x="83.789062"/>
       <use xlink:href="#DejaVuSans-2e" x="147.412109"/>
       <use xlink:href="#DejaVuSans-36" x="179.199219"/>
      </g>
     </g>
    </g>
    <g id="xtick_4">
     <g id="line2d_4">
      <g>
       <use xlink:href="#mbfe048c8db" x="330.101299" y="252" style="stroke: #000000; stroke-width: 0.8"/>
      </g>
     </g>
     <g id="text_4">
      <!-- −0.4 -->
      <g transform="translate(300.961924 277.23625) scale(0.24 -0.24)">
       <defs>
        <path id="DejaVuSans-34" d="M 2419 4116 
L 825 1625 
L 2419 1625 
L 2419 4116 
z
M 2253 4666 
L 3047 4666 
L 3047 1625 
L 3713 1625 
L 3713 1100 
L 3047 1100 
L 3047 0 
L 2419 0 
L 2419 1100 
L 313 1100 
L 313 1709 
L 2253 4666 
z
" transform="scale(0.015625)"/>
       </defs>
       <use xlink:href="#DejaVuSans-2212"/>
       <use xlink:href="#DejaVuSans-30" x="83.789062"/>
       <use xlink:href="#DejaVuSans-2e" x="147.412109"/>
       <use xlink:href="#DejaVuSans-34" x="179.199219"/>
      </g>
     </g>
    </g>
    <g id="text_5">
     <!-- $r_{effort}$ -->
     <g transform="translate(193.08 304.46375) scale(0.24 -0.24)">
      <defs>
       <path id="DejaVuSans-Oblique-72" d="M 2853 2969 
Q 2766 3016 2653 3041 
Q 2541 3066 2413 3066 
Q 1953 3066 1609 2717 
Q 1266 2369 1153 1784 
L 800 0 
L 225 0 
L 909 3500 
L 1484 3500 
L 1375 2956 
Q 1603 3259 1920 3421 
Q 2238 3584 2597 3584 
Q 2691 3584 2781 3573 
Q 2872 3563 2963 3538 
L 2853 2969 
z
" transform="scale(0.015625)"/>
       <path id="DejaVuSans-Oblique-65" d="M 3078 2063 
Q 3088 2113 3092 2166 
Q 3097 2219 3097 2272 
Q 3097 2653 2873 2875 
Q 2650 3097 2266 3097 
Q 1838 3097 1509 2826 
Q 1181 2556 1013 2059 
L 3078 2063 
z
M 3578 1613 
L 903 1613 
Q 884 1494 878 1425 
Q 872 1356 872 1306 
Q 872 872 1139 634 
Q 1406 397 1894 397 
Q 2269 397 2603 481 
Q 2938 566 3225 728 
L 3116 159 
Q 2806 34 2476 -28 
Q 2147 -91 1806 -91 
Q 1078 -91 686 257 
Q 294 606 294 1247 
Q 294 1794 489 2264 
Q 684 2734 1063 3103 
Q 1306 3334 1642 3459 
Q 1978 3584 2356 3584 
Q 2950 3584 3301 3228 
Q 3653 2872 3653 2272 
Q 3653 2128 3634 1964 
Q 3616 1800 3578 1613 
z
" transform="scale(0.015625)"/>
       <path id="DejaVuSans-Oblique-66" d="M 3059 4863 
L 2969 4384 
L 2419 4384 
Q 2106 4384 1964 4261 
Q 1822 4138 1753 3809 
L 1691 3500 
L 2638 3500 
L 2553 3053 
L 1606 3053 
L 1013 0 
L 434 0 
L 1031 3053 
L 481 3053 
L 563 3500 
L 1113 3500 
L 1159 3744 
Q 1278 4363 1576 4613 
Q 1875 4863 2516 4863 
L 3059 4863 
z
" transform="scale(0.015625)"/>
       <path id="DejaVuSans-Oblique-6f" d="M 1625 -91 
Q 1009 -91 651 289 
Q 294 669 294 1325 
Q 294 1706 417 2101 
Q 541 2497 738 2766 
Q 1047 3184 1428 3384 
Q 1809 3584 2291 3584 
Q 2888 3584 3255 3212 
Q 3622 2841 3622 2241 
Q 3622 1825 3500 1412 
Q 3378 1000 3181 728 
Q 2875 309 2494 109 
Q 2113 -91 1625 -91 
z
M 891 1344 
Q 891 869 1089 633 
Q 1288 397 1691 397 
Q 2269 397 2648 901 
Q 3028 1406 3028 2181 
Q 3028 2634 2825 2865 
Q 2622 3097 2228 3097 
Q 1903 3097 1650 2945 
Q 1397 2794 1197 2484 
Q 1050 2253 970 1956 
Q 891 1659 891 1344 
z
" transform="scale(0.015625)"/>
       <path id="DejaVuSans-Oblique-74" d="M 2706 3500 
L 2619 3053 
L 1472 3053 
L 1100 1153 
Q 1081 1047 1072 975 
Q 1063 903 1063 863 
Q 1063 663 1183 572 
Q 1303 481 1569 481 
L 2150 481 
L 2053 0 
L 1503 0 
Q 991 0 739 200 
Q 488 400 488 806 
Q 488 878 497 964 
Q 506 1050 525 1153 
L 897 3053 
L 409 3053 
L 500 3500 
L 978 3500 
L 1172 4494 
L 1747 4494 
L 1556 3500 
L 2706 3500 
z
" transform="scale(0.015625)"/>
      </defs>
      <use xlink:href="#DejaVuSans-Oblique-72"/>
      <use xlink:href="#DejaVuSans-Oblique-65" transform="translate(41.113281 -16.40625) scale(0.7)"/>
      <use xlink:href="#DejaVuSans-Oblique-66" transform="translate(84.179687 -16.40625) scale(0.7)"/>
      <use xlink:href="#DejaVuSans-Oblique-66" transform="translate(108.823242 -16.40625) scale(0.7)"/>
      <use xlink:href="#DejaVuSans-Oblique-6f" transform="translate(133.466797 -16.40625) scale(0.7)"/>
      <use xlink:href="#DejaVuSans-Oblique-72" transform="translate(176.293945 -16.40625) scale(0.7)"/>
      <use xlink:href="#DejaVuSans-Oblique-74" transform="translate(205.073242 -16.40625) scale(0.7)"/>
     </g>
    </g>
   </g>
   <g id="matplotlib.axis_2">
    <g id="ytick_1">
     <g id="line2d_5">
      <defs>
       <path id="mef9642368f" d="M 0 0 
L -3.5 0 
" style="stroke: #000000; stroke-width: 0.8"/>
      </defs>
      <g>
       <use xlink:href="#mef9642368f" x="54" y="252" style="stroke: #000000; stroke-width: 0.8"/>
      </g>
     </g>
     <g id="text_6">
      <!-- 0 -->
      <g transform="translate(31.73 261.118125) scale(0.24 -0.24)">
       <use xlink:href="#DejaVuSans-30"/>
      </g>
     </g>
    </g>
    <g id="ytick_2">
     <g id="line2d_6">
      <g>
       <use xlink:href="#mef9642368f" x="54" y="182.683915" style="stroke: #000000; stroke-width: 0.8"/>
      </g>
     </g>
     <g id="text_7">
      <!-- 5 -->
      <g transform="translate(31.73 191.80204) scale(0.24 -0.24)">
       <defs>
        <path id="DejaVuSans-35" d="M 691 4666 
L 3169 4666 
L 3169 4134 
L 1269 4134 
L 1269 2991 
Q 1406 3038 1543 3061 
Q 1681 3084 1819 3084 
Q 2600 3084 3056 2656 
Q 3513 2228 3513 1497 
Q 3513 744 3044 326 
Q 2575 -91 1722 -91 
Q 1428 -91 1123 -41 
Q 819 9 494 109 
L 494 744 
Q 775 591 1075 516 
Q 1375 441 1709 441 
Q 2250 441 2565 725 
Q 2881 1009 2881 1497 
Q 2881 1984 2565 2268 
Q 2250 2553 1709 2553 
Q 1456 2553 1204 2497 
Q 953 2441 691 2322 
L 691 4666 
z
" transform="scale(0.015625)"/>
       </defs>
       <use xlink:href="#DejaVuSans-35"/>
      </g>
     </g>
    </g>
    <g id="ytick_3">
     <g id="line2d_7">
      <g>
       <use xlink:href="#mef9642368f" x="54" y="113.36783" style="stroke: #000000; stroke-width: 0.8"/>
      </g>
     </g>
     <g id="text_8">
      <!-- 10 -->
      <g transform="translate(16.46 122.485955) scale(0.24 -0.24)">
       <use xlink:href="#DejaVuSans-31"/>
       <use xlink:href="#DejaVuSans-30" x="63.623047"/>
      </g>
     </g>
    </g>
    <g id="ytick_4">
     <g id="line2d_8">
      <g>
       <use xlink:href="#mef9642368f" x="54" y="44.051745" style="stroke: #000000; stroke-width: 0.8"/>
      </g>
     </g>
     <g id="text_9">
      <!-- 15 -->
      <g transform="translate(16.46 53.16987) scale(0.24 -0.24)">
       <use xlink:href="#DejaVuSans-31"/>
       <use xlink:href="#DejaVuSans-35" x="63.623047"/>
      </g>
     </g>
    </g>
    <g id="text_10">
     <!-- Avg. time to cross  -->
     <g transform="translate(-19.406 254.836875) rotate(-90) scale(0.24 -0.24)">
      <defs>
       <path id="DejaVuSans-41" d="M 2188 4044 
L 1331 1722 
L 3047 1722 
L 2188 4044 
z
M 1831 4666 
L 2547 4666 
L 4325 0 
L 3669 0 
L 3244 1197 
L 1141 1197 
L 716 0 
L 50 0 
L 1831 4666 
z
" transform="scale(0.015625)"/>
       <path id="DejaVuSans-76" d="M 191 3500 
L 800 3500 
L 1894 563 
L 2988 3500 
L 3597 3500 
L 2284 0 
L 1503 0 
L 191 3500 
z
" transform="scale(0.015625)"/>
       <path id="DejaVuSans-67" d="M 2906 1791 
Q 2906 2416 2648 2759 
Q 2391 3103 1925 3103 
Q 1463 3103 1205 2759 
Q 947 2416 947 1791 
Q 947 1169 1205 825 
Q 1463 481 1925 481 
Q 2391 481 2648 825 
Q 2906 1169 2906 1791 
z
M 3481 434 
Q 3481 -459 3084 -895 
Q 2688 -1331 1869 -1331 
Q 1566 -1331 1297 -1286 
Q 1028 -1241 775 -1147 
L 775 -588 
Q 1028 -725 1275 -790 
Q 1522 -856 1778 -856 
Q 2344 -856 2625 -561 
Q 2906 -266 2906 331 
L 2906 616 
Q 2728 306 2450 153 
Q 2172 0 1784 0 
Q 1141 0 747 490 
Q 353 981 353 1791 
Q 353 2603 747 3093 
Q 1141 3584 1784 3584 
Q 2172 3584 2450 3431 
Q 2728 3278 2906 2969 
L 2906 3500 
L 3481 3500 
L 3481 434 
z
" transform="scale(0.015625)"/>
       <path id="DejaVuSans-20" transform="scale(0.015625)"/>
       <path id="DejaVuSans-74" d="M 1172 4494 
L 1172 3500 
L 2356 3500 
L 2356 3053 
L 1172 3053 
L 1172 1153 
Q 1172 725 1289 603 
Q 1406 481 1766 481 
L 2356 481 
L 2356 0 
L 1766 0 
Q 1100 0 847 248 
Q 594 497 594 1153 
L 594 3053 
L 172 3053 
L 172 3500 
L 594 3500 
L 594 4494 
L 1172 4494 
z
" transform="scale(0.015625)"/>
       <path id="DejaVuSans-69" d="M 603 3500 
L 1178 3500 
L 1178 0 
L 603 0 
L 603 3500 
z
M 603 4863 
L 1178 4863 
L 1178 4134 
L 603 4134 
L 603 4863 
z
" transform="scale(0.015625)"/>
       <path id="DejaVuSans-6d" d="M 3328 2828 
Q 3544 3216 3844 3400 
Q 4144 3584 4550 3584 
Q 5097 3584 5394 3201 
Q 5691 2819 5691 2113 
L 5691 0 
L 5113 0 
L 5113 2094 
Q 5113 2597 4934 2840 
Q 4756 3084 4391 3084 
Q 3944 3084 3684 2787 
Q 3425 2491 3425 1978 
L 3425 0 
L 2847 0 
L 2847 2094 
Q 2847 2600 2669 2842 
Q 2491 3084 2119 3084 
Q 1678 3084 1418 2786 
Q 1159 2488 1159 1978 
L 1159 0 
L 581 0 
L 581 3500 
L 1159 3500 
L 1159 2956 
Q 1356 3278 1631 3431 
Q 1906 3584 2284 3584 
Q 2666 3584 2933 3390 
Q 3200 3197 3328 2828 
z
" transform="scale(0.015625)"/>
       <path id="DejaVuSans-65" d="M 3597 1894 
L 3597 1613 
L 953 1613 
Q 991 1019 1311 708 
Q 1631 397 2203 397 
Q 2534 397 2845 478 
Q 3156 559 3463 722 
L 3463 178 
Q 3153 47 2828 -22 
Q 2503 -91 2169 -91 
Q 1331 -91 842 396 
Q 353 884 353 1716 
Q 353 2575 817 3079 
Q 1281 3584 2069 3584 
Q 2775 3584 3186 3129 
Q 3597 2675 3597 1894 
z
M 3022 2063 
Q 3016 2534 2758 2815 
Q 2500 3097 2075 3097 
Q 1594 3097 1305 2825 
Q 1016 2553 972 2059 
L 3022 2063 
z
" transform="scale(0.015625)"/>
       <path id="DejaVuSans-6f" d="M 1959 3097 
Q 1497 3097 1228 2736 
Q 959 2375 959 1747 
Q 959 1119 1226 758 
Q 1494 397 1959 397 
Q 2419 397 2687 759 
Q 2956 1122 2956 1747 
Q 2956 2369 2687 2733 
Q 2419 3097 1959 3097 
z
M 1959 3584 
Q 2709 3584 3137 3096 
Q 3566 2609 3566 1747 
Q 3566 888 3137 398 
Q 2709 -91 1959 -91 
Q 1206 -91 779 398 
Q 353 888 353 1747 
Q 353 2609 779 3096 
Q 1206 3584 1959 3584 
z
" transform="scale(0.015625)"/>
       <path id="DejaVuSans-63" d="M 3122 3366 
L 3122 2828 
Q 2878 2963 2633 3030 
Q 2388 3097 2138 3097 
Q 1578 3097 1268 2742 
Q 959 2388 959 1747 
Q 959 1106 1268 751 
Q 1578 397 2138 397 
Q 2388 397 2633 464 
Q 2878 531 3122 666 
L 3122 134 
Q 2881 22 2623 -34 
Q 2366 -91 2075 -91 
Q 1284 -91 818 406 
Q 353 903 353 1747 
Q 353 2603 823 3093 
Q 1294 3584 2113 3584 
Q 2378 3584 2631 3529 
Q 2884 3475 3122 3366 
z
" transform="scale(0.015625)"/>
       <path id="DejaVuSans-72" d="M 2631 2963 
Q 2534 3019 2420 3045 
Q 2306 3072 2169 3072 
Q 1681 3072 1420 2755 
Q 1159 2438 1159 1844 
L 1159 0 
L 581 0 
L 581 3500 
L 1159 3500 
L 1159 2956 
Q 1341 3275 1631 3429 
Q 1922 3584 2338 3584 
Q 2397 3584 2469 3576 
Q 2541 3569 2628 3553 
L 2631 2963 
z
" transform="scale(0.015625)"/>
       <path id="DejaVuSans-73" d="M 2834 3397 
L 2834 2853 
Q 2591 2978 2328 3040 
Q 2066 3103 1784 3103 
Q 1356 3103 1142 2972 
Q 928 2841 928 2578 
Q 928 2378 1081 2264 
Q 1234 2150 1697 2047 
L 1894 2003 
Q 2506 1872 2764 1633 
Q 3022 1394 3022 966 
Q 3022 478 2636 193 
Q 2250 -91 1575 -91 
Q 1294 -91 989 -36 
Q 684 19 347 128 
L 347 722 
Q 666 556 975 473 
Q 1284 391 1588 391 
Q 1994 391 2212 530 
Q 2431 669 2431 922 
Q 2431 1156 2273 1281 
Q 2116 1406 1581 1522 
L 1381 1569 
Q 847 1681 609 1914 
Q 372 2147 372 2553 
Q 372 3047 722 3315 
Q 1072 3584 1716 3584 
Q 2034 3584 2315 3537 
Q 2597 3491 2834 3397 
z
" transform="scale(0.015625)"/>
      </defs>
      <use xlink:href="#DejaVuSans-41"/>
      <use xlink:href="#DejaVuSans-76" x="62.533203"/>
      <use xlink:href="#DejaVuSans-67" x="121.712891"/>
      <use xlink:href="#DejaVuSans-2e" x="185.189453"/>
      <use xlink:href="#DejaVuSans-20" x="216.976562"/>
      <use xlink:href="#DejaVuSans-74" x="248.763672"/>
      <use xlink:href="#DejaVuSans-69" x="287.972656"/>
      <use xlink:href="#DejaVuSans-6d" x="315.755859"/>
      <use xlink:href="#DejaVuSans-65" x="413.167969"/>
      <use xlink:href="#DejaVuSans-20" x="474.691406"/>
      <use xlink:href="#DejaVuSans-74" x="506.478516"/>
      <use xlink:href="#DejaVuSans-6f" x="545.6875"/>
      <use xlink:href="#DejaVuSans-20" x="606.869141"/>
      <use xlink:href="#DejaVuSans-63" x="638.65625"/>
      <use xlink:href="#DejaVuSans-72" x="693.636719"/>
      <use xlink:href="#DejaVuSans-6f" x="732.5"/>
      <use xlink:href="#DejaVuSans-73" x="793.681641"/>
      <use xlink:href="#DejaVuSans-73" x="845.78125"/>
      <use xlink:href="#DejaVuSans-20" x="897.880859"/>
     </g>
     <!--  14 units (in weeks) -->
     <g transform="translate(7.46875 261.388125) rotate(-90) scale(0.24 -0.24)">
      <defs>
       <path id="DejaVuSans-75" d="M 544 1381 
L 544 3500 
L 1119 3500 
L 1119 1403 
Q 1119 906 1312 657 
Q 1506 409 1894 409 
Q 2359 409 2629 706 
Q 2900 1003 2900 1516 
L 2900 3500 
L 3475 3500 
L 3475 0 
L 2900 0 
L 2900 538 
Q 2691 219 2414 64 
Q 2138 -91 1772 -91 
Q 1169 -91 856 284 
Q 544 659 544 1381 
z
M 1991 3584 
L 1991 3584 
z
" transform="scale(0.015625)"/>
       <path id="DejaVuSans-6e" d="M 3513 2113 
L 3513 0 
L 2938 0 
L 2938 2094 
Q 2938 2591 2744 2837 
Q 2550 3084 2163 3084 
Q 1697 3084 1428 2787 
Q 1159 2491 1159 1978 
L 1159 0 
L 581 0 
L 581 3500 
L 1159 3500 
L 1159 2956 
Q 1366 3272 1645 3428 
Q 1925 3584 2291 3584 
Q 2894 3584 3203 3211 
Q 3513 2838 3513 2113 
z
" transform="scale(0.015625)"/>
       <path id="DejaVuSans-28" d="M 1984 4856 
Q 1566 4138 1362 3434 
Q 1159 2731 1159 2009 
Q 1159 1288 1364 580 
Q 1569 -128 1984 -844 
L 1484 -844 
Q 1016 -109 783 600 
Q 550 1309 550 2009 
Q 550 2706 781 3412 
Q 1013 4119 1484 4856 
L 1984 4856 
z
" transform="scale(0.015625)"/>
       <path id="DejaVuSans-77" d="M 269 3500 
L 844 3500 
L 1563 769 
L 2278 3500 
L 2956 3500 
L 3675 769 
L 4391 3500 
L 4966 3500 
L 4050 0 
L 3372 0 
L 2619 2869 
L 1863 0 
L 1184 0 
L 269 3500 
z
" transform="scale(0.015625)"/>
       <path id="DejaVuSans-6b" d="M 581 4863 
L 1159 4863 
L 1159 1991 
L 2875 3500 
L 3609 3500 
L 1753 1863 
L 3688 0 
L 2938 0 
L 1159 1709 
L 1159 0 
L 581 0 
L 581 4863 
z
" transform="scale(0.015625)"/>
       <path id="DejaVuSans-29" d="M 513 4856 
L 1013 4856 
Q 1481 4119 1714 3412 
Q 1947 2706 1947 2009 
Q 1947 1309 1714 600 
Q 1481 -109 1013 -844 
L 513 -844 
Q 928 -128 1133 580 
Q 1338 1288 1338 2009 
Q 1338 2731 1133 3434 
Q 928 4138 513 4856 
z
" transform="scale(0.015625)"/>
      </defs>
      <use xlink:href="#DejaVuSans-20"/>
      <use xlink:href="#DejaVuSans-31" x="31.787109"/>
      <use xlink:href="#DejaVuSans-34" x="95.410156"/>
      <use xlink:href="#DejaVuSans-20" x="159.033203"/>
      <use xlink:href="#DejaVuSans-75" x="190.820312"/>
      <use xlink:href="#DejaVuSans-6e" x="254.199219"/>
      <use xlink:href="#DejaVuSans-69" x="317.578125"/>
      <use xlink:href="#DejaVuSans-74" x="345.361328"/>
      <use xlink:href="#DejaVuSans-73" x="384.570312"/>
      <use xlink:href="#DejaVuSans-20" x="436.669922"/>
      <use xlink:href="#DejaVuSans-28" x="468.457031"/>
      <use xlink:href="#DejaVuSans-69" x="507.470703"/>
      <use xlink:href="#DejaVuSans-6e" x="535.253906"/>
      <use xlink:href="#DejaVuSans-20" x="598.632812"/>
      <use xlink:href="#DejaVuSans-77" x="630.419922"/>
      <use xlink:href="#DejaVuSans-65" x="712.207031"/>
      <use xlink:href="#DejaVuSans-65" x="773.730469"/>
      <use xlink:href="#DejaVuSans-6b" x="835.253906"/>
      <use xlink:href="#DejaVuSans-73" x="893.164062"/>
      <use xlink:href="#DejaVuSans-29" x="945.263672"/>
     </g>
    </g>
   </g>
   <g id="LineCollection_1">
    <path clip-path="url(#p609775b52d)" style="fill: none; stroke: #b7d4ea; stroke-width: 3"/>
    <path d="M 103.036364 44.051745 
L 103.036364 44.051745 
" clip-path="url(#p609775b52d)" style="fill: none; stroke: #b7d4ea; stroke-width: 3"/>
    <path d="M 136.854545 44.051745 
L 136.854545 44.051745 
" clip-path="url(#p609775b52d)" style="fill: none; stroke: #b7d4ea; stroke-width: 3"/>
    <path d="M 170.672727 44.051745 
L 170.672727 44.051745 
" clip-path="url(#p609775b52d)" style="fill: none; stroke: #b7d4ea; stroke-width: 3"/>
    <path d="M 204.490909 44.051745 
L 204.490909 44.051745 
" clip-path="url(#p609775b52d)" style="fill: none; stroke: #b7d4ea; stroke-width: 3"/>
    <path d="M 238.309091 44.051745 
L 238.309091 44.051745 
" clip-path="url(#p609775b52d)" style="fill: none; stroke: #b7d4ea; stroke-width: 3"/>
    <path d="M 272.127273 44.051745 
L 272.127273 44.051745 
" clip-path="url(#p609775b52d)" style="fill: none; stroke: #b7d4ea; stroke-width: 3"/>
    <path d="M 305.945455 44.051745 
L 305.945455 44.051745 
" clip-path="url(#p609775b52d)" style="fill: none; stroke: #b7d4ea; stroke-width: 3"/>
    <path d="M 339.763636 44.051745 
L 339.763636 44.051745 
" clip-path="url(#p609775b52d)" style="fill: none; stroke: #b7d4ea; stroke-width: 3"/>
    <path d="M 373.581818 44.051745 
L 373.581818 44.051745 
" clip-path="url(#p609775b52d)" style="fill: none; stroke: #b7d4ea; stroke-width: 3"/>
   </g>
   <g id="LineCollection_2">
    <path d="M 69.218182 44.051745 
L 69.218182 44.051745 
" clip-path="url(#p609775b52d)" style="fill: none; stroke: #60a7d2; stroke-width: 3"/>
    <path d="M 103.036364 44.051745 
L 103.036364 44.051745 
" clip-path="url(#p609775b52d)" style="fill: none; stroke: #60a7d2; stroke-width: 3"/>
    <path d="M 136.854545 44.051745 
L 136.854545 44.051745 
" clip-path="url(#p609775b52d)" style="fill: none; stroke: #60a7d2; stroke-width: 3"/>
    <path d="M 170.672727 44.051745 
L 170.672727 44.051745 
" clip-path="url(#p609775b52d)" style="fill: none; stroke: #60a7d2; stroke-width: 3"/>
    <path d="M 204.490909 44.051745 
L 204.490909 44.051745 
" clip-path="url(#p609775b52d)" style="fill: none; stroke: #60a7d2; stroke-width: 3"/>
    <path d="M 238.309091 44.051745 
L 238.309091 44.051745 
" clip-path="url(#p609775b52d)" style="fill: none; stroke: #60a7d2; stroke-width: 3"/>
    <path d="M 272.127273 44.051745 
L 272.127273 44.051745 
" clip-path="url(#p609775b52d)" style="fill: none; stroke: #60a7d2; stroke-width: 3"/>
    <path d="M 305.945455 44.051745 
L 305.945455 44.051745 
" clip-path="url(#p609775b52d)" style="fill: none; stroke: #60a7d2; stroke-width: 3"/>
    <path d="M 339.763636 44.051745 
L 339.763636 44.051745 
" clip-path="url(#p609775b52d)" style="fill: none; stroke: #60a7d2; stroke-width: 3"/>
    <path d="M 373.581818 44.281285 
L 373.581818 44.156931 
" clip-path="url(#p609775b52d)" style="fill: none; stroke: #60a7d2; stroke-width: 3"/>
   </g>
   <g id="LineCollection_3">
    <path d="M 69.218182 53.93605 
L 69.218182 53.373339 
" clip-path="url(#p609775b52d)" style="fill: none; stroke: #1d6cb1; stroke-width: 3"/>
    <path d="M 103.036364 52.933772 
L 103.036364 52.321806 
" clip-path="url(#p609775b52d)" style="fill: none; stroke: #1d6cb1; stroke-width: 3"/>
    <path d="M 136.854545 52.94595 
L 136.854545 52.281874 
" clip-path="url(#p609775b52d)" style="fill: none; stroke: #1d6cb1; stroke-width: 3"/>
    <path d="M 170.672727 49.546305 
L 170.672727 48.965006 
" clip-path="url(#p609775b52d)" style="fill: none; stroke: #1d6cb1; stroke-width: 3"/>
    <path d="M 204.490909 54.770451 
L 204.490909 53.982155 
" clip-path="url(#p609775b52d)" style="fill: none; stroke: #1d6cb1; stroke-width: 3"/>
    <path d="M 238.309091 62.796241 
L 238.309091 61.831761 
" clip-path="url(#p609775b52d)" style="fill: none; stroke: #1d6cb1; stroke-width: 3"/>
    <path d="M 272.127273 69.882596 
L 272.127273 68.766183 
" clip-path="url(#p609775b52d)" style="fill: none; stroke: #1d6cb1; stroke-width: 3"/>
    <path d="M 305.945455 79.690914 
L 305.945455 78.394096 
" clip-path="url(#p609775b52d)" style="fill: none; stroke: #1d6cb1; stroke-width: 3"/>
    <path d="M 339.763636 94.31534 
L 339.763636 92.799246 
" clip-path="url(#p609775b52d)" style="fill: none; stroke: #1d6cb1; stroke-width: 3"/>
    <path d="M 373.581818 113.621417 
L 373.581818 111.811101 
" clip-path="url(#p609775b52d)" style="fill: none; stroke: #1d6cb1; stroke-width: 3"/>
   </g>
   <g id="LineCollection_4">
    <path d="M 69.218182 209.534726 
L 69.218182 207.709262 
" clip-path="url(#p609775b52d)" style="fill: none; stroke: #08306b; stroke-width: 3"/>
    <path d="M 103.036364 215.697486 
L 103.036364 214.051124 
" clip-path="url(#p609775b52d)" style="fill: none; stroke: #08306b; stroke-width: 3"/>
    <path d="M 136.854545 227.044155 
L 136.854545 225.772848 
" clip-path="url(#p609775b52d)" style="fill: none; stroke: #08306b; stroke-width: 3"/>
    <path d="M 170.672727 232.724301 
L 170.672727 231.682352 
" clip-path="url(#p609775b52d)" style="fill: none; stroke: #08306b; stroke-width: 3"/>
    <path d="M 204.490909 233.327381 
L 204.490909 232.271508 
" clip-path="url(#p609775b52d)" style="fill: none; stroke: #08306b; stroke-width: 3"/>
    <path d="M 238.309091 233.886648 
L 238.309091 232.876751 
" clip-path="url(#p609775b52d)" style="fill: none; stroke: #08306b; stroke-width: 3"/>
    <path d="M 272.127273 232.6814 
L 272.127273 231.58662 
" clip-path="url(#p609775b52d)" style="fill: none; stroke: #08306b; stroke-width: 3"/>
    <path d="M 305.945455 233.627751 
L 305.945455 232.636572 
" clip-path="url(#p609775b52d)" style="fill: none; stroke: #08306b; stroke-width: 3"/>
    <path d="M 339.763636 233.33426 
L 339.763636 232.264629 
" clip-path="url(#p609775b52d)" style="fill: none; stroke: #08306b; stroke-width: 3"/>
    <path d="M 373.581818 233.868321 
L 373.581818 232.811898 
" clip-path="url(#p609775b52d)" style="fill: none; stroke: #08306b; stroke-width: 3"/>
   </g>
   <g id="line2d_9">
    <path d="M 103.036364 44.051745 
L 136.854545 44.051745 
L 170.672727 44.051745 
L 204.490909 44.051745 
L 238.309091 44.051745 
L 272.127273 44.051745 
L 305.945455 44.051745 
L 339.763636 44.051745 
L 373.581818 44.051745 
" clip-path="url(#p609775b52d)" style="fill: none; stroke-dasharray: 11.1,4.8; stroke-dashoffset: 0; stroke: #b7d4ea; stroke-width: 3"/>
    <defs>
     <path id="m2517633875" d="M 0 3 
C 0.795609 3 1.55874 2.683901 2.12132 2.12132 
C 2.683901 1.55874 3 0.795609 3 0 
C 3 -0.795609 2.683901 -1.55874 2.12132 -2.12132 
C 1.55874 -2.683901 0.795609 -3 0 -3 
C -0.795609 -3 -1.55874 -2.683901 -2.12132 -2.12132 
C -2.683901 -1.55874 -3 -0.795609 -3 0 
C -3 0.795609 -2.683901 1.55874 -2.12132 2.12132 
C -1.55874 2.683901 -0.795609 3 0 3 
z
" style="stroke: #b7d4ea"/>
    </defs>
    <g clip-path="url(#p609775b52d)">
     <use xlink:href="#m2517633875" x="103.036364" y="44.051745" style="fill: #b7d4ea; stroke: #b7d4ea"/>
     <use xlink:href="#m2517633875" x="136.854545" y="44.051745" style="fill: #b7d4ea; stroke: #b7d4ea"/>
     <use xlink:href="#m2517633875" x="170.672727" y="44.051745" style="fill: #b7d4ea; stroke: #b7d4ea"/>
     <use xlink:href="#m2517633875" x="204.490909" y="44.051745" style="fill: #b7d4ea; stroke: #b7d4ea"/>
     <use xlink:href="#m2517633875" x="238.309091" y="44.051745" style="fill: #b7d4ea; stroke: #b7d4ea"/>
     <use xlink:href="#m2517633875" x="272.127273" y="44.051745" style="fill: #b7d4ea; stroke: #b7d4ea"/>
     <use xlink:href="#m2517633875" x="305.945455" y="44.051745" style="fill: #b7d4ea; stroke: #b7d4ea"/>
     <use xlink:href="#m2517633875" x="339.763636" y="44.051745" style="fill: #b7d4ea; stroke: #b7d4ea"/>
     <use xlink:href="#m2517633875" x="373.581818" y="44.051745" style="fill: #b7d4ea; stroke: #b7d4ea"/>
    </g>
   </g>
   <g id="line2d_10">
    <path d="M 69.218182 44.051745 
L 103.036364 44.051745 
L 136.854545 44.051745 
L 170.672727 44.051745 
L 204.490909 44.051745 
L 238.309091 44.051745 
L 272.127273 44.051745 
L 305.945455 44.051745 
L 339.763636 44.051745 
L 373.581818 44.219108 
" clip-path="url(#p609775b52d)" style="fill: none; stroke-dasharray: 11.1,4.8; stroke-dashoffset: 0; stroke: #60a7d2; stroke-width: 3"/>
    <defs>
     <path id="m16eaf79a3c" d="M 0 3 
C 0.795609 3 1.55874 2.683901 2.12132 2.12132 
C 2.683901 1.55874 3 0.795609 3 0 
C 3 -0.795609 2.683901 -1.55874 2.12132 -2.12132 
C 1.55874 -2.683901 0.795609 -3 0 -3 
C -0.795609 -3 -1.55874 -2.683901 -2.12132 -2.12132 
C -2.683901 -1.55874 -3 -0.795609 -3 0 
C -3 0.795609 -2.683901 1.55874 -2.12132 2.12132 
C -1.55874 2.683901 -0.795609 3 0 3 
z
" style="stroke: #60a7d2"/>
    </defs>
    <g clip-path="url(#p609775b52d)">
     <use xlink:href="#m16eaf79a3c" x="69.218182" y="44.051745" style="fill: #60a7d2; stroke: #60a7d2"/>
     <use xlink:href="#m16eaf79a3c" x="103.036364" y="44.051745" style="fill: #60a7d2; stroke: #60a7d2"/>
     <use xlink:href="#m16eaf79a3c" x="136.854545" y="44.051745" style="fill: #60a7d2; stroke: #60a7d2"/>
     <use xlink:href="#m16eaf79a3c" x="170.672727" y="44.051745" style="fill: #60a7d2; stroke: #60a7d2"/>
     <use xlink:href="#m16eaf79a3c" x="204.490909" y="44.051745" style="fill: #60a7d2; stroke: #60a7d2"/>
     <use xlink:href="#m16eaf79a3c" x="238.309091" y="44.051745" style="fill: #60a7d2; stroke: #60a7d2"/>
     <use xlink:href="#m16eaf79a3c" x="272.127273" y="44.051745" style="fill: #60a7d2; stroke: #60a7d2"/>
     <use xlink:href="#m16eaf79a3c" x="305.945455" y="44.051745" style="fill: #60a7d2; stroke: #60a7d2"/>
     <use xlink:href="#m16eaf79a3c" x="339.763636" y="44.051745" style="fill: #60a7d2; stroke: #60a7d2"/>
     <use xlink:href="#m16eaf79a3c" x="373.581818" y="44.219108" style="fill: #60a7d2; stroke: #60a7d2"/>
    </g>
   </g>
   <g id="line2d_11">
    <path d="M 69.218182 53.654694 
L 103.036364 52.627789 
L 136.854545 52.613912 
L 170.672727 49.255655 
L 204.490909 54.376303 
L 238.309091 62.314001 
L 272.127273 69.32439 
L 305.945455 79.042505 
L 339.763636 93.557293 
L 373.581818 112.716259 
" clip-path="url(#p609775b52d)" style="fill: none; stroke-dasharray: 11.1,4.8; stroke-dashoffset: 0; stroke: #1d6cb1; stroke-width: 3"/>
    <defs>
     <path id="m4f317223a8" d="M 0 3 
C 0.795609 3 1.55874 2.683901 2.12132 2.12132 
C 2.683901 1.55874 3 0.795609 3 0 
C 3 -0.795609 2.683901 -1.55874 2.12132 -2.12132 
C 1.55874 -2.683901 0.795609 -3 0 -3 
C -0.795609 -3 -1.55874 -2.683901 -2.12132 -2.12132 
C -2.683901 -1.55874 -3 -0.795609 -3 0 
C -3 0.795609 -2.683901 1.55874 -2.12132 2.12132 
C -1.55874 2.683901 -0.795609 3 0 3 
z
" style="stroke: #1d6cb1"/>
    </defs>
    <g clip-path="url(#p609775b52d)">
     <use xlink:href="#m4f317223a8" x="69.218182" y="53.654694" style="fill: #1d6cb1; stroke: #1d6cb1"/>
     <use xlink:href="#m4f317223a8" x="103.036364" y="52.627789" style="fill: #1d6cb1; stroke: #1d6cb1"/>
     <use xlink:href="#m4f317223a8" x="136.854545" y="52.613912" style="fill: #1d6cb1; stroke: #1d6cb1"/>
     <use xlink:href="#m4f317223a8" x="170.672727" y="49.255655" style="fill: #1d6cb1; stroke: #1d6cb1"/>
     <use xlink:href="#m4f317223a8" x="204.490909" y="54.376303" style="fill: #1d6cb1; stroke: #1d6cb1"/>
     <use xlink:href="#m4f317223a8" x="238.309091" y="62.314001" style="fill: #1d6cb1; stroke: #1d6cb1"/>
     <use xlink:href="#m4f317223a8" x="272.127273" y="69.32439" style="fill: #1d6cb1; stroke: #1d6cb1"/>
     <use xlink:href="#m4f317223a8" x="305.945455" y="79.042505" style="fill: #1d6cb1; stroke: #1d6cb1"/>
     <use xlink:href="#m4f317223a8" x="339.763636" y="93.557293" style="fill: #1d6cb1; stroke: #1d6cb1"/>
     <use xlink:href="#m4f317223a8" x="373.581818" y="112.716259" style="fill: #1d6cb1; stroke: #1d6cb1"/>
    </g>
   </g>
   <g id="line2d_12">
    <path d="M 69.218182 208.621994 
L 103.036364 214.874305 
L 136.854545 226.408501 
L 170.672727 232.203326 
L 204.490909 232.799444 
L 238.309091 233.3817 
L 272.127273 232.13401 
L 305.945455 233.132162 
L 339.763636 232.799444 
L 373.581818 233.34011 
" clip-path="url(#p609775b52d)" style="fill: none; stroke-dasharray: 11.1,4.8; stroke-dashoffset: 0; stroke: #08306b; stroke-width: 3"/>
    <defs>
     <path id="m519d779278" d="M 0 3 
C 0.795609 3 1.55874 2.683901 2.12132 2.12132 
C 2.683901 1.55874 3 0.795609 3 0 
C 3 -0.795609 2.683901 -1.55874 2.12132 -2.12132 
C 1.55874 -2.683901 0.795609 -3 0 -3 
C -0.795609 -3 -1.55874 -2.683901 -2.12132 -2.12132 
C -2.683901 -1.55874 -3 -0.795609 -3 0 
C -3 0.795609 -2.683901 1.55874 -2.12132 2.12132 
C -1.55874 2.683901 -0.795609 3 0 3 
z
" style="stroke: #08306b"/>
    </defs>
    <g clip-path="url(#p609775b52d)">
     <use xlink:href="#m519d779278" x="69.218182" y="208.621994" style="fill: #08306b; stroke: #08306b"/>
     <use xlink:href="#m519d779278" x="103.036364" y="214.874305" style="fill: #08306b; stroke: #08306b"/>
     <use xlink:href="#m519d779278" x="136.854545" y="226.408501" style="fill: #08306b; stroke: #08306b"/>
     <use xlink:href="#m519d779278" x="170.672727" y="232.203326" style="fill: #08306b; stroke: #08306b"/>
     <use xlink:href="#m519d779278" x="204.490909" y="232.799444" style="fill: #08306b; stroke: #08306b"/>
     <use xlink:href="#m519d779278" x="238.309091" y="233.3817" style="fill: #08306b; stroke: #08306b"/>
     <use xlink:href="#m519d779278" x="272.127273" y="232.13401" style="fill: #08306b; stroke: #08306b"/>
     <use xlink:href="#m519d779278" x="305.945455" y="233.132162" style="fill: #08306b; stroke: #08306b"/>
     <use xlink:href="#m519d779278" x="339.763636" y="232.799444" style="fill: #08306b; stroke: #08306b"/>
     <use xlink:href="#m519d779278" x="373.581818" y="233.34011" style="fill: #08306b; stroke: #08306b"/>
    </g>
   </g>
   <g id="patch_3">
    <path d="M 54 252 
L 54 34.56 
" style="fill: none; stroke: #000000; stroke-width: 2; stroke-linejoin: miter; stroke-linecap: square"/>
   </g>
   <g id="patch_4">
    <path d="M 54 252 
L 388.8 252 
" style="fill: none; stroke: #000000; stroke-width: 2; stroke-linejoin: miter; stroke-linecap: square"/>
   </g>
   <g id="legend_1">
    <g id="LineCollection_5">
     <path d="M 70.709063 23.649187 
L 70.709063 5.649187 
" style="fill: none; stroke: #b7d4ea; stroke-width: 3"/>
    </g>
    <g id="line2d_13">
     <path d="M 52.709063 14.649187 
L 88.709063 14.649187 
" style="fill: none; stroke-dasharray: 11.1,4.8; stroke-dashoffset: 0; stroke: #b7d4ea; stroke-width: 3"/>
    </g>
    <g id="line2d_14">
     <g>
      <use xlink:href="#m2517633875" x="70.709063" y="14.649187" style="fill: #b7d4ea; stroke: #b7d4ea"/>
     </g>
    </g>
    <g id="text_11">
     <!-- 0.3 -->
     <g transform="translate(103.109063 20.949187) scale(0.18 -0.18)">
      <defs>
       <path id="DejaVuSans-33" d="M 2597 2516 
Q 3050 2419 3304 2112 
Q 3559 1806 3559 1356 
Q 3559 666 3084 287 
Q 2609 -91 1734 -91 
Q 1441 -91 1130 -33 
Q 819 25 488 141 
L 488 750 
Q 750 597 1062 519 
Q 1375 441 1716 441 
Q 2309 441 2620 675 
Q 2931 909 2931 1356 
Q 2931 1769 2642 2001 
Q 2353 2234 1838 2234 
L 1294 2234 
L 1294 2753 
L 1863 2753 
Q 2328 2753 2575 2939 
Q 2822 3125 2822 3475 
Q 2822 3834 2567 4026 
Q 2313 4219 1838 4219 
Q 1578 4219 1281 4162 
Q 984 4106 628 3988 
L 628 4550 
Q 988 4650 1302 4700 
Q 1616 4750 1894 4750 
Q 2613 4750 3031 4423 
Q 3450 4097 3450 3541 
Q 3450 3153 3228 2886 
Q 3006 2619 2597 2516 
z
" transform="scale(0.015625)"/>
      </defs>
      <use xlink:href="#DejaVuSans-30"/>
      <use xlink:href="#DejaVuSans-2e" x="63.623047"/>
      <use xlink:href="#DejaVuSans-33" x="95.410156"/>
     </g>
    </g>
    <g id="LineCollection_6">
     <path d="M 158.734688 23.649187 
L 158.734688 5.649187 
" style="fill: none; stroke: #60a7d2; stroke-width: 3"/>
    </g>
    <g id="line2d_15">
     <path d="M 140.734688 14.649187 
L 176.734688 14.649187 
" style="fill: none; stroke-dasharray: 11.1,4.8; stroke-dashoffset: 0; stroke: #60a7d2; stroke-width: 3"/>
    </g>
    <g id="line2d_16">
     <g>
      <use xlink:href="#m16eaf79a3c" x="158.734688" y="14.649187" style="fill: #60a7d2; stroke: #60a7d2"/>
     </g>
    </g>
    <g id="text_12">
     <!-- 0.6 -->
     <g transform="translate(191.134688 20.949187) scale(0.18 -0.18)">
      <use xlink:href="#DejaVuSans-30"/>
      <use xlink:href="#DejaVuSans-2e" x="63.623047"/>
      <use xlink:href="#DejaVuSans-36" x="95.410156"/>
     </g>
    </g>
    <g id="LineCollection_7">
     <path d="M 246.760313 23.649187 
L 246.760313 5.649187 
" style="fill: none; stroke: #1d6cb1; stroke-width: 3"/>
    </g>
    <g id="line2d_17">
     <path d="M 228.760313 14.649187 
L 264.760313 14.649187 
" style="fill: none; stroke-dasharray: 11.1,4.8; stroke-dashoffset: 0; stroke: #1d6cb1; stroke-width: 3"/>
    </g>
    <g id="line2d_18">
     <g>
      <use xlink:href="#m4f317223a8" x="246.760313" y="14.649187" style="fill: #1d6cb1; stroke: #1d6cb1"/>
     </g>
    </g>
    <g id="text_13">
     <!-- 0.95 -->
     <g transform="translate(279.160313 20.949187) scale(0.18 -0.18)">
      <defs>
       <path id="DejaVuSans-39" d="M 703 97 
L 703 672 
Q 941 559 1184 500 
Q 1428 441 1663 441 
Q 2288 441 2617 861 
Q 2947 1281 2994 2138 
Q 2813 1869 2534 1725 
Q 2256 1581 1919 1581 
Q 1219 1581 811 2004 
Q 403 2428 403 3163 
Q 403 3881 828 4315 
Q 1253 4750 1959 4750 
Q 2769 4750 3195 4129 
Q 3622 3509 3622 2328 
Q 3622 1225 3098 567 
Q 2575 -91 1691 -91 
Q 1453 -91 1209 -44 
Q 966 3 703 97 
z
M 1959 2075 
Q 2384 2075 2632 2365 
Q 2881 2656 2881 3163 
Q 2881 3666 2632 3958 
Q 2384 4250 1959 4250 
Q 1534 4250 1286 3958 
Q 1038 3666 1038 3163 
Q 1038 2656 1286 2365 
Q 1534 2075 1959 2075 
z
" transform="scale(0.015625)"/>
      </defs>
      <use xlink:href="#DejaVuSans-30"/>
      <use xlink:href="#DejaVuSans-2e" x="63.623047"/>
      <use xlink:href="#DejaVuSans-39" x="95.410156"/>
      <use xlink:href="#DejaVuSans-35" x="159.033203"/>
     </g>
    </g>
    <g id="LineCollection_8">
     <path d="M 346.238438 23.649187 
L 346.238438 5.649187 
" style="fill: none; stroke: #08306b; stroke-width: 3"/>
    </g>
    <g id="line2d_19">
     <path d="M 328.238438 14.649187 
L 364.238438 14.649187 
" style="fill: none; stroke-dasharray: 11.1,4.8; stroke-dashoffset: 0; stroke: #08306b; stroke-width: 3"/>
    </g>
    <g id="line2d_20">
     <g>
      <use xlink:href="#m519d779278" x="346.238438" y="14.649187" style="fill: #08306b; stroke: #08306b"/>
     </g>
    </g>
    <g id="text_14">
     <!-- 1 -->
     <g transform="translate(378.638438 20.949187) scale(0.18 -0.18)">
      <use xlink:href="#DejaVuSans-31"/>
     </g>
    </g>
   </g>
  </g>
  <g id="text_15">
   <!-- $\gamma$ -->
   <g transform="translate(31.68 20.97375) scale(0.24 -0.24)">
    <defs>
     <path id="DejaVuSans-Oblique-3b3" d="M 1491 2950 
L 1838 788 
L 3456 3500 
L 4066 3500 
L 1972 0 
L 1713 -1331 
L 1138 -1331 
L 1397 0 
L 988 2613 
Q 925 3006 628 3006 
L 475 3006 
L 569 3500 
L 788 3500 
Q 1403 3500 1491 2950 
z
" transform="scale(0.015625)"/>
    </defs>
    <use xlink:href="#DejaVuSans-Oblique-3b3" transform="translate(0 0.3125)"/>
   </g>
  </g>
 </g>
 <defs>
  <clipPath id="p609775b52d">
   <rect x="54" y="34.56" width="334.8" height="217.44"/>
  </clipPath>
 </defs>
</svg>
