<?xml version="1.0" encoding="utf-8" standalone="no"?>
<!DOCTYPE svg PUBLIC "-//W3C//DTD SVG 1.1//EN"
  "http://www.w3.org/Graphics/SVG/1.1/DTD/svg11.dtd">
<svg xmlns:xlink="http://www.w3.org/1999/xlink" width="288pt" height="144pt" viewBox="0 0 288 144" xmlns="http://www.w3.org/2000/svg" version="1.1">
 <metadata>
  <rdf:RDF xmlns:dc="http://purl.org/dc/elements/1.1/" xmlns:cc="http://creativecommons.org/ns#" xmlns:rdf="http://www.w3.org/1999/02/22-rdf-syntax-ns#">
   <cc:Work>
    <dc:type rdf:resource="http://purl.org/dc/dcmitype/StillImage"/>
    <dc:date>2024-07-10T09:38:19.826411</dc:date>
    <dc:format>image/svg+xml</dc:format>
    <dc:creator>
     <cc:Agent>
      <dc:title>Matplotlib v3.8.0, https://matplotlib.org/</dc:title>
     </cc:Agent>
    </dc:creator>
   </cc:Work>
  </rdf:RDF>
 </metadata>
 <defs>
  <style type="text/css">*{stroke-linejoin: round; stroke-linecap: butt}</style>
 </defs>
 <g id="figure_1">
  <g id="patch_1">
   <path d="M 0 144 
L 288 144 
L 288 0 
L 0 0 
z
" style="fill: #ffffff"/>
  </g>
  <g id="axes_1">
   <g id="patch_2">
    <path d="M 36 126 
L 259.2 126 
L 259.2 17.28 
L 36 17.28 
z
" style="fill: #ffffff"/>
   </g>
   <g id="matplotlib.axis_1">
    <g id="text_1">
     <!-- $\gamma_{c}$ -->
     <g transform="translate(137.5 145.15625) scale(0.2 -0.2)">
      <defs>
       <path id="DejaVuSans-Oblique-3b3" d="M 1491 2950 
L 1838 788 
L 3456 3500 
L 4066 3500 
L 1972 0 
L 1713 -1331 
L 1138 -1331 
L 1397 0 
L 988 2613 
Q 925 3006 628 3006 
L 475 3006 
L 569 3500 
L 788 3500 
Q 1403 3500 1491 2950 
z
" transform="scale(0.015625)"/>
       <path id="DejaVuSans-Oblique-63" d="M 3431 3366 
L 3316 2797 
Q 3109 2947 2876 3022 
Q 2644 3097 2394 3097 
Q 2119 3097 1870 3000 
Q 1622 2903 1453 2725 
Q 1184 2453 1037 2087 
Q 891 1722 891 1331 
Q 891 859 1127 628 
Q 1363 397 1844 397 
Q 2081 397 2348 469 
Q 2616 541 2906 684 
L 2797 116 
Q 2547 13 2283 -39 
Q 2019 -91 1741 -91 
Q 1044 -91 669 257 
Q 294 606 294 1253 
Q 294 1797 489 2255 
Q 684 2713 1069 3078 
Q 1331 3328 1684 3456 
Q 2038 3584 2456 3584 
Q 2700 3584 2940 3529 
Q 3181 3475 3431 3366 
z
" transform="scale(0.015625)"/>
      </defs>
      <use xlink:href="#DejaVuSans-Oblique-3b3" transform="translate(0 0.3125)"/>
      <use xlink:href="#DejaVuSans-Oblique-63" transform="translate(59.179688 -16.09375) scale(0.7)"/>
     </g>
    </g>
   </g>
   <g id="matplotlib.axis_2">
    <g id="ytick_1">
     <g id="line2d_1">
      <defs>
       <path id="m88a67089a2" d="M 0 0 
L -3.5 0 
" style="stroke: #000000; stroke-width: 0.8"/>
      </defs>
      <g>
       <use xlink:href="#m88a67089a2" x="36" y="70.650647" style="stroke: #000000; stroke-width: 0.8"/>
      </g>
     </g>
     <g id="text_2">
      <!-- 1 -->
      <g transform="translate(13.73 79.768772) scale(0.24 -0.24)">
       <defs>
        <path id="DejaVuSans-31" d="M 794 531 
L 1825 531 
L 1825 4091 
L 703 3866 
L 703 4441 
L 1819 4666 
L 2450 4666 
L 2450 531 
L 3481 531 
L 3481 0 
L 794 0 
L 794 531 
z
" transform="scale(0.015625)"/>
       </defs>
       <use xlink:href="#DejaVuSans-31"/>
      </g>
     </g>
    </g>
    <g id="text_3">
     <!-- Completion  -->
     <g transform="translate(-16.825 132.094688) rotate(-90) scale(0.2 -0.2)">
      <defs>
       <path id="DejaVuSans-43" d="M 4122 4306 
L 4122 3641 
Q 3803 3938 3442 4084 
Q 3081 4231 2675 4231 
Q 1875 4231 1450 3742 
Q 1025 3253 1025 2328 
Q 1025 1406 1450 917 
Q 1875 428 2675 428 
Q 3081 428 3442 575 
Q 3803 722 4122 1019 
L 4122 359 
Q 3791 134 3420 21 
Q 3050 -91 2638 -91 
Q 1578 -91 968 557 
Q 359 1206 359 2328 
Q 359 3453 968 4101 
Q 1578 4750 2638 4750 
Q 3056 4750 3426 4639 
Q 3797 4528 4122 4306 
z
" transform="scale(0.015625)"/>
       <path id="DejaVuSans-6f" d="M 1959 3097 
Q 1497 3097 1228 2736 
Q 959 2375 959 1747 
Q 959 1119 1226 758 
Q 1494 397 1959 397 
Q 2419 397 2687 759 
Q 2956 1122 2956 1747 
Q 2956 2369 2687 2733 
Q 2419 3097 1959 3097 
z
M 1959 3584 
Q 2709 3584 3137 3096 
Q 3566 2609 3566 1747 
Q 3566 888 3137 398 
Q 2709 -91 1959 -91 
Q 1206 -91 779 398 
Q 353 888 353 1747 
Q 353 2609 779 3096 
Q 1206 3584 1959 3584 
z
" transform="scale(0.015625)"/>
       <path id="DejaVuSans-6d" d="M 3328 2828 
Q 3544 3216 3844 3400 
Q 4144 3584 4550 3584 
Q 5097 3584 5394 3201 
Q 5691 2819 5691 2113 
L 5691 0 
L 5113 0 
L 5113 2094 
Q 5113 2597 4934 2840 
Q 4756 3084 4391 3084 
Q 3944 3084 3684 2787 
Q 3425 2491 3425 1978 
L 3425 0 
L 2847 0 
L 2847 2094 
Q 2847 2600 2669 2842 
Q 2491 3084 2119 3084 
Q 1678 3084 1418 2786 
Q 1159 2488 1159 1978 
L 1159 0 
L 581 0 
L 581 3500 
L 1159 3500 
L 1159 2956 
Q 1356 3278 1631 3431 
Q 1906 3584 2284 3584 
Q 2666 3584 2933 3390 
Q 3200 3197 3328 2828 
z
" transform="scale(0.015625)"/>
       <path id="DejaVuSans-70" d="M 1159 525 
L 1159 -1331 
L 581 -1331 
L 581 3500 
L 1159 3500 
L 1159 2969 
Q 1341 3281 1617 3432 
Q 1894 3584 2278 3584 
Q 2916 3584 3314 3078 
Q 3713 2572 3713 1747 
Q 3713 922 3314 415 
Q 2916 -91 2278 -91 
Q 1894 -91 1617 61 
Q 1341 213 1159 525 
z
M 3116 1747 
Q 3116 2381 2855 2742 
Q 2594 3103 2138 3103 
Q 1681 3103 1420 2742 
Q 1159 2381 1159 1747 
Q 1159 1113 1420 752 
Q 1681 391 2138 391 
Q 2594 391 2855 752 
Q 3116 1113 3116 1747 
z
" transform="scale(0.015625)"/>
       <path id="DejaVuSans-6c" d="M 603 4863 
L 1178 4863 
L 1178 0 
L 603 0 
L 603 4863 
z
" transform="scale(0.015625)"/>
       <path id="DejaVuSans-65" d="M 3597 1894 
L 3597 1613 
L 953 1613 
Q 991 1019 1311 708 
Q 1631 397 2203 397 
Q 2534 397 2845 478 
Q 3156 559 3463 722 
L 3463 178 
Q 3153 47 2828 -22 
Q 2503 -91 2169 -91 
Q 1331 -91 842 396 
Q 353 884 353 1716 
Q 353 2575 817 3079 
Q 1281 3584 2069 3584 
Q 2775 3584 3186 3129 
Q 3597 2675 3597 1894 
z
M 3022 2063 
Q 3016 2534 2758 2815 
Q 2500 3097 2075 3097 
Q 1594 3097 1305 2825 
Q 1016 2553 972 2059 
L 3022 2063 
z
" transform="scale(0.015625)"/>
       <path id="DejaVuSans-74" d="M 1172 4494 
L 1172 3500 
L 2356 3500 
L 2356 3053 
L 1172 3053 
L 1172 1153 
Q 1172 725 1289 603 
Q 1406 481 1766 481 
L 2356 481 
L 2356 0 
L 1766 0 
Q 1100 0 847 248 
Q 594 497 594 1153 
L 594 3053 
L 172 3053 
L 172 3500 
L 594 3500 
L 594 4494 
L 1172 4494 
z
" transform="scale(0.015625)"/>
       <path id="DejaVuSans-69" d="M 603 3500 
L 1178 3500 
L 1178 0 
L 603 0 
L 603 3500 
z
M 603 4863 
L 1178 4863 
L 1178 4134 
L 603 4134 
L 603 4863 
z
" transform="scale(0.015625)"/>
       <path id="DejaVuSans-6e" d="M 3513 2113 
L 3513 0 
L 2938 0 
L 2938 2094 
Q 2938 2591 2744 2837 
Q 2550 3084 2163 3084 
Q 1697 3084 1428 2787 
Q 1159 2491 1159 1978 
L 1159 0 
L 581 0 
L 581 3500 
L 1159 3500 
L 1159 2956 
Q 1366 3272 1645 3428 
Q 1925 3584 2291 3584 
Q 2894 3584 3203 3211 
Q 3513 2838 3513 2113 
z
" transform="scale(0.015625)"/>
       <path id="DejaVuSans-20" transform="scale(0.015625)"/>
      </defs>
      <use xlink:href="#DejaVuSans-43"/>
      <use xlink:href="#DejaVuSans-6f" x="69.824219"/>
      <use xlink:href="#DejaVuSans-6d" x="131.005859"/>
      <use xlink:href="#DejaVuSans-70" x="228.417969"/>
      <use xlink:href="#DejaVuSans-6c" x="291.894531"/>
      <use xlink:href="#DejaVuSans-65" x="319.677734"/>
      <use xlink:href="#DejaVuSans-74" x="381.201172"/>
      <use xlink:href="#DejaVuSans-69" x="420.410156"/>
      <use xlink:href="#DejaVuSans-6f" x="448.193359"/>
      <use xlink:href="#DejaVuSans-6e" x="509.375"/>
      <use xlink:href="#DejaVuSans-20" x="572.753906"/>
     </g>
     <!--  rate -->
     <g transform="translate(5.570625 95.130625) rotate(-90) scale(0.2 -0.2)">
      <defs>
       <path id="DejaVuSans-72" d="M 2631 2963 
Q 2534 3019 2420 3045 
Q 2306 3072 2169 3072 
Q 1681 3072 1420 2755 
Q 1159 2438 1159 1844 
L 1159 0 
L 581 0 
L 581 3500 
L 1159 3500 
L 1159 2956 
Q 1341 3275 1631 3429 
Q 1922 3584 2338 3584 
Q 2397 3584 2469 3576 
Q 2541 3569 2628 3553 
L 2631 2963 
z
" transform="scale(0.015625)"/>
       <path id="DejaVuSans-61" d="M 2194 1759 
Q 1497 1759 1228 1600 
Q 959 1441 959 1056 
Q 959 750 1161 570 
Q 1363 391 1709 391 
Q 2188 391 2477 730 
Q 2766 1069 2766 1631 
L 2766 1759 
L 2194 1759 
z
M 3341 1997 
L 3341 0 
L 2766 0 
L 2766 531 
Q 2569 213 2275 61 
Q 1981 -91 1556 -91 
Q 1019 -91 701 211 
Q 384 513 384 1019 
Q 384 1609 779 1909 
Q 1175 2209 1959 2209 
L 2766 2209 
L 2766 2266 
Q 2766 2663 2505 2880 
Q 2244 3097 1772 3097 
Q 1472 3097 1187 3025 
Q 903 2953 641 2809 
L 641 3341 
Q 956 3463 1253 3523 
Q 1550 3584 1831 3584 
Q 2591 3584 2966 3190 
Q 3341 2797 3341 1997 
z
" transform="scale(0.015625)"/>
      </defs>
      <use xlink:href="#DejaVuSans-20"/>
      <use xlink:href="#DejaVuSans-72" x="31.787109"/>
      <use xlink:href="#DejaVuSans-61" x="72.900391"/>
      <use xlink:href="#DejaVuSans-74" x="134.179688"/>
      <use xlink:href="#DejaVuSans-65" x="173.388672"/>
     </g>
    </g>
   </g>
   <g id="line2d_2">
    <path d="M 46.145455 71.64 
L 68.690909 71.64 
L 91.236364 71.64 
L 113.781818 71.64 
L 136.327273 71.64 
L 158.872727 71.64 
L 181.418182 71.64 
L 203.963636 71.64 
L 226.509091 71.64 
L 249.054545 71.64 
" clip-path="url(#p7882eb4b79)" style="fill: none; stroke-dasharray: 11.1,4.8; stroke-dashoffset: 0; stroke: #fdc38d; stroke-width: 3"/>
    <defs>
     <path id="mfe8e7a95ae" d="M 0 3 
C 0.795609 3 1.55874 2.683901 2.12132 2.12132 
C 2.683901 1.55874 3 0.795609 3 0 
C 3 -0.795609 2.683901 -1.55874 2.12132 -2.12132 
C 1.55874 -2.683901 0.795609 -3 0 -3 
C -0.795609 -3 -1.55874 -2.683901 -2.12132 -2.12132 
C -2.683901 -1.55874 -3 -0.795609 -3 0 
C -3 0.795609 -2.683901 1.55874 -2.12132 2.12132 
C -1.55874 2.683901 -0.795609 3 0 3 
z
" style="stroke: #fdc38d"/>
    </defs>
    <g clip-path="url(#p7882eb4b79)">
     <use xlink:href="#mfe8e7a95ae" x="46.145455" y="71.64" style="fill: #fdc38d; stroke: #fdc38d"/>
     <use xlink:href="#mfe8e7a95ae" x="68.690909" y="71.64" style="fill: #fdc38d; stroke: #fdc38d"/>
     <use xlink:href="#mfe8e7a95ae" x="91.236364" y="71.64" style="fill: #fdc38d; stroke: #fdc38d"/>
     <use xlink:href="#mfe8e7a95ae" x="113.781818" y="71.64" style="fill: #fdc38d; stroke: #fdc38d"/>
     <use xlink:href="#mfe8e7a95ae" x="136.327273" y="71.64" style="fill: #fdc38d; stroke: #fdc38d"/>
     <use xlink:href="#mfe8e7a95ae" x="158.872727" y="71.64" style="fill: #fdc38d; stroke: #fdc38d"/>
     <use xlink:href="#mfe8e7a95ae" x="181.418182" y="71.64" style="fill: #fdc38d; stroke: #fdc38d"/>
     <use xlink:href="#mfe8e7a95ae" x="203.963636" y="71.64" style="fill: #fdc38d; stroke: #fdc38d"/>
     <use xlink:href="#mfe8e7a95ae" x="226.509091" y="71.64" style="fill: #fdc38d; stroke: #fdc38d"/>
     <use xlink:href="#mfe8e7a95ae" x="249.054545" y="71.64" style="fill: #fdc38d; stroke: #fdc38d"/>
    </g>
   </g>
   <g id="line2d_3">
    <path d="M 46.145455 71.64 
L 68.690909 71.64 
L 91.236364 71.64 
L 113.781818 71.64 
L 136.327273 71.64 
L 158.872727 71.64 
L 181.418182 71.64 
L 203.963636 71.64 
L 226.509091 71.64 
L 249.054545 71.64 
" clip-path="url(#p7882eb4b79)" style="fill: none; stroke-dasharray: 11.1,4.8; stroke-dashoffset: 0; stroke: #fa8331; stroke-width: 3"/>
    <defs>
     <path id="mb651a7345f" d="M 0 3 
C 0.795609 3 1.55874 2.683901 2.12132 2.12132 
C 2.683901 1.55874 3 0.795609 3 0 
C 3 -0.795609 2.683901 -1.55874 2.12132 -2.12132 
C 1.55874 -2.683901 0.795609 -3 0 -3 
C -0.795609 -3 -1.55874 -2.683901 -2.12132 -2.12132 
C -2.683901 -1.55874 -3 -0.795609 -3 0 
C -3 0.795609 -2.683901 1.55874 -2.12132 2.12132 
C -1.55874 2.683901 -0.795609 3 0 3 
z
" style="stroke: #fa8331"/>
    </defs>
    <g clip-path="url(#p7882eb4b79)">
     <use xlink:href="#mb651a7345f" x="46.145455" y="71.64" style="fill: #fa8331; stroke: #fa8331"/>
     <use xlink:href="#mb651a7345f" x="68.690909" y="71.64" style="fill: #fa8331; stroke: #fa8331"/>
     <use xlink:href="#mb651a7345f" x="91.236364" y="71.64" style="fill: #fa8331; stroke: #fa8331"/>
     <use xlink:href="#mb651a7345f" x="113.781818" y="71.64" style="fill: #fa8331; stroke: #fa8331"/>
     <use xlink:href="#mb651a7345f" x="136.327273" y="71.64" style="fill: #fa8331; stroke: #fa8331"/>
     <use xlink:href="#mb651a7345f" x="158.872727" y="71.64" style="fill: #fa8331; stroke: #fa8331"/>
     <use xlink:href="#mb651a7345f" x="181.418182" y="71.64" style="fill: #fa8331; stroke: #fa8331"/>
     <use xlink:href="#mb651a7345f" x="203.963636" y="71.64" style="fill: #fa8331; stroke: #fa8331"/>
     <use xlink:href="#mb651a7345f" x="226.509091" y="71.64" style="fill: #fa8331; stroke: #fa8331"/>
     <use xlink:href="#mb651a7345f" x="249.054545" y="71.64" style="fill: #fa8331; stroke: #fa8331"/>
    </g>
   </g>
   <g id="line2d_4">
    <path d="M 46.145455 71.64 
L 68.690909 71.64 
L 91.236364 71.64 
L 113.781818 71.64 
L 136.327273 71.64 
L 158.872727 71.64 
L 181.418182 71.64 
L 203.963636 71.64 
L 226.509091 71.64 
L 249.054545 71.64 
" clip-path="url(#p7882eb4b79)" style="fill: none; stroke-dasharray: 11.1,4.8; stroke-dashoffset: 0; stroke: #d14501; stroke-width: 3"/>
    <defs>
     <path id="mb26d9dd650" d="M 0 3 
C 0.795609 3 1.55874 2.683901 2.12132 2.12132 
C 2.683901 1.55874 3 0.795609 3 0 
C 3 -0.795609 2.683901 -1.55874 2.12132 -2.12132 
C 1.55874 -2.683901 0.795609 -3 0 -3 
C -0.795609 -3 -1.55874 -2.683901 -2.12132 -2.12132 
C -2.683901 -1.55874 -3 -0.795609 -3 0 
C -3 0.795609 -2.683901 1.55874 -2.12132 2.12132 
C -1.55874 2.683901 -0.795609 3 0 3 
z
" style="stroke: #d14501"/>
    </defs>
    <g clip-path="url(#p7882eb4b79)">
     <use xlink:href="#mb26d9dd650" x="46.145455" y="71.64" style="fill: #d14501; stroke: #d14501"/>
     <use xlink:href="#mb26d9dd650" x="68.690909" y="71.64" style="fill: #d14501; stroke: #d14501"/>
     <use xlink:href="#mb26d9dd650" x="91.236364" y="71.64" style="fill: #d14501; stroke: #d14501"/>
     <use xlink:href="#mb26d9dd650" x="113.781818" y="71.64" style="fill: #d14501; stroke: #d14501"/>
     <use xlink:href="#mb26d9dd650" x="136.327273" y="71.64" style="fill: #d14501; stroke: #d14501"/>
     <use xlink:href="#mb26d9dd650" x="158.872727" y="71.64" style="fill: #d14501; stroke: #d14501"/>
     <use xlink:href="#mb26d9dd650" x="181.418182" y="71.64" style="fill: #d14501; stroke: #d14501"/>
     <use xlink:href="#mb26d9dd650" x="203.963636" y="71.64" style="fill: #d14501; stroke: #d14501"/>
     <use xlink:href="#mb26d9dd650" x="226.509091" y="71.64" style="fill: #d14501; stroke: #d14501"/>
     <use xlink:href="#mb26d9dd650" x="249.054545" y="71.64" style="fill: #d14501; stroke: #d14501"/>
    </g>
   </g>
   <g id="line2d_5">
    <path d="M 46.145455 71.64 
L 68.690909 71.64 
L 91.236364 71.64 
L 113.781818 71.64 
L 136.327273 71.64 
L 158.872727 71.64 
L 181.418182 71.64 
L 203.963636 71.64 
L 226.509091 71.64 
L 249.054545 71.64 
" clip-path="url(#p7882eb4b79)" style="fill: none; stroke-dasharray: 11.1,4.8; stroke-dashoffset: 0; stroke: #7f2704; stroke-width: 3"/>
    <defs>
     <path id="m5f23982af4" d="M 0 3 
C 0.795609 3 1.55874 2.683901 2.12132 2.12132 
C 2.683901 1.55874 3 0.795609 3 0 
C 3 -0.795609 2.683901 -1.55874 2.12132 -2.12132 
C 1.55874 -2.683901 0.795609 -3 0 -3 
C -0.795609 -3 -1.55874 -2.683901 -2.12132 -2.12132 
C -2.683901 -1.55874 -3 -0.795609 -3 0 
C -3 0.795609 -2.683901 1.55874 -2.12132 2.12132 
C -1.55874 2.683901 -0.795609 3 0 3 
z
" style="stroke: #7f2704"/>
    </defs>
    <g clip-path="url(#p7882eb4b79)">
     <use xlink:href="#m5f23982af4" x="46.145455" y="71.64" style="fill: #7f2704; stroke: #7f2704"/>
     <use xlink:href="#m5f23982af4" x="68.690909" y="71.64" style="fill: #7f2704; stroke: #7f2704"/>
     <use xlink:href="#m5f23982af4" x="91.236364" y="71.64" style="fill: #7f2704; stroke: #7f2704"/>
     <use xlink:href="#m5f23982af4" x="113.781818" y="71.64" style="fill: #7f2704; stroke: #7f2704"/>
     <use xlink:href="#m5f23982af4" x="136.327273" y="71.64" style="fill: #7f2704; stroke: #7f2704"/>
     <use xlink:href="#m5f23982af4" x="158.872727" y="71.64" style="fill: #7f2704; stroke: #7f2704"/>
     <use xlink:href="#m5f23982af4" x="181.418182" y="71.64" style="fill: #7f2704; stroke: #7f2704"/>
     <use xlink:href="#m5f23982af4" x="203.963636" y="71.64" style="fill: #7f2704; stroke: #7f2704"/>
     <use xlink:href="#m5f23982af4" x="226.509091" y="71.64" style="fill: #7f2704; stroke: #7f2704"/>
     <use xlink:href="#m5f23982af4" x="249.054545" y="71.64" style="fill: #7f2704; stroke: #7f2704"/>
    </g>
   </g>
   <g id="patch_3">
    <path d="M 36 126 
L 36 17.28 
" style="fill: none; stroke: #000000; stroke-width: 2; stroke-linejoin: miter; stroke-linecap: square"/>
   </g>
   <g id="patch_4">
    <path d="M 36 126 
L 259.2 126 
" style="fill: none; stroke: #000000; stroke-width: 2; stroke-linejoin: miter; stroke-linecap: square"/>
   </g>
  </g>
 </g>
 <defs>
  <clipPath id="p7882eb4b79">
   <rect x="36" y="17.28" width="223.2" height="108.72"/>
  </clipPath>
 </defs>
</svg>
