<?xml version="1.0" encoding="utf-8" standalone="no"?>
<!DOCTYPE svg PUBLIC "-//W3C//DTD SVG 1.1//EN"
  "http://www.w3.org/Graphics/SVG/1.1/DTD/svg11.dtd">
<svg xmlns:xlink="http://www.w3.org/1999/xlink" width="432pt" height="288pt" viewBox="0 0 432 288" xmlns="http://www.w3.org/2000/svg" version="1.1">
 <metadata>
  <rdf:RDF xmlns:dc="http://purl.org/dc/elements/1.1/" xmlns:cc="http://creativecommons.org/ns#" xmlns:rdf="http://www.w3.org/1999/02/22-rdf-syntax-ns#">
   <cc:Work>
    <dc:type rdf:resource="http://purl.org/dc/dcmitype/StillImage"/>
    <dc:date>2025-06-17T11:15:57.168467</dc:date>
    <dc:format>image/svg+xml</dc:format>
    <dc:creator>
     <cc:Agent>
      <dc:title>Matplotlib v3.9.2, https://matplotlib.org/</dc:title>
     </cc:Agent>
    </dc:creator>
   </cc:Work>
  </rdf:RDF>
 </metadata>
 <defs>
  <style type="text/css">*{stroke-linejoin: round; stroke-linecap: butt}</style>
 </defs>
 <g id="figure_1">
  <g id="patch_1">
   <path d="M 0 288 
L 432 288 
L 432 0 
L 0 0 
z
" style="fill: #ffffff"/>
  </g>
  <g id="axes_1">
   <g id="patch_2">
    <path d="M 54 256.32 
L 388.8 256.32 
L 388.8 34.56 
L 54 34.56 
z
" style="fill: #ffffff"/>
   </g>
   <g id="matplotlib.axis_1">
    <g id="xtick_1">
     <g id="line2d_1">
      <defs>
       <path id="m832e04c03d" d="M 0 0 
L 0 3.5 
" style="stroke: #000000; stroke-width: 0.8"/>
      </defs>
      <g>
       <use xlink:href="#m832e04c03d" x="112.698701" y="256.32" style="stroke: #000000; stroke-width: 0.8"/>
      </g>
     </g>
     <g id="text_1">
      <!-- 0.4 -->
      <g transform="translate(93.614951 281.55625) scale(0.24 -0.24)">
       <defs>
        <path id="DejaVuSans-30" d="M 2034 4250 
Q 1547 4250 1301 3770 
Q 1056 3291 1056 2328 
Q 1056 1369 1301 889 
Q 1547 409 2034 409 
Q 2525 409 2770 889 
Q 3016 1369 3016 2328 
Q 3016 3291 2770 3770 
Q 2525 4250 2034 4250 
z
M 2034 4750 
Q 2819 4750 3233 4129 
Q 3647 3509 3647 2328 
Q 3647 1150 3233 529 
Q 2819 -91 2034 -91 
Q 1250 -91 836 529 
Q 422 1150 422 2328 
Q 422 3509 836 4129 
Q 1250 4750 2034 4750 
z
" transform="scale(0.015625)"/>
        <path id="DejaVuSans-2e" d="M 684 794 
L 1344 794 
L 1344 0 
L 684 0 
L 684 794 
z
" transform="scale(0.015625)"/>
        <path id="DejaVuSans-34" d="M 2419 4116 
L 825 1625 
L 2419 1625 
L 2419 4116 
z
M 2253 4666 
L 3047 4666 
L 3047 1625 
L 3713 1625 
L 3713 1100 
L 3047 1100 
L 3047 0 
L 2419 0 
L 2419 1100 
L 313 1100 
L 313 1709 
L 2253 4666 
z
" transform="scale(0.015625)"/>
       </defs>
       <use xlink:href="#DejaVuSans-30"/>
       <use xlink:href="#DejaVuSans-2e" x="63.623047"/>
       <use xlink:href="#DejaVuSans-34" x="95.410156"/>
      </g>
     </g>
    </g>
    <g id="xtick_2">
     <g id="line2d_2">
      <g>
       <use xlink:href="#m832e04c03d" x="199.65974" y="256.32" style="stroke: #000000; stroke-width: 0.8"/>
      </g>
     </g>
     <g id="text_2">
      <!-- 0.6 -->
      <g transform="translate(180.57599 281.55625) scale(0.24 -0.24)">
       <defs>
        <path id="DejaVuSans-36" d="M 2113 2584 
Q 1688 2584 1439 2293 
Q 1191 2003 1191 1497 
Q 1191 994 1439 701 
Q 1688 409 2113 409 
Q 2538 409 2786 701 
Q 3034 994 3034 1497 
Q 3034 2003 2786 2293 
Q 2538 2584 2113 2584 
z
M 3366 4563 
L 3366 3988 
Q 3128 4100 2886 4159 
Q 2644 4219 2406 4219 
Q 1781 4219 1451 3797 
Q 1122 3375 1075 2522 
Q 1259 2794 1537 2939 
Q 1816 3084 2150 3084 
Q 2853 3084 3261 2657 
Q 3669 2231 3669 1497 
Q 3669 778 3244 343 
Q 2819 -91 2113 -91 
Q 1303 -91 875 529 
Q 447 1150 447 2328 
Q 447 3434 972 4092 
Q 1497 4750 2381 4750 
Q 2619 4750 2861 4703 
Q 3103 4656 3366 4563 
z
" transform="scale(0.015625)"/>
       </defs>
       <use xlink:href="#DejaVuSans-30"/>
       <use xlink:href="#DejaVuSans-2e" x="63.623047"/>
       <use xlink:href="#DejaVuSans-36" x="95.410156"/>
      </g>
     </g>
    </g>
    <g id="xtick_3">
     <g id="line2d_3">
      <g>
       <use xlink:href="#m832e04c03d" x="286.620779" y="256.32" style="stroke: #000000; stroke-width: 0.8"/>
      </g>
     </g>
     <g id="text_3">
      <!-- 0.8 -->
      <g transform="translate(267.537029 281.55625) scale(0.24 -0.24)">
       <defs>
        <path id="DejaVuSans-38" d="M 2034 2216 
Q 1584 2216 1326 1975 
Q 1069 1734 1069 1313 
Q 1069 891 1326 650 
Q 1584 409 2034 409 
Q 2484 409 2743 651 
Q 3003 894 3003 1313 
Q 3003 1734 2745 1975 
Q 2488 2216 2034 2216 
z
M 1403 2484 
Q 997 2584 770 2862 
Q 544 3141 544 3541 
Q 544 4100 942 4425 
Q 1341 4750 2034 4750 
Q 2731 4750 3128 4425 
Q 3525 4100 3525 3541 
Q 3525 3141 3298 2862 
Q 3072 2584 2669 2484 
Q 3125 2378 3379 2068 
Q 3634 1759 3634 1313 
Q 3634 634 3220 271 
Q 2806 -91 2034 -91 
Q 1263 -91 848 271 
Q 434 634 434 1313 
Q 434 1759 690 2068 
Q 947 2378 1403 2484 
z
M 1172 3481 
Q 1172 3119 1398 2916 
Q 1625 2713 2034 2713 
Q 2441 2713 2670 2916 
Q 2900 3119 2900 3481 
Q 2900 3844 2670 4047 
Q 2441 4250 2034 4250 
Q 1625 4250 1398 4047 
Q 1172 3844 1172 3481 
z
" transform="scale(0.015625)"/>
       </defs>
       <use xlink:href="#DejaVuSans-30"/>
       <use xlink:href="#DejaVuSans-2e" x="63.623047"/>
       <use xlink:href="#DejaVuSans-38" x="95.410156"/>
      </g>
     </g>
    </g>
    <g id="xtick_4">
     <g id="line2d_4">
      <g>
       <use xlink:href="#m832e04c03d" x="373.581818" y="256.32" style="stroke: #000000; stroke-width: 0.8"/>
      </g>
     </g>
     <g id="text_4">
      <!-- 1.0 -->
      <g transform="translate(354.498068 281.55625) scale(0.24 -0.24)">
       <defs>
        <path id="DejaVuSans-31" d="M 794 531 
L 1825 531 
L 1825 4091 
L 703 3866 
L 703 4441 
L 1819 4666 
L 2450 4666 
L 2450 531 
L 3481 531 
L 3481 0 
L 794 0 
L 794 531 
z
" transform="scale(0.015625)"/>
       </defs>
       <use xlink:href="#DejaVuSans-31"/>
       <use xlink:href="#DejaVuSans-2e" x="63.623047"/>
       <use xlink:href="#DejaVuSans-30" x="95.410156"/>
      </g>
     </g>
    </g>
    <g id="text_5">
     <!-- $\eta_{assumed}$ -->
     <g transform="translate(175.44 308.735) scale(0.24 -0.24)">
      <defs>
       <path id="DejaVuSans-Oblique-3b7" d="M 3703 2113 
L 3034 -1331 
L 2459 -1331 
L 3125 2094 
Q 3222 2591 3075 2838 
Q 2931 3084 2544 3084 
Q 2078 3084 1750 2788 
Q 1425 2491 1325 1978 
L 941 0 
L 363 0 
L 1044 3500 
L 1622 3500 
L 1516 2956 
Q 1781 3272 2094 3428 
Q 2403 3584 2769 3584 
Q 3372 3584 3609 3213 
Q 3844 2838 3703 2113 
z
" transform="scale(0.015625)"/>
       <path id="DejaVuSans-Oblique-61" d="M 3438 1997 
L 3047 0 
L 2472 0 
L 2578 531 
Q 2325 219 2001 64 
Q 1678 -91 1281 -91 
Q 834 -91 548 182 
Q 263 456 263 884 
Q 263 1497 752 1853 
Q 1241 2209 2100 2209 
L 2900 2209 
L 2931 2363 
Q 2938 2388 2941 2417 
Q 2944 2447 2944 2509 
Q 2944 2788 2717 2942 
Q 2491 3097 2081 3097 
Q 1800 3097 1504 3025 
Q 1209 2953 897 2809 
L 997 3341 
Q 1322 3463 1633 3523 
Q 1944 3584 2234 3584 
Q 2853 3584 3176 3315 
Q 3500 3047 3500 2534 
Q 3500 2431 3484 2292 
Q 3469 2153 3438 1997 
z
M 2816 1759 
L 2241 1759 
Q 1534 1759 1195 1570 
Q 856 1381 856 984 
Q 856 709 1029 553 
Q 1203 397 1509 397 
Q 1978 397 2328 733 
Q 2678 1069 2791 1631 
L 2816 1759 
z
" transform="scale(0.015625)"/>
       <path id="DejaVuSans-Oblique-73" d="M 3200 3397 
L 3091 2853 
Q 2863 2978 2609 3040 
Q 2356 3103 2088 3103 
Q 1634 3103 1373 2948 
Q 1113 2794 1113 2528 
Q 1113 2219 1719 2053 
Q 1766 2041 1788 2034 
L 1972 1978 
Q 2547 1819 2739 1644 
Q 2931 1469 2931 1166 
Q 2931 609 2489 259 
Q 2047 -91 1331 -91 
Q 1053 -91 747 -37 
Q 441 16 72 128 
L 184 722 
Q 500 559 806 475 
Q 1113 391 1394 391 
Q 1816 391 2080 572 
Q 2344 753 2344 1031 
Q 2344 1331 1650 1516 
L 1591 1531 
L 1394 1581 
Q 956 1697 753 1886 
Q 550 2075 550 2369 
Q 550 2928 970 3256 
Q 1391 3584 2113 3584 
Q 2397 3584 2667 3537 
Q 2938 3491 3200 3397 
z
" transform="scale(0.015625)"/>
       <path id="DejaVuSans-Oblique-75" d="M 428 1388 
L 838 3500 
L 1416 3500 
L 1006 1409 
Q 975 1256 961 1147 
Q 947 1038 947 966 
Q 947 700 1109 554 
Q 1272 409 1569 409 
Q 2031 409 2368 721 
Q 2706 1034 2809 1563 
L 3194 3500 
L 3769 3500 
L 3091 0 
L 2516 0 
L 2631 550 
Q 2388 244 2052 76 
Q 1716 -91 1338 -91 
Q 878 -91 622 161 
Q 366 413 366 863 
Q 366 956 381 1097 
Q 397 1238 428 1388 
z
" transform="scale(0.015625)"/>
       <path id="DejaVuSans-Oblique-6d" d="M 5747 2113 
L 5338 0 
L 4763 0 
L 5166 2094 
Q 5191 2228 5203 2325 
Q 5216 2422 5216 2491 
Q 5216 2772 5059 2928 
Q 4903 3084 4622 3084 
Q 4203 3084 3875 2770 
Q 3547 2456 3450 1953 
L 3066 0 
L 2491 0 
L 2900 2094 
Q 2925 2209 2937 2307 
Q 2950 2406 2950 2484 
Q 2950 2769 2794 2926 
Q 2638 3084 2363 3084 
Q 1938 3084 1609 2770 
Q 1281 2456 1184 1953 
L 800 0 
L 225 0 
L 909 3500 
L 1484 3500 
L 1375 2956 
Q 1609 3263 1923 3423 
Q 2238 3584 2597 3584 
Q 2978 3584 3223 3384 
Q 3469 3184 3519 2828 
Q 3781 3197 4126 3390 
Q 4472 3584 4856 3584 
Q 5306 3584 5551 3325 
Q 5797 3066 5797 2591 
Q 5797 2488 5784 2364 
Q 5772 2241 5747 2113 
z
" transform="scale(0.015625)"/>
       <path id="DejaVuSans-Oblique-65" d="M 3078 2063 
Q 3088 2113 3092 2166 
Q 3097 2219 3097 2272 
Q 3097 2653 2873 2875 
Q 2650 3097 2266 3097 
Q 1838 3097 1509 2826 
Q 1181 2556 1013 2059 
L 3078 2063 
z
M 3578 1613 
L 903 1613 
Q 884 1494 878 1425 
Q 872 1356 872 1306 
Q 872 872 1139 634 
Q 1406 397 1894 397 
Q 2269 397 2603 481 
Q 2938 566 3225 728 
L 3116 159 
Q 2806 34 2476 -28 
Q 2147 -91 1806 -91 
Q 1078 -91 686 257 
Q 294 606 294 1247 
Q 294 1794 489 2264 
Q 684 2734 1063 3103 
Q 1306 3334 1642 3459 
Q 1978 3584 2356 3584 
Q 2950 3584 3301 3228 
Q 3653 2872 3653 2272 
Q 3653 2128 3634 1964 
Q 3616 1800 3578 1613 
z
" transform="scale(0.015625)"/>
       <path id="DejaVuSans-Oblique-64" d="M 2675 525 
Q 2444 222 2128 65 
Q 1813 -91 1428 -91 
Q 903 -91 598 267 
Q 294 625 294 1247 
Q 294 1766 478 2236 
Q 663 2706 1013 3078 
Q 1244 3325 1534 3454 
Q 1825 3584 2144 3584 
Q 2481 3584 2739 3421 
Q 2997 3259 3138 2956 
L 3513 4863 
L 4091 4863 
L 3144 0 
L 2566 0 
L 2675 525 
z
M 891 1350 
Q 891 897 1095 644 
Q 1300 391 1663 391 
Q 1931 391 2161 520 
Q 2391 650 2566 903 
Q 2750 1166 2856 1509 
Q 2963 1853 2963 2188 
Q 2963 2622 2758 2865 
Q 2553 3109 2194 3109 
Q 1922 3109 1687 2981 
Q 1453 2853 1288 2613 
Q 1106 2353 998 2009 
Q 891 1666 891 1350 
z
" transform="scale(0.015625)"/>
      </defs>
      <use xlink:href="#DejaVuSans-Oblique-3b7"/>
      <use xlink:href="#DejaVuSans-Oblique-61" transform="translate(63.378906 -16.40625) scale(0.7)"/>
      <use xlink:href="#DejaVuSans-Oblique-73" transform="translate(106.274414 -16.40625) scale(0.7)"/>
      <use xlink:href="#DejaVuSans-Oblique-73" transform="translate(142.744141 -16.40625) scale(0.7)"/>
      <use xlink:href="#DejaVuSans-Oblique-75" transform="translate(179.213867 -16.40625) scale(0.7)"/>
      <use xlink:href="#DejaVuSans-Oblique-6d" transform="translate(223.579102 -16.40625) scale(0.7)"/>
      <use xlink:href="#DejaVuSans-Oblique-65" transform="translate(291.767578 -16.40625) scale(0.7)"/>
      <use xlink:href="#DejaVuSans-Oblique-64" transform="translate(334.833984 -16.40625) scale(0.7)"/>
     </g>
    </g>
   </g>
   <g id="matplotlib.axis_2">
    <g id="ytick_1">
     <g id="line2d_5">
      <defs>
       <path id="m238fce33db" d="M 0 0 
L -3.5 0 
" style="stroke: #000000; stroke-width: 0.8"/>
      </defs>
      <g>
       <use xlink:href="#m238fce33db" x="54" y="256.32" style="stroke: #000000; stroke-width: 0.8"/>
      </g>
     </g>
     <g id="text_6">
      <!-- 0 -->
      <g transform="translate(31.73 265.438125) scale(0.24 -0.24)">
       <use xlink:href="#DejaVuSans-30"/>
      </g>
     </g>
    </g>
    <g id="ytick_2">
     <g id="line2d_6">
      <g>
       <use xlink:href="#m238fce33db" x="54" y="182.4" style="stroke: #000000; stroke-width: 0.8"/>
      </g>
     </g>
     <g id="text_7">
      <!-- 5 -->
      <g transform="translate(31.73 191.518125) scale(0.24 -0.24)">
       <defs>
        <path id="DejaVuSans-35" d="M 691 4666 
L 3169 4666 
L 3169 4134 
L 1269 4134 
L 1269 2991 
Q 1406 3038 1543 3061 
Q 1681 3084 1819 3084 
Q 2600 3084 3056 2656 
Q 3513 2228 3513 1497 
Q 3513 744 3044 326 
Q 2575 -91 1722 -91 
Q 1428 -91 1123 -41 
Q 819 9 494 109 
L 494 744 
Q 775 591 1075 516 
Q 1375 441 1709 441 
Q 2250 441 2565 725 
Q 2881 1009 2881 1497 
Q 2881 1984 2565 2268 
Q 2250 2553 1709 2553 
Q 1456 2553 1204 2497 
Q 953 2441 691 2322 
L 691 4666 
z
" transform="scale(0.015625)"/>
       </defs>
       <use xlink:href="#DejaVuSans-35"/>
      </g>
     </g>
    </g>
    <g id="ytick_3">
     <g id="line2d_7">
      <g>
       <use xlink:href="#m238fce33db" x="54" y="108.48" style="stroke: #000000; stroke-width: 0.8"/>
      </g>
     </g>
     <g id="text_8">
      <!-- 10 -->
      <g transform="translate(16.46 117.598125) scale(0.24 -0.24)">
       <use xlink:href="#DejaVuSans-31"/>
       <use xlink:href="#DejaVuSans-30" x="63.623047"/>
      </g>
     </g>
    </g>
    <g id="ytick_4">
     <g id="line2d_8">
      <g>
       <use xlink:href="#m238fce33db" x="54" y="34.56" style="stroke: #000000; stroke-width: 0.8"/>
      </g>
     </g>
     <g id="text_9">
      <!-- 15 -->
      <g transform="translate(16.46 43.678125) scale(0.24 -0.24)">
       <use xlink:href="#DejaVuSans-31"/>
       <use xlink:href="#DejaVuSans-35" x="63.623047"/>
      </g>
     </g>
    </g>
    <g id="text_10">
     <!-- Avg. time to  -->
     <g transform="translate(-19.406 222.076875) rotate(-90) scale(0.24 -0.24)">
      <defs>
       <path id="DejaVuSans-41" d="M 2188 4044 
L 1331 1722 
L 3047 1722 
L 2188 4044 
z
M 1831 4666 
L 2547 4666 
L 4325 0 
L 3669 0 
L 3244 1197 
L 1141 1197 
L 716 0 
L 50 0 
L 1831 4666 
z
" transform="scale(0.015625)"/>
       <path id="DejaVuSans-76" d="M 191 3500 
L 800 3500 
L 1894 563 
L 2988 3500 
L 3597 3500 
L 2284 0 
L 1503 0 
L 191 3500 
z
" transform="scale(0.015625)"/>
       <path id="DejaVuSans-67" d="M 2906 1791 
Q 2906 2416 2648 2759 
Q 2391 3103 1925 3103 
Q 1463 3103 1205 2759 
Q 947 2416 947 1791 
Q 947 1169 1205 825 
Q 1463 481 1925 481 
Q 2391 481 2648 825 
Q 2906 1169 2906 1791 
z
M 3481 434 
Q 3481 -459 3084 -895 
Q 2688 -1331 1869 -1331 
Q 1566 -1331 1297 -1286 
Q 1028 -1241 775 -1147 
L 775 -588 
Q 1028 -725 1275 -790 
Q 1522 -856 1778 -856 
Q 2344 -856 2625 -561 
Q 2906 -266 2906 331 
L 2906 616 
Q 2728 306 2450 153 
Q 2172 0 1784 0 
Q 1141 0 747 490 
Q 353 981 353 1791 
Q 353 2603 747 3093 
Q 1141 3584 1784 3584 
Q 2172 3584 2450 3431 
Q 2728 3278 2906 2969 
L 2906 3500 
L 3481 3500 
L 3481 434 
z
" transform="scale(0.015625)"/>
       <path id="DejaVuSans-20" transform="scale(0.015625)"/>
       <path id="DejaVuSans-74" d="M 1172 4494 
L 1172 3500 
L 2356 3500 
L 2356 3053 
L 1172 3053 
L 1172 1153 
Q 1172 725 1289 603 
Q 1406 481 1766 481 
L 2356 481 
L 2356 0 
L 1766 0 
Q 1100 0 847 248 
Q 594 497 594 1153 
L 594 3053 
L 172 3053 
L 172 3500 
L 594 3500 
L 594 4494 
L 1172 4494 
z
" transform="scale(0.015625)"/>
       <path id="DejaVuSans-69" d="M 603 3500 
L 1178 3500 
L 1178 0 
L 603 0 
L 603 3500 
z
M 603 4863 
L 1178 4863 
L 1178 4134 
L 603 4134 
L 603 4863 
z
" transform="scale(0.015625)"/>
       <path id="DejaVuSans-6d" d="M 3328 2828 
Q 3544 3216 3844 3400 
Q 4144 3584 4550 3584 
Q 5097 3584 5394 3201 
Q 5691 2819 5691 2113 
L 5691 0 
L 5113 0 
L 5113 2094 
Q 5113 2597 4934 2840 
Q 4756 3084 4391 3084 
Q 3944 3084 3684 2787 
Q 3425 2491 3425 1978 
L 3425 0 
L 2847 0 
L 2847 2094 
Q 2847 2600 2669 2842 
Q 2491 3084 2119 3084 
Q 1678 3084 1418 2786 
Q 1159 2488 1159 1978 
L 1159 0 
L 581 0 
L 581 3500 
L 1159 3500 
L 1159 2956 
Q 1356 3278 1631 3431 
Q 1906 3584 2284 3584 
Q 2666 3584 2933 3390 
Q 3200 3197 3328 2828 
z
" transform="scale(0.015625)"/>
       <path id="DejaVuSans-65" d="M 3597 1894 
L 3597 1613 
L 953 1613 
Q 991 1019 1311 708 
Q 1631 397 2203 397 
Q 2534 397 2845 478 
Q 3156 559 3463 722 
L 3463 178 
Q 3153 47 2828 -22 
Q 2503 -91 2169 -91 
Q 1331 -91 842 396 
Q 353 884 353 1716 
Q 353 2575 817 3079 
Q 1281 3584 2069 3584 
Q 2775 3584 3186 3129 
Q 3597 2675 3597 1894 
z
M 3022 2063 
Q 3016 2534 2758 2815 
Q 2500 3097 2075 3097 
Q 1594 3097 1305 2825 
Q 1016 2553 972 2059 
L 3022 2063 
z
" transform="scale(0.015625)"/>
       <path id="DejaVuSans-6f" d="M 1959 3097 
Q 1497 3097 1228 2736 
Q 959 2375 959 1747 
Q 959 1119 1226 758 
Q 1494 397 1959 397 
Q 2419 397 2687 759 
Q 2956 1122 2956 1747 
Q 2956 2369 2687 2733 
Q 2419 3097 1959 3097 
z
M 1959 3584 
Q 2709 3584 3137 3096 
Q 3566 2609 3566 1747 
Q 3566 888 3137 398 
Q 2709 -91 1959 -91 
Q 1206 -91 779 398 
Q 353 888 353 1747 
Q 353 2609 779 3096 
Q 1206 3584 1959 3584 
z
" transform="scale(0.015625)"/>
      </defs>
      <use xlink:href="#DejaVuSans-41"/>
      <use xlink:href="#DejaVuSans-76" x="62.533203"/>
      <use xlink:href="#DejaVuSans-67" x="121.712891"/>
      <use xlink:href="#DejaVuSans-2e" x="185.189453"/>
      <use xlink:href="#DejaVuSans-20" x="216.976562"/>
      <use xlink:href="#DejaVuSans-74" x="248.763672"/>
      <use xlink:href="#DejaVuSans-69" x="287.972656"/>
      <use xlink:href="#DejaVuSans-6d" x="315.755859"/>
      <use xlink:href="#DejaVuSans-65" x="413.167969"/>
      <use xlink:href="#DejaVuSans-20" x="474.691406"/>
      <use xlink:href="#DejaVuSans-74" x="506.478516"/>
      <use xlink:href="#DejaVuSans-6f" x="545.6875"/>
      <use xlink:href="#DejaVuSans-20" x="606.869141"/>
     </g>
     <!--  14 complete task -->
     <g transform="translate(7.46875 253.4625) rotate(-90) scale(0.24 -0.24)">
      <defs>
       <path id="DejaVuSans-63" d="M 3122 3366 
L 3122 2828 
Q 2878 2963 2633 3030 
Q 2388 3097 2138 3097 
Q 1578 3097 1268 2742 
Q 959 2388 959 1747 
Q 959 1106 1268 751 
Q 1578 397 2138 397 
Q 2388 397 2633 464 
Q 2878 531 3122 666 
L 3122 134 
Q 2881 22 2623 -34 
Q 2366 -91 2075 -91 
Q 1284 -91 818 406 
Q 353 903 353 1747 
Q 353 2603 823 3093 
Q 1294 3584 2113 3584 
Q 2378 3584 2631 3529 
Q 2884 3475 3122 3366 
z
" transform="scale(0.015625)"/>
       <path id="DejaVuSans-70" d="M 1159 525 
L 1159 -1331 
L 581 -1331 
L 581 3500 
L 1159 3500 
L 1159 2969 
Q 1341 3281 1617 3432 
Q 1894 3584 2278 3584 
Q 2916 3584 3314 3078 
Q 3713 2572 3713 1747 
Q 3713 922 3314 415 
Q 2916 -91 2278 -91 
Q 1894 -91 1617 61 
Q 1341 213 1159 525 
z
M 3116 1747 
Q 3116 2381 2855 2742 
Q 2594 3103 2138 3103 
Q 1681 3103 1420 2742 
Q 1159 2381 1159 1747 
Q 1159 1113 1420 752 
Q 1681 391 2138 391 
Q 2594 391 2855 752 
Q 3116 1113 3116 1747 
z
" transform="scale(0.015625)"/>
       <path id="DejaVuSans-6c" d="M 603 4863 
L 1178 4863 
L 1178 0 
L 603 0 
L 603 4863 
z
" transform="scale(0.015625)"/>
       <path id="DejaVuSans-61" d="M 2194 1759 
Q 1497 1759 1228 1600 
Q 959 1441 959 1056 
Q 959 750 1161 570 
Q 1363 391 1709 391 
Q 2188 391 2477 730 
Q 2766 1069 2766 1631 
L 2766 1759 
L 2194 1759 
z
M 3341 1997 
L 3341 0 
L 2766 0 
L 2766 531 
Q 2569 213 2275 61 
Q 1981 -91 1556 -91 
Q 1019 -91 701 211 
Q 384 513 384 1019 
Q 384 1609 779 1909 
Q 1175 2209 1959 2209 
L 2766 2209 
L 2766 2266 
Q 2766 2663 2505 2880 
Q 2244 3097 1772 3097 
Q 1472 3097 1187 3025 
Q 903 2953 641 2809 
L 641 3341 
Q 956 3463 1253 3523 
Q 1550 3584 1831 3584 
Q 2591 3584 2966 3190 
Q 3341 2797 3341 1997 
z
" transform="scale(0.015625)"/>
       <path id="DejaVuSans-73" d="M 2834 3397 
L 2834 2853 
Q 2591 2978 2328 3040 
Q 2066 3103 1784 3103 
Q 1356 3103 1142 2972 
Q 928 2841 928 2578 
Q 928 2378 1081 2264 
Q 1234 2150 1697 2047 
L 1894 2003 
Q 2506 1872 2764 1633 
Q 3022 1394 3022 966 
Q 3022 478 2636 193 
Q 2250 -91 1575 -91 
Q 1294 -91 989 -36 
Q 684 19 347 128 
L 347 722 
Q 666 556 975 473 
Q 1284 391 1588 391 
Q 1994 391 2212 530 
Q 2431 669 2431 922 
Q 2431 1156 2273 1281 
Q 2116 1406 1581 1522 
L 1381 1569 
Q 847 1681 609 1914 
Q 372 2147 372 2553 
Q 372 3047 722 3315 
Q 1072 3584 1716 3584 
Q 2034 3584 2315 3537 
Q 2597 3491 2834 3397 
z
" transform="scale(0.015625)"/>
       <path id="DejaVuSans-6b" d="M 581 4863 
L 1159 4863 
L 1159 1991 
L 2875 3500 
L 3609 3500 
L 1753 1863 
L 3688 0 
L 2938 0 
L 1159 1709 
L 1159 0 
L 581 0 
L 581 4863 
z
" transform="scale(0.015625)"/>
      </defs>
      <use xlink:href="#DejaVuSans-20"/>
      <use xlink:href="#DejaVuSans-31" x="31.787109"/>
      <use xlink:href="#DejaVuSans-34" x="95.410156"/>
      <use xlink:href="#DejaVuSans-20" x="159.033203"/>
      <use xlink:href="#DejaVuSans-63" x="190.820312"/>
      <use xlink:href="#DejaVuSans-6f" x="245.800781"/>
      <use xlink:href="#DejaVuSans-6d" x="306.982422"/>
      <use xlink:href="#DejaVuSans-70" x="404.394531"/>
      <use xlink:href="#DejaVuSans-6c" x="467.871094"/>
      <use xlink:href="#DejaVuSans-65" x="495.654297"/>
      <use xlink:href="#DejaVuSans-74" x="557.177734"/>
      <use xlink:href="#DejaVuSans-65" x="596.386719"/>
      <use xlink:href="#DejaVuSans-20" x="657.910156"/>
      <use xlink:href="#DejaVuSans-74" x="689.697266"/>
      <use xlink:href="#DejaVuSans-61" x="728.90625"/>
      <use xlink:href="#DejaVuSans-73" x="790.185547"/>
      <use xlink:href="#DejaVuSans-6b" x="842.285156"/>
     </g>
    </g>
   </g>
   <g id="LineCollection_1">
    <path d="M 69.218182 55.871934 
L 69.218182 53.752176 
" clip-path="url(#p450d4bc391)" style="fill: none; stroke: #b8e3b2; stroke-width: 3"/>
    <path d="M 103.036364 54.383541 
L 103.036364 52.492521 
" clip-path="url(#p450d4bc391)" style="fill: none; stroke: #b8e3b2; stroke-width: 3"/>
    <path d="M 136.854545 54.722019 
L 136.854545 52.305673 
" clip-path="url(#p450d4bc391)" style="fill: none; stroke: #b8e3b2; stroke-width: 3"/>
    <path d="M 170.672727 54.6261 
L 170.672727 50.9611 
" clip-path="url(#p450d4bc391)" style="fill: none; stroke: #b8e3b2; stroke-width: 3"/>
    <path d="M 204.490909 55.033682 
L 204.490909 51.539118 
" clip-path="url(#p450d4bc391)" style="fill: none; stroke: #b8e3b2; stroke-width: 3"/>
    <path d="M 238.309091 52.658346 
L 238.309091 49.972054 
" clip-path="url(#p450d4bc391)" style="fill: none; stroke: #b8e3b2; stroke-width: 3"/>
    <path d="M 272.127273 49.344 
L 272.127273 49.344 
" clip-path="url(#p450d4bc391)" style="fill: none; stroke: #b8e3b2; stroke-width: 3"/>
    <path d="M 305.945455 49.344 
L 305.945455 49.344 
" clip-path="url(#p450d4bc391)" style="fill: none; stroke: #b8e3b2; stroke-width: 3"/>
    <path d="M 339.763636 49.344 
L 339.763636 49.344 
" clip-path="url(#p450d4bc391)" style="fill: none; stroke: #b8e3b2; stroke-width: 3"/>
    <path clip-path="url(#p450d4bc391)" style="fill: none; stroke: #b8e3b2; stroke-width: 3"/>
   </g>
   <g id="LineCollection_2">
    <path d="M 69.218182 71.347601 
L 69.218182 70.224484 
" clip-path="url(#p450d4bc391)" style="fill: none; stroke: #3ba458; stroke-width: 3"/>
    <path d="M 103.036364 69.247485 
L 103.036364 68.150312 
" clip-path="url(#p450d4bc391)" style="fill: none; stroke: #3ba458; stroke-width: 3"/>
    <path d="M 136.854545 66.173291 
L 136.854545 65.147912 
" clip-path="url(#p450d4bc391)" style="fill: none; stroke: #3ba458; stroke-width: 3"/>
    <path d="M 170.672727 64.093966 
L 170.672727 63.103125 
" clip-path="url(#p450d4bc391)" style="fill: none; stroke: #3ba458; stroke-width: 3"/>
    <path d="M 204.490909 60.095916 
L 204.490909 59.241356 
" clip-path="url(#p450d4bc391)" style="fill: none; stroke: #3ba458; stroke-width: 3"/>
    <path d="M 238.309091 58.0928 
L 238.309091 57.236244 
" clip-path="url(#p450d4bc391)" style="fill: none; stroke: #3ba458; stroke-width: 3"/>
    <path d="M 272.127273 55.477779 
L 272.127273 54.680566 
" clip-path="url(#p450d4bc391)" style="fill: none; stroke: #3ba458; stroke-width: 3"/>
    <path d="M 305.945455 54.209319 
L 305.945455 53.333269 
" clip-path="url(#p450d4bc391)" style="fill: none; stroke: #3ba458; stroke-width: 3"/>
    <path d="M 339.763636 52.971234 
L 339.763636 52.072504 
" clip-path="url(#p450d4bc391)" style="fill: none; stroke: #3ba458; stroke-width: 3"/>
    <path d="M 373.581818 50.737747 
L 373.581818 49.59292 
" clip-path="url(#p450d4bc391)" style="fill: none; stroke: #3ba458; stroke-width: 3"/>
   </g>
   <g id="LineCollection_3">
    <path d="M 69.218182 96.109578 
L 69.218182 94.867319 
" clip-path="url(#p450d4bc391)" style="fill: none; stroke: #00441b; stroke-width: 3"/>
    <path d="M 103.036364 93.484585 
L 103.036364 92.279548 
" clip-path="url(#p450d4bc391)" style="fill: none; stroke: #00441b; stroke-width: 3"/>
    <path d="M 136.854545 88.581962 
L 136.854545 87.385365 
" clip-path="url(#p450d4bc391)" style="fill: none; stroke: #00441b; stroke-width: 3"/>
    <path d="M 170.672727 83.997917 
L 170.672727 82.889641 
" clip-path="url(#p450d4bc391)" style="fill: none; stroke: #00441b; stroke-width: 3"/>
    <path d="M 204.490909 78.40453 
L 204.490909 77.362825 
" clip-path="url(#p450d4bc391)" style="fill: none; stroke: #00441b; stroke-width: 3"/>
    <path d="M 238.309091 74.754462 
L 238.309091 73.730704 
" clip-path="url(#p450d4bc391)" style="fill: none; stroke: #00441b; stroke-width: 3"/>
    <path d="M 272.127273 68.658844 
L 272.127273 67.680278 
" clip-path="url(#p450d4bc391)" style="fill: none; stroke: #00441b; stroke-width: 3"/>
    <path d="M 305.945455 64.785464 
L 305.945455 63.872191 
" clip-path="url(#p450d4bc391)" style="fill: none; stroke: #00441b; stroke-width: 3"/>
    <path d="M 339.763636 59.608076 
L 339.763636 58.759288 
" clip-path="url(#p450d4bc391)" style="fill: none; stroke: #00441b; stroke-width: 3"/>
    <path d="M 373.581818 52.725911 
L 373.581818 52.07118 
" clip-path="url(#p450d4bc391)" style="fill: none; stroke: #00441b; stroke-width: 3"/>
   </g>
   <g id="line2d_9">
    <path d="M 69.218182 54.812055 
L 103.036364 53.438031 
L 136.854545 53.513846 
L 170.672727 52.7936 
L 204.490909 53.2864 
L 238.309091 51.3152 
L 272.127273 49.344 
L 305.945455 49.344 
L 339.763636 49.344 
" clip-path="url(#p450d4bc391)" style="fill: none; stroke-dasharray: 11.1,4.8; stroke-dashoffset: 0; stroke: #b8e3b2; stroke-width: 3"/>
    <defs>
     <path id="m926b746c10" d="M 0 3 
C 0.795609 3 1.55874 2.683901 2.12132 2.12132 
C 2.683901 1.55874 3 0.795609 3 0 
C 3 -0.795609 2.683901 -1.55874 2.12132 -2.12132 
C 1.55874 -2.683901 0.795609 -3 0 -3 
C -0.795609 -3 -1.55874 -2.683901 -2.12132 -2.12132 
C -2.683901 -1.55874 -3 -0.795609 -3 0 
C -3 0.795609 -2.683901 1.55874 -2.12132 2.12132 
C -1.55874 2.683901 -0.795609 3 0 3 
z
" style="stroke: #b8e3b2"/>
    </defs>
    <g clip-path="url(#p450d4bc391)">
     <use xlink:href="#m926b746c10" x="69.218182" y="54.812055" style="fill: #b8e3b2; stroke: #b8e3b2"/>
     <use xlink:href="#m926b746c10" x="103.036364" y="53.438031" style="fill: #b8e3b2; stroke: #b8e3b2"/>
     <use xlink:href="#m926b746c10" x="136.854545" y="53.513846" style="fill: #b8e3b2; stroke: #b8e3b2"/>
     <use xlink:href="#m926b746c10" x="170.672727" y="52.7936" style="fill: #b8e3b2; stroke: #b8e3b2"/>
     <use xlink:href="#m926b746c10" x="204.490909" y="53.2864" style="fill: #b8e3b2; stroke: #b8e3b2"/>
     <use xlink:href="#m926b746c10" x="238.309091" y="51.3152" style="fill: #b8e3b2; stroke: #b8e3b2"/>
     <use xlink:href="#m926b746c10" x="272.127273" y="49.344" style="fill: #b8e3b2; stroke: #b8e3b2"/>
     <use xlink:href="#m926b746c10" x="305.945455" y="49.344" style="fill: #b8e3b2; stroke: #b8e3b2"/>
     <use xlink:href="#m926b746c10" x="339.763636" y="49.344" style="fill: #b8e3b2; stroke: #b8e3b2"/>
    </g>
   </g>
   <g id="line2d_10">
    <path d="M 69.218182 70.786043 
L 103.036364 68.698899 
L 136.854545 65.660602 
L 170.672727 63.598545 
L 204.490909 59.668636 
L 238.309091 57.664522 
L 272.127273 55.079172 
L 305.945455 53.771294 
L 339.763636 52.521869 
L 373.581818 50.165333 
" clip-path="url(#p450d4bc391)" style="fill: none; stroke-dasharray: 11.1,4.8; stroke-dashoffset: 0; stroke: #3ba458; stroke-width: 3"/>
    <defs>
     <path id="m6d3b06bc3f" d="M 0 3 
C 0.795609 3 1.55874 2.683901 2.12132 2.12132 
C 2.683901 1.55874 3 0.795609 3 0 
C 3 -0.795609 2.683901 -1.55874 2.12132 -2.12132 
C 1.55874 -2.683901 0.795609 -3 0 -3 
C -0.795609 -3 -1.55874 -2.683901 -2.12132 -2.12132 
C -2.683901 -1.55874 -3 -0.795609 -3 0 
C -3 0.795609 -2.683901 1.55874 -2.12132 2.12132 
C -1.55874 2.683901 -0.795609 3 0 3 
z
" style="stroke: #3ba458"/>
    </defs>
    <g clip-path="url(#p450d4bc391)">
     <use xlink:href="#m6d3b06bc3f" x="69.218182" y="70.786043" style="fill: #3ba458; stroke: #3ba458"/>
     <use xlink:href="#m6d3b06bc3f" x="103.036364" y="68.698899" style="fill: #3ba458; stroke: #3ba458"/>
     <use xlink:href="#m6d3b06bc3f" x="136.854545" y="65.660602" style="fill: #3ba458; stroke: #3ba458"/>
     <use xlink:href="#m6d3b06bc3f" x="170.672727" y="63.598545" style="fill: #3ba458; stroke: #3ba458"/>
     <use xlink:href="#m6d3b06bc3f" x="204.490909" y="59.668636" style="fill: #3ba458; stroke: #3ba458"/>
     <use xlink:href="#m6d3b06bc3f" x="238.309091" y="57.664522" style="fill: #3ba458; stroke: #3ba458"/>
     <use xlink:href="#m6d3b06bc3f" x="272.127273" y="55.079172" style="fill: #3ba458; stroke: #3ba458"/>
     <use xlink:href="#m6d3b06bc3f" x="305.945455" y="53.771294" style="fill: #3ba458; stroke: #3ba458"/>
     <use xlink:href="#m6d3b06bc3f" x="339.763636" y="52.521869" style="fill: #3ba458; stroke: #3ba458"/>
     <use xlink:href="#m6d3b06bc3f" x="373.581818" y="50.165333" style="fill: #3ba458; stroke: #3ba458"/>
    </g>
   </g>
   <g id="line2d_11">
    <path d="M 69.218182 95.488449 
L 103.036364 92.882066 
L 136.854545 87.983664 
L 170.672727 83.443779 
L 204.490909 77.883677 
L 238.309091 74.242583 
L 272.127273 68.169561 
L 305.945455 64.328828 
L 339.763636 59.183682 
L 373.581818 52.398545 
" clip-path="url(#p450d4bc391)" style="fill: none; stroke-dasharray: 11.1,4.8; stroke-dashoffset: 0; stroke: #00441b; stroke-width: 3"/>
    <defs>
     <path id="m11bfd69fc4" d="M 0 3 
C 0.795609 3 1.55874 2.683901 2.12132 2.12132 
C 2.683901 1.55874 3 0.795609 3 0 
C 3 -0.795609 2.683901 -1.55874 2.12132 -2.12132 
C 1.55874 -2.683901 0.795609 -3 0 -3 
C -0.795609 -3 -1.55874 -2.683901 -2.12132 -2.12132 
C -2.683901 -1.55874 -3 -0.795609 -3 0 
C -3 0.795609 -2.683901 1.55874 -2.12132 2.12132 
C -1.55874 2.683901 -0.795609 3 0 3 
z
" style="stroke: #00441b"/>
    </defs>
    <g clip-path="url(#p450d4bc391)">
     <use xlink:href="#m11bfd69fc4" x="69.218182" y="95.488449" style="fill: #00441b; stroke: #00441b"/>
     <use xlink:href="#m11bfd69fc4" x="103.036364" y="92.882066" style="fill: #00441b; stroke: #00441b"/>
     <use xlink:href="#m11bfd69fc4" x="136.854545" y="87.983664" style="fill: #00441b; stroke: #00441b"/>
     <use xlink:href="#m11bfd69fc4" x="170.672727" y="83.443779" style="fill: #00441b; stroke: #00441b"/>
     <use xlink:href="#m11bfd69fc4" x="204.490909" y="77.883677" style="fill: #00441b; stroke: #00441b"/>
     <use xlink:href="#m11bfd69fc4" x="238.309091" y="74.242583" style="fill: #00441b; stroke: #00441b"/>
     <use xlink:href="#m11bfd69fc4" x="272.127273" y="68.169561" style="fill: #00441b; stroke: #00441b"/>
     <use xlink:href="#m11bfd69fc4" x="305.945455" y="64.328828" style="fill: #00441b; stroke: #00441b"/>
     <use xlink:href="#m11bfd69fc4" x="339.763636" y="59.183682" style="fill: #00441b; stroke: #00441b"/>
     <use xlink:href="#m11bfd69fc4" x="373.581818" y="52.398545" style="fill: #00441b; stroke: #00441b"/>
    </g>
   </g>
   <g id="patch_3">
    <path d="M 54 256.32 
L 54 34.56 
" style="fill: none; stroke: #000000; stroke-width: 2; stroke-linejoin: miter; stroke-linecap: square"/>
   </g>
   <g id="patch_4">
    <path d="M 54 256.32 
L 388.8 256.32 
" style="fill: none; stroke: #000000; stroke-width: 2; stroke-linejoin: miter; stroke-linecap: square"/>
   </g>
   <g id="legend_1">
    <g id="LineCollection_4">
     <path d="M 111.861563 11.697187 
L 111.861563 -1 
" style="fill: none; stroke: #b8e3b2; stroke-width: 3"/>
    </g>
    <g id="line2d_12">
     <path d="M 93.861563 2.697187 
L 129.861563 2.697187 
" style="fill: none; stroke-dasharray: 11.1,4.8; stroke-dashoffset: 0; stroke: #b8e3b2; stroke-width: 3"/>
    </g>
    <g id="line2d_13">
     <g>
      <use xlink:href="#m926b746c10" x="111.861563" y="2.697187" style="fill: #b8e3b2; stroke: #b8e3b2"/>
     </g>
    </g>
    <g id="text_11">
     <!-- 0.3 -->
     <g transform="translate(144.261563 8.997187) scale(0.18 -0.18)">
      <defs>
       <path id="DejaVuSans-33" d="M 2597 2516 
Q 3050 2419 3304 2112 
Q 3559 1806 3559 1356 
Q 3559 666 3084 287 
Q 2609 -91 1734 -91 
Q 1441 -91 1130 -33 
Q 819 25 488 141 
L 488 750 
Q 750 597 1062 519 
Q 1375 441 1716 441 
Q 2309 441 2620 675 
Q 2931 909 2931 1356 
Q 2931 1769 2642 2001 
Q 2353 2234 1838 2234 
L 1294 2234 
L 1294 2753 
L 1863 2753 
Q 2328 2753 2575 2939 
Q 2822 3125 2822 3475 
Q 2822 3834 2567 4026 
Q 2313 4219 1838 4219 
Q 1578 4219 1281 4162 
Q 984 4106 628 3988 
L 628 4550 
Q 988 4650 1302 4700 
Q 1616 4750 1894 4750 
Q 2613 4750 3031 4423 
Q 3450 4097 3450 3541 
Q 3450 3153 3228 2886 
Q 3006 2619 2597 2516 
z
" transform="scale(0.015625)"/>
      </defs>
      <use xlink:href="#DejaVuSans-30"/>
      <use xlink:href="#DejaVuSans-2e" x="63.623047"/>
      <use xlink:href="#DejaVuSans-33" x="95.410156"/>
     </g>
    </g>
    <g id="LineCollection_5">
     <path d="M 199.887188 11.697187 
L 199.887188 -1 
" style="fill: none; stroke: #3ba458; stroke-width: 3"/>
    </g>
    <g id="line2d_14">
     <path d="M 181.887188 2.697187 
L 217.887188 2.697187 
" style="fill: none; stroke-dasharray: 11.1,4.8; stroke-dashoffset: 0; stroke: #3ba458; stroke-width: 3"/>
    </g>
    <g id="line2d_15">
     <g>
      <use xlink:href="#m6d3b06bc3f" x="199.887188" y="2.697187" style="fill: #3ba458; stroke: #3ba458"/>
     </g>
    </g>
    <g id="text_12">
     <!-- 0.6 -->
     <g transform="translate(232.287188 8.997187) scale(0.18 -0.18)">
      <use xlink:href="#DejaVuSans-30"/>
      <use xlink:href="#DejaVuSans-2e" x="63.623047"/>
      <use xlink:href="#DejaVuSans-36" x="95.410156"/>
     </g>
    </g>
    <g id="LineCollection_6">
     <path d="M 287.912813 11.697187 
L 287.912813 -1 
" style="fill: none; stroke: #00441b; stroke-width: 3"/>
    </g>
    <g id="line2d_16">
     <path d="M 269.912813 2.697187 
L 305.912813 2.697187 
" style="fill: none; stroke-dasharray: 11.1,4.8; stroke-dashoffset: 0; stroke: #00441b; stroke-width: 3"/>
    </g>
    <g id="line2d_17">
     <g>
      <use xlink:href="#m11bfd69fc4" x="287.912813" y="2.697187" style="fill: #00441b; stroke: #00441b"/>
     </g>
    </g>
    <g id="text_13">
     <!-- 0.9 -->
     <g transform="translate(320.312813 8.997187) scale(0.18 -0.18)">
      <defs>
       <path id="DejaVuSans-39" d="M 703 97 
L 703 672 
Q 941 559 1184 500 
Q 1428 441 1663 441 
Q 2288 441 2617 861 
Q 2947 1281 2994 2138 
Q 2813 1869 2534 1725 
Q 2256 1581 1919 1581 
Q 1219 1581 811 2004 
Q 403 2428 403 3163 
Q 403 3881 828 4315 
Q 1253 4750 1959 4750 
Q 2769 4750 3195 4129 
Q 3622 3509 3622 2328 
Q 3622 1225 3098 567 
Q 2575 -91 1691 -91 
Q 1453 -91 1209 -44 
Q 966 3 703 97 
z
M 1959 2075 
Q 2384 2075 2632 2365 
Q 2881 2656 2881 3163 
Q 2881 3666 2632 3958 
Q 2384 4250 1959 4250 
Q 1534 4250 1286 3958 
Q 1038 3666 1038 3163 
Q 1038 2656 1286 2365 
Q 1534 2075 1959 2075 
z
" transform="scale(0.015625)"/>
      </defs>
      <use xlink:href="#DejaVuSans-30"/>
      <use xlink:href="#DejaVuSans-2e" x="63.623047"/>
      <use xlink:href="#DejaVuSans-39" x="95.410156"/>
     </g>
    </g>
   </g>
  </g>
  <g id="text_14">
   <!-- $\eta_{real}$ -->
   <g transform="translate(27.72 6.57375) scale(0.24 -0.24)">
    <defs>
     <path id="DejaVuSans-Oblique-72" d="M 2853 2969 
Q 2766 3016 2653 3041 
Q 2541 3066 2413 3066 
Q 1953 3066 1609 2717 
Q 1266 2369 1153 1784 
L 800 0 
L 225 0 
L 909 3500 
L 1484 3500 
L 1375 2956 
Q 1603 3259 1920 3421 
Q 2238 3584 2597 3584 
Q 2691 3584 2781 3573 
Q 2872 3563 2963 3538 
L 2853 2969 
z
" transform="scale(0.015625)"/>
     <path id="DejaVuSans-Oblique-6c" d="M 1172 4863 
L 1747 4863 
L 800 0 
L 225 0 
L 1172 4863 
z
" transform="scale(0.015625)"/>
    </defs>
    <use xlink:href="#DejaVuSans-Oblique-3b7"/>
    <use xlink:href="#DejaVuSans-Oblique-72" transform="translate(63.378906 -16.40625) scale(0.7)"/>
    <use xlink:href="#DejaVuSans-Oblique-65" transform="translate(92.158203 -16.40625) scale(0.7)"/>
    <use xlink:href="#DejaVuSans-Oblique-61" transform="translate(135.224609 -16.40625) scale(0.7)"/>
    <use xlink:href="#DejaVuSans-Oblique-6c" transform="translate(178.120117 -16.40625) scale(0.7)"/>
   </g>
  </g>
 </g>
 <defs>
  <clipPath id="p450d4bc391">
   <rect x="54" y="34.56" width="334.8" height="221.76"/>
  </clipPath>
 </defs>
</svg>
