<?xml version="1.0" encoding="utf-8" standalone="no"?>
<!DOCTYPE svg PUBLIC "-//W3C//DTD SVG 1.1//EN"
  "http://www.w3.org/Graphics/SVG/1.1/DTD/svg11.dtd">
<svg xmlns:xlink="http://www.w3.org/1999/xlink" width="432pt" height="288pt" viewBox="0 0 432 288" xmlns="http://www.w3.org/2000/svg" version="1.1">
 <metadata>
  <rdf:RDF xmlns:dc="http://purl.org/dc/elements/1.1/" xmlns:cc="http://creativecommons.org/ns#" xmlns:rdf="http://www.w3.org/1999/02/22-rdf-syntax-ns#">
   <cc:Work>
    <dc:type rdf:resource="http://purl.org/dc/dcmitype/StillImage"/>
    <dc:date>2026-05-13T18:59:51.452097</dc:date>
    <dc:format>image/svg+xml</dc:format>
    <dc:creator>
     <cc:Agent>
      <dc:title>Matplotlib v3.10.7, https://matplotlib.org/</dc:title>
     </cc:Agent>
    </dc:creator>
   </cc:Work>
  </rdf:RDF>
 </metadata>
 <defs>
  <style type="text/css">*{stroke-linejoin: round; stroke-linecap: butt}</style>
 </defs>
 <g id="figure_1">
  <g id="patch_1">
   <path d="M 0 288 
L 432 288 
L 432 0 
L 0 0 
z
" style="fill: #ffffff"/>
  </g>
  <g id="axes_1">
   <g id="patch_2">
    <path d="M 54 256.32 
L 388.8 256.32 
L 388.8 34.56 
L 54 34.56 
z
" style="fill: #ffffff"/>
   </g>
   <g id="matplotlib.axis_1">
    <g id="xtick_1">
     <g id="line2d_1">
      <defs>
       <path id="m09700c6767" d="M 0 0 
L 0 3.5 
" style="stroke: #000000; stroke-width: 0.8"/>
      </defs>
      <g>
       <use xlink:href="#m09700c6767" x="69.218182" y="256.32" style="stroke: #000000; stroke-width: 0.8"/>
      </g>
     </g>
     <g id="text_1">
      <!-- −3 -->
      <g transform="translate(51.527557 281.55625) scale(0.24 -0.24)">
       <defs>
        <path id="DejaVuSans-2212" d="M 678 2272 
L 4684 2272 
L 4684 1741 
L 678 1741 
L 678 2272 
z
" transform="scale(0.015625)"/>
        <path id="DejaVuSans-33" d="M 2597 2516 
Q 3050 2419 3304 2112 
Q 3559 1806 3559 1356 
Q 3559 666 3084 287 
Q 2609 -91 1734 -91 
Q 1441 -91 1130 -33 
Q 819 25 488 141 
L 488 750 
Q 750 597 1062 519 
Q 1375 441 1716 441 
Q 2309 441 2620 675 
Q 2931 909 2931 1356 
Q 2931 1769 2642 2001 
Q 2353 2234 1838 2234 
L 1294 2234 
L 1294 2753 
L 1863 2753 
Q 2328 2753 2575 2939 
Q 2822 3125 2822 3475 
Q 2822 3834 2567 4026 
Q 2313 4219 1838 4219 
Q 1578 4219 1281 4162 
Q 984 4106 628 3988 
L 628 4550 
Q 988 4650 1302 4700 
Q 1616 4750 1894 4750 
Q 2613 4750 3031 4423 
Q 3450 4097 3450 3541 
Q 3450 3153 3228 2886 
Q 3006 2619 2597 2516 
z
" transform="scale(0.015625)"/>
       </defs>
       <use xlink:href="#DejaVuSans-2212"/>
       <use xlink:href="#DejaVuSans-33" transform="translate(83.789062 0)"/>
      </g>
     </g>
    </g>
    <g id="xtick_2">
     <g id="line2d_2">
      <g>
       <use xlink:href="#m09700c6767" x="190.963636" y="256.32" style="stroke: #000000; stroke-width: 0.8"/>
      </g>
     </g>
     <g id="text_2">
      <!-- −2 -->
      <g transform="translate(173.273011 281.55625) scale(0.24 -0.24)">
       <defs>
        <path id="DejaVuSans-32" d="M 1228 531 
L 3431 531 
L 3431 0 
L 469 0 
L 469 531 
Q 828 903 1448 1529 
Q 2069 2156 2228 2338 
Q 2531 2678 2651 2914 
Q 2772 3150 2772 3378 
Q 2772 3750 2511 3984 
Q 2250 4219 1831 4219 
Q 1534 4219 1204 4116 
Q 875 4013 500 3803 
L 500 4441 
Q 881 4594 1212 4672 
Q 1544 4750 1819 4750 
Q 2544 4750 2975 4387 
Q 3406 4025 3406 3419 
Q 3406 3131 3298 2873 
Q 3191 2616 2906 2266 
Q 2828 2175 2409 1742 
Q 1991 1309 1228 531 
z
" transform="scale(0.015625)"/>
       </defs>
       <use xlink:href="#DejaVuSans-2212"/>
       <use xlink:href="#DejaVuSans-32" transform="translate(83.789062 0)"/>
      </g>
     </g>
    </g>
    <g id="xtick_3">
     <g id="line2d_3">
      <g>
       <use xlink:href="#m09700c6767" x="312.709091" y="256.32" style="stroke: #000000; stroke-width: 0.8"/>
      </g>
     </g>
     <g id="text_3">
      <!-- −1 -->
      <g transform="translate(295.018466 281.55625) scale(0.24 -0.24)">
       <defs>
        <path id="DejaVuSans-31" d="M 794 531 
L 1825 531 
L 1825 4091 
L 703 3866 
L 703 4441 
L 1819 4666 
L 2450 4666 
L 2450 531 
L 3481 531 
L 3481 0 
L 794 0 
L 794 531 
z
" transform="scale(0.015625)"/>
       </defs>
       <use xlink:href="#DejaVuSans-2212"/>
       <use xlink:href="#DejaVuSans-31" transform="translate(83.789062 0)"/>
      </g>
     </g>
    </g>
    <g id="text_4">
     <!-- fear cost -->
     <g transform="translate(168.795 308.78375) scale(0.24 -0.24)">
      <defs>
       <path id="DejaVuSans-66" d="M 2375 4863 
L 2375 4384 
L 1825 4384 
Q 1516 4384 1395 4259 
Q 1275 4134 1275 3809 
L 1275 3500 
L 2222 3500 
L 2222 3053 
L 1275 3053 
L 1275 0 
L 697 0 
L 697 3053 
L 147 3053 
L 147 3500 
L 697 3500 
L 697 3744 
Q 697 4328 969 4595 
Q 1241 4863 1831 4863 
L 2375 4863 
z
" transform="scale(0.015625)"/>
       <path id="DejaVuSans-65" d="M 3597 1894 
L 3597 1613 
L 953 1613 
Q 991 1019 1311 708 
Q 1631 397 2203 397 
Q 2534 397 2845 478 
Q 3156 559 3463 722 
L 3463 178 
Q 3153 47 2828 -22 
Q 2503 -91 2169 -91 
Q 1331 -91 842 396 
Q 353 884 353 1716 
Q 353 2575 817 3079 
Q 1281 3584 2069 3584 
Q 2775 3584 3186 3129 
Q 3597 2675 3597 1894 
z
M 3022 2063 
Q 3016 2534 2758 2815 
Q 2500 3097 2075 3097 
Q 1594 3097 1305 2825 
Q 1016 2553 972 2059 
L 3022 2063 
z
" transform="scale(0.015625)"/>
       <path id="DejaVuSans-61" d="M 2194 1759 
Q 1497 1759 1228 1600 
Q 959 1441 959 1056 
Q 959 750 1161 570 
Q 1363 391 1709 391 
Q 2188 391 2477 730 
Q 2766 1069 2766 1631 
L 2766 1759 
L 2194 1759 
z
M 3341 1997 
L 3341 0 
L 2766 0 
L 2766 531 
Q 2569 213 2275 61 
Q 1981 -91 1556 -91 
Q 1019 -91 701 211 
Q 384 513 384 1019 
Q 384 1609 779 1909 
Q 1175 2209 1959 2209 
L 2766 2209 
L 2766 2266 
Q 2766 2663 2505 2880 
Q 2244 3097 1772 3097 
Q 1472 3097 1187 3025 
Q 903 2953 641 2809 
L 641 3341 
Q 956 3463 1253 3523 
Q 1550 3584 1831 3584 
Q 2591 3584 2966 3190 
Q 3341 2797 3341 1997 
z
" transform="scale(0.015625)"/>
       <path id="DejaVuSans-72" d="M 2631 2963 
Q 2534 3019 2420 3045 
Q 2306 3072 2169 3072 
Q 1681 3072 1420 2755 
Q 1159 2438 1159 1844 
L 1159 0 
L 581 0 
L 581 3500 
L 1159 3500 
L 1159 2956 
Q 1341 3275 1631 3429 
Q 1922 3584 2338 3584 
Q 2397 3584 2469 3576 
Q 2541 3569 2628 3553 
L 2631 2963 
z
" transform="scale(0.015625)"/>
       <path id="DejaVuSans-20" transform="scale(0.015625)"/>
       <path id="DejaVuSans-63" d="M 3122 3366 
L 3122 2828 
Q 2878 2963 2633 3030 
Q 2388 3097 2138 3097 
Q 1578 3097 1268 2742 
Q 959 2388 959 1747 
Q 959 1106 1268 751 
Q 1578 397 2138 397 
Q 2388 397 2633 464 
Q 2878 531 3122 666 
L 3122 134 
Q 2881 22 2623 -34 
Q 2366 -91 2075 -91 
Q 1284 -91 818 406 
Q 353 903 353 1747 
Q 353 2603 823 3093 
Q 1294 3584 2113 3584 
Q 2378 3584 2631 3529 
Q 2884 3475 3122 3366 
z
" transform="scale(0.015625)"/>
       <path id="DejaVuSans-6f" d="M 1959 3097 
Q 1497 3097 1228 2736 
Q 959 2375 959 1747 
Q 959 1119 1226 758 
Q 1494 397 1959 397 
Q 2419 397 2687 759 
Q 2956 1122 2956 1747 
Q 2956 2369 2687 2733 
Q 2419 3097 1959 3097 
z
M 1959 3584 
Q 2709 3584 3137 3096 
Q 3566 2609 3566 1747 
Q 3566 888 3137 398 
Q 2709 -91 1959 -91 
Q 1206 -91 779 398 
Q 353 888 353 1747 
Q 353 2609 779 3096 
Q 1206 3584 1959 3584 
z
" transform="scale(0.015625)"/>
       <path id="DejaVuSans-73" d="M 2834 3397 
L 2834 2853 
Q 2591 2978 2328 3040 
Q 2066 3103 1784 3103 
Q 1356 3103 1142 2972 
Q 928 2841 928 2578 
Q 928 2378 1081 2264 
Q 1234 2150 1697 2047 
L 1894 2003 
Q 2506 1872 2764 1633 
Q 3022 1394 3022 966 
Q 3022 478 2636 193 
Q 2250 -91 1575 -91 
Q 1294 -91 989 -36 
Q 684 19 347 128 
L 347 722 
Q 666 556 975 473 
Q 1284 391 1588 391 
Q 1994 391 2212 530 
Q 2431 669 2431 922 
Q 2431 1156 2273 1281 
Q 2116 1406 1581 1522 
L 1381 1569 
Q 847 1681 609 1914 
Q 372 2147 372 2553 
Q 372 3047 722 3315 
Q 1072 3584 1716 3584 
Q 2034 3584 2315 3537 
Q 2597 3491 2834 3397 
z
" transform="scale(0.015625)"/>
       <path id="DejaVuSans-74" d="M 1172 4494 
L 1172 3500 
L 2356 3500 
L 2356 3053 
L 1172 3053 
L 1172 1153 
Q 1172 725 1289 603 
Q 1406 481 1766 481 
L 2356 481 
L 2356 0 
L 1766 0 
Q 1100 0 847 248 
Q 594 497 594 1153 
L 594 3053 
L 172 3053 
L 172 3500 
L 594 3500 
L 594 4494 
L 1172 4494 
z
" transform="scale(0.015625)"/>
      </defs>
      <use xlink:href="#DejaVuSans-66"/>
      <use xlink:href="#DejaVuSans-65" transform="translate(35.205078 0)"/>
      <use xlink:href="#DejaVuSans-61" transform="translate(96.728516 0)"/>
      <use xlink:href="#DejaVuSans-72" transform="translate(158.007812 0)"/>
      <use xlink:href="#DejaVuSans-20" transform="translate(199.121094 0)"/>
      <use xlink:href="#DejaVuSans-63" transform="translate(230.908203 0)"/>
      <use xlink:href="#DejaVuSans-6f" transform="translate(285.888672 0)"/>
      <use xlink:href="#DejaVuSans-73" transform="translate(347.070312 0)"/>
      <use xlink:href="#DejaVuSans-74" transform="translate(399.169922 0)"/>
     </g>
    </g>
   </g>
   <g id="matplotlib.axis_2">
    <g id="ytick_1">
     <g id="line2d_4">
      <defs>
       <path id="ma2abd927b5" d="M 0 0 
L -3.5 0 
" style="stroke: #000000; stroke-width: 0.8"/>
      </defs>
      <g>
       <use xlink:href="#ma2abd927b5" x="54" y="256.32" style="stroke: #000000; stroke-width: 0.8"/>
      </g>
     </g>
     <g id="text_5">
      <!-- 0 -->
      <g transform="translate(31.73 265.438125) scale(0.24 -0.24)">
       <defs>
        <path id="DejaVuSans-30" d="M 2034 4250 
Q 1547 4250 1301 3770 
Q 1056 3291 1056 2328 
Q 1056 1369 1301 889 
Q 1547 409 2034 409 
Q 2525 409 2770 889 
Q 3016 1369 3016 2328 
Q 3016 3291 2770 3770 
Q 2525 4250 2034 4250 
z
M 2034 4750 
Q 2819 4750 3233 4129 
Q 3647 3509 3647 2328 
Q 3647 1150 3233 529 
Q 2819 -91 2034 -91 
Q 1250 -91 836 529 
Q 422 1150 422 2328 
Q 422 3509 836 4129 
Q 1250 4750 2034 4750 
z
" transform="scale(0.015625)"/>
       </defs>
       <use xlink:href="#DejaVuSans-30"/>
      </g>
     </g>
    </g>
    <g id="ytick_2">
     <g id="line2d_5">
      <g>
       <use xlink:href="#ma2abd927b5" x="54" y="182.4" style="stroke: #000000; stroke-width: 0.8"/>
      </g>
     </g>
     <g id="text_6">
      <!-- 5 -->
      <g transform="translate(31.73 191.518125) scale(0.24 -0.24)">
       <defs>
        <path id="DejaVuSans-35" d="M 691 4666 
L 3169 4666 
L 3169 4134 
L 1269 4134 
L 1269 2991 
Q 1406 3038 1543 3061 
Q 1681 3084 1819 3084 
Q 2600 3084 3056 2656 
Q 3513 2228 3513 1497 
Q 3513 744 3044 326 
Q 2575 -91 1722 -91 
Q 1428 -91 1123 -41 
Q 819 9 494 109 
L 494 744 
Q 775 591 1075 516 
Q 1375 441 1709 441 
Q 2250 441 2565 725 
Q 2881 1009 2881 1497 
Q 2881 1984 2565 2268 
Q 2250 2553 1709 2553 
Q 1456 2553 1204 2497 
Q 953 2441 691 2322 
L 691 4666 
z
" transform="scale(0.015625)"/>
       </defs>
       <use xlink:href="#DejaVuSans-35"/>
      </g>
     </g>
    </g>
    <g id="ytick_3">
     <g id="line2d_6">
      <g>
       <use xlink:href="#ma2abd927b5" x="54" y="108.48" style="stroke: #000000; stroke-width: 0.8"/>
      </g>
     </g>
     <g id="text_7">
      <!-- 10 -->
      <g transform="translate(16.46 117.598125) scale(0.24 -0.24)">
       <use xlink:href="#DejaVuSans-31"/>
       <use xlink:href="#DejaVuSans-30" transform="translate(63.623047 0)"/>
      </g>
     </g>
    </g>
    <g id="ytick_4">
     <g id="line2d_7">
      <g>
       <use xlink:href="#ma2abd927b5" x="54" y="34.56" style="stroke: #000000; stroke-width: 0.8"/>
      </g>
     </g>
     <g id="text_8">
      <!-- 15 -->
      <g transform="translate(16.46 43.678125) scale(0.24 -0.24)">
       <use xlink:href="#DejaVuSans-31"/>
       <use xlink:href="#DejaVuSans-35" transform="translate(63.623047 0)"/>
      </g>
     </g>
    </g>
    <g id="text_9">
     <!-- Avg. time to  -->
     <g transform="translate(-19.406 222.076875) rotate(-90) scale(0.24 -0.24)">
      <defs>
       <path id="DejaVuSans-41" d="M 2188 4044 
L 1331 1722 
L 3047 1722 
L 2188 4044 
z
M 1831 4666 
L 2547 4666 
L 4325 0 
L 3669 0 
L 3244 1197 
L 1141 1197 
L 716 0 
L 50 0 
L 1831 4666 
z
" transform="scale(0.015625)"/>
       <path id="DejaVuSans-76" d="M 191 3500 
L 800 3500 
L 1894 563 
L 2988 3500 
L 3597 3500 
L 2284 0 
L 1503 0 
L 191 3500 
z
" transform="scale(0.015625)"/>
       <path id="DejaVuSans-67" d="M 2906 1791 
Q 2906 2416 2648 2759 
Q 2391 3103 1925 3103 
Q 1463 3103 1205 2759 
Q 947 2416 947 1791 
Q 947 1169 1205 825 
Q 1463 481 1925 481 
Q 2391 481 2648 825 
Q 2906 1169 2906 1791 
z
M 3481 434 
Q 3481 -459 3084 -895 
Q 2688 -1331 1869 -1331 
Q 1566 -1331 1297 -1286 
Q 1028 -1241 775 -1147 
L 775 -588 
Q 1028 -725 1275 -790 
Q 1522 -856 1778 -856 
Q 2344 -856 2625 -561 
Q 2906 -266 2906 331 
L 2906 616 
Q 2728 306 2450 153 
Q 2172 0 1784 0 
Q 1141 0 747 490 
Q 353 981 353 1791 
Q 353 2603 747 3093 
Q 1141 3584 1784 3584 
Q 2172 3584 2450 3431 
Q 2728 3278 2906 2969 
L 2906 3500 
L 3481 3500 
L 3481 434 
z
" transform="scale(0.015625)"/>
       <path id="DejaVuSans-2e" d="M 684 794 
L 1344 794 
L 1344 0 
L 684 0 
L 684 794 
z
" transform="scale(0.015625)"/>
       <path id="DejaVuSans-69" d="M 603 3500 
L 1178 3500 
L 1178 0 
L 603 0 
L 603 3500 
z
M 603 4863 
L 1178 4863 
L 1178 4134 
L 603 4134 
L 603 4863 
z
" transform="scale(0.015625)"/>
       <path id="DejaVuSans-6d" d="M 3328 2828 
Q 3544 3216 3844 3400 
Q 4144 3584 4550 3584 
Q 5097 3584 5394 3201 
Q 5691 2819 5691 2113 
L 5691 0 
L 5113 0 
L 5113 2094 
Q 5113 2597 4934 2840 
Q 4756 3084 4391 3084 
Q 3944 3084 3684 2787 
Q 3425 2491 3425 1978 
L 3425 0 
L 2847 0 
L 2847 2094 
Q 2847 2600 2669 2842 
Q 2491 3084 2119 3084 
Q 1678 3084 1418 2786 
Q 1159 2488 1159 1978 
L 1159 0 
L 581 0 
L 581 3500 
L 1159 3500 
L 1159 2956 
Q 1356 3278 1631 3431 
Q 1906 3584 2284 3584 
Q 2666 3584 2933 3390 
Q 3200 3197 3328 2828 
z
" transform="scale(0.015625)"/>
      </defs>
      <use xlink:href="#DejaVuSans-41"/>
      <use xlink:href="#DejaVuSans-76" transform="translate(62.533203 0)"/>
      <use xlink:href="#DejaVuSans-67" transform="translate(121.712891 0)"/>
      <use xlink:href="#DejaVuSans-2e" transform="translate(185.189453 0)"/>
      <use xlink:href="#DejaVuSans-20" transform="translate(216.976562 0)"/>
      <use xlink:href="#DejaVuSans-74" transform="translate(248.763672 0)"/>
      <use xlink:href="#DejaVuSans-69" transform="translate(287.972656 0)"/>
      <use xlink:href="#DejaVuSans-6d" transform="translate(315.755859 0)"/>
      <use xlink:href="#DejaVuSans-65" transform="translate(413.167969 0)"/>
      <use xlink:href="#DejaVuSans-20" transform="translate(474.691406 0)"/>
      <use xlink:href="#DejaVuSans-74" transform="translate(506.478516 0)"/>
      <use xlink:href="#DejaVuSans-6f" transform="translate(545.6875 0)"/>
      <use xlink:href="#DejaVuSans-20" transform="translate(606.869141 0)"/>
     </g>
     <!--  complete task -->
     <g transform="translate(7.46875 234.37875) rotate(-90) scale(0.24 -0.24)">
      <defs>
       <path id="DejaVuSans-70" d="M 1159 525 
L 1159 -1331 
L 581 -1331 
L 581 3500 
L 1159 3500 
L 1159 2969 
Q 1341 3281 1617 3432 
Q 1894 3584 2278 3584 
Q 2916 3584 3314 3078 
Q 3713 2572 3713 1747 
Q 3713 922 3314 415 
Q 2916 -91 2278 -91 
Q 1894 -91 1617 61 
Q 1341 213 1159 525 
z
M 3116 1747 
Q 3116 2381 2855 2742 
Q 2594 3103 2138 3103 
Q 1681 3103 1420 2742 
Q 1159 2381 1159 1747 
Q 1159 1113 1420 752 
Q 1681 391 2138 391 
Q 2594 391 2855 752 
Q 3116 1113 3116 1747 
z
" transform="scale(0.015625)"/>
       <path id="DejaVuSans-6c" d="M 603 4863 
L 1178 4863 
L 1178 0 
L 603 0 
L 603 4863 
z
" transform="scale(0.015625)"/>
       <path id="DejaVuSans-6b" d="M 581 4863 
L 1159 4863 
L 1159 1991 
L 2875 3500 
L 3609 3500 
L 1753 1863 
L 3688 0 
L 2938 0 
L 1159 1709 
L 1159 0 
L 581 0 
L 581 4863 
z
" transform="scale(0.015625)"/>
      </defs>
      <use xlink:href="#DejaVuSans-20"/>
      <use xlink:href="#DejaVuSans-63" transform="translate(31.787109 0)"/>
      <use xlink:href="#DejaVuSans-6f" transform="translate(86.767578 0)"/>
      <use xlink:href="#DejaVuSans-6d" transform="translate(147.949219 0)"/>
      <use xlink:href="#DejaVuSans-70" transform="translate(245.361328 0)"/>
      <use xlink:href="#DejaVuSans-6c" transform="translate(308.837891 0)"/>
      <use xlink:href="#DejaVuSans-65" transform="translate(336.621094 0)"/>
      <use xlink:href="#DejaVuSans-74" transform="translate(398.144531 0)"/>
      <use xlink:href="#DejaVuSans-65" transform="translate(437.353516 0)"/>
      <use xlink:href="#DejaVuSans-20" transform="translate(498.876953 0)"/>
      <use xlink:href="#DejaVuSans-74" transform="translate(530.664062 0)"/>
      <use xlink:href="#DejaVuSans-61" transform="translate(569.873047 0)"/>
      <use xlink:href="#DejaVuSans-73" transform="translate(631.152344 0)"/>
      <use xlink:href="#DejaVuSans-6b" transform="translate(683.251953 0)"/>
     </g>
    </g>
   </g>
   <g id="LineCollection_1">
    <path d="M 373.581818 53.05729 
L 373.581818 52.058536 
" clip-path="url(#p158dc3d6bd)" style="fill: none; stroke: #b8e3b2; stroke-width: 3"/>
    <path d="M 339.763636 49.344 
L 339.763636 49.344 
" clip-path="url(#p158dc3d6bd)" style="fill: none; stroke: #b8e3b2; stroke-width: 3"/>
    <path d="M 305.945455 49.344 
L 305.945455 49.344 
" clip-path="url(#p158dc3d6bd)" style="fill: none; stroke: #b8e3b2; stroke-width: 3"/>
    <path clip-path="url(#p158dc3d6bd)" style="fill: none; stroke: #b8e3b2; stroke-width: 3"/>
    <path clip-path="url(#p158dc3d6bd)" style="fill: none; stroke: #b8e3b2; stroke-width: 3"/>
    <path clip-path="url(#p158dc3d6bd)" style="fill: none; stroke: #b8e3b2; stroke-width: 3"/>
    <path clip-path="url(#p158dc3d6bd)" style="fill: none; stroke: #b8e3b2; stroke-width: 3"/>
    <path clip-path="url(#p158dc3d6bd)" style="fill: none; stroke: #b8e3b2; stroke-width: 3"/>
    <path clip-path="url(#p158dc3d6bd)" style="fill: none; stroke: #b8e3b2; stroke-width: 3"/>
    <path clip-path="url(#p158dc3d6bd)" style="fill: none; stroke: #b8e3b2; stroke-width: 3"/>
   </g>
   <g id="LineCollection_2">
    <path d="M 373.581818 202.504348 
L 373.581818 200.822756 
" clip-path="url(#p158dc3d6bd)" style="fill: none; stroke: #66bd6f; stroke-width: 3"/>
    <path d="M 339.763636 172.701676 
L 339.763636 170.166505 
" clip-path="url(#p158dc3d6bd)" style="fill: none; stroke: #66bd6f; stroke-width: 3"/>
    <path d="M 305.945455 54.124778 
L 305.945455 53.547155 
" clip-path="url(#p158dc3d6bd)" style="fill: none; stroke: #66bd6f; stroke-width: 3"/>
    <path d="M 272.127273 50.259541 
L 272.127273 49.842581 
" clip-path="url(#p158dc3d6bd)" style="fill: none; stroke: #66bd6f; stroke-width: 3"/>
    <path d="M 238.309091 49.559825 
L 238.309091 49.344 
" clip-path="url(#p158dc3d6bd)" style="fill: none; stroke: #66bd6f; stroke-width: 3"/>
    <path d="M 204.490909 49.5552 
L 204.490909 49.344 
" clip-path="url(#p158dc3d6bd)" style="fill: none; stroke: #66bd6f; stroke-width: 3"/>
    <path d="M 170.672727 49.603368 
L 170.672727 49.344 
" clip-path="url(#p158dc3d6bd)" style="fill: none; stroke: #66bd6f; stroke-width: 3"/>
    <path d="M 136.854545 49.344 
L 136.854545 49.344 
" clip-path="url(#p158dc3d6bd)" style="fill: none; stroke: #66bd6f; stroke-width: 3"/>
    <path clip-path="url(#p158dc3d6bd)" style="fill: none; stroke: #66bd6f; stroke-width: 3"/>
    <path clip-path="url(#p158dc3d6bd)" style="fill: none; stroke: #66bd6f; stroke-width: 3"/>
   </g>
   <g id="LineCollection_3">
    <path d="M 373.581818 236.651102 
L 373.581818 235.805986 
" clip-path="url(#p158dc3d6bd)" style="fill: none; stroke: #1e8741; stroke-width: 3"/>
    <path d="M 339.763636 236.18875 
L 339.763636 235.322162 
" clip-path="url(#p158dc3d6bd)" style="fill: none; stroke: #1e8741; stroke-width: 3"/>
    <path d="M 305.945455 233.414482 
L 305.945455 232.448942 
" clip-path="url(#p158dc3d6bd)" style="fill: none; stroke: #1e8741; stroke-width: 3"/>
    <path d="M 272.127273 233.471909 
L 272.127273 232.480219 
" clip-path="url(#p158dc3d6bd)" style="fill: none; stroke: #1e8741; stroke-width: 3"/>
    <path d="M 238.309091 231.647816 
L 238.309091 230.578744 
" clip-path="url(#p158dc3d6bd)" style="fill: none; stroke: #1e8741; stroke-width: 3"/>
    <path d="M 204.490909 229.282544 
L 204.490909 228.124432 
" clip-path="url(#p158dc3d6bd)" style="fill: none; stroke: #1e8741; stroke-width: 3"/>
    <path d="M 170.672727 227.304051 
L 170.672727 226.052109 
" clip-path="url(#p158dc3d6bd)" style="fill: none; stroke: #1e8741; stroke-width: 3"/>
    <path d="M 136.854545 223.291165 
L 136.854545 221.904227 
" clip-path="url(#p158dc3d6bd)" style="fill: none; stroke: #1e8741; stroke-width: 3"/>
    <path d="M 103.036364 217.446564 
L 103.036364 215.773788 
" clip-path="url(#p158dc3d6bd)" style="fill: none; stroke: #1e8741; stroke-width: 3"/>
    <path d="M 69.218182 209.122863 
L 69.218182 207.332433 
" clip-path="url(#p158dc3d6bd)" style="fill: none; stroke: #1e8741; stroke-width: 3"/>
   </g>
   <g id="line2d_8">
    <path d="M 373.581818 52.557913 
L 339.763636 49.344 
L 305.945455 49.344 
" clip-path="url(#p158dc3d6bd)" style="fill: none; stroke-dasharray: 11.1,4.8; stroke-dashoffset: 0; stroke: #b8e3b2; stroke-width: 3"/>
    <defs>
     <path id="mad27f06a77" d="M 0 3 
C 0.795609 3 1.55874 2.683901 2.12132 2.12132 
C 2.683901 1.55874 3 0.795609 3 0 
C 3 -0.795609 2.683901 -1.55874 2.12132 -2.12132 
C 1.55874 -2.683901 0.795609 -3 0 -3 
C -0.795609 -3 -1.55874 -2.683901 -2.12132 -2.12132 
C -2.683901 -1.55874 -3 -0.795609 -3 0 
C -3 0.795609 -2.683901 1.55874 -2.12132 2.12132 
C -1.55874 2.683901 -0.795609 3 0 3 
z
" style="stroke: #b8e3b2"/>
    </defs>
    <g clip-path="url(#p158dc3d6bd)">
     <use xlink:href="#mad27f06a77" x="373.581818" y="52.557913" style="fill: #b8e3b2; stroke: #b8e3b2"/>
     <use xlink:href="#mad27f06a77" x="339.763636" y="49.344" style="fill: #b8e3b2; stroke: #b8e3b2"/>
     <use xlink:href="#mad27f06a77" x="305.945455" y="49.344" style="fill: #b8e3b2; stroke: #b8e3b2"/>
    </g>
   </g>
   <g id="line2d_9">
    <path d="M 373.581818 201.663552 
L 339.763636 171.43409 
L 305.945455 53.835967 
L 272.127273 50.051061 
L 238.309091 49.451912 
L 204.490909 49.4496 
L 170.672727 49.473684 
L 136.854545 49.344 
L 103.036364 49.344 
L 69.218182 49.344 
" clip-path="url(#p158dc3d6bd)" style="fill: none; stroke-dasharray: 11.1,4.8; stroke-dashoffset: 0; stroke: #66bd6f; stroke-width: 3"/>
    <defs>
     <path id="m3bcdd25903" d="M 0 3 
C 0.795609 3 1.55874 2.683901 2.12132 2.12132 
C 2.683901 1.55874 3 0.795609 3 0 
C 3 -0.795609 2.683901 -1.55874 2.12132 -2.12132 
C 1.55874 -2.683901 0.795609 -3 0 -3 
C -0.795609 -3 -1.55874 -2.683901 -2.12132 -2.12132 
C -2.683901 -1.55874 -3 -0.795609 -3 0 
C -3 0.795609 -2.683901 1.55874 -2.12132 2.12132 
C -1.55874 2.683901 -0.795609 3 0 3 
z
" style="stroke: #66bd6f"/>
    </defs>
    <g clip-path="url(#p158dc3d6bd)">
     <use xlink:href="#m3bcdd25903" x="373.581818" y="201.663552" style="fill: #66bd6f; stroke: #66bd6f"/>
     <use xlink:href="#m3bcdd25903" x="339.763636" y="171.43409" style="fill: #66bd6f; stroke: #66bd6f"/>
     <use xlink:href="#m3bcdd25903" x="305.945455" y="53.835967" style="fill: #66bd6f; stroke: #66bd6f"/>
     <use xlink:href="#m3bcdd25903" x="272.127273" y="50.051061" style="fill: #66bd6f; stroke: #66bd6f"/>
     <use xlink:href="#m3bcdd25903" x="238.309091" y="49.451912" style="fill: #66bd6f; stroke: #66bd6f"/>
     <use xlink:href="#m3bcdd25903" x="204.490909" y="49.4496" style="fill: #66bd6f; stroke: #66bd6f"/>
     <use xlink:href="#m3bcdd25903" x="170.672727" y="49.473684" style="fill: #66bd6f; stroke: #66bd6f"/>
     <use xlink:href="#m3bcdd25903" x="136.854545" y="49.344" style="fill: #66bd6f; stroke: #66bd6f"/>
     <use xlink:href="#m3bcdd25903" x="103.036364" y="49.344" style="fill: #66bd6f; stroke: #66bd6f"/>
     <use xlink:href="#m3bcdd25903" x="69.218182" y="49.344" style="fill: #66bd6f; stroke: #66bd6f"/>
    </g>
   </g>
   <g id="line2d_10">
    <path d="M 373.581818 236.228544 
L 339.763636 235.755456 
L 305.945455 232.931712 
L 272.127273 232.976064 
L 238.309091 231.11328 
L 204.490909 228.703488 
L 170.672727 226.67808 
L 136.854545 222.597696 
L 103.036364 216.610176 
L 69.218182 208.227648 
" clip-path="url(#p158dc3d6bd)" style="fill: none; stroke-dasharray: 11.1,4.8; stroke-dashoffset: 0; stroke: #1e8741; stroke-width: 3"/>
    <defs>
     <path id="m43cbfe0944" d="M 0 3 
C 0.795609 3 1.55874 2.683901 2.12132 2.12132 
C 2.683901 1.55874 3 0.795609 3 0 
C 3 -0.795609 2.683901 -1.55874 2.12132 -2.12132 
C 1.55874 -2.683901 0.795609 -3 0 -3 
C -0.795609 -3 -1.55874 -2.683901 -2.12132 -2.12132 
C -2.683901 -1.55874 -3 -0.795609 -3 0 
C -3 0.795609 -2.683901 1.55874 -2.12132 2.12132 
C -1.55874 2.683901 -0.795609 3 0 3 
z
" style="stroke: #1e8741"/>
    </defs>
    <g clip-path="url(#p158dc3d6bd)">
     <use xlink:href="#m43cbfe0944" x="373.581818" y="236.228544" style="fill: #1e8741; stroke: #1e8741"/>
     <use xlink:href="#m43cbfe0944" x="339.763636" y="235.755456" style="fill: #1e8741; stroke: #1e8741"/>
     <use xlink:href="#m43cbfe0944" x="305.945455" y="232.931712" style="fill: #1e8741; stroke: #1e8741"/>
     <use xlink:href="#m43cbfe0944" x="272.127273" y="232.976064" style="fill: #1e8741; stroke: #1e8741"/>
     <use xlink:href="#m43cbfe0944" x="238.309091" y="231.11328" style="fill: #1e8741; stroke: #1e8741"/>
     <use xlink:href="#m43cbfe0944" x="204.490909" y="228.703488" style="fill: #1e8741; stroke: #1e8741"/>
     <use xlink:href="#m43cbfe0944" x="170.672727" y="226.67808" style="fill: #1e8741; stroke: #1e8741"/>
     <use xlink:href="#m43cbfe0944" x="136.854545" y="222.597696" style="fill: #1e8741; stroke: #1e8741"/>
     <use xlink:href="#m43cbfe0944" x="103.036364" y="216.610176" style="fill: #1e8741; stroke: #1e8741"/>
     <use xlink:href="#m43cbfe0944" x="69.218182" y="208.227648" style="fill: #1e8741; stroke: #1e8741"/>
    </g>
   </g>
   <g id="patch_3">
    <path d="M 54 256.32 
L 54 34.56 
" style="fill: none; stroke: #000000; stroke-width: 2; stroke-linejoin: miter; stroke-linecap: square"/>
   </g>
   <g id="patch_4">
    <path d="M 54 256.32 
L 388.8 256.32 
" style="fill: none; stroke: #000000; stroke-width: 2; stroke-linejoin: miter; stroke-linecap: square"/>
   </g>
   <g id="legend_1">
    <g id="LineCollection_4">
     <path d="M 111.861563 22.785188 
L 111.861563 4.785188 
" style="fill: none; stroke: #b8e3b2; stroke-width: 3"/>
    </g>
    <g id="line2d_11">
     <path d="M 93.861563 13.785188 
L 129.861563 13.785188 
" style="fill: none; stroke-dasharray: 11.1,4.8; stroke-dashoffset: 0; stroke: #b8e3b2; stroke-width: 3"/>
    </g>
    <g id="line2d_12">
     <g>
      <use xlink:href="#mad27f06a77" x="111.861563" y="13.785188" style="fill: #b8e3b2; stroke: #b8e3b2"/>
     </g>
    </g>
    <g id="text_10">
     <!-- 0.5 -->
     <g transform="translate(144.261563 20.085188) scale(0.18 -0.18)">
      <use xlink:href="#DejaVuSans-30"/>
      <use xlink:href="#DejaVuSans-2e" transform="translate(63.623047 0)"/>
      <use xlink:href="#DejaVuSans-35" transform="translate(95.410156 0)"/>
     </g>
    </g>
    <g id="LineCollection_5">
     <path d="M 199.887188 22.785188 
L 199.887188 4.785188 
" style="fill: none; stroke: #66bd6f; stroke-width: 3"/>
    </g>
    <g id="line2d_13">
     <path d="M 181.887188 13.785188 
L 217.887188 13.785188 
" style="fill: none; stroke-dasharray: 11.1,4.8; stroke-dashoffset: 0; stroke: #66bd6f; stroke-width: 3"/>
    </g>
    <g id="line2d_14">
     <g>
      <use xlink:href="#m3bcdd25903" x="199.887188" y="13.785188" style="fill: #66bd6f; stroke: #66bd6f"/>
     </g>
    </g>
    <g id="text_11">
     <!-- 0.7 -->
     <g transform="translate(232.287188 20.085188) scale(0.18 -0.18)">
      <defs>
       <path id="DejaVuSans-37" d="M 525 4666 
L 3525 4666 
L 3525 4397 
L 1831 0 
L 1172 0 
L 2766 4134 
L 525 4134 
L 525 4666 
z
" transform="scale(0.015625)"/>
      </defs>
      <use xlink:href="#DejaVuSans-30"/>
      <use xlink:href="#DejaVuSans-2e" transform="translate(63.623047 0)"/>
      <use xlink:href="#DejaVuSans-37" transform="translate(95.410156 0)"/>
     </g>
    </g>
    <g id="LineCollection_6">
     <path d="M 287.912813 22.785188 
L 287.912813 4.785188 
" style="fill: none; stroke: #1e8741; stroke-width: 3"/>
    </g>
    <g id="line2d_15">
     <path d="M 269.912813 13.785188 
L 305.912813 13.785188 
" style="fill: none; stroke-dasharray: 11.1,4.8; stroke-dashoffset: 0; stroke: #1e8741; stroke-width: 3"/>
    </g>
    <g id="line2d_16">
     <g>
      <use xlink:href="#m43cbfe0944" x="287.912813" y="13.785188" style="fill: #1e8741; stroke: #1e8741"/>
     </g>
    </g>
    <g id="text_12">
     <!-- 0.9 -->
     <g transform="translate(320.312813 20.085188) scale(0.18 -0.18)">
      <defs>
       <path id="DejaVuSans-39" d="M 703 97 
L 703 672 
Q 941 559 1184 500 
Q 1428 441 1663 441 
Q 2288 441 2617 861 
Q 2947 1281 2994 2138 
Q 2813 1869 2534 1725 
Q 2256 1581 1919 1581 
Q 1219 1581 811 2004 
Q 403 2428 403 3163 
Q 403 3881 828 4315 
Q 1253 4750 1959 4750 
Q 2769 4750 3195 4129 
Q 3622 3509 3622 2328 
Q 3622 1225 3098 567 
Q 2575 -91 1691 -91 
Q 1453 -91 1209 -44 
Q 966 3 703 97 
z
M 1959 2075 
Q 2384 2075 2632 2365 
Q 2881 2656 2881 3163 
Q 2881 3666 2632 3958 
Q 2384 4250 1959 4250 
Q 1534 4250 1286 3958 
Q 1038 3666 1038 3163 
Q 1038 2656 1286 2365 
Q 1534 2075 1959 2075 
z
" transform="scale(0.015625)"/>
      </defs>
      <use xlink:href="#DejaVuSans-30"/>
      <use xlink:href="#DejaVuSans-2e" transform="translate(63.623047 0)"/>
      <use xlink:href="#DejaVuSans-39" transform="translate(95.410156 0)"/>
     </g>
    </g>
   </g>
  </g>
  <g id="text_13">
   <!-- $\eta$ -->
   <g transform="translate(31.2 6.57375) scale(0.24 -0.24)">
    <defs>
     <path id="DejaVuSans-Oblique-3b7" d="M 3703 2113 
L 3034 -1331 
L 2459 -1331 
L 3125 2094 
Q 3222 2591 3075 2838 
Q 2931 3084 2544 3084 
Q 2078 3084 1750 2788 
Q 1425 2491 1325 1978 
L 941 0 
L 363 0 
L 1044 3500 
L 1622 3500 
L 1516 2956 
Q 1781 3272 2094 3428 
Q 2403 3584 2769 3584 
Q 3372 3584 3609 3213 
Q 3844 2838 3703 2113 
z
" transform="scale(0.015625)"/>
    </defs>
    <use xlink:href="#DejaVuSans-Oblique-3b7"/>
   </g>
  </g>
 </g>
 <defs>
  <clipPath id="p158dc3d6bd">
   <rect x="54" y="34.56" width="334.8" height="221.76"/>
  </clipPath>
 </defs>
</svg>
