<?xml version="1.0" encoding="utf-8" standalone="no"?>
<!DOCTYPE svg PUBLIC "-//W3C//DTD SVG 1.1//EN"
  "http://www.w3.org/Graphics/SVG/1.1/DTD/svg11.dtd">
<svg xmlns:xlink="http://www.w3.org/1999/xlink" width="432pt" height="288pt" viewBox="0 0 432 288" xmlns="http://www.w3.org/2000/svg" version="1.1">
 <metadata>
  <rdf:RDF xmlns:dc="http://purl.org/dc/elements/1.1/" xmlns:cc="http://creativecommons.org/ns#" xmlns:rdf="http://www.w3.org/1999/02/22-rdf-syntax-ns#">
   <cc:Work>
    <dc:type rdf:resource="http://purl.org/dc/dcmitype/StillImage"/>
    <dc:date>2025-06-17T11:19:43.823907</dc:date>
    <dc:format>image/svg+xml</dc:format>
    <dc:creator>
     <cc:Agent>
      <dc:title>Matplotlib v3.9.2, https://matplotlib.org/</dc:title>
     </cc:Agent>
    </dc:creator>
   </cc:Work>
  </rdf:RDF>
 </metadata>
 <defs>
  <style type="text/css">*{stroke-linejoin: round; stroke-linecap: butt}</style>
 </defs>
 <g id="figure_1">
  <g id="patch_1">
   <path d="M 0 288 
L 432 288 
L 432 0 
L 0 0 
z
" style="fill: #ffffff"/>
  </g>
  <g id="axes_1">
   <g id="patch_2">
    <path d="M 54 256.32 
L 388.8 256.32 
L 388.8 34.56 
L 54 34.56 
z
" style="fill: #ffffff"/>
   </g>
   <g id="matplotlib.axis_1">
    <g id="xtick_1">
     <g id="line2d_1">
      <defs>
       <path id="me4c5bb57c8" d="M 0 0 
L 0 3.5 
" style="stroke: #000000; stroke-width: 0.8"/>
      </defs>
      <g>
       <use xlink:href="#me4c5bb57c8" x="130.090909" y="256.32" style="stroke: #000000; stroke-width: 0.8"/>
      </g>
     </g>
     <g id="text_1">
      <!-- 0.6 -->
      <g transform="translate(111.007159 281.55625) scale(0.24 -0.24)">
       <defs>
        <path id="DejaVuSans-30" d="M 2034 4250 
Q 1547 4250 1301 3770 
Q 1056 3291 1056 2328 
Q 1056 1369 1301 889 
Q 1547 409 2034 409 
Q 2525 409 2770 889 
Q 3016 1369 3016 2328 
Q 3016 3291 2770 3770 
Q 2525 4250 2034 4250 
z
M 2034 4750 
Q 2819 4750 3233 4129 
Q 3647 3509 3647 2328 
Q 3647 1150 3233 529 
Q 2819 -91 2034 -91 
Q 1250 -91 836 529 
Q 422 1150 422 2328 
Q 422 3509 836 4129 
Q 1250 4750 2034 4750 
z
" transform="scale(0.015625)"/>
        <path id="DejaVuSans-2e" d="M 684 794 
L 1344 794 
L 1344 0 
L 684 0 
L 684 794 
z
" transform="scale(0.015625)"/>
        <path id="DejaVuSans-36" d="M 2113 2584 
Q 1688 2584 1439 2293 
Q 1191 2003 1191 1497 
Q 1191 994 1439 701 
Q 1688 409 2113 409 
Q 2538 409 2786 701 
Q 3034 994 3034 1497 
Q 3034 2003 2786 2293 
Q 2538 2584 2113 2584 
z
M 3366 4563 
L 3366 3988 
Q 3128 4100 2886 4159 
Q 2644 4219 2406 4219 
Q 1781 4219 1451 3797 
Q 1122 3375 1075 2522 
Q 1259 2794 1537 2939 
Q 1816 3084 2150 3084 
Q 2853 3084 3261 2657 
Q 3669 2231 3669 1497 
Q 3669 778 3244 343 
Q 2819 -91 2113 -91 
Q 1303 -91 875 529 
Q 447 1150 447 2328 
Q 447 3434 972 4092 
Q 1497 4750 2381 4750 
Q 2619 4750 2861 4703 
Q 3103 4656 3366 4563 
z
" transform="scale(0.015625)"/>
       </defs>
       <use xlink:href="#DejaVuSans-30"/>
       <use xlink:href="#DejaVuSans-2e" x="63.623047"/>
       <use xlink:href="#DejaVuSans-36" x="95.410156"/>
      </g>
     </g>
    </g>
    <g id="xtick_2">
     <g id="line2d_2">
      <g>
       <use xlink:href="#me4c5bb57c8" x="251.836364" y="256.32" style="stroke: #000000; stroke-width: 0.8"/>
      </g>
     </g>
     <g id="text_2">
      <!-- 0.8 -->
      <g transform="translate(232.752614 281.55625) scale(0.24 -0.24)">
       <defs>
        <path id="DejaVuSans-38" d="M 2034 2216 
Q 1584 2216 1326 1975 
Q 1069 1734 1069 1313 
Q 1069 891 1326 650 
Q 1584 409 2034 409 
Q 2484 409 2743 651 
Q 3003 894 3003 1313 
Q 3003 1734 2745 1975 
Q 2488 2216 2034 2216 
z
M 1403 2484 
Q 997 2584 770 2862 
Q 544 3141 544 3541 
Q 544 4100 942 4425 
Q 1341 4750 2034 4750 
Q 2731 4750 3128 4425 
Q 3525 4100 3525 3541 
Q 3525 3141 3298 2862 
Q 3072 2584 2669 2484 
Q 3125 2378 3379 2068 
Q 3634 1759 3634 1313 
Q 3634 634 3220 271 
Q 2806 -91 2034 -91 
Q 1263 -91 848 271 
Q 434 634 434 1313 
Q 434 1759 690 2068 
Q 947 2378 1403 2484 
z
M 1172 3481 
Q 1172 3119 1398 2916 
Q 1625 2713 2034 2713 
Q 2441 2713 2670 2916 
Q 2900 3119 2900 3481 
Q 2900 3844 2670 4047 
Q 2441 4250 2034 4250 
Q 1625 4250 1398 4047 
Q 1172 3844 1172 3481 
z
" transform="scale(0.015625)"/>
       </defs>
       <use xlink:href="#DejaVuSans-30"/>
       <use xlink:href="#DejaVuSans-2e" x="63.623047"/>
       <use xlink:href="#DejaVuSans-38" x="95.410156"/>
      </g>
     </g>
    </g>
    <g id="xtick_3">
     <g id="line2d_3">
      <g>
       <use xlink:href="#me4c5bb57c8" x="373.581818" y="256.32" style="stroke: #000000; stroke-width: 0.8"/>
      </g>
     </g>
     <g id="text_3">
      <!-- 1.0 -->
      <g transform="translate(354.498068 281.55625) scale(0.24 -0.24)">
       <defs>
        <path id="DejaVuSans-31" d="M 794 531 
L 1825 531 
L 1825 4091 
L 703 3866 
L 703 4441 
L 1819 4666 
L 2450 4666 
L 2450 531 
L 3481 531 
L 3481 0 
L 794 0 
L 794 531 
z
" transform="scale(0.015625)"/>
       </defs>
       <use xlink:href="#DejaVuSans-31"/>
       <use xlink:href="#DejaVuSans-2e" x="63.623047"/>
       <use xlink:href="#DejaVuSans-30" x="95.410156"/>
      </g>
     </g>
    </g>
    <g id="text_4">
     <!-- $\gamma$ -->
     <g transform="translate(214.2 308.735) scale(0.24 -0.24)">
      <defs>
       <path id="DejaVuSans-Oblique-3b3" d="M 1491 2950 
L 1838 788 
L 3456 3500 
L 4066 3500 
L 1972 0 
L 1713 -1331 
L 1138 -1331 
L 1397 0 
L 988 2613 
Q 925 3006 628 3006 
L 475 3006 
L 569 3500 
L 788 3500 
Q 1403 3500 1491 2950 
z
" transform="scale(0.015625)"/>
      </defs>
      <use xlink:href="#DejaVuSans-Oblique-3b3" transform="translate(0 0.3125)"/>
     </g>
    </g>
   </g>
   <g id="matplotlib.axis_2">
    <g id="ytick_1">
     <g id="line2d_4">
      <defs>
       <path id="m35fee95dd7" d="M 0 0 
L -3.5 0 
" style="stroke: #000000; stroke-width: 0.8"/>
      </defs>
      <g>
       <use xlink:href="#m35fee95dd7" x="54" y="256.32" style="stroke: #000000; stroke-width: 0.8"/>
      </g>
     </g>
     <g id="text_5">
      <!-- 0 -->
      <g transform="translate(31.73 265.438125) scale(0.24 -0.24)">
       <use xlink:href="#DejaVuSans-30"/>
      </g>
     </g>
    </g>
    <g id="ytick_2">
     <g id="line2d_5">
      <g>
       <use xlink:href="#m35fee95dd7" x="54" y="182.4" style="stroke: #000000; stroke-width: 0.8"/>
      </g>
     </g>
     <g id="text_6">
      <!-- 5 -->
      <g transform="translate(31.73 191.518125) scale(0.24 -0.24)">
       <defs>
        <path id="DejaVuSans-35" d="M 691 4666 
L 3169 4666 
L 3169 4134 
L 1269 4134 
L 1269 2991 
Q 1406 3038 1543 3061 
Q 1681 3084 1819 3084 
Q 2600 3084 3056 2656 
Q 3513 2228 3513 1497 
Q 3513 744 3044 326 
Q 2575 -91 1722 -91 
Q 1428 -91 1123 -41 
Q 819 9 494 109 
L 494 744 
Q 775 591 1075 516 
Q 1375 441 1709 441 
Q 2250 441 2565 725 
Q 2881 1009 2881 1497 
Q 2881 1984 2565 2268 
Q 2250 2553 1709 2553 
Q 1456 2553 1204 2497 
Q 953 2441 691 2322 
L 691 4666 
z
" transform="scale(0.015625)"/>
       </defs>
       <use xlink:href="#DejaVuSans-35"/>
      </g>
     </g>
    </g>
    <g id="ytick_3">
     <g id="line2d_6">
      <g>
       <use xlink:href="#m35fee95dd7" x="54" y="108.48" style="stroke: #000000; stroke-width: 0.8"/>
      </g>
     </g>
     <g id="text_7">
      <!-- 10 -->
      <g transform="translate(16.46 117.598125) scale(0.24 -0.24)">
       <use xlink:href="#DejaVuSans-31"/>
       <use xlink:href="#DejaVuSans-30" x="63.623047"/>
      </g>
     </g>
    </g>
    <g id="ytick_4">
     <g id="line2d_7">
      <g>
       <use xlink:href="#m35fee95dd7" x="54" y="34.56" style="stroke: #000000; stroke-width: 0.8"/>
      </g>
     </g>
     <g id="text_8">
      <!-- 15 -->
      <g transform="translate(16.46 43.678125) scale(0.24 -0.24)">
       <use xlink:href="#DejaVuSans-31"/>
       <use xlink:href="#DejaVuSans-35" x="63.623047"/>
      </g>
     </g>
    </g>
    <g id="text_9">
     <!-- Avg. time to  -->
     <g transform="translate(-19.406 222.076875) rotate(-90) scale(0.24 -0.24)">
      <defs>
       <path id="DejaVuSans-41" d="M 2188 4044 
L 1331 1722 
L 3047 1722 
L 2188 4044 
z
M 1831 4666 
L 2547 4666 
L 4325 0 
L 3669 0 
L 3244 1197 
L 1141 1197 
L 716 0 
L 50 0 
L 1831 4666 
z
" transform="scale(0.015625)"/>
       <path id="DejaVuSans-76" d="M 191 3500 
L 800 3500 
L 1894 563 
L 2988 3500 
L 3597 3500 
L 2284 0 
L 1503 0 
L 191 3500 
z
" transform="scale(0.015625)"/>
       <path id="DejaVuSans-67" d="M 2906 1791 
Q 2906 2416 2648 2759 
Q 2391 3103 1925 3103 
Q 1463 3103 1205 2759 
Q 947 2416 947 1791 
Q 947 1169 1205 825 
Q 1463 481 1925 481 
Q 2391 481 2648 825 
Q 2906 1169 2906 1791 
z
M 3481 434 
Q 3481 -459 3084 -895 
Q 2688 -1331 1869 -1331 
Q 1566 -1331 1297 -1286 
Q 1028 -1241 775 -1147 
L 775 -588 
Q 1028 -725 1275 -790 
Q 1522 -856 1778 -856 
Q 2344 -856 2625 -561 
Q 2906 -266 2906 331 
L 2906 616 
Q 2728 306 2450 153 
Q 2172 0 1784 0 
Q 1141 0 747 490 
Q 353 981 353 1791 
Q 353 2603 747 3093 
Q 1141 3584 1784 3584 
Q 2172 3584 2450 3431 
Q 2728 3278 2906 2969 
L 2906 3500 
L 3481 3500 
L 3481 434 
z
" transform="scale(0.015625)"/>
       <path id="DejaVuSans-20" transform="scale(0.015625)"/>
       <path id="DejaVuSans-74" d="M 1172 4494 
L 1172 3500 
L 2356 3500 
L 2356 3053 
L 1172 3053 
L 1172 1153 
Q 1172 725 1289 603 
Q 1406 481 1766 481 
L 2356 481 
L 2356 0 
L 1766 0 
Q 1100 0 847 248 
Q 594 497 594 1153 
L 594 3053 
L 172 3053 
L 172 3500 
L 594 3500 
L 594 4494 
L 1172 4494 
z
" transform="scale(0.015625)"/>
       <path id="DejaVuSans-69" d="M 603 3500 
L 1178 3500 
L 1178 0 
L 603 0 
L 603 3500 
z
M 603 4863 
L 1178 4863 
L 1178 4134 
L 603 4134 
L 603 4863 
z
" transform="scale(0.015625)"/>
       <path id="DejaVuSans-6d" d="M 3328 2828 
Q 3544 3216 3844 3400 
Q 4144 3584 4550 3584 
Q 5097 3584 5394 3201 
Q 5691 2819 5691 2113 
L 5691 0 
L 5113 0 
L 5113 2094 
Q 5113 2597 4934 2840 
Q 4756 3084 4391 3084 
Q 3944 3084 3684 2787 
Q 3425 2491 3425 1978 
L 3425 0 
L 2847 0 
L 2847 2094 
Q 2847 2600 2669 2842 
Q 2491 3084 2119 3084 
Q 1678 3084 1418 2786 
Q 1159 2488 1159 1978 
L 1159 0 
L 581 0 
L 581 3500 
L 1159 3500 
L 1159 2956 
Q 1356 3278 1631 3431 
Q 1906 3584 2284 3584 
Q 2666 3584 2933 3390 
Q 3200 3197 3328 2828 
z
" transform="scale(0.015625)"/>
       <path id="DejaVuSans-65" d="M 3597 1894 
L 3597 1613 
L 953 1613 
Q 991 1019 1311 708 
Q 1631 397 2203 397 
Q 2534 397 2845 478 
Q 3156 559 3463 722 
L 3463 178 
Q 3153 47 2828 -22 
Q 2503 -91 2169 -91 
Q 1331 -91 842 396 
Q 353 884 353 1716 
Q 353 2575 817 3079 
Q 1281 3584 2069 3584 
Q 2775 3584 3186 3129 
Q 3597 2675 3597 1894 
z
M 3022 2063 
Q 3016 2534 2758 2815 
Q 2500 3097 2075 3097 
Q 1594 3097 1305 2825 
Q 1016 2553 972 2059 
L 3022 2063 
z
" transform="scale(0.015625)"/>
       <path id="DejaVuSans-6f" d="M 1959 3097 
Q 1497 3097 1228 2736 
Q 959 2375 959 1747 
Q 959 1119 1226 758 
Q 1494 397 1959 397 
Q 2419 397 2687 759 
Q 2956 1122 2956 1747 
Q 2956 2369 2687 2733 
Q 2419 3097 1959 3097 
z
M 1959 3584 
Q 2709 3584 3137 3096 
Q 3566 2609 3566 1747 
Q 3566 888 3137 398 
Q 2709 -91 1959 -91 
Q 1206 -91 779 398 
Q 353 888 353 1747 
Q 353 2609 779 3096 
Q 1206 3584 1959 3584 
z
" transform="scale(0.015625)"/>
      </defs>
      <use xlink:href="#DejaVuSans-41"/>
      <use xlink:href="#DejaVuSans-76" x="62.533203"/>
      <use xlink:href="#DejaVuSans-67" x="121.712891"/>
      <use xlink:href="#DejaVuSans-2e" x="185.189453"/>
      <use xlink:href="#DejaVuSans-20" x="216.976562"/>
      <use xlink:href="#DejaVuSans-74" x="248.763672"/>
      <use xlink:href="#DejaVuSans-69" x="287.972656"/>
      <use xlink:href="#DejaVuSans-6d" x="315.755859"/>
      <use xlink:href="#DejaVuSans-65" x="413.167969"/>
      <use xlink:href="#DejaVuSans-20" x="474.691406"/>
      <use xlink:href="#DejaVuSans-74" x="506.478516"/>
      <use xlink:href="#DejaVuSans-6f" x="545.6875"/>
      <use xlink:href="#DejaVuSans-20" x="606.869141"/>
     </g>
     <!--  complete task -->
     <g transform="translate(7.46875 234.37875) rotate(-90) scale(0.24 -0.24)">
      <defs>
       <path id="DejaVuSans-63" d="M 3122 3366 
L 3122 2828 
Q 2878 2963 2633 3030 
Q 2388 3097 2138 3097 
Q 1578 3097 1268 2742 
Q 959 2388 959 1747 
Q 959 1106 1268 751 
Q 1578 397 2138 397 
Q 2388 397 2633 464 
Q 2878 531 3122 666 
L 3122 134 
Q 2881 22 2623 -34 
Q 2366 -91 2075 -91 
Q 1284 -91 818 406 
Q 353 903 353 1747 
Q 353 2603 823 3093 
Q 1294 3584 2113 3584 
Q 2378 3584 2631 3529 
Q 2884 3475 3122 3366 
z
" transform="scale(0.015625)"/>
       <path id="DejaVuSans-70" d="M 1159 525 
L 1159 -1331 
L 581 -1331 
L 581 3500 
L 1159 3500 
L 1159 2969 
Q 1341 3281 1617 3432 
Q 1894 3584 2278 3584 
Q 2916 3584 3314 3078 
Q 3713 2572 3713 1747 
Q 3713 922 3314 415 
Q 2916 -91 2278 -91 
Q 1894 -91 1617 61 
Q 1341 213 1159 525 
z
M 3116 1747 
Q 3116 2381 2855 2742 
Q 2594 3103 2138 3103 
Q 1681 3103 1420 2742 
Q 1159 2381 1159 1747 
Q 1159 1113 1420 752 
Q 1681 391 2138 391 
Q 2594 391 2855 752 
Q 3116 1113 3116 1747 
z
" transform="scale(0.015625)"/>
       <path id="DejaVuSans-6c" d="M 603 4863 
L 1178 4863 
L 1178 0 
L 603 0 
L 603 4863 
z
" transform="scale(0.015625)"/>
       <path id="DejaVuSans-61" d="M 2194 1759 
Q 1497 1759 1228 1600 
Q 959 1441 959 1056 
Q 959 750 1161 570 
Q 1363 391 1709 391 
Q 2188 391 2477 730 
Q 2766 1069 2766 1631 
L 2766 1759 
L 2194 1759 
z
M 3341 1997 
L 3341 0 
L 2766 0 
L 2766 531 
Q 2569 213 2275 61 
Q 1981 -91 1556 -91 
Q 1019 -91 701 211 
Q 384 513 384 1019 
Q 384 1609 779 1909 
Q 1175 2209 1959 2209 
L 2766 2209 
L 2766 2266 
Q 2766 2663 2505 2880 
Q 2244 3097 1772 3097 
Q 1472 3097 1187 3025 
Q 903 2953 641 2809 
L 641 3341 
Q 956 3463 1253 3523 
Q 1550 3584 1831 3584 
Q 2591 3584 2966 3190 
Q 3341 2797 3341 1997 
z
" transform="scale(0.015625)"/>
       <path id="DejaVuSans-73" d="M 2834 3397 
L 2834 2853 
Q 2591 2978 2328 3040 
Q 2066 3103 1784 3103 
Q 1356 3103 1142 2972 
Q 928 2841 928 2578 
Q 928 2378 1081 2264 
Q 1234 2150 1697 2047 
L 1894 2003 
Q 2506 1872 2764 1633 
Q 3022 1394 3022 966 
Q 3022 478 2636 193 
Q 2250 -91 1575 -91 
Q 1294 -91 989 -36 
Q 684 19 347 128 
L 347 722 
Q 666 556 975 473 
Q 1284 391 1588 391 
Q 1994 391 2212 530 
Q 2431 669 2431 922 
Q 2431 1156 2273 1281 
Q 2116 1406 1581 1522 
L 1381 1569 
Q 847 1681 609 1914 
Q 372 2147 372 2553 
Q 372 3047 722 3315 
Q 1072 3584 1716 3584 
Q 2034 3584 2315 3537 
Q 2597 3491 2834 3397 
z
" transform="scale(0.015625)"/>
       <path id="DejaVuSans-6b" d="M 581 4863 
L 1159 4863 
L 1159 1991 
L 2875 3500 
L 3609 3500 
L 1753 1863 
L 3688 0 
L 2938 0 
L 1159 1709 
L 1159 0 
L 581 0 
L 581 4863 
z
" transform="scale(0.015625)"/>
      </defs>
      <use xlink:href="#DejaVuSans-20"/>
      <use xlink:href="#DejaVuSans-63" x="31.787109"/>
      <use xlink:href="#DejaVuSans-6f" x="86.767578"/>
      <use xlink:href="#DejaVuSans-6d" x="147.949219"/>
      <use xlink:href="#DejaVuSans-70" x="245.361328"/>
      <use xlink:href="#DejaVuSans-6c" x="308.837891"/>
      <use xlink:href="#DejaVuSans-65" x="336.621094"/>
      <use xlink:href="#DejaVuSans-74" x="398.144531"/>
      <use xlink:href="#DejaVuSans-65" x="437.353516"/>
      <use xlink:href="#DejaVuSans-20" x="498.876953"/>
      <use xlink:href="#DejaVuSans-74" x="530.664062"/>
      <use xlink:href="#DejaVuSans-61" x="569.873047"/>
      <use xlink:href="#DejaVuSans-73" x="631.152344"/>
      <use xlink:href="#DejaVuSans-6b" x="683.251953"/>
     </g>
    </g>
   </g>
   <g id="LineCollection_1">
    <path d="M 69.218182 186.990695 
L 69.218182 185.290009 
" clip-path="url(#paaff9e5cf3)" style="fill: none; stroke: #b7d4ea; stroke-width: 3"/>
    <path d="M 103.036364 186.862361 
L 103.036364 185.07066 
" clip-path="url(#paaff9e5cf3)" style="fill: none; stroke: #b7d4ea; stroke-width: 3"/>
    <path d="M 136.854545 186.893013 
L 136.854545 185.151147 
" clip-path="url(#paaff9e5cf3)" style="fill: none; stroke: #b7d4ea; stroke-width: 3"/>
    <path d="M 170.672727 184.16968 
L 170.672727 182.34698 
" clip-path="url(#paaff9e5cf3)" style="fill: none; stroke: #b7d4ea; stroke-width: 3"/>
    <path d="M 204.490909 186.126298 
L 204.490909 184.409894 
" clip-path="url(#paaff9e5cf3)" style="fill: none; stroke: #b7d4ea; stroke-width: 3"/>
    <path d="M 238.309091 185.707261 
L 238.309091 183.882755 
" clip-path="url(#paaff9e5cf3)" style="fill: none; stroke: #b7d4ea; stroke-width: 3"/>
    <path d="M 272.127273 178.090319 
L 272.127273 176.132751 
" clip-path="url(#paaff9e5cf3)" style="fill: none; stroke: #b7d4ea; stroke-width: 3"/>
    <path d="M 305.945455 166.800914 
L 305.945455 164.68303 
" clip-path="url(#paaff9e5cf3)" style="fill: none; stroke: #b7d4ea; stroke-width: 3"/>
    <path d="M 339.763636 142.243578 
L 339.763636 139.736004 
" clip-path="url(#paaff9e5cf3)" style="fill: none; stroke: #b7d4ea; stroke-width: 3"/>
    <path d="M 373.581818 100.989366 
L 373.581818 98.728097 
" clip-path="url(#paaff9e5cf3)" style="fill: none; stroke: #b7d4ea; stroke-width: 3"/>
   </g>
   <g id="LineCollection_2">
    <path d="M 69.218182 167.504425 
L 69.218182 165.473645 
" clip-path="url(#paaff9e5cf3)" style="fill: none; stroke: #60a7d2; stroke-width: 3"/>
    <path d="M 103.036364 161.660625 
L 103.036364 159.499857 
" clip-path="url(#paaff9e5cf3)" style="fill: none; stroke: #60a7d2; stroke-width: 3"/>
    <path d="M 136.854545 159.541978 
L 136.854545 157.292155 
" clip-path="url(#paaff9e5cf3)" style="fill: none; stroke: #60a7d2; stroke-width: 3"/>
    <path d="M 170.672727 159.288393 
L 170.672727 157.157473 
" clip-path="url(#paaff9e5cf3)" style="fill: none; stroke: #60a7d2; stroke-width: 3"/>
    <path d="M 204.490909 158.492124 
L 204.490909 156.27894 
" clip-path="url(#paaff9e5cf3)" style="fill: none; stroke: #60a7d2; stroke-width: 3"/>
    <path d="M 238.309091 156.315769 
L 238.309091 154.007431 
" clip-path="url(#paaff9e5cf3)" style="fill: none; stroke: #60a7d2; stroke-width: 3"/>
    <path d="M 272.127273 154.006049 
L 272.127273 151.568351 
" clip-path="url(#paaff9e5cf3)" style="fill: none; stroke: #60a7d2; stroke-width: 3"/>
    <path d="M 305.945455 153.55666 
L 305.945455 151.20312 
" clip-path="url(#paaff9e5cf3)" style="fill: none; stroke: #60a7d2; stroke-width: 3"/>
    <path d="M 339.763636 141.038511 
L 339.763636 138.511128 
" clip-path="url(#paaff9e5cf3)" style="fill: none; stroke: #60a7d2; stroke-width: 3"/>
    <path d="M 373.581818 101.363894 
L 373.581818 99.059194 
" clip-path="url(#paaff9e5cf3)" style="fill: none; stroke: #60a7d2; stroke-width: 3"/>
   </g>
   <g id="LineCollection_3">
    <path d="M 69.218182 156.712691 
L 69.218182 154.493436 
" clip-path="url(#paaff9e5cf3)" style="fill: none; stroke: #1d6cb1; stroke-width: 3"/>
    <path d="M 103.036364 156.509346 
L 103.036364 154.271048 
" clip-path="url(#paaff9e5cf3)" style="fill: none; stroke: #1d6cb1; stroke-width: 3"/>
    <path d="M 136.854545 156.829853 
L 136.854545 154.556986 
" clip-path="url(#paaff9e5cf3)" style="fill: none; stroke: #1d6cb1; stroke-width: 3"/>
    <path d="M 170.672727 156.546916 
L 170.672727 154.274991 
" clip-path="url(#paaff9e5cf3)" style="fill: none; stroke: #1d6cb1; stroke-width: 3"/>
    <path d="M 204.490909 155.494067 
L 204.490909 153.13572 
" clip-path="url(#paaff9e5cf3)" style="fill: none; stroke: #1d6cb1; stroke-width: 3"/>
    <path d="M 238.309091 156.052393 
L 238.309091 153.699212 
" clip-path="url(#paaff9e5cf3)" style="fill: none; stroke: #1d6cb1; stroke-width: 3"/>
    <path d="M 272.127273 151.560106 
L 272.127273 149.195845 
" clip-path="url(#paaff9e5cf3)" style="fill: none; stroke: #1d6cb1; stroke-width: 3"/>
    <path d="M 305.945455 152.293569 
L 305.945455 149.868957 
" clip-path="url(#paaff9e5cf3)" style="fill: none; stroke: #1d6cb1; stroke-width: 3"/>
    <path d="M 339.763636 141.780212 
L 339.763636 139.294384 
" clip-path="url(#paaff9e5cf3)" style="fill: none; stroke: #1d6cb1; stroke-width: 3"/>
    <path d="M 373.581818 101.236173 
L 373.581818 98.980905 
" clip-path="url(#paaff9e5cf3)" style="fill: none; stroke: #1d6cb1; stroke-width: 3"/>
   </g>
   <g id="LineCollection_4">
    <path d="M 69.218182 186.94845 
L 69.218182 185.154846 
" clip-path="url(#paaff9e5cf3)" style="fill: none; stroke: #08306b; stroke-width: 3"/>
    <path d="M 103.036364 187.437969 
L 103.036364 185.767749 
" clip-path="url(#paaff9e5cf3)" style="fill: none; stroke: #08306b; stroke-width: 3"/>
    <path d="M 136.854545 186.313232 
L 136.854545 184.49508 
" clip-path="url(#paaff9e5cf3)" style="fill: none; stroke: #08306b; stroke-width: 3"/>
    <path d="M 170.672727 184.794567 
L 170.672727 183.080505 
" clip-path="url(#paaff9e5cf3)" style="fill: none; stroke: #08306b; stroke-width: 3"/>
    <path d="M 204.490909 185.157711 
L 204.490909 183.371586 
" clip-path="url(#paaff9e5cf3)" style="fill: none; stroke: #08306b; stroke-width: 3"/>
    <path d="M 238.309091 182.361527 
L 238.309091 180.546121 
" clip-path="url(#paaff9e5cf3)" style="fill: none; stroke: #08306b; stroke-width: 3"/>
    <path d="M 272.127273 178.154136 
L 272.127273 176.178792 
" clip-path="url(#paaff9e5cf3)" style="fill: none; stroke: #08306b; stroke-width: 3"/>
    <path d="M 305.945455 152.615901 
L 305.945455 150.435665 
" clip-path="url(#paaff9e5cf3)" style="fill: none; stroke: #08306b; stroke-width: 3"/>
    <path d="M 339.763636 125.98699 
L 339.763636 123.60188 
" clip-path="url(#paaff9e5cf3)" style="fill: none; stroke: #08306b; stroke-width: 3"/>
    <path d="M 373.581818 92.105303 
L 373.581818 90.021163 
" clip-path="url(#paaff9e5cf3)" style="fill: none; stroke: #08306b; stroke-width: 3"/>
   </g>
   <g id="LineCollection_5">
    <path d="M 69.218182 148.3401 
L 69.218182 146.202266 
" clip-path="url(#paaff9e5cf3)" style="fill: none; stroke: #b7d4ea; stroke-width: 3"/>
    <path d="M 103.036364 142.592789 
L 103.036364 140.349594 
" clip-path="url(#paaff9e5cf3)" style="fill: none; stroke: #b7d4ea; stroke-width: 3"/>
    <path d="M 136.854545 139.227404 
L 136.854545 137.078938 
" clip-path="url(#paaff9e5cf3)" style="fill: none; stroke: #b7d4ea; stroke-width: 3"/>
    <path d="M 170.672727 139.631523 
L 170.672727 137.52372 
" clip-path="url(#paaff9e5cf3)" style="fill: none; stroke: #b7d4ea; stroke-width: 3"/>
    <path d="M 204.490909 136.602357 
L 204.490909 134.268654 
" clip-path="url(#paaff9e5cf3)" style="fill: none; stroke: #b7d4ea; stroke-width: 3"/>
    <path d="M 238.309091 136.961558 
L 238.309091 134.623036 
" clip-path="url(#paaff9e5cf3)" style="fill: none; stroke: #b7d4ea; stroke-width: 3"/>
    <path d="M 272.127273 134.671224 
L 272.127273 132.26114 
" clip-path="url(#paaff9e5cf3)" style="fill: none; stroke: #b7d4ea; stroke-width: 3"/>
    <path d="M 305.945455 131.166841 
L 305.945455 128.778829 
" clip-path="url(#paaff9e5cf3)" style="fill: none; stroke: #b7d4ea; stroke-width: 3"/>
    <path d="M 339.763636 124.889945 
L 339.763636 122.534055 
" clip-path="url(#paaff9e5cf3)" style="fill: none; stroke: #b7d4ea; stroke-width: 3"/>
    <path d="M 373.581818 92.137258 
L 373.581818 90.149722 
" clip-path="url(#paaff9e5cf3)" style="fill: none; stroke: #b7d4ea; stroke-width: 3"/>
   </g>
   <g id="LineCollection_6">
    <path d="M 69.218182 135.324003 
L 69.218182 133.041604 
" clip-path="url(#paaff9e5cf3)" style="fill: none; stroke: #60a7d2; stroke-width: 3"/>
    <path d="M 103.036364 136.917816 
L 103.036364 134.689913 
" clip-path="url(#paaff9e5cf3)" style="fill: none; stroke: #60a7d2; stroke-width: 3"/>
    <path d="M 136.854545 137.895604 
L 136.854545 135.592347 
" clip-path="url(#paaff9e5cf3)" style="fill: none; stroke: #60a7d2; stroke-width: 3"/>
    <path d="M 170.672727 137.778875 
L 170.672727 135.452725 
" clip-path="url(#paaff9e5cf3)" style="fill: none; stroke: #60a7d2; stroke-width: 3"/>
    <path d="M 204.490909 137.05983 
L 204.490909 134.781781 
" clip-path="url(#paaff9e5cf3)" style="fill: none; stroke: #60a7d2; stroke-width: 3"/>
    <path d="M 238.309091 136.599398 
L 238.309091 134.287732 
" clip-path="url(#paaff9e5cf3)" style="fill: none; stroke: #60a7d2; stroke-width: 3"/>
    <path d="M 272.127273 133.503186 
L 272.127273 131.229905 
" clip-path="url(#paaff9e5cf3)" style="fill: none; stroke: #60a7d2; stroke-width: 3"/>
    <path d="M 305.945455 129.820445 
L 305.945455 127.378943 
" clip-path="url(#paaff9e5cf3)" style="fill: none; stroke: #60a7d2; stroke-width: 3"/>
    <path d="M 339.763636 124.692226 
L 339.763636 122.239115 
" clip-path="url(#paaff9e5cf3)" style="fill: none; stroke: #60a7d2; stroke-width: 3"/>
    <path d="M 373.581818 92.151053 
L 373.581818 90.086891 
" clip-path="url(#paaff9e5cf3)" style="fill: none; stroke: #60a7d2; stroke-width: 3"/>
   </g>
   <g id="line2d_8">
    <path d="M 69.218182 186.140352 
L 103.036364 185.966511 
L 136.854545 186.02208 
L 170.672727 183.25833 
L 204.490909 185.268096 
L 238.309091 184.795008 
L 272.127273 177.111535 
L 305.945455 165.741972 
L 339.763636 140.989791 
L 373.581818 99.858732 
" clip-path="url(#paaff9e5cf3)" style="fill: none; stroke-dasharray: 11.1,4.8; stroke-dashoffset: 0; stroke: #b7d4ea; stroke-width: 3"/>
    <defs>
     <path id="m5dcb8bdd13" d="M 0 3 
C 0.795609 3 1.55874 2.683901 2.12132 2.12132 
C 2.683901 1.55874 3 0.795609 3 0 
C 3 -0.795609 2.683901 -1.55874 2.12132 -2.12132 
C 1.55874 -2.683901 0.795609 -3 0 -3 
C -0.795609 -3 -1.55874 -2.683901 -2.12132 -2.12132 
C -2.683901 -1.55874 -3 -0.795609 -3 0 
C -3 0.795609 -2.683901 1.55874 -2.12132 2.12132 
C -1.55874 2.683901 -0.795609 3 0 3 
z
" style="stroke: #b7d4ea"/>
    </defs>
    <g clip-path="url(#paaff9e5cf3)">
     <use xlink:href="#m5dcb8bdd13" x="69.218182" y="186.140352" style="fill: #b7d4ea; stroke: #b7d4ea"/>
     <use xlink:href="#m5dcb8bdd13" x="103.036364" y="185.966511" style="fill: #b7d4ea; stroke: #b7d4ea"/>
     <use xlink:href="#m5dcb8bdd13" x="136.854545" y="186.02208" style="fill: #b7d4ea; stroke: #b7d4ea"/>
     <use xlink:href="#m5dcb8bdd13" x="170.672727" y="183.25833" style="fill: #b7d4ea; stroke: #b7d4ea"/>
     <use xlink:href="#m5dcb8bdd13" x="204.490909" y="185.268096" style="fill: #b7d4ea; stroke: #b7d4ea"/>
     <use xlink:href="#m5dcb8bdd13" x="238.309091" y="184.795008" style="fill: #b7d4ea; stroke: #b7d4ea"/>
     <use xlink:href="#m5dcb8bdd13" x="272.127273" y="177.111535" style="fill: #b7d4ea; stroke: #b7d4ea"/>
     <use xlink:href="#m5dcb8bdd13" x="305.945455" y="165.741972" style="fill: #b7d4ea; stroke: #b7d4ea"/>
     <use xlink:href="#m5dcb8bdd13" x="339.763636" y="140.989791" style="fill: #b7d4ea; stroke: #b7d4ea"/>
     <use xlink:href="#m5dcb8bdd13" x="373.581818" y="99.858732" style="fill: #b7d4ea; stroke: #b7d4ea"/>
    </g>
   </g>
   <g id="line2d_9">
    <path d="M 69.218182 166.489035 
L 103.036364 160.580241 
L 136.854545 158.417067 
L 170.672727 158.222933 
L 204.490909 157.385532 
L 238.309091 155.1616 
L 272.127273 152.7872 
L 305.945455 152.37989 
L 339.763636 139.77482 
L 373.581818 100.211544 
" clip-path="url(#paaff9e5cf3)" style="fill: none; stroke-dasharray: 11.1,4.8; stroke-dashoffset: 0; stroke: #60a7d2; stroke-width: 3"/>
    <defs>
     <path id="m8dfcaba3ad" d="M 0 3 
C 0.795609 3 1.55874 2.683901 2.12132 2.12132 
C 2.683901 1.55874 3 0.795609 3 0 
C 3 -0.795609 2.683901 -1.55874 2.12132 -2.12132 
C 1.55874 -2.683901 0.795609 -3 0 -3 
C -0.795609 -3 -1.55874 -2.683901 -2.12132 -2.12132 
C -2.683901 -1.55874 -3 -0.795609 -3 0 
C -3 0.795609 -2.683901 1.55874 -2.12132 2.12132 
C -1.55874 2.683901 -0.795609 3 0 3 
z
" style="stroke: #60a7d2"/>
    </defs>
    <g clip-path="url(#paaff9e5cf3)">
     <use xlink:href="#m8dfcaba3ad" x="69.218182" y="166.489035" style="fill: #60a7d2; stroke: #60a7d2"/>
     <use xlink:href="#m8dfcaba3ad" x="103.036364" y="160.580241" style="fill: #60a7d2; stroke: #60a7d2"/>
     <use xlink:href="#m8dfcaba3ad" x="136.854545" y="158.417067" style="fill: #60a7d2; stroke: #60a7d2"/>
     <use xlink:href="#m8dfcaba3ad" x="170.672727" y="158.222933" style="fill: #60a7d2; stroke: #60a7d2"/>
     <use xlink:href="#m8dfcaba3ad" x="204.490909" y="157.385532" style="fill: #60a7d2; stroke: #60a7d2"/>
     <use xlink:href="#m8dfcaba3ad" x="238.309091" y="155.1616" style="fill: #60a7d2; stroke: #60a7d2"/>
     <use xlink:href="#m8dfcaba3ad" x="272.127273" y="152.7872" style="fill: #60a7d2; stroke: #60a7d2"/>
     <use xlink:href="#m8dfcaba3ad" x="305.945455" y="152.37989" style="fill: #60a7d2; stroke: #60a7d2"/>
     <use xlink:href="#m8dfcaba3ad" x="339.763636" y="139.77482" style="fill: #60a7d2; stroke: #60a7d2"/>
     <use xlink:href="#m8dfcaba3ad" x="373.581818" y="100.211544" style="fill: #60a7d2; stroke: #60a7d2"/>
    </g>
   </g>
   <g id="line2d_10">
    <path d="M 69.218182 155.603064 
L 103.036364 155.390197 
L 136.854545 155.693419 
L 170.672727 155.410953 
L 204.490909 154.314894 
L 238.309091 154.875802 
L 272.127273 150.377976 
L 305.945455 151.081263 
L 339.763636 140.537298 
L 373.581818 100.108539 
" clip-path="url(#paaff9e5cf3)" style="fill: none; stroke-dasharray: 11.1,4.8; stroke-dashoffset: 0; stroke: #1d6cb1; stroke-width: 3"/>
    <defs>
     <path id="m483e4dac91" d="M 0 3 
C 0.795609 3 1.55874 2.683901 2.12132 2.12132 
C 2.683901 1.55874 3 0.795609 3 0 
C 3 -0.795609 2.683901 -1.55874 2.12132 -2.12132 
C 1.55874 -2.683901 0.795609 -3 0 -3 
C -0.795609 -3 -1.55874 -2.683901 -2.12132 -2.12132 
C -2.683901 -1.55874 -3 -0.795609 -3 0 
C -3 0.795609 -2.683901 1.55874 -2.12132 2.12132 
C -1.55874 2.683901 -0.795609 3 0 3 
z
" style="stroke: #1d6cb1"/>
    </defs>
    <g clip-path="url(#paaff9e5cf3)">
     <use xlink:href="#m483e4dac91" x="69.218182" y="155.603064" style="fill: #1d6cb1; stroke: #1d6cb1"/>
     <use xlink:href="#m483e4dac91" x="103.036364" y="155.390197" style="fill: #1d6cb1; stroke: #1d6cb1"/>
     <use xlink:href="#m483e4dac91" x="136.854545" y="155.693419" style="fill: #1d6cb1; stroke: #1d6cb1"/>
     <use xlink:href="#m483e4dac91" x="170.672727" y="155.410953" style="fill: #1d6cb1; stroke: #1d6cb1"/>
     <use xlink:href="#m483e4dac91" x="204.490909" y="154.314894" style="fill: #1d6cb1; stroke: #1d6cb1"/>
     <use xlink:href="#m483e4dac91" x="238.309091" y="154.875802" style="fill: #1d6cb1; stroke: #1d6cb1"/>
     <use xlink:href="#m483e4dac91" x="272.127273" y="150.377976" style="fill: #1d6cb1; stroke: #1d6cb1"/>
     <use xlink:href="#m483e4dac91" x="305.945455" y="151.081263" style="fill: #1d6cb1; stroke: #1d6cb1"/>
     <use xlink:href="#m483e4dac91" x="339.763636" y="140.537298" style="fill: #1d6cb1; stroke: #1d6cb1"/>
     <use xlink:href="#m483e4dac91" x="373.581818" y="100.108539" style="fill: #1d6cb1; stroke: #1d6cb1"/>
    </g>
   </g>
   <g id="line2d_11">
    <path d="M 69.218182 186.051648 
L 103.036364 186.602859 
L 136.854545 185.404156 
L 170.672727 183.937536 
L 204.490909 184.264649 
L 238.309091 181.453824 
L 272.127273 177.166464 
L 305.945455 151.525783 
L 339.763636 124.794435 
L 373.581818 91.063233 
" clip-path="url(#paaff9e5cf3)" style="fill: none; stroke-dasharray: 11.1,4.8; stroke-dashoffset: 0; stroke: #08306b; stroke-width: 3"/>
    <defs>
     <path id="m484da1950a" d="M 0 3 
C 0.795609 3 1.55874 2.683901 2.12132 2.12132 
C 2.683901 1.55874 3 0.795609 3 0 
C 3 -0.795609 2.683901 -1.55874 2.12132 -2.12132 
C 1.55874 -2.683901 0.795609 -3 0 -3 
C -0.795609 -3 -1.55874 -2.683901 -2.12132 -2.12132 
C -2.683901 -1.55874 -3 -0.795609 -3 0 
C -3 0.795609 -2.683901 1.55874 -2.12132 2.12132 
C -1.55874 2.683901 -0.795609 3 0 3 
z
" style="stroke: #08306b"/>
    </defs>
    <g clip-path="url(#paaff9e5cf3)">
     <use xlink:href="#m484da1950a" x="69.218182" y="186.051648" style="fill: #08306b; stroke: #08306b"/>
     <use xlink:href="#m484da1950a" x="103.036364" y="186.602859" style="fill: #08306b; stroke: #08306b"/>
     <use xlink:href="#m484da1950a" x="136.854545" y="185.404156" style="fill: #08306b; stroke: #08306b"/>
     <use xlink:href="#m484da1950a" x="170.672727" y="183.937536" style="fill: #08306b; stroke: #08306b"/>
     <use xlink:href="#m484da1950a" x="204.490909" y="184.264649" style="fill: #08306b; stroke: #08306b"/>
     <use xlink:href="#m484da1950a" x="238.309091" y="181.453824" style="fill: #08306b; stroke: #08306b"/>
     <use xlink:href="#m484da1950a" x="272.127273" y="177.166464" style="fill: #08306b; stroke: #08306b"/>
     <use xlink:href="#m484da1950a" x="305.945455" y="151.525783" style="fill: #08306b; stroke: #08306b"/>
     <use xlink:href="#m484da1950a" x="339.763636" y="124.794435" style="fill: #08306b; stroke: #08306b"/>
     <use xlink:href="#m484da1950a" x="373.581818" y="91.063233" style="fill: #08306b; stroke: #08306b"/>
    </g>
   </g>
   <g id="line2d_12">
    <path d="M 69.218182 147.271183 
L 103.036364 141.471191 
L 136.854545 138.153171 
L 170.672727 138.577621 
L 204.490909 135.435506 
L 238.309091 135.792297 
L 272.127273 133.466182 
L 305.945455 129.972835 
L 339.763636 123.712 
L 373.581818 91.14349 
" clip-path="url(#paaff9e5cf3)" style="fill: none; stroke-dasharray: 11.1,4.8; stroke-dashoffset: 0; stroke: #b7d4ea; stroke-width: 3"/>
    <g clip-path="url(#paaff9e5cf3)">
     <use xlink:href="#m5dcb8bdd13" x="69.218182" y="147.271183" style="fill: #b7d4ea; stroke: #b7d4ea"/>
     <use xlink:href="#m5dcb8bdd13" x="103.036364" y="141.471191" style="fill: #b7d4ea; stroke: #b7d4ea"/>
     <use xlink:href="#m5dcb8bdd13" x="136.854545" y="138.153171" style="fill: #b7d4ea; stroke: #b7d4ea"/>
     <use xlink:href="#m5dcb8bdd13" x="170.672727" y="138.577621" style="fill: #b7d4ea; stroke: #b7d4ea"/>
     <use xlink:href="#m5dcb8bdd13" x="204.490909" y="135.435506" style="fill: #b7d4ea; stroke: #b7d4ea"/>
     <use xlink:href="#m5dcb8bdd13" x="238.309091" y="135.792297" style="fill: #b7d4ea; stroke: #b7d4ea"/>
     <use xlink:href="#m5dcb8bdd13" x="272.127273" y="133.466182" style="fill: #b7d4ea; stroke: #b7d4ea"/>
     <use xlink:href="#m5dcb8bdd13" x="305.945455" y="129.972835" style="fill: #b7d4ea; stroke: #b7d4ea"/>
     <use xlink:href="#m5dcb8bdd13" x="339.763636" y="123.712" style="fill: #b7d4ea; stroke: #b7d4ea"/>
     <use xlink:href="#m5dcb8bdd13" x="373.581818" y="91.14349" style="fill: #b7d4ea; stroke: #b7d4ea"/>
    </g>
   </g>
   <g id="line2d_13">
    <path d="M 69.218182 134.182804 
L 103.036364 135.803865 
L 136.854545 136.743975 
L 170.672727 136.6158 
L 204.490909 135.920806 
L 238.309091 135.443565 
L 272.127273 132.366545 
L 305.945455 128.599694 
L 339.763636 123.465671 
L 373.581818 91.118972 
" clip-path="url(#paaff9e5cf3)" style="fill: none; stroke-dasharray: 11.1,4.8; stroke-dashoffset: 0; stroke: #60a7d2; stroke-width: 3"/>
    <g clip-path="url(#paaff9e5cf3)">
     <use xlink:href="#m8dfcaba3ad" x="69.218182" y="134.182804" style="fill: #60a7d2; stroke: #60a7d2"/>
     <use xlink:href="#m8dfcaba3ad" x="103.036364" y="135.803865" style="fill: #60a7d2; stroke: #60a7d2"/>
     <use xlink:href="#m8dfcaba3ad" x="136.854545" y="136.743975" style="fill: #60a7d2; stroke: #60a7d2"/>
     <use xlink:href="#m8dfcaba3ad" x="170.672727" y="136.6158" style="fill: #60a7d2; stroke: #60a7d2"/>
     <use xlink:href="#m8dfcaba3ad" x="204.490909" y="135.920806" style="fill: #60a7d2; stroke: #60a7d2"/>
     <use xlink:href="#m8dfcaba3ad" x="238.309091" y="135.443565" style="fill: #60a7d2; stroke: #60a7d2"/>
     <use xlink:href="#m8dfcaba3ad" x="272.127273" y="132.366545" style="fill: #60a7d2; stroke: #60a7d2"/>
     <use xlink:href="#m8dfcaba3ad" x="305.945455" y="128.599694" style="fill: #60a7d2; stroke: #60a7d2"/>
     <use xlink:href="#m8dfcaba3ad" x="339.763636" y="123.465671" style="fill: #60a7d2; stroke: #60a7d2"/>
     <use xlink:href="#m8dfcaba3ad" x="373.581818" y="91.118972" style="fill: #60a7d2; stroke: #60a7d2"/>
    </g>
   </g>
   <g id="patch_3">
    <path d="M 54 256.32 
L 54 34.56 
" style="fill: none; stroke: #000000; stroke-width: 2; stroke-linejoin: miter; stroke-linecap: square"/>
   </g>
   <g id="patch_4">
    <path d="M 54 256.32 
L 388.8 256.32 
" style="fill: none; stroke: #000000; stroke-width: 2; stroke-linejoin: miter; stroke-linecap: square"/>
   </g>
   <g id="legend_1">
    <g id="LineCollection_7">
     <path d="M 63.447188 11.697187 
L 63.447188 -1 
" style="fill: none; stroke: #b7d4ea; stroke-width: 3"/>
    </g>
    <g id="line2d_14">
     <path d="M 45.447188 2.697187 
L 81.447188 2.697187 
" style="fill: none; stroke-dasharray: 11.1,4.8; stroke-dashoffset: 0; stroke: #b7d4ea; stroke-width: 3"/>
    </g>
    <g id="line2d_15">
     <g>
      <use xlink:href="#m5dcb8bdd13" x="63.447188" y="2.697187" style="fill: #b7d4ea; stroke: #b7d4ea"/>
     </g>
    </g>
    <g id="text_10">
     <!-- -0.7 -->
     <g transform="translate(95.847188 8.997187) scale(0.18 -0.18)">
      <defs>
       <path id="DejaVuSans-2d" d="M 313 2009 
L 1997 2009 
L 1997 1497 
L 313 1497 
L 313 2009 
z
" transform="scale(0.015625)"/>
       <path id="DejaVuSans-37" d="M 525 4666 
L 3525 4666 
L 3525 4397 
L 1831 0 
L 1172 0 
L 2766 4134 
L 525 4134 
L 525 4666 
z
" transform="scale(0.015625)"/>
      </defs>
      <use xlink:href="#DejaVuSans-2d"/>
      <use xlink:href="#DejaVuSans-30" x="36.083984"/>
      <use xlink:href="#DejaVuSans-2e" x="99.707031"/>
      <use xlink:href="#DejaVuSans-37" x="131.494141"/>
     </g>
    </g>
    <g id="LineCollection_8">
     <path d="M 63.447188 38.117812 
L 63.447188 20.117812 
" style="fill: none; stroke: #60a7d2; stroke-width: 3"/>
    </g>
    <g id="line2d_16">
     <path d="M 45.447188 29.117812 
L 81.447188 29.117812 
" style="fill: none; stroke-dasharray: 11.1,4.8; stroke-dashoffset: 0; stroke: #60a7d2; stroke-width: 3"/>
    </g>
    <g id="line2d_17">
     <g>
      <use xlink:href="#m8dfcaba3ad" x="63.447188" y="29.117812" style="fill: #60a7d2; stroke: #60a7d2"/>
     </g>
    </g>
    <g id="text_11">
     <!-- -1.5 -->
     <g transform="translate(95.847188 35.417812) scale(0.18 -0.18)">
      <use xlink:href="#DejaVuSans-2d"/>
      <use xlink:href="#DejaVuSans-31" x="36.083984"/>
      <use xlink:href="#DejaVuSans-2e" x="99.707031"/>
      <use xlink:href="#DejaVuSans-35" x="131.494141"/>
     </g>
    </g>
    <g id="LineCollection_9">
     <path d="M 157.966875 11.697187 
L 157.966875 -1 
" style="fill: none; stroke: #1d6cb1; stroke-width: 3"/>
    </g>
    <g id="line2d_18">
     <path d="M 139.966875 2.697187 
L 175.966875 2.697187 
" style="fill: none; stroke-dasharray: 11.1,4.8; stroke-dashoffset: 0; stroke: #1d6cb1; stroke-width: 3"/>
    </g>
    <g id="line2d_19">
     <g>
      <use xlink:href="#m483e4dac91" x="157.966875" y="2.697187" style="fill: #1d6cb1; stroke: #1d6cb1"/>
     </g>
    </g>
    <g id="text_12">
     <!-- -3 -->
     <g transform="translate(190.366875 8.997187) scale(0.18 -0.18)">
      <defs>
       <path id="DejaVuSans-33" d="M 2597 2516 
Q 3050 2419 3304 2112 
Q 3559 1806 3559 1356 
Q 3559 666 3084 287 
Q 2609 -91 1734 -91 
Q 1441 -91 1130 -33 
Q 819 25 488 141 
L 488 750 
Q 750 597 1062 519 
Q 1375 441 1716 441 
Q 2309 441 2620 675 
Q 2931 909 2931 1356 
Q 2931 1769 2642 2001 
Q 2353 2234 1838 2234 
L 1294 2234 
L 1294 2753 
L 1863 2753 
Q 2328 2753 2575 2939 
Q 2822 3125 2822 3475 
Q 2822 3834 2567 4026 
Q 2313 4219 1838 4219 
Q 1578 4219 1281 4162 
Q 984 4106 628 3988 
L 628 4550 
Q 988 4650 1302 4700 
Q 1616 4750 1894 4750 
Q 2613 4750 3031 4423 
Q 3450 4097 3450 3541 
Q 3450 3153 3228 2886 
Q 3006 2619 2597 2516 
z
" transform="scale(0.015625)"/>
      </defs>
      <use xlink:href="#DejaVuSans-2d"/>
      <use xlink:href="#DejaVuSans-33" x="36.083984"/>
     </g>
    </g>
    <g id="LineCollection_10">
     <path d="M 157.966875 38.117812 
L 157.966875 20.117812 
" style="fill: none; stroke: #08306b; stroke-width: 3"/>
    </g>
    <g id="line2d_20">
     <path d="M 139.966875 29.117812 
L 175.966875 29.117812 
" style="fill: none; stroke-dasharray: 11.1,4.8; stroke-dashoffset: 0; stroke: #08306b; stroke-width: 3"/>
    </g>
    <g id="line2d_21">
     <g>
      <use xlink:href="#m484da1950a" x="157.966875" y="29.117812" style="fill: #08306b; stroke: #08306b"/>
     </g>
    </g>
    <g id="text_13">
     <!-- -0.7 -->
     <g transform="translate(190.366875 35.417812) scale(0.18 -0.18)">
      <use xlink:href="#DejaVuSans-2d"/>
      <use xlink:href="#DejaVuSans-30" x="36.083984"/>
      <use xlink:href="#DejaVuSans-2e" x="99.707031"/>
      <use xlink:href="#DejaVuSans-37" x="131.494141"/>
     </g>
    </g>
    <g id="LineCollection_11">
     <path d="M 252.486562 11.697187 
L 252.486562 -1 
" style="fill: none; stroke: #b7d4ea; stroke-width: 3"/>
    </g>
    <g id="line2d_22">
     <path d="M 234.486562 2.697187 
L 270.486562 2.697187 
" style="fill: none; stroke-dasharray: 11.1,4.8; stroke-dashoffset: 0; stroke: #b7d4ea; stroke-width: 3"/>
    </g>
    <g id="line2d_23">
     <g>
      <use xlink:href="#m5dcb8bdd13" x="252.486562" y="2.697187" style="fill: #b7d4ea; stroke: #b7d4ea"/>
     </g>
    </g>
    <g id="text_14">
     <!-- -1.5 -->
     <g transform="translate(284.886562 8.997187) scale(0.18 -0.18)">
      <use xlink:href="#DejaVuSans-2d"/>
      <use xlink:href="#DejaVuSans-31" x="36.083984"/>
      <use xlink:href="#DejaVuSans-2e" x="99.707031"/>
      <use xlink:href="#DejaVuSans-35" x="131.494141"/>
     </g>
    </g>
    <g id="LineCollection_12">
     <path d="M 347.00625 11.697187 
L 347.00625 -1 
" style="fill: none; stroke: #60a7d2; stroke-width: 3"/>
    </g>
    <g id="line2d_24">
     <path d="M 329.00625 2.697187 
L 365.00625 2.697187 
" style="fill: none; stroke-dasharray: 11.1,4.8; stroke-dashoffset: 0; stroke: #60a7d2; stroke-width: 3"/>
    </g>
    <g id="line2d_25">
     <g>
      <use xlink:href="#m8dfcaba3ad" x="347.00625" y="2.697187" style="fill: #60a7d2; stroke: #60a7d2"/>
     </g>
    </g>
    <g id="text_15">
     <!-- -3 -->
     <g transform="translate(379.40625 8.997187) scale(0.18 -0.18)">
      <use xlink:href="#DejaVuSans-2d"/>
      <use xlink:href="#DejaVuSans-33" x="36.083984"/>
     </g>
    </g>
   </g>
  </g>
  <g id="text_16">
   <!-- $r_{effort, high}$ -->
   <g transform="translate(-29.28 4.17375) scale(0.24 -0.24)">
    <defs>
     <path id="DejaVuSans-Oblique-72" d="M 2853 2969 
Q 2766 3016 2653 3041 
Q 2541 3066 2413 3066 
Q 1953 3066 1609 2717 
Q 1266 2369 1153 1784 
L 800 0 
L 225 0 
L 909 3500 
L 1484 3500 
L 1375 2956 
Q 1603 3259 1920 3421 
Q 2238 3584 2597 3584 
Q 2691 3584 2781 3573 
Q 2872 3563 2963 3538 
L 2853 2969 
z
" transform="scale(0.015625)"/>
     <path id="DejaVuSans-Oblique-65" d="M 3078 2063 
Q 3088 2113 3092 2166 
Q 3097 2219 3097 2272 
Q 3097 2653 2873 2875 
Q 2650 3097 2266 3097 
Q 1838 3097 1509 2826 
Q 1181 2556 1013 2059 
L 3078 2063 
z
M 3578 1613 
L 903 1613 
Q 884 1494 878 1425 
Q 872 1356 872 1306 
Q 872 872 1139 634 
Q 1406 397 1894 397 
Q 2269 397 2603 481 
Q 2938 566 3225 728 
L 3116 159 
Q 2806 34 2476 -28 
Q 2147 -91 1806 -91 
Q 1078 -91 686 257 
Q 294 606 294 1247 
Q 294 1794 489 2264 
Q 684 2734 1063 3103 
Q 1306 3334 1642 3459 
Q 1978 3584 2356 3584 
Q 2950 3584 3301 3228 
Q 3653 2872 3653 2272 
Q 3653 2128 3634 1964 
Q 3616 1800 3578 1613 
z
" transform="scale(0.015625)"/>
     <path id="DejaVuSans-Oblique-66" d="M 3059 4863 
L 2969 4384 
L 2419 4384 
Q 2106 4384 1964 4261 
Q 1822 4138 1753 3809 
L 1691 3500 
L 2638 3500 
L 2553 3053 
L 1606 3053 
L 1013 0 
L 434 0 
L 1031 3053 
L 481 3053 
L 563 3500 
L 1113 3500 
L 1159 3744 
Q 1278 4363 1576 4613 
Q 1875 4863 2516 4863 
L 3059 4863 
z
" transform="scale(0.015625)"/>
     <path id="DejaVuSans-Oblique-6f" d="M 1625 -91 
Q 1009 -91 651 289 
Q 294 669 294 1325 
Q 294 1706 417 2101 
Q 541 2497 738 2766 
Q 1047 3184 1428 3384 
Q 1809 3584 2291 3584 
Q 2888 3584 3255 3212 
Q 3622 2841 3622 2241 
Q 3622 1825 3500 1412 
Q 3378 1000 3181 728 
Q 2875 309 2494 109 
Q 2113 -91 1625 -91 
z
M 891 1344 
Q 891 869 1089 633 
Q 1288 397 1691 397 
Q 2269 397 2648 901 
Q 3028 1406 3028 2181 
Q 3028 2634 2825 2865 
Q 2622 3097 2228 3097 
Q 1903 3097 1650 2945 
Q 1397 2794 1197 2484 
Q 1050 2253 970 1956 
Q 891 1659 891 1344 
z
" transform="scale(0.015625)"/>
     <path id="DejaVuSans-Oblique-74" d="M 2706 3500 
L 2619 3053 
L 1472 3053 
L 1100 1153 
Q 1081 1047 1072 975 
Q 1063 903 1063 863 
Q 1063 663 1183 572 
Q 1303 481 1569 481 
L 2150 481 
L 2053 0 
L 1503 0 
Q 991 0 739 200 
Q 488 400 488 806 
Q 488 878 497 964 
Q 506 1050 525 1153 
L 897 3053 
L 409 3053 
L 500 3500 
L 978 3500 
L 1172 4494 
L 1747 4494 
L 1556 3500 
L 2706 3500 
z
" transform="scale(0.015625)"/>
     <path id="DejaVuSans-2c" d="M 750 794 
L 1409 794 
L 1409 256 
L 897 -744 
L 494 -744 
L 750 256 
L 750 794 
z
" transform="scale(0.015625)"/>
     <path id="DejaVuSans-Oblique-68" d="M 3566 2113 
L 3156 0 
L 2578 0 
L 2988 2091 
Q 3016 2238 3031 2350 
Q 3047 2463 3047 2528 
Q 3047 2791 2881 2937 
Q 2716 3084 2419 3084 
Q 1956 3084 1617 2771 
Q 1278 2459 1178 1941 
L 800 0 
L 225 0 
L 1172 4863 
L 1747 4863 
L 1375 2950 
Q 1594 3244 1934 3414 
Q 2275 3584 2650 3584 
Q 3113 3584 3367 3334 
Q 3622 3084 3622 2631 
Q 3622 2519 3608 2391 
Q 3594 2263 3566 2113 
z
" transform="scale(0.015625)"/>
     <path id="DejaVuSans-Oblique-69" d="M 1172 4863 
L 1747 4863 
L 1606 4134 
L 1031 4134 
L 1172 4863 
z
M 909 3500 
L 1484 3500 
L 800 0 
L 225 0 
L 909 3500 
z
" transform="scale(0.015625)"/>
     <path id="DejaVuSans-Oblique-67" d="M 3816 3500 
L 3219 434 
Q 3047 -456 2561 -893 
Q 2075 -1331 1253 -1331 
Q 950 -1331 690 -1286 
Q 431 -1241 206 -1147 
L 313 -588 
Q 525 -725 762 -790 
Q 1000 -856 1269 -856 
Q 1816 -856 2167 -557 
Q 2519 -259 2631 300 
L 2681 563 
Q 2441 288 2122 144 
Q 1803 0 1434 0 
Q 903 0 598 351 
Q 294 703 294 1319 
Q 294 1803 478 2267 
Q 663 2731 997 3091 
Q 1219 3328 1514 3456 
Q 1809 3584 2131 3584 
Q 2484 3584 2746 3420 
Q 3009 3256 3138 2956 
L 3238 3500 
L 3816 3500 
z
M 2950 2216 
Q 2950 2641 2750 2872 
Q 2550 3103 2181 3103 
Q 1953 3103 1747 3012 
Q 1541 2922 1394 2759 
Q 1156 2491 1023 2127 
Q 891 1763 891 1375 
Q 891 944 1092 712 
Q 1294 481 1672 481 
Q 2219 481 2584 976 
Q 2950 1472 2950 2216 
z
" transform="scale(0.015625)"/>
    </defs>
    <use xlink:href="#DejaVuSans-Oblique-72"/>
    <use xlink:href="#DejaVuSans-Oblique-65" transform="translate(41.113281 -16.40625) scale(0.7)"/>
    <use xlink:href="#DejaVuSans-Oblique-66" transform="translate(84.179687 -16.40625) scale(0.7)"/>
    <use xlink:href="#DejaVuSans-Oblique-66" transform="translate(108.823242 -16.40625) scale(0.7)"/>
    <use xlink:href="#DejaVuSans-Oblique-6f" transform="translate(133.466797 -16.40625) scale(0.7)"/>
    <use xlink:href="#DejaVuSans-Oblique-72" transform="translate(176.293945 -16.40625) scale(0.7)"/>
    <use xlink:href="#DejaVuSans-Oblique-74" transform="translate(205.073242 -16.40625) scale(0.7)"/>
    <use xlink:href="#DejaVuSans-2c" transform="translate(232.519531 -16.40625) scale(0.7)"/>
    <use xlink:href="#DejaVuSans-Oblique-68" transform="translate(268.408203 -16.40625) scale(0.7)"/>
    <use xlink:href="#DejaVuSans-Oblique-69" transform="translate(312.773437 -16.40625) scale(0.7)"/>
    <use xlink:href="#DejaVuSans-Oblique-67" transform="translate(332.22168 -16.40625) scale(0.7)"/>
    <use xlink:href="#DejaVuSans-Oblique-68" transform="translate(376.655273 -16.40625) scale(0.7)"/>
   </g>
  </g>
  <g id="text_17">
   <!-- $r_{effort, high}$ -->
   <g transform="translate(-29.28 4.17375) scale(0.24 -0.24)">
    <use xlink:href="#DejaVuSans-Oblique-72"/>
    <use xlink:href="#DejaVuSans-Oblique-65" transform="translate(41.113281 -16.40625) scale(0.7)"/>
    <use xlink:href="#DejaVuSans-Oblique-66" transform="translate(84.179687 -16.40625) scale(0.7)"/>
    <use xlink:href="#DejaVuSans-Oblique-66" transform="translate(108.823242 -16.40625) scale(0.7)"/>
    <use xlink:href="#DejaVuSans-Oblique-6f" transform="translate(133.466797 -16.40625) scale(0.7)"/>
    <use xlink:href="#DejaVuSans-Oblique-72" transform="translate(176.293945 -16.40625) scale(0.7)"/>
    <use xlink:href="#DejaVuSans-Oblique-74" transform="translate(205.073242 -16.40625) scale(0.7)"/>
    <use xlink:href="#DejaVuSans-2c" transform="translate(232.519531 -16.40625) scale(0.7)"/>
    <use xlink:href="#DejaVuSans-Oblique-68" transform="translate(268.408203 -16.40625) scale(0.7)"/>
    <use xlink:href="#DejaVuSans-Oblique-69" transform="translate(312.773437 -16.40625) scale(0.7)"/>
    <use xlink:href="#DejaVuSans-Oblique-67" transform="translate(332.22168 -16.40625) scale(0.7)"/>
    <use xlink:href="#DejaVuSans-Oblique-68" transform="translate(376.655273 -16.40625) scale(0.7)"/>
   </g>
  </g>
 </g>
 <defs>
  <clipPath id="paaff9e5cf3">
   <rect x="54" y="34.56" width="334.8" height="221.76"/>
  </clipPath>
 </defs>
</svg>
