<?xml version="1.0" encoding="utf-8" standalone="no"?>
<!DOCTYPE svg PUBLIC "-//W3C//DTD SVG 1.1//EN"
  "http://www.w3.org/Graphics/SVG/1.1/DTD/svg11.dtd">
<svg xmlns:xlink="http://www.w3.org/1999/xlink" width="288pt" height="216pt" viewBox="0 0 288 216" xmlns="http://www.w3.org/2000/svg" version="1.1">
 <metadata>
  <rdf:RDF xmlns:dc="http://purl.org/dc/elements/1.1/" xmlns:cc="http://creativecommons.org/ns#" xmlns:rdf="http://www.w3.org/1999/02/22-rdf-syntax-ns#">
   <cc:Work>
    <dc:type rdf:resource="http://purl.org/dc/dcmitype/StillImage"/>
    <dc:date>2026-05-13T14:10:37.978140</dc:date>
    <dc:format>image/svg+xml</dc:format>
    <dc:creator>
     <cc:Agent>
      <dc:title>Matplotlib v3.10.7, https://matplotlib.org/</dc:title>
     </cc:Agent>
    </dc:creator>
   </cc:Work>
  </rdf:RDF>
 </metadata>
 <defs>
  <style type="text/css">*{stroke-linejoin: round; stroke-linecap: butt}</style>
 </defs>
 <g id="figure_1">
  <g id="patch_1">
   <path d="M 0 216 
L 288 216 
L 288 0 
L 0 0 
z
" style="fill: #ffffff"/>
  </g>
  <g id="axes_1">
   <g id="patch_2">
    <path d="M 36 192.24 
L 259.2 192.24 
L 259.2 25.92 
L 36 25.92 
z
" style="fill: #ffffff"/>
   </g>
   <g id="matplotlib.axis_1">
    <g id="text_1">
     <!-- $\gamma$ -->
     <g transform="translate(141.6 211.39625) scale(0.2 -0.2)">
      <defs>
       <path id="DejaVuSans-Oblique-3b3" d="M 1491 2950 
L 1838 788 
L 3456 3500 
L 4066 3500 
L 1972 0 
L 1713 -1331 
L 1138 -1331 
L 1397 0 
L 988 2613 
Q 925 3006 628 3006 
L 475 3006 
L 569 3500 
L 788 3500 
Q 1403 3500 1491 2950 
z
" transform="scale(0.015625)"/>
      </defs>
      <use xlink:href="#DejaVuSans-Oblique-3b3" transform="translate(0 0.3125)"/>
     </g>
    </g>
   </g>
   <g id="matplotlib.axis_2">
    <g id="ytick_1">
     <g id="line2d_1">
      <defs>
       <path id="m87fcc39627" d="M 0 0 
L -3.5 0 
" style="stroke: #000000; stroke-width: 0.8"/>
      </defs>
      <g>
       <use xlink:href="#m87fcc39627" x="36" y="192.24" style="stroke: #000000; stroke-width: 0.8"/>
      </g>
     </g>
     <g id="text_2">
      <!-- 0 -->
      <g transform="translate(13.73 201.358125) scale(0.24 -0.24)">
       <defs>
        <path id="DejaVuSans-30" d="M 2034 4250 
Q 1547 4250 1301 3770 
Q 1056 3291 1056 2328 
Q 1056 1369 1301 889 
Q 1547 409 2034 409 
Q 2525 409 2770 889 
Q 3016 1369 3016 2328 
Q 3016 3291 2770 3770 
Q 2525 4250 2034 4250 
z
M 2034 4750 
Q 2819 4750 3233 4129 
Q 3647 3509 3647 2328 
Q 3647 1150 3233 529 
Q 2819 -91 2034 -91 
Q 1250 -91 836 529 
Q 422 1150 422 2328 
Q 422 3509 836 4129 
Q 1250 4750 2034 4750 
z
" transform="scale(0.015625)"/>
       </defs>
       <use xlink:href="#DejaVuSans-30"/>
      </g>
     </g>
    </g>
    <g id="ytick_2">
     <g id="line2d_2">
      <g>
       <use xlink:href="#m87fcc39627" x="36" y="27.231815" style="stroke: #000000; stroke-width: 0.8"/>
      </g>
     </g>
     <g id="text_3">
      <!-- 1 -->
      <g transform="translate(13.73 36.34994) scale(0.24 -0.24)">
       <defs>
        <path id="DejaVuSans-31" d="M 794 531 
L 1825 531 
L 1825 4091 
L 703 3866 
L 703 4441 
L 1819 4666 
L 2450 4666 
L 2450 531 
L 3481 531 
L 3481 0 
L 794 0 
L 794 531 
z
" transform="scale(0.015625)"/>
       </defs>
       <use xlink:href="#DejaVuSans-31"/>
      </g>
     </g>
    </g>
    <g id="text_4">
     <!-- Completion  -->
     <g transform="translate(-16.825 169.534687) rotate(-90) scale(0.2 -0.2)">
      <defs>
       <path id="DejaVuSans-43" d="M 4122 4306 
L 4122 3641 
Q 3803 3938 3442 4084 
Q 3081 4231 2675 4231 
Q 1875 4231 1450 3742 
Q 1025 3253 1025 2328 
Q 1025 1406 1450 917 
Q 1875 428 2675 428 
Q 3081 428 3442 575 
Q 3803 722 4122 1019 
L 4122 359 
Q 3791 134 3420 21 
Q 3050 -91 2638 -91 
Q 1578 -91 968 557 
Q 359 1206 359 2328 
Q 359 3453 968 4101 
Q 1578 4750 2638 4750 
Q 3056 4750 3426 4639 
Q 3797 4528 4122 4306 
z
" transform="scale(0.015625)"/>
       <path id="DejaVuSans-6f" d="M 1959 3097 
Q 1497 3097 1228 2736 
Q 959 2375 959 1747 
Q 959 1119 1226 758 
Q 1494 397 1959 397 
Q 2419 397 2687 759 
Q 2956 1122 2956 1747 
Q 2956 2369 2687 2733 
Q 2419 3097 1959 3097 
z
M 1959 3584 
Q 2709 3584 3137 3096 
Q 3566 2609 3566 1747 
Q 3566 888 3137 398 
Q 2709 -91 1959 -91 
Q 1206 -91 779 398 
Q 353 888 353 1747 
Q 353 2609 779 3096 
Q 1206 3584 1959 3584 
z
" transform="scale(0.015625)"/>
       <path id="DejaVuSans-6d" d="M 3328 2828 
Q 3544 3216 3844 3400 
Q 4144 3584 4550 3584 
Q 5097 3584 5394 3201 
Q 5691 2819 5691 2113 
L 5691 0 
L 5113 0 
L 5113 2094 
Q 5113 2597 4934 2840 
Q 4756 3084 4391 3084 
Q 3944 3084 3684 2787 
Q 3425 2491 3425 1978 
L 3425 0 
L 2847 0 
L 2847 2094 
Q 2847 2600 2669 2842 
Q 2491 3084 2119 3084 
Q 1678 3084 1418 2786 
Q 1159 2488 1159 1978 
L 1159 0 
L 581 0 
L 581 3500 
L 1159 3500 
L 1159 2956 
Q 1356 3278 1631 3431 
Q 1906 3584 2284 3584 
Q 2666 3584 2933 3390 
Q 3200 3197 3328 2828 
z
" transform="scale(0.015625)"/>
       <path id="DejaVuSans-70" d="M 1159 525 
L 1159 -1331 
L 581 -1331 
L 581 3500 
L 1159 3500 
L 1159 2969 
Q 1341 3281 1617 3432 
Q 1894 3584 2278 3584 
Q 2916 3584 3314 3078 
Q 3713 2572 3713 1747 
Q 3713 922 3314 415 
Q 2916 -91 2278 -91 
Q 1894 -91 1617 61 
Q 1341 213 1159 525 
z
M 3116 1747 
Q 3116 2381 2855 2742 
Q 2594 3103 2138 3103 
Q 1681 3103 1420 2742 
Q 1159 2381 1159 1747 
Q 1159 1113 1420 752 
Q 1681 391 2138 391 
Q 2594 391 2855 752 
Q 3116 1113 3116 1747 
z
" transform="scale(0.015625)"/>
       <path id="DejaVuSans-6c" d="M 603 4863 
L 1178 4863 
L 1178 0 
L 603 0 
L 603 4863 
z
" transform="scale(0.015625)"/>
       <path id="DejaVuSans-65" d="M 3597 1894 
L 3597 1613 
L 953 1613 
Q 991 1019 1311 708 
Q 1631 397 2203 397 
Q 2534 397 2845 478 
Q 3156 559 3463 722 
L 3463 178 
Q 3153 47 2828 -22 
Q 2503 -91 2169 -91 
Q 1331 -91 842 396 
Q 353 884 353 1716 
Q 353 2575 817 3079 
Q 1281 3584 2069 3584 
Q 2775 3584 3186 3129 
Q 3597 2675 3597 1894 
z
M 3022 2063 
Q 3016 2534 2758 2815 
Q 2500 3097 2075 3097 
Q 1594 3097 1305 2825 
Q 1016 2553 972 2059 
L 3022 2063 
z
" transform="scale(0.015625)"/>
       <path id="DejaVuSans-74" d="M 1172 4494 
L 1172 3500 
L 2356 3500 
L 2356 3053 
L 1172 3053 
L 1172 1153 
Q 1172 725 1289 603 
Q 1406 481 1766 481 
L 2356 481 
L 2356 0 
L 1766 0 
Q 1100 0 847 248 
Q 594 497 594 1153 
L 594 3053 
L 172 3053 
L 172 3500 
L 594 3500 
L 594 4494 
L 1172 4494 
z
" transform="scale(0.015625)"/>
       <path id="DejaVuSans-69" d="M 603 3500 
L 1178 3500 
L 1178 0 
L 603 0 
L 603 3500 
z
M 603 4863 
L 1178 4863 
L 1178 4134 
L 603 4134 
L 603 4863 
z
" transform="scale(0.015625)"/>
       <path id="DejaVuSans-6e" d="M 3513 2113 
L 3513 0 
L 2938 0 
L 2938 2094 
Q 2938 2591 2744 2837 
Q 2550 3084 2163 3084 
Q 1697 3084 1428 2787 
Q 1159 2491 1159 1978 
L 1159 0 
L 581 0 
L 581 3500 
L 1159 3500 
L 1159 2956 
Q 1366 3272 1645 3428 
Q 1925 3584 2291 3584 
Q 2894 3584 3203 3211 
Q 3513 2838 3513 2113 
z
" transform="scale(0.015625)"/>
       <path id="DejaVuSans-20" transform="scale(0.015625)"/>
      </defs>
      <use xlink:href="#DejaVuSans-43"/>
      <use xlink:href="#DejaVuSans-6f" transform="translate(69.824219 0)"/>
      <use xlink:href="#DejaVuSans-6d" transform="translate(131.005859 0)"/>
      <use xlink:href="#DejaVuSans-70" transform="translate(228.417969 0)"/>
      <use xlink:href="#DejaVuSans-6c" transform="translate(291.894531 0)"/>
      <use xlink:href="#DejaVuSans-65" transform="translate(319.677734 0)"/>
      <use xlink:href="#DejaVuSans-74" transform="translate(381.201172 0)"/>
      <use xlink:href="#DejaVuSans-69" transform="translate(420.410156 0)"/>
      <use xlink:href="#DejaVuSans-6f" transform="translate(448.193359 0)"/>
      <use xlink:href="#DejaVuSans-6e" transform="translate(509.375 0)"/>
      <use xlink:href="#DejaVuSans-20" transform="translate(572.753906 0)"/>
     </g>
     <!--  rate -->
     <g transform="translate(5.570625 132.570625) rotate(-90) scale(0.2 -0.2)">
      <defs>
       <path id="DejaVuSans-72" d="M 2631 2963 
Q 2534 3019 2420 3045 
Q 2306 3072 2169 3072 
Q 1681 3072 1420 2755 
Q 1159 2438 1159 1844 
L 1159 0 
L 581 0 
L 581 3500 
L 1159 3500 
L 1159 2956 
Q 1341 3275 1631 3429 
Q 1922 3584 2338 3584 
Q 2397 3584 2469 3576 
Q 2541 3569 2628 3553 
L 2631 2963 
z
" transform="scale(0.015625)"/>
       <path id="DejaVuSans-61" d="M 2194 1759 
Q 1497 1759 1228 1600 
Q 959 1441 959 1056 
Q 959 750 1161 570 
Q 1363 391 1709 391 
Q 2188 391 2477 730 
Q 2766 1069 2766 1631 
L 2766 1759 
L 2194 1759 
z
M 3341 1997 
L 3341 0 
L 2766 0 
L 2766 531 
Q 2569 213 2275 61 
Q 1981 -91 1556 -91 
Q 1019 -91 701 211 
Q 384 513 384 1019 
Q 384 1609 779 1909 
Q 1175 2209 1959 2209 
L 2766 2209 
L 2766 2266 
Q 2766 2663 2505 2880 
Q 2244 3097 1772 3097 
Q 1472 3097 1187 3025 
Q 903 2953 641 2809 
L 641 3341 
Q 956 3463 1253 3523 
Q 1550 3584 1831 3584 
Q 2591 3584 2966 3190 
Q 3341 2797 3341 1997 
z
" transform="scale(0.015625)"/>
      </defs>
      <use xlink:href="#DejaVuSans-20"/>
      <use xlink:href="#DejaVuSans-72" transform="translate(31.787109 0)"/>
      <use xlink:href="#DejaVuSans-61" transform="translate(72.900391 0)"/>
      <use xlink:href="#DejaVuSans-74" transform="translate(134.179688 0)"/>
      <use xlink:href="#DejaVuSans-65" transform="translate(173.388672 0)"/>
     </g>
    </g>
   </g>
   <g id="line2d_3">
    <path d="M 46.145455 27.396823 
L 68.690909 27.231815 
L 91.236364 27.231815 
L 113.781818 27.396823 
L 136.327273 27.231815 
L 158.872727 27.231815 
L 181.418182 27.396823 
L 203.963636 27.396823 
L 226.509091 30.036954 
L 249.054545 42.577576 
" clip-path="url(#p5b5807e91d)" style="fill: none; stroke-dasharray: 11.1,4.8; stroke-dashoffset: 0; stroke: #cecfe5; stroke-width: 3"/>
    <defs>
     <path id="mce75cf9109" d="M 0 3 
C 0.795609 3 1.55874 2.683901 2.12132 2.12132 
C 2.683901 1.55874 3 0.795609 3 0 
C 3 -0.795609 2.683901 -1.55874 2.12132 -2.12132 
C 1.55874 -2.683901 0.795609 -3 0 -3 
C -0.795609 -3 -1.55874 -2.683901 -2.12132 -2.12132 
C -2.683901 -1.55874 -3 -0.795609 -3 0 
C -3 0.795609 -2.683901 1.55874 -2.12132 2.12132 
C -1.55874 2.683901 -0.795609 3 0 3 
z
" style="stroke: #cecfe5"/>
    </defs>
    <g clip-path="url(#p5b5807e91d)">
     <use xlink:href="#mce75cf9109" x="46.145455" y="27.396823" style="fill: #cecfe5; stroke: #cecfe5"/>
     <use xlink:href="#mce75cf9109" x="68.690909" y="27.231815" style="fill: #cecfe5; stroke: #cecfe5"/>
     <use xlink:href="#mce75cf9109" x="91.236364" y="27.231815" style="fill: #cecfe5; stroke: #cecfe5"/>
     <use xlink:href="#mce75cf9109" x="113.781818" y="27.396823" style="fill: #cecfe5; stroke: #cecfe5"/>
     <use xlink:href="#mce75cf9109" x="136.327273" y="27.231815" style="fill: #cecfe5; stroke: #cecfe5"/>
     <use xlink:href="#mce75cf9109" x="158.872727" y="27.231815" style="fill: #cecfe5; stroke: #cecfe5"/>
     <use xlink:href="#mce75cf9109" x="181.418182" y="27.396823" style="fill: #cecfe5; stroke: #cecfe5"/>
     <use xlink:href="#mce75cf9109" x="203.963636" y="27.396823" style="fill: #cecfe5; stroke: #cecfe5"/>
     <use xlink:href="#mce75cf9109" x="226.509091" y="30.036954" style="fill: #cecfe5; stroke: #cecfe5"/>
     <use xlink:href="#mce75cf9109" x="249.054545" y="42.577576" style="fill: #cecfe5; stroke: #cecfe5"/>
    </g>
   </g>
   <g id="line2d_4">
    <path d="M 46.145455 27.72684 
L 68.690909 27.561831 
L 91.236364 27.891848 
L 113.781818 28.221864 
L 136.327273 28.551881 
L 158.872727 28.881897 
L 181.418182 28.716889 
L 203.963636 28.551881 
L 226.509091 31.192012 
L 249.054545 43.897642 
" clip-path="url(#p5b5807e91d)" style="fill: none; stroke-dasharray: 11.1,4.8; stroke-dashoffset: 0; stroke: #9692c4; stroke-width: 3"/>
    <defs>
     <path id="m5ca5fd4d32" d="M 0 3 
C 0.795609 3 1.55874 2.683901 2.12132 2.12132 
C 2.683901 1.55874 3 0.795609 3 0 
C 3 -0.795609 2.683901 -1.55874 2.12132 -2.12132 
C 1.55874 -2.683901 0.795609 -3 0 -3 
C -0.795609 -3 -1.55874 -2.683901 -2.12132 -2.12132 
C -2.683901 -1.55874 -3 -0.795609 -3 0 
C -3 0.795609 -2.683901 1.55874 -2.12132 2.12132 
C -1.55874 2.683901 -0.795609 3 0 3 
z
" style="stroke: #9692c4"/>
    </defs>
    <g clip-path="url(#p5b5807e91d)">
     <use xlink:href="#m5ca5fd4d32" x="46.145455" y="27.72684" style="fill: #9692c4; stroke: #9692c4"/>
     <use xlink:href="#m5ca5fd4d32" x="68.690909" y="27.561831" style="fill: #9692c4; stroke: #9692c4"/>
     <use xlink:href="#m5ca5fd4d32" x="91.236364" y="27.891848" style="fill: #9692c4; stroke: #9692c4"/>
     <use xlink:href="#m5ca5fd4d32" x="113.781818" y="28.221864" style="fill: #9692c4; stroke: #9692c4"/>
     <use xlink:href="#m5ca5fd4d32" x="136.327273" y="28.551881" style="fill: #9692c4; stroke: #9692c4"/>
     <use xlink:href="#m5ca5fd4d32" x="158.872727" y="28.881897" style="fill: #9692c4; stroke: #9692c4"/>
     <use xlink:href="#m5ca5fd4d32" x="181.418182" y="28.716889" style="fill: #9692c4; stroke: #9692c4"/>
     <use xlink:href="#m5ca5fd4d32" x="203.963636" y="28.551881" style="fill: #9692c4; stroke: #9692c4"/>
     <use xlink:href="#m5ca5fd4d32" x="226.509091" y="31.192012" style="fill: #9692c4; stroke: #9692c4"/>
     <use xlink:href="#m5ca5fd4d32" x="249.054545" y="43.897642" style="fill: #9692c4; stroke: #9692c4"/>
    </g>
   </g>
   <g id="line2d_5">
    <path d="M 46.145455 28.551881 
L 68.690909 29.211913 
L 91.236364 28.716889 
L 113.781818 28.716889 
L 136.327273 29.871946 
L 158.872727 29.706938 
L 181.418182 29.706938 
L 203.963636 30.036954 
L 226.509091 32.512077 
L 249.054545 44.392666 
" clip-path="url(#p5b5807e91d)" style="fill: none; stroke-dasharray: 11.1,4.8; stroke-dashoffset: 0; stroke: #674ba0; stroke-width: 3"/>
    <defs>
     <path id="mb13aa54b1a" d="M 0 3 
C 0.795609 3 1.55874 2.683901 2.12132 2.12132 
C 2.683901 1.55874 3 0.795609 3 0 
C 3 -0.795609 2.683901 -1.55874 2.12132 -2.12132 
C 1.55874 -2.683901 0.795609 -3 0 -3 
C -0.795609 -3 -1.55874 -2.683901 -2.12132 -2.12132 
C -2.683901 -1.55874 -3 -0.795609 -3 0 
C -3 0.795609 -2.683901 1.55874 -2.12132 2.12132 
C -1.55874 2.683901 -0.795609 3 0 3 
z
" style="stroke: #674ba0"/>
    </defs>
    <g clip-path="url(#p5b5807e91d)">
     <use xlink:href="#mb13aa54b1a" x="46.145455" y="28.551881" style="fill: #674ba0; stroke: #674ba0"/>
     <use xlink:href="#mb13aa54b1a" x="68.690909" y="29.211913" style="fill: #674ba0; stroke: #674ba0"/>
     <use xlink:href="#mb13aa54b1a" x="91.236364" y="28.716889" style="fill: #674ba0; stroke: #674ba0"/>
     <use xlink:href="#mb13aa54b1a" x="113.781818" y="28.716889" style="fill: #674ba0; stroke: #674ba0"/>
     <use xlink:href="#mb13aa54b1a" x="136.327273" y="29.871946" style="fill: #674ba0; stroke: #674ba0"/>
     <use xlink:href="#mb13aa54b1a" x="158.872727" y="29.706938" style="fill: #674ba0; stroke: #674ba0"/>
     <use xlink:href="#mb13aa54b1a" x="181.418182" y="29.706938" style="fill: #674ba0; stroke: #674ba0"/>
     <use xlink:href="#mb13aa54b1a" x="203.963636" y="30.036954" style="fill: #674ba0; stroke: #674ba0"/>
     <use xlink:href="#mb13aa54b1a" x="226.509091" y="32.512077" style="fill: #674ba0; stroke: #674ba0"/>
     <use xlink:href="#mb13aa54b1a" x="249.054545" y="44.392666" style="fill: #674ba0; stroke: #674ba0"/>
    </g>
   </g>
   <g id="line2d_6">
    <path d="M 46.145455 27.396823 
L 68.690909 27.231815 
L 91.236364 27.396823 
L 113.781818 27.396823 
L 136.327273 27.561831 
L 158.872727 27.396823 
L 181.418182 27.561831 
L 203.963636 28.881897 
L 226.509091 34.162159 
L 249.054545 47.69283 
" clip-path="url(#p5b5807e91d)" style="fill: none; stroke-dasharray: 11.1,4.8; stroke-dashoffset: 0; stroke: #3f007d; stroke-width: 3"/>
    <defs>
     <path id="mff549186ea" d="M 0 3 
C 0.795609 3 1.55874 2.683901 2.12132 2.12132 
C 2.683901 1.55874 3 0.795609 3 0 
C 3 -0.795609 2.683901 -1.55874 2.12132 -2.12132 
C 1.55874 -2.683901 0.795609 -3 0 -3 
C -0.795609 -3 -1.55874 -2.683901 -2.12132 -2.12132 
C -2.683901 -1.55874 -3 -0.795609 -3 0 
C -3 0.795609 -2.683901 1.55874 -2.12132 2.12132 
C -1.55874 2.683901 -0.795609 3 0 3 
z
" style="stroke: #3f007d"/>
    </defs>
    <g clip-path="url(#p5b5807e91d)">
     <use xlink:href="#mff549186ea" x="46.145455" y="27.396823" style="fill: #3f007d; stroke: #3f007d"/>
     <use xlink:href="#mff549186ea" x="68.690909" y="27.231815" style="fill: #3f007d; stroke: #3f007d"/>
     <use xlink:href="#mff549186ea" x="91.236364" y="27.396823" style="fill: #3f007d; stroke: #3f007d"/>
     <use xlink:href="#mff549186ea" x="113.781818" y="27.396823" style="fill: #3f007d; stroke: #3f007d"/>
     <use xlink:href="#mff549186ea" x="136.327273" y="27.561831" style="fill: #3f007d; stroke: #3f007d"/>
     <use xlink:href="#mff549186ea" x="158.872727" y="27.396823" style="fill: #3f007d; stroke: #3f007d"/>
     <use xlink:href="#mff549186ea" x="181.418182" y="27.561831" style="fill: #3f007d; stroke: #3f007d"/>
     <use xlink:href="#mff549186ea" x="203.963636" y="28.881897" style="fill: #3f007d; stroke: #3f007d"/>
     <use xlink:href="#mff549186ea" x="226.509091" y="34.162159" style="fill: #3f007d; stroke: #3f007d"/>
     <use xlink:href="#mff549186ea" x="249.054545" y="47.69283" style="fill: #3f007d; stroke: #3f007d"/>
    </g>
   </g>
   <g id="line2d_7">
    <path d="M 46.145455 28.716889 
L 68.690909 29.211913 
L 91.236364 29.376921 
L 113.781818 31.027003 
L 136.327273 30.531979 
L 158.872727 31.027003 
L 181.418182 34.327167 
L 203.963636 32.017052 
L 226.509091 33.17211 
L 249.054545 50.992994 
" clip-path="url(#p5b5807e91d)" style="fill: none; stroke-dasharray: 11.1,4.8; stroke-dashoffset: 0; stroke: #cecfe5; stroke-width: 3"/>
    <g clip-path="url(#p5b5807e91d)">
     <use xlink:href="#mce75cf9109" x="46.145455" y="28.716889" style="fill: #cecfe5; stroke: #cecfe5"/>
     <use xlink:href="#mce75cf9109" x="68.690909" y="29.211913" style="fill: #cecfe5; stroke: #cecfe5"/>
     <use xlink:href="#mce75cf9109" x="91.236364" y="29.376921" style="fill: #cecfe5; stroke: #cecfe5"/>
     <use xlink:href="#mce75cf9109" x="113.781818" y="31.027003" style="fill: #cecfe5; stroke: #cecfe5"/>
     <use xlink:href="#mce75cf9109" x="136.327273" y="30.531979" style="fill: #cecfe5; stroke: #cecfe5"/>
     <use xlink:href="#mce75cf9109" x="158.872727" y="31.027003" style="fill: #cecfe5; stroke: #cecfe5"/>
     <use xlink:href="#mce75cf9109" x="181.418182" y="34.327167" style="fill: #cecfe5; stroke: #cecfe5"/>
     <use xlink:href="#mce75cf9109" x="203.963636" y="32.017052" style="fill: #cecfe5; stroke: #cecfe5"/>
     <use xlink:href="#mce75cf9109" x="226.509091" y="33.17211" style="fill: #cecfe5; stroke: #cecfe5"/>
     <use xlink:href="#mce75cf9109" x="249.054545" y="50.992994" style="fill: #cecfe5; stroke: #cecfe5"/>
    </g>
   </g>
   <g id="line2d_8">
    <path d="M 46.145455 31.027003 
L 68.690909 31.192012 
L 91.236364 31.687036 
L 113.781818 33.997151 
L 136.327273 32.017052 
L 158.872727 32.182061 
L 181.418182 33.667134 
L 203.963636 30.696987 
L 226.509091 34.327167 
L 249.054545 53.468116 
" clip-path="url(#p5b5807e91d)" style="fill: none; stroke-dasharray: 11.1,4.8; stroke-dashoffset: 0; stroke: #9692c4; stroke-width: 3"/>
    <g clip-path="url(#p5b5807e91d)">
     <use xlink:href="#m5ca5fd4d32" x="46.145455" y="31.027003" style="fill: #9692c4; stroke: #9692c4"/>
     <use xlink:href="#m5ca5fd4d32" x="68.690909" y="31.192012" style="fill: #9692c4; stroke: #9692c4"/>
     <use xlink:href="#m5ca5fd4d32" x="91.236364" y="31.687036" style="fill: #9692c4; stroke: #9692c4"/>
     <use xlink:href="#m5ca5fd4d32" x="113.781818" y="33.997151" style="fill: #9692c4; stroke: #9692c4"/>
     <use xlink:href="#m5ca5fd4d32" x="136.327273" y="32.017052" style="fill: #9692c4; stroke: #9692c4"/>
     <use xlink:href="#m5ca5fd4d32" x="158.872727" y="32.182061" style="fill: #9692c4; stroke: #9692c4"/>
     <use xlink:href="#m5ca5fd4d32" x="181.418182" y="33.667134" style="fill: #9692c4; stroke: #9692c4"/>
     <use xlink:href="#m5ca5fd4d32" x="203.963636" y="30.696987" style="fill: #9692c4; stroke: #9692c4"/>
     <use xlink:href="#m5ca5fd4d32" x="226.509091" y="34.327167" style="fill: #9692c4; stroke: #9692c4"/>
     <use xlink:href="#m5ca5fd4d32" x="249.054545" y="53.468116" style="fill: #9692c4; stroke: #9692c4"/>
    </g>
   </g>
   <g id="patch_3">
    <path d="M 36 192.24 
L 36 25.92 
" style="fill: none; stroke: #000000; stroke-width: 2; stroke-linejoin: miter; stroke-linecap: square"/>
   </g>
   <g id="patch_4">
    <path d="M 36 192.24 
L 259.2 192.24 
" style="fill: none; stroke: #000000; stroke-width: 2; stroke-linejoin: miter; stroke-linecap: square"/>
   </g>
  </g>
 </g>
 <defs>
  <clipPath id="p5b5807e91d">
   <rect x="36" y="25.92" width="223.2" height="166.32"/>
  </clipPath>
 </defs>
</svg>
