<?xml version="1.0" encoding="UTF-8" standalone="no"?>
<svg
   width="257.44083mm"
   height="80.16909mm"
   overflow="hidden"
   version="1.1"
   id="svg52"
   sodipodi:docname="figure1_new2.svg"
   inkscape:version="1.4.2 (ebf0e94, 2025-05-08)"
   inkscape:export-filename="..\figure1.png"
   inkscape:export-xdpi="500"
   inkscape:export-ydpi="500"
   xmlns:inkscape="http://www.inkscape.org/namespaces/inkscape"
   xmlns:sodipodi="http://sodipodi.sourceforge.net/DTD/sodipodi-0.dtd"
   xmlns="http://www.w3.org/2000/svg"
   xmlns:svg="http://www.w3.org/2000/svg">
  <defs
     id="defs52">
    <marker
       style="overflow:visible"
       id="Triangle"
       refX="0"
       refY="0"
       orient="auto-start-reverse"
       inkscape:stockid="Triangle arrow"
       markerWidth="1"
       markerHeight="1"
       viewBox="0 0 1 1"
       inkscape:isstock="true"
       inkscape:collect="always"
       preserveAspectRatio="xMidYMid">
      <path
         transform="scale(0.5)"
         style="fill:context-stroke;fill-rule:evenodd;stroke:context-stroke;stroke-width:1pt"
         d="M 5.77,0 -2.88,5 V -5 Z"
         id="path135" />
    </marker>
    <rect
       x="457.94501"
       y="6.1676092"
       width="370.05655"
       height="47.798973"
       id="rect1" />
    <rect
       x="41.976151"
       y="195.70699"
       width="81.771721"
       height="45.247021"
       id="rect53" />
  </defs>
  <sodipodi:namedview
     id="namedview52"
     pagecolor="#ffffff"
     bordercolor="#000000"
     borderopacity="0.25"
     inkscape:showpageshadow="2"
     inkscape:pageopacity="0.0"
     inkscape:pagecheckerboard="0"
     inkscape:deskcolor="#d1d1d1"
     inkscape:zoom="1.7"
     inkscape:cx="501.17647"
     inkscape:cy="225.58824"
     inkscape:window-width="2560"
     inkscape:window-height="1369"
     inkscape:window-x="2552"
     inkscape:window-y="79"
     inkscape:window-maximized="1"
     inkscape:current-layer="g22"
     showgrid="true"
     inkscape:document-units="mm">
    <inkscape:grid
       id="grid63"
       units="px"
       originx="51.847352"
       originy="-56.070801"
       spacingx="1"
       spacingy="1"
       empcolor="#0099e5"
       empopacity="0.30196078"
       color="#0099e5"
       opacity="0.14901961"
       empspacing="5"
       dotted="false"
       gridanglex="30"
       gridanglez="30"
       visible="true" />
  </sodipodi:namedview>
  <g
     id="g1"
     transform="translate(91.84735,-56.070803)">
    <g
       id="g22">
      <g
         id="g4">
        <g
           id="g3">
          <text
             xml:space="preserve"
             id="text53"
             style="font-size:32px;white-space:pre;shape-inside:url(#rect53);display:inline;fill:#000000;stroke-width:1.4"
             transform="translate(92.99081,36)" />
          <path
             d="m 147.49684,199.48093 -155.464562,34.90647 0.299635,0.95501 155.464617,-34.90643 z m -155.561504,32.03154 -6.527607,4.8735 8.525706,1.49344 z"
             id="path4-5"
             style="stroke-width:0.53718" />
          <path
             d="m 148.46744,199.39073 138.84788,35.67668 -0.2753,0.98204 -138.84682,-35.67668 z m 138.93789,32.71888 5.90838,5.02557 -7.72964,1.52134 z"
             id="path5-9"
             style="stroke-width:0.518757" />
          <path
             d="m 147.53038,199.88787 -5e-5,30.66112 h 1.01644 l 5e-5,-30.66112 z m -2.87997,30.00872 3.38813,6.5237 3.38816,-6.5237 z"
             id="path6-1"
             style="stroke-width:0.498659" />
          <path
             d="m 557.15997,146.73189 0.79142,-2.28187 1.78507,-4.49368 1.82279,-4.08002 1.85872,-3.67126 1.89234,-3.26483 1.92399,-2.86043 1.95422,-2.45791 1.98362,-2.05635 2.01245,-1.6544 2.04005,-1.24991 2.06427,-0.84056 2.08116,-0.42547 2.08599,-0.007 2.07686,0.4098 2.05588,0.81938 2.02763,1.21961 1.99597,1.61152 1.96326,1.99731 1.92981,2.37915 1.89555,2.75835 1.85981,3.13581 1.82215,3.51163 1.78206,3.88614 1.7392,4.25944 1.69359,4.63119 1.6442,5.00156 1.59234,5.37057 1.53724,5.73791 1.47768,6.10371 1.41554,6.46794 1.34958,6.83044 1.26438,7.10864 1.17343,7.35938 2.06503,15.38911 1.67816,16.19497 1.27591,16.86395 -1.27655,0.11582 -1.27527,-16.85271 0.002,0.021 -1.67623,-16.17321 0.004,0.0225 -2.06246,-15.36806 0.004,0.019 -1.17151,-7.34323 0.003,0.0133 -1.26182,-7.09473 0.003,0.0142 -1.34703,-6.81578 0.004,0.0152 -1.4117,-6.45215 0.004,0.0162 -1.47382,-6.08672 0.005,0.0177 -1.53213,-5.71945 0.005,0.0193 -1.58655,-5.35035 0.005,0.021 -1.63709,-4.97945 0.007,0.0231 -1.68449,-4.60677 0.01,0.0256 -1.72812,-4.23227 0.0123,0.0284 -1.76815,-3.85596 0.0154,0.0318 -1.8046,-3.47787 0.0198,0.0356 -1.83739,-3.09796 0.0254,0.0397 -1.86661,-2.71625 0.0329,0.0441 -1.89214,-2.33265 0.0429,0.0481 -1.91406,-1.94733 0.0559,0.0507 -1.93238,-1.56017 0.0717,0.0502 -1.9471,-1.17121 0.0893,0.0444 -1.9582,-0.78045 0.10535,0.0311 -1.9657,-0.38786 0.11543,0.0111 -1.96953,0.006 0.11547,-0.012 -1.96978,0.4027 0.10567,-0.0321 -1.9664,0.80071 0.0894,-0.0452 -1.95941,1.20052 0.0718,-0.0512 -1.94885,1.60212 0.0558,-0.0516 -1.93462,2.00556 0.0428,-0.0488 -1.91677,2.41076 0.0326,-0.0447 -1.89535,2.81782 0.0251,-0.0401 -1.87025,3.22663 0.0195,-0.0358 -1.84148,3.6373 0.0152,-0.0318 -1.80928,4.04976 0.0121,-0.0285 -1.77334,4.46405 0.0114,-0.0308 -0.78598,2.26636 z m 4.9026,0.97671 -6.9422,7.18444 -1.07915,-10.39718 z"
             id="path7-5"
             style="stroke-width:0.670538" />
          <path
             d="m 727.54847,147.75518 -0.62168,-2.28187 -1.40221,-4.49368 -1.43184,-4.08002 -1.46007,-3.67126 -1.48647,-3.26483 -1.51134,-2.86043 -1.53508,-2.45791 -1.55817,-2.05635 -1.58083,-1.6544 -1.6025,-1.24991 -1.62153,-0.84056 -1.63479,-0.42547 -1.63859,-0.007 -1.63142,0.4098 -1.61494,0.81938 -1.59275,1.21961 -1.56788,1.61152 -1.54218,1.99731 -1.51591,2.37915 -1.48899,2.75835 -1.46092,3.13581 -1.43134,3.51163 -1.39985,3.88614 -1.36618,4.25944 -1.33035,4.63119 -1.29155,5.00156 -1.25082,5.37057 -1.20754,5.73791 -1.16074,6.10371 -1.11194,6.46794 -1.06013,6.83044 -0.99319,7.10864 -0.92176,7.35938 -1.62212,15.38911 -1.31824,16.19498 -1.00225,16.86394 1.00276,0.11582 1.00175,-16.85271 -0.002,0.021 1.31671,-16.17321 -0.003,0.0225 1.62011,-15.36806 -0.003,0.019 0.92024,-7.34323 -0.002,0.0133 0.99118,-7.09473 -0.002,0.0142 1.05812,-6.81578 -0.003,0.0152 1.10892,-6.45215 -0.003,0.0163 1.15772,-6.08672 -0.004,0.0177 1.20353,-5.71946 -0.004,0.0193 1.24627,-5.35035 -0.004,0.021 1.28597,-4.97945 -0.005,0.0231 1.3232,-4.60677 -0.008,0.0256 1.35747,-4.23227 -0.01,0.0284 1.38892,-3.85595 -0.0121,0.0318 1.41756,-3.47788 -0.0156,0.0356 1.44331,-3.09796 -0.0199,0.0397 1.46626,-2.71624 -0.0258,0.0441 1.48632,-2.33265 -0.0337,0.0481 1.50353,-1.94733 -0.0439,0.0507 1.51793,-1.56016 -0.0563,0.0502 1.52949,-1.17121 -0.0702,0.0444 1.53821,-0.78045 -0.0828,0.0311 1.5441,-0.38786 -0.0907,0.0111 1.54711,0.006 -0.0907,-0.012 1.54731,0.4027 -0.083,-0.0321 1.54465,0.80071 -0.0702,-0.0452 1.53915,1.20052 -0.0564,-0.0512 1.53087,1.60212 -0.0438,-0.0516 1.51968,2.00555 -0.0336,-0.0488 1.50567,2.41076 -0.0256,-0.0447 1.48884,2.81782 -0.0197,-0.0401 1.46912,3.22664 -0.0153,-0.0358 1.44653,3.63729 -0.0119,-0.0318 1.42122,4.04976 -0.01,-0.0285 1.393,4.46406 -0.009,-0.0308 0.61741,2.26635 z m -3.8511,0.97671 5.45325,7.18444 0.84769,-10.39718 z"
             id="path7-5-1"
             style="stroke-width:0.594296" />
          <rect
             x="-83.111992"
             y="237.72748"
             width="173.20792"
             height="36.812195"
             stroke="#000000"
             stroke-width="3.63393"
             stroke-miterlimit="8"
             fill="#ffffff"
             id="rect12-9-5"
             style="stroke-width:2.06874;stroke-dasharray:none" />
          <text
             font-family="Calibri, Calibri_MSFontService, sans-serif"
             font-weight="400"
             font-size="24px"
             id="text12-3-95"
             x="-75.687279"
             y="252.54155"
             style="font-weight:400;font-size:16.2631px;font-family:Calibri, Calibri_MSFontService, sans-serif;stroke-width:0.508221"><tspan
               style="font-style:normal;font-variant:normal;font-weight:normal;font-stretch:normal;font-size:18.9736px;font-family:Sans;-inkscape-font-specification:'Sans, Normal';font-variant-ligatures:normal;font-variant-caps:normal;font-variant-numeric:normal;font-variant-east-asian:normal;stroke-width:0.508221"
               id="tspan14-7-32">apply max effort,</tspan></text>
          <text
             font-family="Calibri, Calibri_MSFontService, sans-serif"
             font-weight="400"
             font-size="24px"
             id="text13-5-7"
             x="-66.841759"
             y="269.31287"
             style="font-weight:400;font-size:16.2631px;font-family:Calibri, Calibri_MSFontService, sans-serif;stroke-width:0.508221"><tspan
               style="font-style:normal;font-variant:normal;font-weight:normal;font-stretch:normal;font-size:18.9736px;font-family:Sans;-inkscape-font-specification:'Sans, Normal';font-variant-ligatures:normal;font-variant-caps:normal;font-variant-numeric:normal;font-variant-east-asian:normal;stroke-width:0.508221"
               id="tspan15-7-3">without gaps</tspan></text>
          <rect
             x="13.00858"
             y="164.01553"
             width="120.59759"
             height="34.97435"
             stroke="#000000"
             stroke-width="3.01722"
             stroke-miterlimit="8"
             fill="#ffffff"
             id="rect12-9-1"
             style="stroke-width:1.85872;stroke-dasharray:none" />
          <text
             font-family="Calibri, Calibri_MSFontService, sans-serif"
             font-weight="400"
             font-size="24px"
             id="text12-3-9"
             x="48.047203"
             y="177.65886"
             style="font-weight:400;font-size:16.2631px;font-family:Calibri, Calibri_MSFontService, sans-serif;stroke-width:0.508221"><tspan
               style="font-style:normal;font-variant:normal;font-weight:normal;font-stretch:normal;font-size:18.9736px;font-family:Sans;-inkscape-font-specification:'Sans, Normal';font-variant-ligatures:normal;font-variant-caps:normal;font-variant-numeric:normal;font-variant-east-asian:normal;stroke-width:0.508221"
               id="tspan14-7-3">start</tspan></text>
          <text
             font-family="Calibri, Calibri_MSFontService, sans-serif"
             font-weight="400"
             font-size="24px"
             id="text13-5-1"
             x="14.41583"
             y="194.43018"
             style="font-weight:400;font-size:16.2631px;font-family:Calibri, Calibri_MSFontService, sans-serif;stroke-width:0.508221"><tspan
               style="font-style:normal;font-variant:normal;font-weight:normal;font-stretch:normal;font-size:18.9736px;font-family:Sans;-inkscape-font-specification:'Sans, Normal';font-variant-ligatures:normal;font-variant-caps:normal;font-variant-numeric:normal;font-variant-east-asian:normal;stroke-width:0.508221"
               id="tspan15-7-1">immediately</tspan></text>
          <rect
             x="105.2038"
             y="238.4599"
             width="86.730797"
             height="34.773766"
             stroke="#000000"
             stroke-width="1.81817"
             stroke-miterlimit="8"
             fill="#ffffff"
             id="rect13-2-0" />
          <text
             font-family="Calibri, Calibri_MSFontService, sans-serif"
             font-weight="400"
             font-size="24px"
             id="text14-9-6"
             x="117.13926"
             y="253.30566"
             style="font-weight:400;font-size:16.2631px;font-family:Calibri, Calibri_MSFontService, sans-serif;stroke-width:0.508221"><tspan
               style="font-style:normal;font-variant:normal;font-weight:normal;font-stretch:normal;font-size:18.9736px;font-family:Sans;-inkscape-font-specification:'Sans, Normal';font-variant-ligatures:normal;font-variant-caps:normal;font-variant-numeric:normal;font-variant-east-asian:normal;stroke-width:0.508221"
               id="tspan16-7-0">spread</tspan></text>
          <text
             font-family="Calibri, Calibri_MSFontService, sans-serif"
             font-weight="400"
             font-size="24px"
             id="text15-5-7"
             x="106.23283"
             y="270.077"
             style="font-weight:400;font-size:16.2631px;font-family:Calibri, Calibri_MSFontService, sans-serif;stroke-width:0.508221"><tspan
               style="font-style:normal;font-variant:normal;font-weight:normal;font-stretch:normal;font-size:18.9736px;font-family:Sans;-inkscape-font-specification:'Sans, Normal';font-variant-ligatures:normal;font-variant-caps:normal;font-variant-numeric:normal;font-variant-east-asian:normal;stroke-width:0.508221"
               id="tspan17-6-2">out work</tspan></text>
          <path
             d="m 745.32982,199.90523 -27.31472,40.5856 1.19184,0.66337 27.31476,-40.58556 z m -30.20538,37.98336 -0.89036,9.43739 8.83619,-5.0147 z"
             id="path15-5"
             style="stroke-width:0.666306" />
          <rect
             x="161.66075"
             y="163.3755"
             width="104.55527"
             height="35.751328"
             stroke="#000000"
             stroke-width="1.67394"
             stroke-miterlimit="8"
             fill="#ffffff"
             id="rect28-5" />
          <text
             font-family="Calibri, Calibri_MSFontService, sans-serif"
             font-weight="400"
             font-size="24px"
             id="text29-6"
             x="165.67519"
             y="178.91719"
             style="font-weight:400;font-size:16.2631px;font-family:Calibri, Calibri_MSFontService, sans-serif;stroke-width:0.508221"><tspan
               style="font-style:normal;font-variant:normal;font-weight:normal;font-stretch:normal;font-size:18.9736px;font-family:Sans;-inkscape-font-specification:'Sans, Normal';font-variant-ligatures:normal;font-variant-caps:normal;font-variant-numeric:normal;font-variant-east-asian:normal;stroke-width:0.508221"
               id="tspan6-34">delay to a</tspan></text>
          <text
             font-family="Calibri, Calibri_MSFontService, sans-serif"
             font-weight="400"
             font-size="24px"
             id="text30-0"
             x="165.18422"
             y="195.68846"
             style="font-weight:400;font-size:16.2631px;font-family:Calibri, Calibri_MSFontService, sans-serif;stroke-width:0.508221"><tspan
               style="font-style:normal;font-variant:normal;font-weight:normal;font-stretch:normal;font-size:18.9736px;font-family:Sans;-inkscape-font-specification:'Sans, Normal';font-variant-ligatures:normal;font-variant-caps:normal;font-variant-numeric:normal;font-variant-east-asian:normal;stroke-width:0.508221"
               id="tspan7-6">later point</tspan></text>
          <rect
             x="455.76352"
             y="154.29118"
             width="187.45145"
             height="49.46946"
             stroke="#000000"
             stroke-width="2.63655"
             stroke-miterlimit="8"
             fill="#ffffff"
             id="rect28-0" />
          <text
             font-family="Calibri, Calibri_MSFontService, sans-serif"
             font-weight="400"
             font-size="24px"
             id="text29-2"
             x="467.29135"
             y="173.84529"
             style="font-weight:400;font-size:20.9119px;font-family:Calibri, Calibri_MSFontService, sans-serif;stroke-width:0.653496"><tspan
               style="font-style:normal;font-variant:normal;font-weight:normal;font-stretch:normal;font-size:24.3972px;font-family:Sans;-inkscape-font-specification:'Sans, Normal';font-variant-ligatures:normal;font-variant-caps:normal;font-variant-numeric:normal;font-variant-east-asian:normal;stroke-width:0.653496"
               id="tspan6-3">commit to an</tspan></text>
          <text
             font-family="Calibri, Calibri_MSFontService, sans-serif"
             font-weight="400"
             font-size="24px"
             id="text30-9"
             x="456.74832"
             y="197.36194"
             style="font-weight:400;font-size:20.9119px;font-family:Calibri, Calibri_MSFontService, sans-serif;stroke-width:0.653496"><tspan
               sodipodi:role="line"
               id="tspan2"
               x="456.74832"
               y="197.36194"
               style="font-style:normal;font-variant:normal;font-weight:normal;font-stretch:normal;font-size:24.3972px;font-family:Sans;-inkscape-font-specification:'Sans, Normal';font-variant-ligatures:normal;font-variant-caps:normal;font-variant-numeric:normal;font-variant-east-asian:normal;stroke-width:0.653496">open-loop <tspan
   style="fill:#008080;stroke-width:0.653496"
   id="tspan12">plan</tspan></tspan></text>
          <rect
             x="596.0097"
             y="57.145073"
             width="116.05386"
             height="49.287773"
             stroke="#000000"
             stroke-width="2.14854"
             stroke-miterlimit="8"
             fill="#ffffff"
             id="rect2-9" />
          <text
             font-family="Calibri, Calibri_MSFontService, sans-serif"
             font-weight="400"
             font-size="24px"
             id="text2-3"
             x="604.79559"
             y="77.446274"
             style="font-weight:400;font-size:20.9119px;font-family:Calibri, Calibri_MSFontService, sans-serif;stroke-width:0.653496"><tspan
               style="font-style:normal;font-variant:normal;font-weight:normal;font-stretch:normal;font-size:24.3972px;font-family:Sans;-inkscape-font-specification:'Sans, Normal';font-variant-ligatures:normal;font-variant-caps:normal;font-variant-numeric:normal;font-variant-east-asian:normal;stroke-width:0.653496"
               id="tspan5-8">engage</tspan></text>
          <text
             xml:space="preserve"
             style="font-size:20.9119px;text-align:center;letter-spacing:0px;text-anchor:middle;fill:#000000;stroke-width:0.914895"
             x="653.03418"
             y="100.82213"
             id="text57-8-0"><tspan
               sodipodi:role="line"
               id="tspan57-5-2"
               x="653.03418"
               y="100.82213"
               style="font-style:normal;font-variant:normal;font-weight:normal;font-stretch:normal;font-size:24.3972px;font-family:Sans;-inkscape-font-specification:'Sans, Normal';font-variant-ligatures:normal;font-variant-caps:normal;font-variant-numeric:normal;font-variant-east-asian:normal;stroke-width:0.914895">in task</tspan></text>
          <rect
             x="590.99292"
             y="317.17923"
             width="111.12202"
             height="40.786427"
             stroke="#000000"
             stroke-width="2.21287"
             stroke-miterlimit="8"
             fill="#ffffff"
             id="rect30-2-7" />
          <text
             font-family="Calibri, Calibri_MSFontService, sans-serif"
             font-weight="400"
             font-size="24px"
             id="text31-8-6"
             x="594.46216"
             y="344.56467"
             style="font-weight:400;font-size:20.9119px;font-family:Calibri, Calibri_MSFontService, sans-serif;stroke-width:0.653496"><tspan
               style="font-style:normal;font-variant:normal;font-weight:normal;font-stretch:normal;font-size:24.3972px;font-family:Sans;-inkscape-font-specification:'Sans, Normal';font-variant-ligatures:normal;font-variant-caps:normal;font-variant-numeric:normal;font-variant-east-asian:normal;stroke-width:0.653496"
               id="tspan11-5-8">abandon</tspan></text>
          <rect
             x="110.29536"
             y="87.387985"
             width="64.93531"
             height="35.521523"
             stroke="#000000"
             stroke-width="1.57864"
             stroke-miterlimit="8"
             fill="#ffffff"
             id="rect30-2-6" />
          <text
             font-family="Calibri, Calibri_MSFontService, sans-serif"
             font-weight="400"
             font-size="24px"
             id="text31-8-1"
             x="121.51932"
             y="111.50151"
             style="font-weight:400;font-size:16.2631px;font-family:Calibri, Calibri_MSFontService, sans-serif;stroke-width:0.508221"><tspan
               style="font-style:normal;font-variant:normal;font-weight:normal;font-stretch:normal;font-size:18.9736px;font-family:Sans;-inkscape-font-specification:'Sans, Normal';font-variant-ligatures:normal;font-variant-caps:normal;font-variant-numeric:normal;font-variant-east-asian:normal;fill:#008080;stroke-width:0.508221"
               id="tspan11-5-2">plan</tspan></text>
          <path
             d="m 534.85932,202.25706 32.56107,38.66707 -1.0384,0.71878 -32.56174,-38.66648 z m 34.97573,36.00113 1.82521,8.67689 -8.7503,-3.88187 z"
             id="path33-0"
             style="stroke-width:0.622284" />
          <path
             d="m 633.93146,105.67446 -57.3733,44.02049 0.79557,1.03697 57.37334,-44.02053 z m -58.93627,40.55213 -4.26092,8.7605 9.56496,-1.84763 z"
             id="path11-5"
             style="stroke-width:0.653496" />
          <path
             d="m 127.97974,124.25036 -44.619034,34.2346 0.618713,0.80645 44.619061,-34.23462 z m -45.83455,31.53727 -3.313698,6.81301 7.438633,-1.43689 z"
             id="path11-5-7"
             style="stroke-width:0.508221" />
          <path
             d="m 164.58011,124.05179 46.59376,34.32934 -0.60276,0.81824 -46.59375,-34.32934 z m 47.75657,31.60883 3.44574,6.74715 -7.46527,-1.29139 z"
             id="path10-4-5"
             style="stroke-width:0.508221" />
          <rect
             x="225.24809"
             y="238.73817"
             width="129.62848"
             height="34.381718"
             stroke="#000000"
             stroke-width="3.13701"
             stroke-miterlimit="8"
             fill="#ffffff"
             id="rect13-2-0-1"
             style="stroke-width:1.94393;stroke-dasharray:none" />
          <text
             font-family="Calibri, Calibri_MSFontService, sans-serif"
             font-weight="400"
             font-size="24px"
             id="text14-9-6-7"
             x="252.92973"
             y="253.38794"
             style="font-weight:400;font-size:16.2631px;font-family:Calibri, Calibri_MSFontService, sans-serif;stroke-width:0.508221"><tspan
               style="font-style:normal;font-variant:normal;font-weight:normal;font-stretch:normal;font-size:18.9736px;font-family:Sans;-inkscape-font-specification:'Sans, Normal';font-variant-ligatures:normal;font-variant-caps:normal;font-variant-numeric:normal;font-variant-east-asian:normal;stroke-width:0.508221"
               id="tspan16-7-0-1">pause</tspan></text>
          <text
             font-family="Calibri, Calibri_MSFontService, sans-serif"
             font-weight="400"
             font-size="24px"
             id="text15-5-7-3"
             x="226.0811"
             y="270.15924"
             style="font-weight:400;font-size:16.2631px;font-family:Calibri, Calibri_MSFontService, sans-serif;stroke-width:0.508221"><tspan
               style="font-style:normal;font-variant:normal;font-weight:normal;font-stretch:normal;font-size:18.9736px;font-family:Sans;-inkscape-font-specification:'Sans, Normal';font-variant-ligatures:normal;font-variant-caps:normal;font-variant-numeric:normal;font-variant-east-asian:normal;stroke-width:0.508221"
               id="tspan17-6-2-4">after starting</tspan></text>
          <rect
             style="fill:#008080;fill-opacity:0;stroke:#000000;stroke-width:1.90016;stroke-dasharray:11.401, 11.401;stroke-dashoffset:0;stroke-opacity:1"
             id="rect20"
             width="457.61993"
             height="211.82156"
             x="-90.89727"
             y="73.492134" />
          <path
             d="m 688.15992,105.44083 59.91244,44.14231 -0.77505,1.05213 -59.91244,-44.14232 z m 61.40764,40.64415 4.4307,8.67581 -9.59921,-1.66053 z"
             id="path10-9"
             style="stroke-width:0.653496" />
          <path
             style="fill:#008080;fill-opacity:0;stroke:#000000;stroke-width:2.20896;stroke-dasharray:8.83581, 17.6716;stroke-dashoffset:0;stroke-opacity:1"
             d="M 454.84081,152.71895 C 364.8313,71.63322 366.13578,73.223131 366.13578,73.223131"
             id="path29" />
          <path
             style="fill:#008080;fill-opacity:0;stroke:#000000;stroke-width:2.33136;stroke-dasharray:9.3254, 18.6508;stroke-dashoffset:0;stroke-opacity:1"
             d="m 367.61878,286.61276 c 97.29324,-88.80645 97.29324,-88.80645 97.29324,-88.80645"
             id="path30" />
          <path
             d="m -89.15281,230.95564 c 0,-6.2083 4.89307,-11.24127 10.92901,-11.24127 6.03594,0 10.92901,5.03297 10.92901,11.24127 0,6.2083 -4.89307,11.24127 -10.92901,11.24127 -6.03594,0 -10.92901,-5.03297 -10.92901,-11.24127 z"
             stroke="#ff0000"
             stroke-width="0.832684"
             stroke-miterlimit="8"
             fill="#ffffff"
             fill-rule="evenodd"
             id="path51-9" />
          <text
             fill="#ff0000"
             font-family="Calibri, Calibri_MSFontService, sans-serif"
             font-weight="400"
             font-size="24px"
             id="text51-7"
             x="-83.735176"
             y="236.88855"
             style="font-size:18.3191px;stroke-width:0.624515">a</text>
          <path
             d="m 95.155486,232.14228 c 0,-6.20831 4.893074,-11.24127 10.929014,-11.24127 6.03594,0 10.92901,5.03296 10.92901,11.24127 0,6.2083 -4.89307,11.24127 -10.92901,11.24127 -6.03594,0 -10.929014,-5.03297 -10.929014,-11.24127 z"
             stroke="#ff0000"
             stroke-width="0.832684"
             stroke-miterlimit="8"
             fill="#ffffff"
             fill-rule="evenodd"
             id="path51-2" />
          <text
             fill="#ff0000"
             font-family="Calibri, Calibri_MSFontService, sans-serif"
             font-weight="400"
             font-size="24px"
             id="text51-3"
             x="100.57312"
             y="238.0752"
             style="font-size:18.3191px;stroke-width:0.624515">b</text>
          <path
             d="m 212.64001,233.97876 c 0,-6.2083 4.89308,-11.24127 10.92902,-11.24127 6.03594,0 10.929,5.03297 10.929,11.24127 0,6.20831 -4.89306,11.24128 -10.929,11.24128 -6.03594,0 -10.92902,-5.03297 -10.92902,-11.24128 z"
             stroke="#ff0000"
             stroke-width="0.832684"
             stroke-miterlimit="8"
             fill="#ffffff"
             fill-rule="evenodd"
             id="path51-2-8" />
          <text
             fill="#ff0000"
             font-family="Calibri, Calibri_MSFontService, sans-serif"
             font-weight="400"
             font-size="24px"
             id="text51-3-9"
             x="218.05765"
             y="239.91167"
             style="font-size:18.3191px;stroke-width:0.624515">c</text>
          <g
             id="g64-2"
             transform="matrix(0.65349559,0,0,0.65349559,437.2762,-126.8502)">
            <path
               d="m 9.65747,427.49511 c 0,-9.941 7.835,-18 17.5,-18 9.6649,0 17.5,8.059 17.5,18 0,9.941 -7.8351,18 -17.5,18 -9.665,0 -17.5,-8.059 -17.5,-18 z"
               stroke="#ff0000"
               stroke-width="1.33333"
               stroke-miterlimit="8"
               fill="#ffffff"
               fill-rule="evenodd"
               id="path49-3" />
            <text
               fill="#ff0000"
               font-family="Calibri, Calibri_MSFontService, sans-serif"
               font-weight="400"
               font-size="24px"
               id="text49-5"
               x="18.498283"
               y="436.99512"
               style="font-size:29.3333px">1</text>
          </g>
          <rect
             x="584.91589"
             y="243.78711"
             width="118.47469"
             height="43.005981"
             stroke="#000000"
             stroke-width="2.34626"
             stroke-miterlimit="8"
             fill="#ffffff"
             id="rect30-2" />
          <text
             font-family="Calibri, Calibri_MSFontService, sans-serif"
             font-weight="400"
             font-size="24px"
             id="text31-8"
             x="605.96552"
             y="273.04648"
             style="font-weight:400;font-size:20.9119px;font-family:Calibri, Calibri_MSFontService, sans-serif;stroke-width:0.653496"><tspan
               style="font-style:normal;font-variant:normal;font-weight:normal;font-stretch:normal;font-size:24.3972px;font-family:Sans;-inkscape-font-specification:'Sans, Normal';font-variant-ligatures:normal;font-variant-caps:normal;font-variant-numeric:normal;font-variant-east-asian:normal;stroke-width:0.653496"
               id="tspan11-5">defect</tspan></text>
          <g
             id="g7"
             transform="translate(124.80403,160.16439)">
            <path
               d="m 448.58352,83.557746 c 0,-6.4964 5.12013,-11.76292 11.43618,-11.76292 6.31603,0 11.43616,5.26652 11.43616,11.76292 0,6.4964 -5.12013,11.76292 -11.43616,11.76292 -6.31605,0 -11.43618,-5.26652 -11.43618,-11.76292 z"
               stroke="#ff0000"
               stroke-width="0.871325"
               stroke-miterlimit="8"
               fill="#ffffff"
               fill-rule="evenodd"
               id="path50-9" />
            <text
               fill="#ff0000"
               font-family="Calibri, Calibri_MSFontService, sans-serif"
               font-weight="400"
               font-size="24px"
               id="text50-0"
               x="454.40878"
               y="89.765968"
               style="font-size:19.1692px;stroke-width:0.653496">2</text>
          </g>
          <rect
             x="674.31891"
             y="155.74625"
             width="205.49667"
             height="48.631908"
             stroke="#000000"
             stroke-width="2.68361"
             stroke-miterlimit="8"
             fill="#ffffff"
             id="rect3-7" />
          <text
             font-family="Calibri, Calibri_MSFontService, sans-serif"
             font-weight="400"
             font-size="24px"
             id="text3-2"
             x="703.31793"
             y="174.78285"
             style="font-weight:400;font-size:20.9119px;font-family:Calibri, Calibri_MSFontService, sans-serif;stroke-width:0.653496"><tspan
               style="font-style:normal;font-variant:normal;font-weight:normal;font-stretch:normal;font-size:24.3972px;font-family:Sans;-inkscape-font-specification:'Sans, Normal';font-variant-ligatures:normal;font-variant-caps:normal;font-variant-numeric:normal;font-variant-east-asian:normal;stroke-width:0.653496"
               id="tspan8-3">commit to a</tspan></text>
          <text
             font-family="Calibri, Calibri_MSFontService, sans-serif"
             font-weight="400"
             font-size="24px"
             id="text4-6"
             x="679.29242"
             y="198.5955"
             style="font-weight:400;font-size:20.9119px;font-family:Calibri, Calibri_MSFontService, sans-serif;stroke-width:0.653496"><tspan
               style="font-style:normal;font-variant:normal;font-weight:normal;font-stretch:normal;font-size:24.3972px;font-family:Sans;-inkscape-font-specification:'Sans, Normal';font-variant-ligatures:normal;font-variant-caps:normal;font-variant-numeric:normal;font-variant-east-asian:normal;stroke-width:0.653496"
               id="tspan9-5">closed-loop <tspan
   style="fill:#008080;stroke-width:0.653496"
   id="tspan20">plan</tspan></tspan></text>
          <g
             id="g2"
             transform="translate(-6.562256,74.819264)">
            <path
               d="m 668.20938,77.508945 c 0,-6.4964 5.12014,-11.76292 11.43618,-11.76292 6.31603,0 11.43617,5.26652 11.43617,11.76292 0,6.4964 -5.12014,11.76292 -11.43617,11.76292 -6.31604,0 -11.43618,-5.26652 -11.43618,-11.76292 z"
               stroke="#ff0000"
               stroke-width="0.871325"
               stroke-miterlimit="8"
               fill="#ffffff"
               fill-rule="evenodd"
               id="path51-8" />
            <text
               fill="#ff0000"
               font-family="Calibri, Calibri_MSFontService, sans-serif"
               font-weight="400"
               font-size="24px"
               id="text51-2"
               x="673.87842"
               y="83.717163"
               style="font-size:19.1692px;stroke-width:0.653496">3</text>
          </g>
          <path
             style="fill:none;fill-rule:evenodd;stroke:#000000;stroke-width:1.22835;stroke-linecap:butt;stroke-linejoin:miter;stroke-dasharray:none;stroke-opacity:1;marker-end:url(#Triangle)"
             d="m 645.79969,290.18844 v 19.41177"
             id="path2"
             inkscape:connector-type="polyline"
             inkscape:connector-curvature="0" />
        </g>
      </g>
    </g>
  </g>
</svg>
