<?xml version="1.0" encoding="utf-8" standalone="no"?>
<!DOCTYPE svg PUBLIC "-//W3C//DTD SVG 1.1//EN"
  "http://www.w3.org/Graphics/SVG/1.1/DTD/svg11.dtd">
<svg xmlns:xlink="http://www.w3.org/1999/xlink" width="288pt" height="288pt" viewBox="0 0 288 288" xmlns="http://www.w3.org/2000/svg" version="1.1">
 <metadata>
  <rdf:RDF xmlns:dc="http://purl.org/dc/elements/1.1/" xmlns:cc="http://creativecommons.org/ns#" xmlns:rdf="http://www.w3.org/1999/02/22-rdf-syntax-ns#">
   <cc:Work>
    <dc:type rdf:resource="http://purl.org/dc/dcmitype/StillImage"/>
    <dc:date>2024-07-11T11:35:49.264979</dc:date>
    <dc:format>image/svg+xml</dc:format>
    <dc:creator>
     <cc:Agent>
      <dc:title>Matplotlib v3.8.0, https://matplotlib.org/</dc:title>
     </cc:Agent>
    </dc:creator>
   </cc:Work>
  </rdf:RDF>
 </metadata>
 <defs>
  <style type="text/css">*{stroke-linejoin: round; stroke-linecap: butt}</style>
 </defs>
 <g id="figure_1">
  <g id="patch_1">
   <path d="M 0 288 
L 288 288 
L 288 0 
L 0 0 
z
" style="fill: #ffffff"/>
  </g>
  <g id="axes_1">
   <g id="patch_2">
    <path d="M 36 252 
L 259.2 252 
L 259.2 34.56 
L 36 34.56 
z
" style="fill: #ffffff"/>
   </g>
   <g id="matplotlib.axis_1">
    <g id="xtick_1">
     <g id="line2d_1">
      <defs>
       <path id="m88e0df9310" d="M 0 0 
L 0 3.5 
" style="stroke: #000000; stroke-width: 0.8"/>
      </defs>
      <g>
       <use xlink:href="#m88e0df9310" x="46.145455" y="252" style="stroke: #000000; stroke-width: 0.8"/>
      </g>
     </g>
     <g id="text_1">
      <!-- 0 -->
      <g transform="translate(38.510455 277.23625) scale(0.24 -0.24)">
       <defs>
        <path id="DejaVuSans-30" d="M 2034 4250 
Q 1547 4250 1301 3770 
Q 1056 3291 1056 2328 
Q 1056 1369 1301 889 
Q 1547 409 2034 409 
Q 2525 409 2770 889 
Q 3016 1369 3016 2328 
Q 3016 3291 2770 3770 
Q 2525 4250 2034 4250 
z
M 2034 4750 
Q 2819 4750 3233 4129 
Q 3647 3509 3647 2328 
Q 3647 1150 3233 529 
Q 2819 -91 2034 -91 
Q 1250 -91 836 529 
Q 422 1150 422 2328 
Q 422 3509 836 4129 
Q 1250 4750 2034 4750 
z
" transform="scale(0.015625)"/>
       </defs>
       <use xlink:href="#DejaVuSans-30"/>
      </g>
     </g>
    </g>
    <g id="xtick_2">
     <g id="line2d_2">
      <g>
       <use xlink:href="#m88e0df9310" x="134.918182" y="252" style="stroke: #000000; stroke-width: 0.8"/>
      </g>
     </g>
     <g id="text_2">
      <!-- 7 -->
      <g transform="translate(127.283182 277.23625) scale(0.24 -0.24)">
       <defs>
        <path id="DejaVuSans-37" d="M 525 4666 
L 3525 4666 
L 3525 4397 
L 1831 0 
L 1172 0 
L 2766 4134 
L 525 4134 
L 525 4666 
z
" transform="scale(0.015625)"/>
       </defs>
       <use xlink:href="#DejaVuSans-37"/>
      </g>
     </g>
    </g>
    <g id="xtick_3">
     <g id="line2d_3">
      <g>
       <use xlink:href="#m88e0df9310" x="236.372727" y="252" style="stroke: #000000; stroke-width: 0.8"/>
      </g>
     </g>
     <g id="text_3">
      <!-- 15 -->
      <g transform="translate(221.102727 277.23625) scale(0.24 -0.24)">
       <defs>
        <path id="DejaVuSans-31" d="M 794 531 
L 1825 531 
L 1825 4091 
L 703 3866 
L 703 4441 
L 1819 4666 
L 2450 4666 
L 2450 531 
L 3481 531 
L 3481 0 
L 794 0 
L 794 531 
z
" transform="scale(0.015625)"/>
        <path id="DejaVuSans-35" d="M 691 4666 
L 3169 4666 
L 3169 4134 
L 1269 4134 
L 1269 2991 
Q 1406 3038 1543 3061 
Q 1681 3084 1819 3084 
Q 2600 3084 3056 2656 
Q 3513 2228 3513 1497 
Q 3513 744 3044 326 
Q 2575 -91 1722 -91 
Q 1428 -91 1123 -41 
Q 819 9 494 109 
L 494 744 
Q 775 591 1075 516 
Q 1375 441 1709 441 
Q 2250 441 2565 725 
Q 2881 1009 2881 1497 
Q 2881 1984 2565 2268 
Q 2250 2553 1709 2553 
Q 1456 2553 1204 2497 
Q 953 2441 691 2322 
L 691 4666 
z
" transform="scale(0.015625)"/>
       </defs>
       <use xlink:href="#DejaVuSans-31"/>
       <use xlink:href="#DejaVuSans-35" x="63.623047"/>
      </g>
     </g>
    </g>
   </g>
   <g id="matplotlib.axis_2">
    <g id="ytick_1">
     <g id="line2d_4">
      <defs>
       <path id="mb47fb8d6d9" d="M 0 0 
L -3.5 0 
" style="stroke: #000000; stroke-width: 0.8"/>
      </defs>
      <g>
       <use xlink:href="#mb47fb8d6d9" x="36" y="242.546087" style="stroke: #000000; stroke-width: 0.8"/>
      </g>
     </g>
     <g id="text_4">
      <!-- 0 -->
      <g transform="translate(13.73 251.664212) scale(0.24 -0.24)">
       <use xlink:href="#DejaVuSans-30"/>
      </g>
     </g>
    </g>
    <g id="ytick_2">
     <g id="line2d_5">
      <g>
       <use xlink:href="#mb47fb8d6d9" x="36" y="138.553043" style="stroke: #000000; stroke-width: 0.8"/>
      </g>
     </g>
     <g id="text_5">
      <!-- 11 -->
      <g transform="translate(-1.54 147.671168) scale(0.24 -0.24)">
       <use xlink:href="#DejaVuSans-31"/>
       <use xlink:href="#DejaVuSans-31" x="63.623047"/>
      </g>
     </g>
    </g>
    <g id="ytick_3">
     <g id="line2d_6">
      <g>
       <use xlink:href="#mb47fb8d6d9" x="36" y="34.56" style="stroke: #000000; stroke-width: 0.8"/>
      </g>
     </g>
     <g id="text_6">
      <!-- 22 -->
      <g transform="translate(-1.54 43.678125) scale(0.24 -0.24)">
       <defs>
        <path id="DejaVuSans-32" d="M 1228 531 
L 3431 531 
L 3431 0 
L 469 0 
L 469 531 
Q 828 903 1448 1529 
Q 2069 2156 2228 2338 
Q 2531 2678 2651 2914 
Q 2772 3150 2772 3378 
Q 2772 3750 2511 3984 
Q 2250 4219 1831 4219 
Q 1534 4219 1204 4116 
Q 875 4013 500 3803 
L 500 4441 
Q 881 4594 1212 4672 
Q 1544 4750 1819 4750 
Q 2544 4750 2975 4387 
Q 3406 4025 3406 3419 
Q 3406 3131 3298 2873 
Q 3191 2616 2906 2266 
Q 2828 2175 2409 1742 
Q 1991 1309 1228 531 
z
" transform="scale(0.015625)"/>
       </defs>
       <use xlink:href="#DejaVuSans-32"/>
       <use xlink:href="#DejaVuSans-32" x="63.623047"/>
      </g>
     </g>
    </g>
   </g>
   <g id="line2d_7">
    <path d="M 46.145455 242.546087 
L 58.827273 242.546087 
L 71.509091 238.276578 
L 84.190909 233.397139 
L 96.872727 219.063787 
L 109.554545 219.063787 
L 122.236364 217.843927 
L 134.918182 217.843927 
L 147.6 217.538962 
L 160.281818 205.340365 
L 172.963636 193.141767 
L 185.645455 191.311978 
L 198.327273 184.907714 
L 211.009091 177.28359 
L 223.690909 142.517588 
L 236.372727 104.092006 
L 249.054545 98.602637 
" clip-path="url(#pf084d8e247)" style="fill: none; stroke: #808080; stroke-width: 2; stroke-linecap: square"/>
   </g>
   <g id="line2d_8">
    <path d="M 46.145455 242.546087 
L 58.827273 242.546087 
L 71.509091 242.546087 
L 84.190909 242.546087 
L 96.872727 242.546087 
L 109.554545 242.546087 
L 122.236364 242.546087 
L 134.918182 242.546087 
L 147.6 242.546087 
L 160.281818 242.546087 
L 172.963636 242.546087 
L 185.645455 242.546087 
L 198.327273 233.092174 
L 211.009091 223.638261 
L 223.690909 100.737391 
L 236.372727 100.737391 
L 249.054545 100.737391 
" clip-path="url(#pf084d8e247)" style="fill: none; stroke-dasharray: 1.85,0.8; stroke-dashoffset: 0; stroke: #808080; stroke-width: 0.5"/>
   </g>
   <g id="line2d_9">
    <path d="M 46.145455 242.546087 
L 58.827273 242.546087 
L 71.509091 242.546087 
L 84.190909 242.546087 
L 96.872727 242.546087 
L 109.554545 242.546087 
L 122.236364 242.546087 
L 134.918182 242.546087 
L 147.6 242.546087 
L 160.281818 242.546087 
L 172.963636 242.546087 
L 185.645455 242.546087 
L 198.327273 242.546087 
L 211.009091 242.546087 
L 223.690909 129.09913 
L 236.372727 110.191304 
L 249.054545 110.191304 
" clip-path="url(#pf084d8e247)" style="fill: none; stroke-dasharray: 1.85,0.8; stroke-dashoffset: 0; stroke: #808080; stroke-width: 0.5"/>
   </g>
   <g id="line2d_10">
    <path d="M 46.145455 242.546087 
L 58.827273 242.546087 
L 71.509091 242.546087 
L 84.190909 242.546087 
L 96.872727 242.546087 
L 109.554545 242.546087 
L 122.236364 242.546087 
L 134.918182 242.546087 
L 147.6 242.546087 
L 160.281818 242.546087 
L 172.963636 242.546087 
L 185.645455 242.546087 
L 198.327273 242.546087 
L 211.009091 233.092174 
L 223.690909 138.553043 
L 236.372727 100.737391 
L 249.054545 100.737391 
" clip-path="url(#pf084d8e247)" style="fill: none; stroke-dasharray: 1.85,0.8; stroke-dashoffset: 0; stroke: #808080; stroke-width: 0.5"/>
   </g>
   <g id="line2d_11">
    <path d="M 46.145455 242.546087 
L 58.827273 242.546087 
L 71.509091 242.546087 
L 84.190909 91.283478 
L 96.872727 91.283478 
L 109.554545 91.283478 
L 122.236364 91.283478 
L 134.918182 91.283478 
L 147.6 91.283478 
L 160.281818 91.283478 
L 172.963636 91.283478 
L 185.645455 91.283478 
L 198.327273 91.283478 
L 211.009091 91.283478 
L 223.690909 91.283478 
L 236.372727 91.283478 
L 249.054545 91.283478 
" clip-path="url(#pf084d8e247)" style="fill: none; stroke-dasharray: 1.85,0.8; stroke-dashoffset: 0; stroke: #808080; stroke-width: 0.5"/>
   </g>
   <g id="line2d_12">
    <path d="M 46.145455 242.546087 
L 58.827273 242.546087 
L 71.509091 242.546087 
L 84.190909 242.546087 
L 96.872727 242.546087 
L 109.554545 242.546087 
L 122.236364 242.546087 
L 134.918182 242.546087 
L 147.6 242.546087 
L 160.281818 242.546087 
L 172.963636 242.546087 
L 185.645455 242.546087 
L 198.327273 233.092174 
L 211.009091 233.092174 
L 223.690909 223.638261 
L 236.372727 100.737391 
L 249.054545 100.737391 
" clip-path="url(#pf084d8e247)" style="fill: none; stroke-dasharray: 1.85,0.8; stroke-dashoffset: 0; stroke: #808080; stroke-width: 0.5"/>
   </g>
   <g id="line2d_13">
    <path d="M 46.145455 242.546087 
L 58.827273 242.546087 
L 71.509091 242.546087 
L 84.190909 242.546087 
L 96.872727 242.546087 
L 109.554545 242.546087 
L 122.236364 242.546087 
L 134.918182 242.546087 
L 147.6 242.546087 
L 160.281818 242.546087 
L 172.963636 242.546087 
L 185.645455 233.092174 
L 198.327273 223.638261 
L 211.009091 110.191304 
L 223.690909 110.191304 
L 236.372727 110.191304 
L 249.054545 110.191304 
" clip-path="url(#pf084d8e247)" style="fill: none; stroke-dasharray: 1.85,0.8; stroke-dashoffset: 0; stroke: #808080; stroke-width: 0.5"/>
   </g>
   <g id="line2d_14">
    <path d="M 46.145455 242.546087 
L 58.827273 242.546087 
L 71.509091 242.546087 
L 84.190909 242.546087 
L 96.872727 242.546087 
L 109.554545 242.546087 
L 122.236364 242.546087 
L 134.918182 242.546087 
L 147.6 242.546087 
L 160.281818 242.546087 
L 172.963636 242.546087 
L 185.645455 242.546087 
L 198.327273 223.638261 
L 211.009091 223.638261 
L 223.690909 100.737391 
L 236.372727 100.737391 
L 249.054545 62.921739 
" clip-path="url(#pf084d8e247)" style="fill: none; stroke-dasharray: 1.85,0.8; stroke-dashoffset: 0; stroke: #808080; stroke-width: 0.5"/>
   </g>
   <g id="line2d_15">
    <path d="M 46.145455 242.546087 
L 58.827273 242.546087 
L 71.509091 242.546087 
L 84.190909 242.546087 
L 96.872727 242.546087 
L 109.554545 242.546087 
L 122.236364 242.546087 
L 134.918182 242.546087 
L 147.6 242.546087 
L 160.281818 110.191304 
L 172.963636 110.191304 
L 185.645455 110.191304 
L 198.327273 110.191304 
L 211.009091 110.191304 
L 223.690909 110.191304 
L 236.372727 110.191304 
L 249.054545 110.191304 
" clip-path="url(#pf084d8e247)" style="fill: none; stroke-dasharray: 1.85,0.8; stroke-dashoffset: 0; stroke: #808080; stroke-width: 0.5"/>
   </g>
   <g id="line2d_16">
    <path d="M 46.145455 242.546087 
L 58.827273 242.546087 
L 71.509091 242.546087 
L 84.190909 242.546087 
L 96.872727 242.546087 
L 109.554545 242.546087 
L 122.236364 242.546087 
L 134.918182 242.546087 
L 147.6 242.546087 
L 160.281818 242.546087 
L 172.963636 72.375652 
L 185.645455 72.375652 
L 198.327273 72.375652 
L 211.009091 72.375652 
L 223.690909 72.375652 
L 236.372727 72.375652 
L 249.054545 72.375652 
" clip-path="url(#pf084d8e247)" style="fill: none; stroke-dasharray: 1.85,0.8; stroke-dashoffset: 0; stroke: #808080; stroke-width: 0.5"/>
   </g>
   <g id="line2d_17">
    <path d="M 46.145455 242.546087 
L 58.827273 242.546087 
L 71.509091 242.546087 
L 84.190909 242.546087 
L 96.872727 242.546087 
L 109.554545 242.546087 
L 122.236364 242.546087 
L 134.918182 242.546087 
L 147.6 242.546087 
L 160.281818 242.546087 
L 172.963636 242.546087 
L 185.645455 242.546087 
L 198.327273 242.546087 
L 211.009091 223.638261 
L 223.690909 138.553043 
L 236.372727 100.737391 
L 249.054545 100.737391 
" clip-path="url(#pf084d8e247)" style="fill: none; stroke-dasharray: 1.85,0.8; stroke-dashoffset: 0; stroke: #808080; stroke-width: 0.5"/>
   </g>
   <g id="line2d_18">
    <path d="M 46.145455 242.546087 
L 58.827273 242.546087 
L 71.509091 242.546087 
L 84.190909 242.546087 
L 96.872727 242.546087 
L 109.554545 242.546087 
L 122.236364 242.546087 
L 134.918182 242.546087 
L 147.6 242.546087 
L 160.281818 242.546087 
L 172.963636 242.546087 
L 185.645455 242.546087 
L 198.327273 242.546087 
L 211.009091 242.546087 
L 223.690909 242.546087 
L 236.372727 110.191304 
L 249.054545 110.191304 
" clip-path="url(#pf084d8e247)" style="fill: none; stroke-dasharray: 1.85,0.8; stroke-dashoffset: 0; stroke: #808080; stroke-width: 0.5"/>
   </g>
   <g id="line2d_19">
    <path d="M 46.145455 242.546087 
L 58.827273 242.546087 
L 71.509091 242.546087 
L 84.190909 242.546087 
L 96.872727 242.546087 
L 109.554545 242.546087 
L 122.236364 242.546087 
L 134.918182 242.546087 
L 147.6 242.546087 
L 160.281818 242.546087 
L 172.963636 110.191304 
L 185.645455 110.191304 
L 198.327273 110.191304 
L 211.009091 72.375652 
L 223.690909 72.375652 
L 236.372727 72.375652 
L 249.054545 72.375652 
" clip-path="url(#pf084d8e247)" style="fill: none; stroke-dasharray: 1.85,0.8; stroke-dashoffset: 0; stroke: #808080; stroke-width: 0.5"/>
   </g>
   <g id="line2d_20">
    <path d="M 46.145455 242.546087 
L 58.827273 242.546087 
L 71.509091 242.546087 
L 84.190909 242.546087 
L 96.872727 242.546087 
L 109.554545 242.546087 
L 122.236364 242.546087 
L 134.918182 242.546087 
L 147.6 242.546087 
L 160.281818 242.546087 
L 172.963636 242.546087 
L 185.645455 233.092174 
L 198.327273 233.092174 
L 211.009091 233.092174 
L 223.690909 233.092174 
L 236.372727 119.645217 
L 249.054545 53.467826 
" clip-path="url(#pf084d8e247)" style="fill: none; stroke-dasharray: 1.85,0.8; stroke-dashoffset: 0; stroke: #808080; stroke-width: 0.5"/>
   </g>
   <g id="line2d_21">
    <path d="M 46.145455 242.546087 
L 58.827273 242.546087 
L 71.509091 242.546087 
L 84.190909 242.546087 
L 96.872727 110.191304 
L 109.554545 110.191304 
L 122.236364 72.375652 
L 134.918182 72.375652 
L 147.6 72.375652 
L 160.281818 72.375652 
L 172.963636 72.375652 
L 185.645455 72.375652 
L 198.327273 72.375652 
L 211.009091 72.375652 
L 223.690909 72.375652 
L 236.372727 72.375652 
L 249.054545 72.375652 
" clip-path="url(#pf084d8e247)" style="fill: none; stroke-dasharray: 1.85,0.8; stroke-dashoffset: 0; stroke: #808080; stroke-width: 0.5"/>
   </g>
   <g id="line2d_22">
    <path d="M 46.145455 242.546087 
L 58.827273 242.546087 
L 71.509091 242.546087 
L 84.190909 242.546087 
L 96.872727 242.546087 
L 109.554545 242.546087 
L 122.236364 242.546087 
L 134.918182 242.546087 
L 147.6 242.546087 
L 160.281818 242.546087 
L 172.963636 242.546087 
L 185.645455 242.546087 
L 198.327273 242.546087 
L 211.009091 233.092174 
L 223.690909 119.645217 
L 236.372727 119.645217 
L 249.054545 100.737391 
" clip-path="url(#pf084d8e247)" style="fill: none; stroke-dasharray: 1.85,0.8; stroke-dashoffset: 0; stroke: #808080; stroke-width: 0.5"/>
   </g>
   <g id="line2d_23">
    <path d="M 46.145455 242.546087 
L 58.827273 242.546087 
L 71.509091 242.546087 
L 84.190909 242.546087 
L 96.872727 242.546087 
L 109.554545 242.546087 
L 122.236364 242.546087 
L 134.918182 242.546087 
L 147.6 242.546087 
L 160.281818 242.546087 
L 172.963636 242.546087 
L 185.645455 233.092174 
L 198.327273 233.092174 
L 211.009091 233.092174 
L 223.690909 233.092174 
L 236.372727 110.191304 
L 249.054545 110.191304 
" clip-path="url(#pf084d8e247)" style="fill: none; stroke-dasharray: 1.85,0.8; stroke-dashoffset: 0; stroke: #808080; stroke-width: 0.5"/>
   </g>
   <g id="line2d_24">
    <path d="M 46.145455 242.546087 
L 58.827273 242.546087 
L 71.509091 242.546087 
L 84.190909 242.546087 
L 96.872727 100.737391 
L 109.554545 100.737391 
L 122.236364 100.737391 
L 134.918182 100.737391 
L 147.6 100.737391 
L 160.281818 100.737391 
L 172.963636 100.737391 
L 185.645455 100.737391 
L 198.327273 100.737391 
L 211.009091 100.737391 
L 223.690909 100.737391 
L 236.372727 100.737391 
L 249.054545 100.737391 
" clip-path="url(#pf084d8e247)" style="fill: none; stroke-dasharray: 1.85,0.8; stroke-dashoffset: 0; stroke: #808080; stroke-width: 0.5"/>
   </g>
   <g id="line2d_25">
    <path d="M 46.145455 242.546087 
L 58.827273 242.546087 
L 71.509091 242.546087 
L 84.190909 242.546087 
L 96.872727 242.546087 
L 109.554545 242.546087 
L 122.236364 242.546087 
L 134.918182 242.546087 
L 147.6 242.546087 
L 160.281818 242.546087 
L 172.963636 242.546087 
L 185.645455 242.546087 
L 198.327273 242.546087 
L 211.009091 242.546087 
L 223.690909 233.092174 
L 236.372727 91.283478 
L 249.054545 91.283478 
" clip-path="url(#pf084d8e247)" style="fill: none; stroke-dasharray: 1.85,0.8; stroke-dashoffset: 0; stroke: #808080; stroke-width: 0.5"/>
   </g>
   <g id="line2d_26">
    <path d="M 46.145455 242.546087 
L 58.827273 242.546087 
L 71.509091 242.546087 
L 84.190909 242.546087 
L 96.872727 242.546087 
L 109.554545 242.546087 
L 122.236364 242.546087 
L 134.918182 242.546087 
L 147.6 242.546087 
L 160.281818 242.546087 
L 172.963636 242.546087 
L 185.645455 242.546087 
L 198.327273 242.546087 
L 211.009091 242.546087 
L 223.690909 233.092174 
L 236.372727 100.737391 
L 249.054545 100.737391 
" clip-path="url(#pf084d8e247)" style="fill: none; stroke-dasharray: 1.85,0.8; stroke-dashoffset: 0; stroke: #808080; stroke-width: 0.5"/>
   </g>
   <g id="line2d_27">
    <path d="M 46.145455 242.546087 
L 58.827273 242.546087 
L 71.509091 242.546087 
L 84.190909 242.546087 
L 96.872727 242.546087 
L 109.554545 242.546087 
L 122.236364 242.546087 
L 134.918182 242.546087 
L 147.6 242.546087 
L 160.281818 129.09913 
L 172.963636 110.191304 
L 185.645455 81.829565 
L 198.327273 81.829565 
L 211.009091 81.829565 
L 223.690909 81.829565 
L 236.372727 81.829565 
L 249.054545 81.829565 
" clip-path="url(#pf084d8e247)" style="fill: none; stroke-dasharray: 1.85,0.8; stroke-dashoffset: 0; stroke: #808080; stroke-width: 0.5"/>
   </g>
   <g id="line2d_28">
    <path d="M 46.145455 242.546087 
L 58.827273 242.546087 
L 71.509091 242.546087 
L 84.190909 242.546087 
L 96.872727 242.546087 
L 109.554545 242.546087 
L 122.236364 242.546087 
L 134.918182 242.546087 
L 147.6 242.546087 
L 160.281818 110.191304 
L 172.963636 53.467826 
L 185.645455 53.467826 
L 198.327273 53.467826 
L 211.009091 53.467826 
L 223.690909 53.467826 
L 236.372727 53.467826 
L 249.054545 53.467826 
" clip-path="url(#pf084d8e247)" style="fill: none; stroke-dasharray: 1.85,0.8; stroke-dashoffset: 0; stroke: #808080; stroke-width: 0.5"/>
   </g>
   <g id="line2d_29">
    <path d="M 46.145455 242.546087 
L 58.827273 242.546087 
L 71.509091 242.546087 
L 84.190909 242.546087 
L 96.872727 242.546087 
L 109.554545 242.546087 
L 122.236364 242.546087 
L 134.918182 242.546087 
L 147.6 242.546087 
L 160.281818 242.546087 
L 172.963636 242.546087 
L 185.645455 242.546087 
L 198.327273 242.546087 
L 211.009091 242.546087 
L 223.690909 223.638261 
L 236.372727 119.645217 
L 249.054545 100.737391 
" clip-path="url(#pf084d8e247)" style="fill: none; stroke-dasharray: 1.85,0.8; stroke-dashoffset: 0; stroke: #808080; stroke-width: 0.5"/>
   </g>
   <g id="line2d_30">
    <path d="M 46.145455 242.546087 
L 58.827273 242.546087 
L 71.509091 242.546087 
L 84.190909 242.546087 
L 96.872727 242.546087 
L 109.554545 242.546087 
L 122.236364 242.546087 
L 134.918182 242.546087 
L 147.6 233.092174 
L 160.281818 233.092174 
L 172.963636 233.092174 
L 185.645455 233.092174 
L 198.327273 223.638261 
L 211.009091 204.730435 
L 223.690909 110.191304 
L 236.372727 110.191304 
L 249.054545 110.191304 
" clip-path="url(#pf084d8e247)" style="fill: none; stroke-dasharray: 1.85,0.8; stroke-dashoffset: 0; stroke: #808080; stroke-width: 0.5"/>
   </g>
   <g id="line2d_31">
    <path d="M 46.145455 242.546087 
L 58.827273 242.546087 
L 71.509091 242.546087 
L 84.190909 242.546087 
L 96.872727 242.546087 
L 109.554545 242.546087 
L 122.236364 242.546087 
L 134.918182 242.546087 
L 147.6 242.546087 
L 160.281818 242.546087 
L 172.963636 242.546087 
L 185.645455 242.546087 
L 198.327273 242.546087 
L 211.009091 233.092174 
L 223.690909 185.822609 
L 236.372727 110.191304 
L 249.054545 110.191304 
" clip-path="url(#pf084d8e247)" style="fill: none; stroke-dasharray: 1.85,0.8; stroke-dashoffset: 0; stroke: #808080; stroke-width: 0.5"/>
   </g>
   <g id="line2d_32">
    <path d="M 46.145455 242.546087 
L 58.827273 242.546087 
L 71.509091 242.546087 
L 84.190909 242.546087 
L 96.872727 242.546087 
L 109.554545 242.546087 
L 122.236364 242.546087 
L 134.918182 242.546087 
L 147.6 242.546087 
L 160.281818 242.546087 
L 172.963636 242.546087 
L 185.645455 242.546087 
L 198.327273 100.737391 
L 211.009091 100.737391 
L 223.690909 100.737391 
L 236.372727 100.737391 
L 249.054545 100.737391 
" clip-path="url(#pf084d8e247)" style="fill: none; stroke-dasharray: 1.85,0.8; stroke-dashoffset: 0; stroke: #808080; stroke-width: 0.5"/>
   </g>
   <g id="line2d_33">
    <path d="M 46.145455 242.546087 
L 58.827273 242.546087 
L 71.509091 242.546087 
L 84.190909 242.546087 
L 96.872727 242.546087 
L 109.554545 242.546087 
L 122.236364 242.546087 
L 134.918182 242.546087 
L 147.6 242.546087 
L 160.281818 242.546087 
L 172.963636 242.546087 
L 185.645455 242.546087 
L 198.327273 242.546087 
L 211.009091 242.546087 
L 223.690909 100.737391 
L 236.372727 100.737391 
L 249.054545 100.737391 
" clip-path="url(#pf084d8e247)" style="fill: none; stroke-dasharray: 1.85,0.8; stroke-dashoffset: 0; stroke: #808080; stroke-width: 0.5"/>
   </g>
   <g id="line2d_34">
    <path d="M 46.145455 242.546087 
L 58.827273 242.546087 
L 71.509091 242.546087 
L 84.190909 242.546087 
L 96.872727 242.546087 
L 109.554545 242.546087 
L 122.236364 242.546087 
L 134.918182 242.546087 
L 147.6 242.546087 
L 160.281818 242.546087 
L 172.963636 242.546087 
L 185.645455 242.546087 
L 198.327273 242.546087 
L 211.009091 233.092174 
L 223.690909 138.553043 
L 236.372727 129.09913 
L 249.054545 100.737391 
" clip-path="url(#pf084d8e247)" style="fill: none; stroke-dasharray: 1.85,0.8; stroke-dashoffset: 0; stroke: #808080; stroke-width: 0.5"/>
   </g>
   <g id="line2d_35">
    <path d="M 46.145455 242.546087 
L 58.827273 242.546087 
L 71.509091 242.546087 
L 84.190909 242.546087 
L 96.872727 242.546087 
L 109.554545 242.546087 
L 122.236364 242.546087 
L 134.918182 242.546087 
L 147.6 242.546087 
L 160.281818 242.546087 
L 172.963636 242.546087 
L 185.645455 242.546087 
L 198.327273 242.546087 
L 211.009091 242.546087 
L 223.690909 242.546087 
L 236.372727 100.737391 
L 249.054545 100.737391 
" clip-path="url(#pf084d8e247)" style="fill: none; stroke-dasharray: 1.85,0.8; stroke-dashoffset: 0; stroke: #808080; stroke-width: 0.5"/>
   </g>
   <g id="line2d_36">
    <path d="M 46.145455 242.546087 
L 58.827273 242.546087 
L 71.509091 242.546087 
L 84.190909 242.546087 
L 96.872727 72.375652 
L 109.554545 72.375652 
L 122.236364 72.375652 
L 134.918182 72.375652 
L 147.6 72.375652 
L 160.281818 72.375652 
L 172.963636 72.375652 
L 185.645455 72.375652 
L 198.327273 72.375652 
L 211.009091 72.375652 
L 223.690909 72.375652 
L 236.372727 72.375652 
L 249.054545 72.375652 
" clip-path="url(#pf084d8e247)" style="fill: none; stroke-dasharray: 1.85,0.8; stroke-dashoffset: 0; stroke: #808080; stroke-width: 0.5"/>
   </g>
   <g id="line2d_37">
    <path d="M 46.145455 242.546087 
L 58.827273 242.546087 
L 71.509091 242.546087 
L 84.190909 242.546087 
L 96.872727 242.546087 
L 109.554545 242.546087 
L 122.236364 242.546087 
L 134.918182 242.546087 
L 147.6 242.546087 
L 160.281818 242.546087 
L 172.963636 242.546087 
L 185.645455 242.546087 
L 198.327273 242.546087 
L 211.009091 242.546087 
L 223.690909 242.546087 
L 236.372727 242.546087 
L 249.054545 242.546087 
" clip-path="url(#pf084d8e247)" style="fill: none; stroke-dasharray: 1.85,0.8; stroke-dashoffset: 0; stroke: #808080; stroke-width: 0.5"/>
   </g>
   <g id="line2d_38">
    <path d="M 46.145455 242.546087 
L 58.827273 242.546087 
L 71.509091 110.191304 
L 84.190909 110.191304 
L 96.872727 110.191304 
L 109.554545 110.191304 
L 122.236364 110.191304 
L 134.918182 110.191304 
L 147.6 110.191304 
L 160.281818 110.191304 
L 172.963636 110.191304 
L 185.645455 110.191304 
L 198.327273 110.191304 
L 211.009091 110.191304 
L 223.690909 110.191304 
L 236.372727 110.191304 
L 249.054545 110.191304 
" clip-path="url(#pf084d8e247)" style="fill: none; stroke-dasharray: 1.85,0.8; stroke-dashoffset: 0; stroke: #808080; stroke-width: 0.5"/>
   </g>
   <g id="patch_3">
    <path d="M 36 252 
L 36 34.56 
" style="fill: none; stroke: #000000; stroke-width: 0.8; stroke-linejoin: miter; stroke-linecap: square"/>
   </g>
   <g id="patch_4">
    <path d="M 36 252 
L 259.2 252 
" style="fill: none; stroke: #000000; stroke-width: 0.8; stroke-linejoin: miter; stroke-linecap: square"/>
   </g>
   <g id="text_7">
    <!-- $R^2$ = 0.93 -->
    <g transform="translate(185.645455 242.546087) scale(0.16 -0.16)">
     <defs>
      <path id="DejaVuSans-Oblique-52" d="M 1613 4147 
L 1294 2491 
L 2106 2491 
Q 2584 2491 2879 2755 
Q 3175 3019 3175 3444 
Q 3175 3784 2976 3965 
Q 2778 4147 2406 4147 
L 1613 4147 
z
M 2772 2241 
Q 2972 2194 3105 2009 
Q 3238 1825 3413 1275 
L 3809 0 
L 3144 0 
L 2778 1197 
Q 2638 1659 2453 1815 
Q 2269 1972 1888 1972 
L 1191 1972 
L 806 0 
L 172 0 
L 1081 4666 
L 2503 4666 
Q 3150 4666 3495 4373 
Q 3841 4081 3841 3531 
Q 3841 3044 3547 2687 
Q 3253 2331 2772 2241 
z
" transform="scale(0.015625)"/>
      <path id="DejaVuSans-20" transform="scale(0.015625)"/>
      <path id="DejaVuSans-3d" d="M 678 2906 
L 4684 2906 
L 4684 2381 
L 678 2381 
L 678 2906 
z
M 678 1631 
L 4684 1631 
L 4684 1100 
L 678 1100 
L 678 1631 
z
" transform="scale(0.015625)"/>
      <path id="DejaVuSans-2e" d="M 684 794 
L 1344 794 
L 1344 0 
L 684 0 
L 684 794 
z
" transform="scale(0.015625)"/>
      <path id="DejaVuSans-39" d="M 703 97 
L 703 672 
Q 941 559 1184 500 
Q 1428 441 1663 441 
Q 2288 441 2617 861 
Q 2947 1281 2994 2138 
Q 2813 1869 2534 1725 
Q 2256 1581 1919 1581 
Q 1219 1581 811 2004 
Q 403 2428 403 3163 
Q 403 3881 828 4315 
Q 1253 4750 1959 4750 
Q 2769 4750 3195 4129 
Q 3622 3509 3622 2328 
Q 3622 1225 3098 567 
Q 2575 -91 1691 -91 
Q 1453 -91 1209 -44 
Q 966 3 703 97 
z
M 1959 2075 
Q 2384 2075 2632 2365 
Q 2881 2656 2881 3163 
Q 2881 3666 2632 3958 
Q 2384 4250 1959 4250 
Q 1534 4250 1286 3958 
Q 1038 3666 1038 3163 
Q 1038 2656 1286 2365 
Q 1534 2075 1959 2075 
z
" transform="scale(0.015625)"/>
      <path id="DejaVuSans-33" d="M 2597 2516 
Q 3050 2419 3304 2112 
Q 3559 1806 3559 1356 
Q 3559 666 3084 287 
Q 2609 -91 1734 -91 
Q 1441 -91 1130 -33 
Q 819 25 488 141 
L 488 750 
Q 750 597 1062 519 
Q 1375 441 1716 441 
Q 2309 441 2620 675 
Q 2931 909 2931 1356 
Q 2931 1769 2642 2001 
Q 2353 2234 1838 2234 
L 1294 2234 
L 1294 2753 
L 1863 2753 
Q 2328 2753 2575 2939 
Q 2822 3125 2822 3475 
Q 2822 3834 2567 4026 
Q 2313 4219 1838 4219 
Q 1578 4219 1281 4162 
Q 984 4106 628 3988 
L 628 4550 
Q 988 4650 1302 4700 
Q 1616 4750 1894 4750 
Q 2613 4750 3031 4423 
Q 3450 4097 3450 3541 
Q 3450 3153 3228 2886 
Q 3006 2619 2597 2516 
z
" transform="scale(0.015625)"/>
     </defs>
     <use xlink:href="#DejaVuSans-Oblique-52" transform="translate(0 0.765625)"/>
     <use xlink:href="#DejaVuSans-32" transform="translate(76.499193 39.046875) scale(0.7)"/>
     <use xlink:href="#DejaVuSans-20" transform="translate(123.769701 0.765625)"/>
     <use xlink:href="#DejaVuSans-3d" transform="translate(155.55681 0.765625)"/>
     <use xlink:href="#DejaVuSans-20" transform="translate(239.345872 0.765625)"/>
     <use xlink:href="#DejaVuSans-30" transform="translate(271.132982 0.765625)"/>
     <use xlink:href="#DejaVuSans-2e" transform="translate(334.756029 0.765625)"/>
     <use xlink:href="#DejaVuSans-39" transform="translate(366.543138 0.765625)"/>
     <use xlink:href="#DejaVuSans-33" transform="translate(430.166185 0.765625)"/>
    </g>
   </g>
  </g>
 </g>
 <defs>
  <clipPath id="pf084d8e247">
   <rect x="36" y="34.56" width="223.2" height="217.44"/>
  </clipPath>
 </defs>
</svg>
