<?xml version="1.0" encoding="utf-8" standalone="no"?>
<!DOCTYPE svg PUBLIC "-//W3C//DTD SVG 1.1//EN"
  "http://www.w3.org/Graphics/SVG/1.1/DTD/svg11.dtd">
<svg xmlns:xlink="http://www.w3.org/1999/xlink" width="288pt" height="288pt" viewBox="0 0 288 288" xmlns="http://www.w3.org/2000/svg" version="1.1">
 <metadata>
  <rdf:RDF xmlns:dc="http://purl.org/dc/elements/1.1/" xmlns:cc="http://creativecommons.org/ns#" xmlns:rdf="http://www.w3.org/1999/02/22-rdf-syntax-ns#">
   <cc:Work>
    <dc:type rdf:resource="http://purl.org/dc/dcmitype/StillImage"/>
    <dc:date>2024-07-11T21:49:03.431857</dc:date>
    <dc:format>image/svg+xml</dc:format>
    <dc:creator>
     <cc:Agent>
      <dc:title>Matplotlib v3.8.4, https://matplotlib.org/</dc:title>
     </cc:Agent>
    </dc:creator>
   </cc:Work>
  </rdf:RDF>
 </metadata>
 <defs>
  <style type="text/css">*{stroke-linejoin: round; stroke-linecap: butt}</style>
 </defs>
 <g id="figure_1">
  <g id="patch_1">
   <path d="M 0 288 
L 288 288 
L 288 0 
L 0 0 
z
" style="fill: #ffffff"/>
  </g>
  <g id="axes_1">
   <g id="patch_2">
    <path d="M 36 252 
L 259.2 252 
L 259.2 34.56 
L 36 34.56 
z
" style="fill: #ffffff"/>
   </g>
   <g id="matplotlib.axis_1">
    <g id="xtick_1">
     <g id="line2d_1">
      <defs>
       <path id="mb38752a163" d="M 0 0 
L 0 3.5 
" style="stroke: #000000; stroke-width: 0.8"/>
      </defs>
      <g>
       <use xlink:href="#mb38752a163" x="46.145455" y="252" style="stroke: #000000; stroke-width: 0.8"/>
      </g>
     </g>
     <g id="text_1">
      <!-- 0 -->
      <g transform="translate(38.510455 277.23625) scale(0.24 -0.24)">
       <defs>
        <path id="DejaVuSans-30" d="M 2034 4250 
Q 1547 4250 1301 3770 
Q 1056 3291 1056 2328 
Q 1056 1369 1301 889 
Q 1547 409 2034 409 
Q 2525 409 2770 889 
Q 3016 1369 3016 2328 
Q 3016 3291 2770 3770 
Q 2525 4250 2034 4250 
z
M 2034 4750 
Q 2819 4750 3233 4129 
Q 3647 3509 3647 2328 
Q 3647 1150 3233 529 
Q 2819 -91 2034 -91 
Q 1250 -91 836 529 
Q 422 1150 422 2328 
Q 422 3509 836 4129 
Q 1250 4750 2034 4750 
z
" transform="scale(0.015625)"/>
       </defs>
       <use xlink:href="#DejaVuSans-30"/>
      </g>
     </g>
    </g>
    <g id="xtick_2">
     <g id="line2d_2">
      <g>
       <use xlink:href="#mb38752a163" x="134.918182" y="252" style="stroke: #000000; stroke-width: 0.8"/>
      </g>
     </g>
     <g id="text_2">
      <!-- 7 -->
      <g transform="translate(127.283182 277.23625) scale(0.24 -0.24)">
       <defs>
        <path id="DejaVuSans-37" d="M 525 4666 
L 3525 4666 
L 3525 4397 
L 1831 0 
L 1172 0 
L 2766 4134 
L 525 4134 
L 525 4666 
z
" transform="scale(0.015625)"/>
       </defs>
       <use xlink:href="#DejaVuSans-37"/>
      </g>
     </g>
    </g>
    <g id="xtick_3">
     <g id="line2d_3">
      <g>
       <use xlink:href="#mb38752a163" x="236.372727" y="252" style="stroke: #000000; stroke-width: 0.8"/>
      </g>
     </g>
     <g id="text_3">
      <!-- 15 -->
      <g transform="translate(221.102727 277.23625) scale(0.24 -0.24)">
       <defs>
        <path id="DejaVuSans-31" d="M 794 531 
L 1825 531 
L 1825 4091 
L 703 3866 
L 703 4441 
L 1819 4666 
L 2450 4666 
L 2450 531 
L 3481 531 
L 3481 0 
L 794 0 
L 794 531 
z
" transform="scale(0.015625)"/>
        <path id="DejaVuSans-35" d="M 691 4666 
L 3169 4666 
L 3169 4134 
L 1269 4134 
L 1269 2991 
Q 1406 3038 1543 3061 
Q 1681 3084 1819 3084 
Q 2600 3084 3056 2656 
Q 3513 2228 3513 1497 
Q 3513 744 3044 326 
Q 2575 -91 1722 -91 
Q 1428 -91 1123 -41 
Q 819 9 494 109 
L 494 744 
Q 775 591 1075 516 
Q 1375 441 1709 441 
Q 2250 441 2565 725 
Q 2881 1009 2881 1497 
Q 2881 1984 2565 2268 
Q 2250 2553 1709 2553 
Q 1456 2553 1204 2497 
Q 953 2441 691 2322 
L 691 4666 
z
" transform="scale(0.015625)"/>
       </defs>
       <use xlink:href="#DejaVuSans-31"/>
       <use xlink:href="#DejaVuSans-35" x="63.623047"/>
      </g>
     </g>
    </g>
   </g>
   <g id="matplotlib.axis_2">
    <g id="ytick_1">
     <g id="line2d_4">
      <defs>
       <path id="m3707e63a10" d="M 0 0 
L -3.5 0 
" style="stroke: #000000; stroke-width: 0.8"/>
      </defs>
      <g>
       <use xlink:href="#m3707e63a10" x="36" y="242.546087" style="stroke: #000000; stroke-width: 0.8"/>
      </g>
     </g>
     <g id="text_4">
      <!-- 0 -->
      <g transform="translate(13.73 251.664212) scale(0.24 -0.24)">
       <use xlink:href="#DejaVuSans-30"/>
      </g>
     </g>
    </g>
    <g id="ytick_2">
     <g id="line2d_5">
      <g>
       <use xlink:href="#m3707e63a10" x="36" y="138.553043" style="stroke: #000000; stroke-width: 0.8"/>
      </g>
     </g>
     <g id="text_5">
      <!-- 11 -->
      <g transform="translate(-1.54 147.671168) scale(0.24 -0.24)">
       <use xlink:href="#DejaVuSans-31"/>
       <use xlink:href="#DejaVuSans-31" x="63.623047"/>
      </g>
     </g>
    </g>
    <g id="ytick_3">
     <g id="line2d_6">
      <g>
       <use xlink:href="#m3707e63a10" x="36" y="34.56" style="stroke: #000000; stroke-width: 0.8"/>
      </g>
     </g>
     <g id="text_6">
      <!-- 22 -->
      <g transform="translate(-1.54 43.678125) scale(0.24 -0.24)">
       <defs>
        <path id="DejaVuSans-32" d="M 1228 531 
L 3431 531 
L 3431 0 
L 469 0 
L 469 531 
Q 828 903 1448 1529 
Q 2069 2156 2228 2338 
Q 2531 2678 2651 2914 
Q 2772 3150 2772 3378 
Q 2772 3750 2511 3984 
Q 2250 4219 1831 4219 
Q 1534 4219 1204 4116 
Q 875 4013 500 3803 
L 500 4441 
Q 881 4594 1212 4672 
Q 1544 4750 1819 4750 
Q 2544 4750 2975 4387 
Q 3406 4025 3406 3419 
Q 3406 3131 3298 2873 
Q 3191 2616 2906 2266 
Q 2828 2175 2409 1742 
Q 1991 1309 1228 531 
z
" transform="scale(0.015625)"/>
       </defs>
       <use xlink:href="#DejaVuSans-32"/>
       <use xlink:href="#DejaVuSans-32" x="63.623047"/>
      </g>
     </g>
    </g>
   </g>
   <g id="line2d_7">
    <path d="M 46.145455 242.546087 
L 58.827273 231.066335 
L 71.509091 220.937143 
L 84.190909 213.171429 
L 96.872727 204.392795 
L 109.554545 197.97764 
L 122.236364 188.861366 
L 134.918182 182.446211 
L 147.6 174.342857 
L 160.281818 167.590062 
L 172.963636 146.318758 
L 185.645455 116.944099 
L 198.327273 100.399752 
L 211.009091 88.58236 
L 223.690909 86.218882 
L 236.372727 80.816646 
L 249.054545 80.816646 
" clip-path="url(#pcb1759a3e2)" style="fill: none; stroke: #808080; stroke-width: 3; stroke-linecap: square"/>
   </g>
   <g id="line2d_8">
    <path d="M 46.145455 242.546087 
L 58.827273 223.638261 
L 71.509091 214.184348 
L 84.190909 214.184348 
L 96.872727 204.730435 
L 109.554545 204.730435 
L 122.236364 204.730435 
L 134.918182 204.730435 
L 147.6 195.276522 
L 160.281818 166.914783 
L 172.963636 148.006957 
L 185.645455 119.645217 
L 198.327273 110.191304 
L 211.009091 110.191304 
L 223.690909 110.191304 
L 236.372727 110.191304 
L 249.054545 110.191304 
" clip-path="url(#pcb1759a3e2)" style="fill: none; stroke-dasharray: 3.7,1.6; stroke-dashoffset: 0; stroke: #808080"/>
   </g>
   <g id="line2d_9">
    <path d="M 46.145455 242.546087 
L 58.827273 223.638261 
L 71.509091 214.184348 
L 84.190909 195.276522 
L 96.872727 166.914783 
L 109.554545 166.914783 
L 122.236364 166.914783 
L 134.918182 166.914783 
L 147.6 166.914783 
L 160.281818 166.914783 
L 172.963636 166.914783 
L 185.645455 138.553043 
L 198.327273 110.191304 
L 211.009091 34.56 
L 223.690909 34.56 
L 236.372727 34.56 
L 249.054545 34.56 
" clip-path="url(#pcb1759a3e2)" style="fill: none; stroke-dasharray: 3.7,1.6; stroke-dashoffset: 0; stroke: #808080"/>
   </g>
   <g id="line2d_10">
    <path d="M 46.145455 242.546087 
L 58.827273 223.638261 
L 71.509091 223.638261 
L 84.190909 223.638261 
L 96.872727 223.638261 
L 109.554545 223.638261 
L 122.236364 195.276522 
L 134.918182 195.276522 
L 147.6 195.276522 
L 160.281818 195.276522 
L 172.963636 129.09913 
L 185.645455 110.191304 
L 198.327273 110.191304 
L 211.009091 110.191304 
L 223.690909 110.191304 
L 236.372727 100.737391 
L 249.054545 100.737391 
" clip-path="url(#pcb1759a3e2)" style="fill: none; stroke-dasharray: 3.7,1.6; stroke-dashoffset: 0; stroke: #808080"/>
   </g>
   <g id="line2d_11">
    <path d="M 46.145455 242.546087 
L 58.827273 223.638261 
L 71.509091 223.638261 
L 84.190909 185.822609 
L 96.872727 185.822609 
L 109.554545 185.822609 
L 122.236364 185.822609 
L 134.918182 185.822609 
L 147.6 185.822609 
L 160.281818 176.368696 
L 172.963636 157.46087 
L 185.645455 129.09913 
L 198.327273 119.645217 
L 211.009091 119.645217 
L 223.690909 119.645217 
L 236.372727 91.283478 
L 249.054545 91.283478 
" clip-path="url(#pcb1759a3e2)" style="fill: none; stroke-dasharray: 3.7,1.6; stroke-dashoffset: 0; stroke: #808080"/>
   </g>
   <g id="line2d_12">
    <path d="M 46.145455 242.546087 
L 58.827273 223.638261 
L 71.509091 214.184348 
L 84.190909 214.184348 
L 96.872727 204.730435 
L 109.554545 176.368696 
L 122.236364 166.914783 
L 134.918182 166.914783 
L 147.6 157.46087 
L 160.281818 157.46087 
L 172.963636 157.46087 
L 185.645455 129.09913 
L 198.327273 129.09913 
L 211.009091 100.737391 
L 223.690909 100.737391 
L 236.372727 72.375652 
L 249.054545 72.375652 
" clip-path="url(#pcb1759a3e2)" style="fill: none; stroke-dasharray: 3.7,1.6; stroke-dashoffset: 0; stroke: #808080"/>
   </g>
   <g id="line2d_13">
    <path d="M 46.145455 242.546087 
L 58.827273 223.638261 
L 71.509091 214.184348 
L 84.190909 214.184348 
L 96.872727 195.276522 
L 109.554545 195.276522 
L 122.236364 195.276522 
L 134.918182 195.276522 
L 147.6 195.276522 
L 160.281818 185.822609 
L 172.963636 148.006957 
L 185.645455 148.006957 
L 198.327273 148.006957 
L 211.009091 100.737391 
L 223.690909 100.737391 
L 236.372727 100.737391 
L 249.054545 100.737391 
" clip-path="url(#pcb1759a3e2)" style="fill: none; stroke-dasharray: 3.7,1.6; stroke-dashoffset: 0; stroke: #808080"/>
   </g>
   <g id="line2d_14">
    <path d="M 46.145455 242.546087 
L 58.827273 242.546087 
L 71.509091 223.638261 
L 84.190909 214.184348 
L 96.872727 195.276522 
L 109.554545 195.276522 
L 122.236364 195.276522 
L 134.918182 185.822609 
L 147.6 176.368696 
L 160.281818 176.368696 
L 172.963636 148.006957 
L 185.645455 148.006957 
L 198.327273 110.191304 
L 211.009091 110.191304 
L 223.690909 110.191304 
L 236.372727 110.191304 
L 249.054545 110.191304 
" clip-path="url(#pcb1759a3e2)" style="fill: none; stroke-dasharray: 3.7,1.6; stroke-dashoffset: 0; stroke: #808080"/>
   </g>
   <g id="line2d_15">
    <path d="M 46.145455 242.546087 
L 58.827273 242.546087 
L 71.509091 214.184348 
L 84.190909 214.184348 
L 96.872727 214.184348 
L 109.554545 214.184348 
L 122.236364 214.184348 
L 134.918182 214.184348 
L 147.6 185.822609 
L 160.281818 166.914783 
L 172.963636 148.006957 
L 185.645455 138.553043 
L 198.327273 110.191304 
L 211.009091 110.191304 
L 223.690909 110.191304 
L 236.372727 91.283478 
L 249.054545 91.283478 
" clip-path="url(#pcb1759a3e2)" style="fill: none; stroke-dasharray: 3.7,1.6; stroke-dashoffset: 0; stroke: #808080"/>
   </g>
   <g id="line2d_16">
    <path d="M 46.145455 242.546087 
L 58.827273 223.638261 
L 71.509091 223.638261 
L 84.190909 223.638261 
L 96.872727 204.730435 
L 109.554545 204.730435 
L 122.236364 176.368696 
L 134.918182 176.368696 
L 147.6 176.368696 
L 160.281818 148.006957 
L 172.963636 148.006957 
L 185.645455 81.829565 
L 198.327273 53.467826 
L 211.009091 34.56 
L 223.690909 34.56 
L 236.372727 34.56 
L 249.054545 34.56 
" clip-path="url(#pcb1759a3e2)" style="fill: none; stroke-dasharray: 3.7,1.6; stroke-dashoffset: 0; stroke: #808080"/>
   </g>
   <g id="line2d_17">
    <path d="M 46.145455 242.546087 
L 58.827273 223.638261 
L 71.509091 223.638261 
L 84.190909 204.730435 
L 96.872727 195.276522 
L 109.554545 195.276522 
L 122.236364 195.276522 
L 134.918182 195.276522 
L 147.6 157.46087 
L 160.281818 157.46087 
L 172.963636 157.46087 
L 185.645455 129.09913 
L 198.327273 91.283478 
L 211.009091 91.283478 
L 223.690909 91.283478 
L 236.372727 91.283478 
L 249.054545 91.283478 
" clip-path="url(#pcb1759a3e2)" style="fill: none; stroke-dasharray: 3.7,1.6; stroke-dashoffset: 0; stroke: #808080"/>
   </g>
   <g id="line2d_18">
    <path d="M 46.145455 242.546087 
L 58.827273 242.546087 
L 71.509091 242.546087 
L 84.190909 214.184348 
L 96.872727 195.276522 
L 109.554545 195.276522 
L 122.236364 185.822609 
L 134.918182 176.368696 
L 147.6 176.368696 
L 160.281818 166.914783 
L 172.963636 148.006957 
L 185.645455 110.191304 
L 198.327273 110.191304 
L 211.009091 72.375652 
L 223.690909 72.375652 
L 236.372727 62.921739 
L 249.054545 62.921739 
" clip-path="url(#pcb1759a3e2)" style="fill: none; stroke-dasharray: 3.7,1.6; stroke-dashoffset: 0; stroke: #808080"/>
   </g>
   <g id="line2d_19">
    <path d="M 46.145455 242.546087 
L 58.827273 223.638261 
L 71.509091 223.638261 
L 84.190909 223.638261 
L 96.872727 204.730435 
L 109.554545 204.730435 
L 122.236364 204.730435 
L 134.918182 204.730435 
L 147.6 204.730435 
L 160.281818 204.730435 
L 172.963636 157.46087 
L 185.645455 119.645217 
L 198.327273 110.191304 
L 211.009091 110.191304 
L 223.690909 110.191304 
L 236.372727 110.191304 
L 249.054545 110.191304 
" clip-path="url(#pcb1759a3e2)" style="fill: none; stroke-dasharray: 3.7,1.6; stroke-dashoffset: 0; stroke: #808080"/>
   </g>
   <g id="line2d_20">
    <path d="M 46.145455 242.546087 
L 58.827273 223.638261 
L 71.509091 223.638261 
L 84.190909 214.184348 
L 96.872727 204.730435 
L 109.554545 204.730435 
L 122.236364 204.730435 
L 134.918182 185.822609 
L 147.6 166.914783 
L 160.281818 166.914783 
L 172.963636 157.46087 
L 185.645455 100.737391 
L 198.327273 100.737391 
L 211.009091 100.737391 
L 223.690909 100.737391 
L 236.372727 100.737391 
L 249.054545 100.737391 
" clip-path="url(#pcb1759a3e2)" style="fill: none; stroke-dasharray: 3.7,1.6; stroke-dashoffset: 0; stroke: #808080"/>
   </g>
   <g id="line2d_21">
    <path d="M 46.145455 242.546087 
L 58.827273 242.546087 
L 71.509091 223.638261 
L 84.190909 214.184348 
L 96.872727 185.822609 
L 109.554545 185.822609 
L 122.236364 185.822609 
L 134.918182 176.368696 
L 147.6 176.368696 
L 160.281818 176.368696 
L 172.963636 176.368696 
L 185.645455 110.191304 
L 198.327273 72.375652 
L 211.009091 72.375652 
L 223.690909 72.375652 
L 236.372727 72.375652 
L 249.054545 72.375652 
" clip-path="url(#pcb1759a3e2)" style="fill: none; stroke-dasharray: 3.7,1.6; stroke-dashoffset: 0; stroke: #808080"/>
   </g>
   <g id="line2d_22">
    <path d="M 46.145455 242.546087 
L 58.827273 242.546087 
L 71.509091 223.638261 
L 84.190909 223.638261 
L 96.872727 223.638261 
L 109.554545 204.730435 
L 122.236364 185.822609 
L 134.918182 185.822609 
L 147.6 185.822609 
L 160.281818 185.822609 
L 172.963636 176.368696 
L 185.645455 157.46087 
L 198.327273 91.283478 
L 211.009091 91.283478 
L 223.690909 91.283478 
L 236.372727 91.283478 
L 249.054545 91.283478 
" clip-path="url(#pcb1759a3e2)" style="fill: none; stroke-dasharray: 3.7,1.6; stroke-dashoffset: 0; stroke: #808080"/>
   </g>
   <g id="line2d_23">
    <path d="M 46.145455 242.546087 
L 58.827273 223.638261 
L 71.509091 214.184348 
L 84.190909 214.184348 
L 96.872727 204.730435 
L 109.554545 204.730435 
L 122.236364 195.276522 
L 134.918182 195.276522 
L 147.6 195.276522 
L 160.281818 195.276522 
L 172.963636 176.368696 
L 185.645455 129.09913 
L 198.327273 119.645217 
L 211.009091 110.191304 
L 223.690909 110.191304 
L 236.372727 110.191304 
L 249.054545 110.191304 
" clip-path="url(#pcb1759a3e2)" style="fill: none; stroke-dasharray: 3.7,1.6; stroke-dashoffset: 0; stroke: #808080"/>
   </g>
   <g id="line2d_24">
    <path d="M 46.145455 242.546087 
L 58.827273 242.546087 
L 71.509091 223.638261 
L 84.190909 214.184348 
L 96.872727 204.730435 
L 109.554545 204.730435 
L 122.236364 166.914783 
L 134.918182 166.914783 
L 147.6 166.914783 
L 160.281818 166.914783 
L 172.963636 129.09913 
L 185.645455 110.191304 
L 198.327273 91.283478 
L 211.009091 91.283478 
L 223.690909 91.283478 
L 236.372727 91.283478 
L 249.054545 91.283478 
" clip-path="url(#pcb1759a3e2)" style="fill: none; stroke-dasharray: 3.7,1.6; stroke-dashoffset: 0; stroke: #808080"/>
   </g>
   <g id="line2d_25">
    <path d="M 46.145455 242.546087 
L 58.827273 242.546087 
L 71.509091 242.546087 
L 84.190909 214.184348 
L 96.872727 214.184348 
L 109.554545 214.184348 
L 122.236364 214.184348 
L 134.918182 214.184348 
L 147.6 185.822609 
L 160.281818 166.914783 
L 172.963636 148.006957 
L 185.645455 148.006957 
L 198.327273 129.09913 
L 211.009091 129.09913 
L 223.690909 110.191304 
L 236.372727 110.191304 
L 249.054545 110.191304 
" clip-path="url(#pcb1759a3e2)" style="fill: none; stroke-dasharray: 3.7,1.6; stroke-dashoffset: 0; stroke: #808080"/>
   </g>
   <g id="line2d_26">
    <path d="M 46.145455 242.546087 
L 58.827273 223.638261 
L 71.509091 214.184348 
L 84.190909 195.276522 
L 96.872727 185.822609 
L 109.554545 185.822609 
L 122.236364 176.368696 
L 134.918182 157.46087 
L 147.6 129.09913 
L 160.281818 110.191304 
L 172.963636 100.737391 
L 185.645455 100.737391 
L 198.327273 72.375652 
L 211.009091 53.467826 
L 223.690909 44.013913 
L 236.372727 34.56 
L 249.054545 34.56 
" clip-path="url(#pcb1759a3e2)" style="fill: none; stroke-dasharray: 3.7,1.6; stroke-dashoffset: 0; stroke: #808080"/>
   </g>
   <g id="line2d_27">
    <path d="M 46.145455 242.546087 
L 58.827273 242.546087 
L 71.509091 223.638261 
L 84.190909 214.184348 
L 96.872727 214.184348 
L 109.554545 166.914783 
L 122.236364 166.914783 
L 134.918182 157.46087 
L 147.6 138.553043 
L 160.281818 129.09913 
L 172.963636 129.09913 
L 185.645455 53.467826 
L 198.327273 53.467826 
L 211.009091 34.56 
L 223.690909 34.56 
L 236.372727 34.56 
L 249.054545 34.56 
" clip-path="url(#pcb1759a3e2)" style="fill: none; stroke-dasharray: 3.7,1.6; stroke-dashoffset: 0; stroke: #808080"/>
   </g>
   <g id="line2d_28">
    <path d="M 46.145455 242.546087 
L 58.827273 223.638261 
L 71.509091 214.184348 
L 84.190909 204.730435 
L 96.872727 204.730435 
L 109.554545 195.276522 
L 122.236364 176.368696 
L 134.918182 166.914783 
L 147.6 166.914783 
L 160.281818 166.914783 
L 172.963636 110.191304 
L 185.645455 72.375652 
L 198.327273 53.467826 
L 211.009091 53.467826 
L 223.690909 34.56 
L 236.372727 34.56 
L 249.054545 34.56 
" clip-path="url(#pcb1759a3e2)" style="fill: none; stroke-dasharray: 3.7,1.6; stroke-dashoffset: 0; stroke: #808080"/>
   </g>
   <g id="line2d_29">
    <path d="M 46.145455 242.546087 
L 58.827273 242.546087 
L 71.509091 223.638261 
L 84.190909 223.638261 
L 96.872727 223.638261 
L 109.554545 204.730435 
L 122.236364 185.822609 
L 134.918182 185.822609 
L 147.6 185.822609 
L 160.281818 166.914783 
L 172.963636 166.914783 
L 185.645455 110.191304 
L 198.327273 110.191304 
L 211.009091 110.191304 
L 223.690909 110.191304 
L 236.372727 110.191304 
L 249.054545 110.191304 
" clip-path="url(#pcb1759a3e2)" style="fill: none; stroke-dasharray: 3.7,1.6; stroke-dashoffset: 0; stroke: #808080"/>
   </g>
   <g id="line2d_30">
    <path d="M 46.145455 242.546087 
L 58.827273 223.638261 
L 71.509091 223.638261 
L 84.190909 223.638261 
L 96.872727 214.184348 
L 109.554545 204.730435 
L 122.236364 185.822609 
L 134.918182 185.822609 
L 147.6 185.822609 
L 160.281818 185.822609 
L 172.963636 157.46087 
L 185.645455 148.006957 
L 198.327273 129.09913 
L 211.009091 129.09913 
L 223.690909 110.191304 
L 236.372727 110.191304 
L 249.054545 110.191304 
" clip-path="url(#pcb1759a3e2)" style="fill: none; stroke-dasharray: 3.7,1.6; stroke-dashoffset: 0; stroke: #808080"/>
   </g>
   <g id="line2d_31">
    <path d="M 46.145455 242.546087 
L 58.827273 242.546087 
L 71.509091 214.184348 
L 84.190909 214.184348 
L 96.872727 214.184348 
L 109.554545 204.730435 
L 122.236364 204.730435 
L 134.918182 185.822609 
L 147.6 148.006957 
L 160.281818 148.006957 
L 172.963636 81.829565 
L 185.645455 53.467826 
L 198.327273 53.467826 
L 211.009091 34.56 
L 223.690909 34.56 
L 236.372727 34.56 
L 249.054545 34.56 
" clip-path="url(#pcb1759a3e2)" style="fill: none; stroke-dasharray: 3.7,1.6; stroke-dashoffset: 0; stroke: #808080"/>
   </g>
   <g id="line2d_32">
    <path d="M 46.145455 242.546087 
L 58.827273 223.638261 
L 71.509091 223.638261 
L 84.190909 214.184348 
L 96.872727 214.184348 
L 109.554545 214.184348 
L 122.236364 176.368696 
L 134.918182 176.368696 
L 147.6 176.368696 
L 160.281818 176.368696 
L 172.963636 176.368696 
L 185.645455 176.368696 
L 198.327273 129.09913 
L 211.009091 110.191304 
L 223.690909 110.191304 
L 236.372727 110.191304 
L 249.054545 110.191304 
" clip-path="url(#pcb1759a3e2)" style="fill: none; stroke-dasharray: 3.7,1.6; stroke-dashoffset: 0; stroke: #808080"/>
   </g>
   <g id="line2d_33">
    <path d="M 46.145455 242.546087 
L 58.827273 223.638261 
L 71.509091 214.184348 
L 84.190909 214.184348 
L 96.872727 204.730435 
L 109.554545 185.822609 
L 122.236364 185.822609 
L 134.918182 148.006957 
L 147.6 148.006957 
L 160.281818 148.006957 
L 172.963636 138.553043 
L 185.645455 91.283478 
L 198.327273 91.283478 
L 211.009091 62.921739 
L 223.690909 62.921739 
L 236.372727 34.56 
L 249.054545 34.56 
" clip-path="url(#pcb1759a3e2)" style="fill: none; stroke-dasharray: 3.7,1.6; stroke-dashoffset: 0; stroke: #808080"/>
   </g>
   <g id="line2d_34">
    <path d="M 46.145455 242.546087 
L 58.827273 242.546087 
L 71.509091 214.184348 
L 84.190909 214.184348 
L 96.872727 214.184348 
L 109.554545 195.276522 
L 122.236364 195.276522 
L 134.918182 166.914783 
L 147.6 166.914783 
L 160.281818 166.914783 
L 172.963636 119.645217 
L 185.645455 91.283478 
L 198.327273 81.829565 
L 211.009091 81.829565 
L 223.690909 81.829565 
L 236.372727 81.829565 
L 249.054545 81.829565 
" clip-path="url(#pcb1759a3e2)" style="fill: none; stroke-dasharray: 3.7,1.6; stroke-dashoffset: 0; stroke: #808080"/>
   </g>
   <g id="line2d_35">
    <path d="M 46.145455 242.546087 
L 58.827273 223.638261 
L 71.509091 214.184348 
L 84.190909 214.184348 
L 96.872727 204.730435 
L 109.554545 204.730435 
L 122.236364 195.276522 
L 134.918182 185.822609 
L 147.6 185.822609 
L 160.281818 166.914783 
L 172.963636 138.553043 
L 185.645455 119.645217 
L 198.327273 119.645217 
L 211.009091 110.191304 
L 223.690909 110.191304 
L 236.372727 91.283478 
L 249.054545 91.283478 
" clip-path="url(#pcb1759a3e2)" style="fill: none; stroke-dasharray: 3.7,1.6; stroke-dashoffset: 0; stroke: #808080"/>
   </g>
   <g id="patch_3">
    <path d="M 36 252 
L 36 34.56 
" style="fill: none; stroke: #000000; stroke-width: 2; stroke-linejoin: miter; stroke-linecap: square"/>
   </g>
   <g id="patch_4">
    <path d="M 36 252 
L 259.2 252 
" style="fill: none; stroke: #000000; stroke-width: 2; stroke-linejoin: miter; stroke-linecap: square"/>
   </g>
  </g>
 </g>
 <defs>
  <clipPath id="pcb1759a3e2">
   <rect x="36" y="34.56" width="223.2" height="217.44"/>
  </clipPath>
 </defs>
</svg>
