<?xml version="1.0" encoding="utf-8" standalone="no"?>
<!DOCTYPE svg PUBLIC "-//W3C//DTD SVG 1.1//EN"
  "http://www.w3.org/Graphics/SVG/1.1/DTD/svg11.dtd">
<svg xmlns:xlink="http://www.w3.org/1999/xlink" width="432pt" height="288pt" viewBox="0 0 432 288" xmlns="http://www.w3.org/2000/svg" version="1.1">
 <metadata>
  <rdf:RDF xmlns:dc="http://purl.org/dc/elements/1.1/" xmlns:cc="http://creativecommons.org/ns#" xmlns:rdf="http://www.w3.org/1999/02/22-rdf-syntax-ns#">
   <cc:Work>
    <dc:type rdf:resource="http://purl.org/dc/dcmitype/StillImage"/>
    <dc:date>2024-07-10T09:25:56.860630</dc:date>
    <dc:format>image/svg+xml</dc:format>
    <dc:creator>
     <cc:Agent>
      <dc:title>Matplotlib v3.8.0, https://matplotlib.org/</dc:title>
     </cc:Agent>
    </dc:creator>
   </cc:Work>
  </rdf:RDF>
 </metadata>
 <defs>
  <style type="text/css">*{stroke-linejoin: round; stroke-linecap: butt}</style>
 </defs>
 <g id="figure_1">
  <g id="patch_1">
   <path d="M 0 288 
L 432 288 
L 432 0 
L 0 0 
z
" style="fill: #ffffff"/>
  </g>
  <g id="axes_1">
   <g id="patch_2">
    <path d="M 54 252 
L 388.8 252 
L 388.8 34.56 
L 54 34.56 
z
" style="fill: #ffffff"/>
   </g>
   <g id="matplotlib.axis_1">
    <g id="xtick_1">
     <g id="line2d_1">
      <defs>
       <path id="m3025464d39" d="M 0 0 
L 0 3.5 
" style="stroke: #000000; stroke-width: 0.8"/>
      </defs>
      <g>
       <use xlink:href="#m3025464d39" x="88.240909" y="252" style="stroke: #000000; stroke-width: 0.8"/>
      </g>
     </g>
     <g id="text_1">
      <!-- 0.25 -->
      <g transform="translate(61.522159 277.23625) scale(0.24 -0.24)">
       <defs>
        <path id="DejaVuSans-30" d="M 2034 4250 
Q 1547 4250 1301 3770 
Q 1056 3291 1056 2328 
Q 1056 1369 1301 889 
Q 1547 409 2034 409 
Q 2525 409 2770 889 
Q 3016 1369 3016 2328 
Q 3016 3291 2770 3770 
Q 2525 4250 2034 4250 
z
M 2034 4750 
Q 2819 4750 3233 4129 
Q 3647 3509 3647 2328 
Q 3647 1150 3233 529 
Q 2819 -91 2034 -91 
Q 1250 -91 836 529 
Q 422 1150 422 2328 
Q 422 3509 836 4129 
Q 1250 4750 2034 4750 
z
" transform="scale(0.015625)"/>
        <path id="DejaVuSans-2e" d="M 684 794 
L 1344 794 
L 1344 0 
L 684 0 
L 684 794 
z
" transform="scale(0.015625)"/>
        <path id="DejaVuSans-32" d="M 1228 531 
L 3431 531 
L 3431 0 
L 469 0 
L 469 531 
Q 828 903 1448 1529 
Q 2069 2156 2228 2338 
Q 2531 2678 2651 2914 
Q 2772 3150 2772 3378 
Q 2772 3750 2511 3984 
Q 2250 4219 1831 4219 
Q 1534 4219 1204 4116 
Q 875 4013 500 3803 
L 500 4441 
Q 881 4594 1212 4672 
Q 1544 4750 1819 4750 
Q 2544 4750 2975 4387 
Q 3406 4025 3406 3419 
Q 3406 3131 3298 2873 
Q 3191 2616 2906 2266 
Q 2828 2175 2409 1742 
Q 1991 1309 1228 531 
z
" transform="scale(0.015625)"/>
        <path id="DejaVuSans-35" d="M 691 4666 
L 3169 4666 
L 3169 4134 
L 1269 4134 
L 1269 2991 
Q 1406 3038 1543 3061 
Q 1681 3084 1819 3084 
Q 2600 3084 3056 2656 
Q 3513 2228 3513 1497 
Q 3513 744 3044 326 
Q 2575 -91 1722 -91 
Q 1428 -91 1123 -41 
Q 819 9 494 109 
L 494 744 
Q 775 591 1075 516 
Q 1375 441 1709 441 
Q 2250 441 2565 725 
Q 2881 1009 2881 1497 
Q 2881 1984 2565 2268 
Q 2250 2553 1709 2553 
Q 1456 2553 1204 2497 
Q 953 2441 691 2322 
L 691 4666 
z
" transform="scale(0.015625)"/>
       </defs>
       <use xlink:href="#DejaVuSans-30"/>
       <use xlink:href="#DejaVuSans-2e" x="63.623047"/>
       <use xlink:href="#DejaVuSans-32" x="95.410156"/>
       <use xlink:href="#DejaVuSans-35" x="159.033203"/>
      </g>
     </g>
    </g>
    <g id="xtick_2">
     <g id="line2d_2">
      <g>
       <use xlink:href="#m3025464d39" x="183.354545" y="252" style="stroke: #000000; stroke-width: 0.8"/>
      </g>
     </g>
     <g id="text_2">
      <!-- 0.50 -->
      <g transform="translate(156.635795 277.23625) scale(0.24 -0.24)">
       <use xlink:href="#DejaVuSans-30"/>
       <use xlink:href="#DejaVuSans-2e" x="63.623047"/>
       <use xlink:href="#DejaVuSans-35" x="95.410156"/>
       <use xlink:href="#DejaVuSans-30" x="159.033203"/>
      </g>
     </g>
    </g>
    <g id="xtick_3">
     <g id="line2d_3">
      <g>
       <use xlink:href="#m3025464d39" x="278.468182" y="252" style="stroke: #000000; stroke-width: 0.8"/>
      </g>
     </g>
     <g id="text_3">
      <!-- 0.75 -->
      <g transform="translate(251.749432 277.23625) scale(0.24 -0.24)">
       <defs>
        <path id="DejaVuSans-37" d="M 525 4666 
L 3525 4666 
L 3525 4397 
L 1831 0 
L 1172 0 
L 2766 4134 
L 525 4134 
L 525 4666 
z
" transform="scale(0.015625)"/>
       </defs>
       <use xlink:href="#DejaVuSans-30"/>
       <use xlink:href="#DejaVuSans-2e" x="63.623047"/>
       <use xlink:href="#DejaVuSans-37" x="95.410156"/>
       <use xlink:href="#DejaVuSans-35" x="159.033203"/>
      </g>
     </g>
    </g>
    <g id="xtick_4">
     <g id="line2d_4">
      <g>
       <use xlink:href="#m3025464d39" x="373.581818" y="252" style="stroke: #000000; stroke-width: 0.8"/>
      </g>
     </g>
     <g id="text_4">
      <!-- 1.00 -->
      <g transform="translate(346.863068 277.23625) scale(0.24 -0.24)">
       <defs>
        <path id="DejaVuSans-31" d="M 794 531 
L 1825 531 
L 1825 4091 
L 703 3866 
L 703 4441 
L 1819 4666 
L 2450 4666 
L 2450 531 
L 3481 531 
L 3481 0 
L 794 0 
L 794 531 
z
" transform="scale(0.015625)"/>
       </defs>
       <use xlink:href="#DejaVuSans-31"/>
       <use xlink:href="#DejaVuSans-2e" x="63.623047"/>
       <use xlink:href="#DejaVuSans-30" x="95.410156"/>
       <use xlink:href="#DejaVuSans-30" x="159.033203"/>
      </g>
     </g>
    </g>
    <g id="text_5">
     <!-- $\gamma$ -->
     <g transform="translate(214.2 304.415) scale(0.24 -0.24)">
      <defs>
       <path id="DejaVuSans-Oblique-3b3" d="M 1491 2950 
L 1838 788 
L 3456 3500 
L 4066 3500 
L 1972 0 
L 1713 -1331 
L 1138 -1331 
L 1397 0 
L 988 2613 
Q 925 3006 628 3006 
L 475 3006 
L 569 3500 
L 788 3500 
Q 1403 3500 1491 2950 
z
" transform="scale(0.015625)"/>
      </defs>
      <use xlink:href="#DejaVuSans-Oblique-3b3" transform="translate(0 0.3125)"/>
     </g>
    </g>
   </g>
   <g id="matplotlib.axis_2">
    <g id="ytick_1">
     <g id="line2d_5">
      <defs>
       <path id="m7658fa2546" d="M 0 0 
L -3.5 0 
" style="stroke: #000000; stroke-width: 0.8"/>
      </defs>
      <g>
       <use xlink:href="#m7658fa2546" x="54" y="243.148471" style="stroke: #000000; stroke-width: 0.8"/>
      </g>
     </g>
     <g id="text_6">
      <!-- 0 -->
      <g transform="translate(31.73 252.266596) scale(0.24 -0.24)">
       <use xlink:href="#DejaVuSans-30"/>
      </g>
     </g>
    </g>
    <g id="ytick_2">
     <g id="line2d_6">
      <g>
       <use xlink:href="#m7658fa2546" x="54" y="173.61898" style="stroke: #000000; stroke-width: 0.8"/>
      </g>
     </g>
     <g id="text_7">
      <!-- 5 -->
      <g transform="translate(31.73 182.737105) scale(0.24 -0.24)">
       <use xlink:href="#DejaVuSans-35"/>
      </g>
     </g>
    </g>
    <g id="ytick_3">
     <g id="line2d_7">
      <g>
       <use xlink:href="#m7658fa2546" x="54" y="104.08949" style="stroke: #000000; stroke-width: 0.8"/>
      </g>
     </g>
     <g id="text_8">
      <!-- 10 -->
      <g transform="translate(16.46 113.207615) scale(0.24 -0.24)">
       <use xlink:href="#DejaVuSans-31"/>
       <use xlink:href="#DejaVuSans-30" x="63.623047"/>
      </g>
     </g>
    </g>
    <g id="ytick_4">
     <g id="line2d_8">
      <g>
       <use xlink:href="#m7658fa2546" x="54" y="34.56" style="stroke: #000000; stroke-width: 0.8"/>
      </g>
     </g>
     <g id="text_9">
      <!-- 15 -->
      <g transform="translate(16.46 43.678125) scale(0.24 -0.24)">
       <use xlink:href="#DejaVuSans-31"/>
       <use xlink:href="#DejaVuSans-35" x="63.623047"/>
      </g>
     </g>
    </g>
    <g id="text_10">
     <!-- Avg. time to cross  -->
     <g transform="translate(-19.406 254.836875) rotate(-90) scale(0.24 -0.24)">
      <defs>
       <path id="DejaVuSans-41" d="M 2188 4044 
L 1331 1722 
L 3047 1722 
L 2188 4044 
z
M 1831 4666 
L 2547 4666 
L 4325 0 
L 3669 0 
L 3244 1197 
L 1141 1197 
L 716 0 
L 50 0 
L 1831 4666 
z
" transform="scale(0.015625)"/>
       <path id="DejaVuSans-76" d="M 191 3500 
L 800 3500 
L 1894 563 
L 2988 3500 
L 3597 3500 
L 2284 0 
L 1503 0 
L 191 3500 
z
" transform="scale(0.015625)"/>
       <path id="DejaVuSans-67" d="M 2906 1791 
Q 2906 2416 2648 2759 
Q 2391 3103 1925 3103 
Q 1463 3103 1205 2759 
Q 947 2416 947 1791 
Q 947 1169 1205 825 
Q 1463 481 1925 481 
Q 2391 481 2648 825 
Q 2906 1169 2906 1791 
z
M 3481 434 
Q 3481 -459 3084 -895 
Q 2688 -1331 1869 -1331 
Q 1566 -1331 1297 -1286 
Q 1028 -1241 775 -1147 
L 775 -588 
Q 1028 -725 1275 -790 
Q 1522 -856 1778 -856 
Q 2344 -856 2625 -561 
Q 2906 -266 2906 331 
L 2906 616 
Q 2728 306 2450 153 
Q 2172 0 1784 0 
Q 1141 0 747 490 
Q 353 981 353 1791 
Q 353 2603 747 3093 
Q 1141 3584 1784 3584 
Q 2172 3584 2450 3431 
Q 2728 3278 2906 2969 
L 2906 3500 
L 3481 3500 
L 3481 434 
z
" transform="scale(0.015625)"/>
       <path id="DejaVuSans-20" transform="scale(0.015625)"/>
       <path id="DejaVuSans-74" d="M 1172 4494 
L 1172 3500 
L 2356 3500 
L 2356 3053 
L 1172 3053 
L 1172 1153 
Q 1172 725 1289 603 
Q 1406 481 1766 481 
L 2356 481 
L 2356 0 
L 1766 0 
Q 1100 0 847 248 
Q 594 497 594 1153 
L 594 3053 
L 172 3053 
L 172 3500 
L 594 3500 
L 594 4494 
L 1172 4494 
z
" transform="scale(0.015625)"/>
       <path id="DejaVuSans-69" d="M 603 3500 
L 1178 3500 
L 1178 0 
L 603 0 
L 603 3500 
z
M 603 4863 
L 1178 4863 
L 1178 4134 
L 603 4134 
L 603 4863 
z
" transform="scale(0.015625)"/>
       <path id="DejaVuSans-6d" d="M 3328 2828 
Q 3544 3216 3844 3400 
Q 4144 3584 4550 3584 
Q 5097 3584 5394 3201 
Q 5691 2819 5691 2113 
L 5691 0 
L 5113 0 
L 5113 2094 
Q 5113 2597 4934 2840 
Q 4756 3084 4391 3084 
Q 3944 3084 3684 2787 
Q 3425 2491 3425 1978 
L 3425 0 
L 2847 0 
L 2847 2094 
Q 2847 2600 2669 2842 
Q 2491 3084 2119 3084 
Q 1678 3084 1418 2786 
Q 1159 2488 1159 1978 
L 1159 0 
L 581 0 
L 581 3500 
L 1159 3500 
L 1159 2956 
Q 1356 3278 1631 3431 
Q 1906 3584 2284 3584 
Q 2666 3584 2933 3390 
Q 3200 3197 3328 2828 
z
" transform="scale(0.015625)"/>
       <path id="DejaVuSans-65" d="M 3597 1894 
L 3597 1613 
L 953 1613 
Q 991 1019 1311 708 
Q 1631 397 2203 397 
Q 2534 397 2845 478 
Q 3156 559 3463 722 
L 3463 178 
Q 3153 47 2828 -22 
Q 2503 -91 2169 -91 
Q 1331 -91 842 396 
Q 353 884 353 1716 
Q 353 2575 817 3079 
Q 1281 3584 2069 3584 
Q 2775 3584 3186 3129 
Q 3597 2675 3597 1894 
z
M 3022 2063 
Q 3016 2534 2758 2815 
Q 2500 3097 2075 3097 
Q 1594 3097 1305 2825 
Q 1016 2553 972 2059 
L 3022 2063 
z
" transform="scale(0.015625)"/>
       <path id="DejaVuSans-6f" d="M 1959 3097 
Q 1497 3097 1228 2736 
Q 959 2375 959 1747 
Q 959 1119 1226 758 
Q 1494 397 1959 397 
Q 2419 397 2687 759 
Q 2956 1122 2956 1747 
Q 2956 2369 2687 2733 
Q 2419 3097 1959 3097 
z
M 1959 3584 
Q 2709 3584 3137 3096 
Q 3566 2609 3566 1747 
Q 3566 888 3137 398 
Q 2709 -91 1959 -91 
Q 1206 -91 779 398 
Q 353 888 353 1747 
Q 353 2609 779 3096 
Q 1206 3584 1959 3584 
z
" transform="scale(0.015625)"/>
       <path id="DejaVuSans-63" d="M 3122 3366 
L 3122 2828 
Q 2878 2963 2633 3030 
Q 2388 3097 2138 3097 
Q 1578 3097 1268 2742 
Q 959 2388 959 1747 
Q 959 1106 1268 751 
Q 1578 397 2138 397 
Q 2388 397 2633 464 
Q 2878 531 3122 666 
L 3122 134 
Q 2881 22 2623 -34 
Q 2366 -91 2075 -91 
Q 1284 -91 818 406 
Q 353 903 353 1747 
Q 353 2603 823 3093 
Q 1294 3584 2113 3584 
Q 2378 3584 2631 3529 
Q 2884 3475 3122 3366 
z
" transform="scale(0.015625)"/>
       <path id="DejaVuSans-72" d="M 2631 2963 
Q 2534 3019 2420 3045 
Q 2306 3072 2169 3072 
Q 1681 3072 1420 2755 
Q 1159 2438 1159 1844 
L 1159 0 
L 581 0 
L 581 3500 
L 1159 3500 
L 1159 2956 
Q 1341 3275 1631 3429 
Q 1922 3584 2338 3584 
Q 2397 3584 2469 3576 
Q 2541 3569 2628 3553 
L 2631 2963 
z
" transform="scale(0.015625)"/>
       <path id="DejaVuSans-73" d="M 2834 3397 
L 2834 2853 
Q 2591 2978 2328 3040 
Q 2066 3103 1784 3103 
Q 1356 3103 1142 2972 
Q 928 2841 928 2578 
Q 928 2378 1081 2264 
Q 1234 2150 1697 2047 
L 1894 2003 
Q 2506 1872 2764 1633 
Q 3022 1394 3022 966 
Q 3022 478 2636 193 
Q 2250 -91 1575 -91 
Q 1294 -91 989 -36 
Q 684 19 347 128 
L 347 722 
Q 666 556 975 473 
Q 1284 391 1588 391 
Q 1994 391 2212 530 
Q 2431 669 2431 922 
Q 2431 1156 2273 1281 
Q 2116 1406 1581 1522 
L 1381 1569 
Q 847 1681 609 1914 
Q 372 2147 372 2553 
Q 372 3047 722 3315 
Q 1072 3584 1716 3584 
Q 2034 3584 2315 3537 
Q 2597 3491 2834 3397 
z
" transform="scale(0.015625)"/>
      </defs>
      <use xlink:href="#DejaVuSans-41"/>
      <use xlink:href="#DejaVuSans-76" x="62.533203"/>
      <use xlink:href="#DejaVuSans-67" x="121.712891"/>
      <use xlink:href="#DejaVuSans-2e" x="185.189453"/>
      <use xlink:href="#DejaVuSans-20" x="216.976562"/>
      <use xlink:href="#DejaVuSans-74" x="248.763672"/>
      <use xlink:href="#DejaVuSans-69" x="287.972656"/>
      <use xlink:href="#DejaVuSans-6d" x="315.755859"/>
      <use xlink:href="#DejaVuSans-65" x="413.167969"/>
      <use xlink:href="#DejaVuSans-20" x="474.691406"/>
      <use xlink:href="#DejaVuSans-74" x="506.478516"/>
      <use xlink:href="#DejaVuSans-6f" x="545.6875"/>
      <use xlink:href="#DejaVuSans-20" x="606.869141"/>
      <use xlink:href="#DejaVuSans-63" x="638.65625"/>
      <use xlink:href="#DejaVuSans-72" x="693.636719"/>
      <use xlink:href="#DejaVuSans-6f" x="732.5"/>
      <use xlink:href="#DejaVuSans-73" x="793.681641"/>
      <use xlink:href="#DejaVuSans-73" x="845.78125"/>
      <use xlink:href="#DejaVuSans-20" x="897.880859"/>
     </g>
     <!--  14 units (in weeks) -->
     <g transform="translate(7.46875 261.388125) rotate(-90) scale(0.24 -0.24)">
      <defs>
       <path id="DejaVuSans-34" d="M 2419 4116 
L 825 1625 
L 2419 1625 
L 2419 4116 
z
M 2253 4666 
L 3047 4666 
L 3047 1625 
L 3713 1625 
L 3713 1100 
L 3047 1100 
L 3047 0 
L 2419 0 
L 2419 1100 
L 313 1100 
L 313 1709 
L 2253 4666 
z
" transform="scale(0.015625)"/>
       <path id="DejaVuSans-75" d="M 544 1381 
L 544 3500 
L 1119 3500 
L 1119 1403 
Q 1119 906 1312 657 
Q 1506 409 1894 409 
Q 2359 409 2629 706 
Q 2900 1003 2900 1516 
L 2900 3500 
L 3475 3500 
L 3475 0 
L 2900 0 
L 2900 538 
Q 2691 219 2414 64 
Q 2138 -91 1772 -91 
Q 1169 -91 856 284 
Q 544 659 544 1381 
z
M 1991 3584 
L 1991 3584 
z
" transform="scale(0.015625)"/>
       <path id="DejaVuSans-6e" d="M 3513 2113 
L 3513 0 
L 2938 0 
L 2938 2094 
Q 2938 2591 2744 2837 
Q 2550 3084 2163 3084 
Q 1697 3084 1428 2787 
Q 1159 2491 1159 1978 
L 1159 0 
L 581 0 
L 581 3500 
L 1159 3500 
L 1159 2956 
Q 1366 3272 1645 3428 
Q 1925 3584 2291 3584 
Q 2894 3584 3203 3211 
Q 3513 2838 3513 2113 
z
" transform="scale(0.015625)"/>
       <path id="DejaVuSans-28" d="M 1984 4856 
Q 1566 4138 1362 3434 
Q 1159 2731 1159 2009 
Q 1159 1288 1364 580 
Q 1569 -128 1984 -844 
L 1484 -844 
Q 1016 -109 783 600 
Q 550 1309 550 2009 
Q 550 2706 781 3412 
Q 1013 4119 1484 4856 
L 1984 4856 
z
" transform="scale(0.015625)"/>
       <path id="DejaVuSans-77" d="M 269 3500 
L 844 3500 
L 1563 769 
L 2278 3500 
L 2956 3500 
L 3675 769 
L 4391 3500 
L 4966 3500 
L 4050 0 
L 3372 0 
L 2619 2869 
L 1863 0 
L 1184 0 
L 269 3500 
z
" transform="scale(0.015625)"/>
       <path id="DejaVuSans-6b" d="M 581 4863 
L 1159 4863 
L 1159 1991 
L 2875 3500 
L 3609 3500 
L 1753 1863 
L 3688 0 
L 2938 0 
L 1159 1709 
L 1159 0 
L 581 0 
L 581 4863 
z
" transform="scale(0.015625)"/>
       <path id="DejaVuSans-29" d="M 513 4856 
L 1013 4856 
Q 1481 4119 1714 3412 
Q 1947 2706 1947 2009 
Q 1947 1309 1714 600 
Q 1481 -109 1013 -844 
L 513 -844 
Q 928 -128 1133 580 
Q 1338 1288 1338 2009 
Q 1338 2731 1133 3434 
Q 928 4138 513 4856 
z
" transform="scale(0.015625)"/>
      </defs>
      <use xlink:href="#DejaVuSans-20"/>
      <use xlink:href="#DejaVuSans-31" x="31.787109"/>
      <use xlink:href="#DejaVuSans-34" x="95.410156"/>
      <use xlink:href="#DejaVuSans-20" x="159.033203"/>
      <use xlink:href="#DejaVuSans-75" x="190.820312"/>
      <use xlink:href="#DejaVuSans-6e" x="254.199219"/>
      <use xlink:href="#DejaVuSans-69" x="317.578125"/>
      <use xlink:href="#DejaVuSans-74" x="345.361328"/>
      <use xlink:href="#DejaVuSans-73" x="384.570312"/>
      <use xlink:href="#DejaVuSans-20" x="436.669922"/>
      <use xlink:href="#DejaVuSans-28" x="468.457031"/>
      <use xlink:href="#DejaVuSans-69" x="507.470703"/>
      <use xlink:href="#DejaVuSans-6e" x="535.253906"/>
      <use xlink:href="#DejaVuSans-20" x="598.632812"/>
      <use xlink:href="#DejaVuSans-77" x="630.419922"/>
      <use xlink:href="#DejaVuSans-65" x="712.207031"/>
      <use xlink:href="#DejaVuSans-65" x="773.730469"/>
      <use xlink:href="#DejaVuSans-6b" x="835.253906"/>
      <use xlink:href="#DejaVuSans-73" x="893.164062"/>
      <use xlink:href="#DejaVuSans-29" x="945.263672"/>
     </g>
    </g>
   </g>
   <g id="LineCollection_1">
    <path d="M 69.218182 242.844322 
L 69.218182 242.701701 
" clip-path="url(#pd0a3806c8b)" style="fill: none; stroke: #fbb6bc; stroke-width: 3"/>
    <path d="M 103.036364 242.91953 
L 103.036364 242.793363 
" clip-path="url(#pd0a3806c8b)" style="fill: none; stroke: #fbb6bc; stroke-width: 3"/>
    <path d="M 136.854545 242.91953 
L 136.854545 242.793363 
" clip-path="url(#pd0a3806c8b)" style="fill: none; stroke: #fbb6bc; stroke-width: 3"/>
    <path d="M 170.672727 242.956658 
L 170.672727 242.839671 
" clip-path="url(#pd0a3806c8b)" style="fill: none; stroke: #fbb6bc; stroke-width: 3"/>
    <path d="M 204.490909 242.907076 
L 204.490909 242.778006 
" clip-path="url(#pd0a3806c8b)" style="fill: none; stroke: #fbb6bc; stroke-width: 3"/>
    <path d="M 238.309091 242.844322 
L 238.309091 242.701701 
" clip-path="url(#pd0a3806c8b)" style="fill: none; stroke: #fbb6bc; stroke-width: 3"/>
    <path d="M 272.127273 242.91953 
L 272.127273 242.793363 
" clip-path="url(#pd0a3806c8b)" style="fill: none; stroke: #fbb6bc; stroke-width: 3"/>
    <path d="M 305.945455 242.907076 
L 305.945455 242.778006 
" clip-path="url(#pd0a3806c8b)" style="fill: none; stroke: #fbb6bc; stroke-width: 3"/>
    <path d="M 339.763636 242.91953 
L 339.763636 242.793363 
" clip-path="url(#pd0a3806c8b)" style="fill: none; stroke: #fbb6bc; stroke-width: 3"/>
    <path d="M 373.581818 229.739289 
L 373.581818 228.718044 
" clip-path="url(#pd0a3806c8b)" style="fill: none; stroke: #fbb6bc; stroke-width: 3"/>
   </g>
   <g id="LineCollection_2">
    <path d="M 69.218182 242.993361 
L 69.218182 242.886403 
" clip-path="url(#pd0a3806c8b)" style="fill: none; stroke: #f05a9e; stroke-width: 3"/>
    <path d="M 103.036364 242.907076 
L 103.036364 242.778006 
" clip-path="url(#pd0a3806c8b)" style="fill: none; stroke: #f05a9e; stroke-width: 3"/>
    <path d="M 136.854545 242.968945 
L 136.854545 242.855196 
" clip-path="url(#pd0a3806c8b)" style="fill: none; stroke: #f05a9e; stroke-width: 3"/>
    <path d="M 170.672727 242.931947 
L 170.672727 242.808758 
" clip-path="url(#pd0a3806c8b)" style="fill: none; stroke: #f05a9e; stroke-width: 3"/>
    <path d="M 204.490909 242.981181 
L 204.490909 242.870772 
" clip-path="url(#pd0a3806c8b)" style="fill: none; stroke: #f05a9e; stroke-width: 3"/>
    <path d="M 238.309091 242.981181 
L 238.309091 242.870772 
" clip-path="url(#pd0a3806c8b)" style="fill: none; stroke: #f05a9e; stroke-width: 3"/>
    <path d="M 272.127273 242.944324 
L 272.127273 242.824193 
" clip-path="url(#pd0a3806c8b)" style="fill: none; stroke: #f05a9e; stroke-width: 3"/>
    <path d="M 305.945455 242.869512 
L 305.945455 242.732134 
" clip-path="url(#pd0a3806c8b)" style="fill: none; stroke: #f05a9e; stroke-width: 3"/>
    <path d="M 339.763636 242.704166 
L 339.763636 242.535927 
" clip-path="url(#pd0a3806c8b)" style="fill: none; stroke: #f05a9e; stroke-width: 3"/>
    <path d="M 373.581818 224.641025 
L 373.581818 223.609379 
" clip-path="url(#pd0a3806c8b)" style="fill: none; stroke: #f05a9e; stroke-width: 3"/>
   </g>
   <g id="LineCollection_3">
    <path d="M 69.218182 242.680666 
L 69.218182 242.503803 
" clip-path="url(#pd0a3806c8b)" style="fill: none; stroke: #a6017d; stroke-width: 3"/>
    <path d="M 103.036364 242.536061 
L 103.036364 242.342479 
" clip-path="url(#pd0a3806c8b)" style="fill: none; stroke: #a6017d; stroke-width: 3"/>
    <path d="M 136.854545 242.654841 
L 136.854545 242.474004 
" clip-path="url(#pd0a3806c8b)" style="fill: none; stroke: #a6017d; stroke-width: 3"/>
    <path d="M 170.672727 242.457837 
L 170.672727 242.253832 
" clip-path="url(#pd0a3806c8b)" style="fill: none; stroke: #a6017d; stroke-width: 3"/>
    <path d="M 204.490909 242.339916 
L 204.490909 242.121446 
" clip-path="url(#pd0a3806c8b)" style="fill: none; stroke: #a6017d; stroke-width: 3"/>
    <path d="M 238.309091 241.996289 
L 238.309091 241.741967 
" clip-path="url(#pd0a3806c8b)" style="fill: none; stroke: #a6017d; stroke-width: 3"/>
    <path d="M 272.127273 241.273563 
L 272.127273 240.962856 
" clip-path="url(#pd0a3806c8b)" style="fill: none; stroke: #a6017d; stroke-width: 3"/>
    <path d="M 305.945455 239.951432 
L 305.945455 239.559431 
" clip-path="url(#pd0a3806c8b)" style="fill: none; stroke: #a6017d; stroke-width: 3"/>
    <path d="M 339.763636 225.978696 
L 339.763636 225.5535 
" clip-path="url(#pd0a3806c8b)" style="fill: none; stroke: #a6017d; stroke-width: 3"/>
    <path d="M 373.581818 119.268374 
L 373.581818 117.946121 
" clip-path="url(#pd0a3806c8b)" style="fill: none; stroke: #a6017d; stroke-width: 3"/>
   </g>
   <g id="LineCollection_4">
    <path d="M 69.218182 79.76203 
L 69.218182 62.860574 
" clip-path="url(#pd0a3806c8b)" style="fill: none; stroke: #49006a; stroke-width: 3"/>
    <path d="M 103.036364 70.2754 
L 103.036364 64.226717 
" clip-path="url(#pd0a3806c8b)" style="fill: none; stroke: #49006a; stroke-width: 3"/>
    <path d="M 136.854545 74.378106 
L 136.854545 69.070764 
" clip-path="url(#pd0a3806c8b)" style="fill: none; stroke: #49006a; stroke-width: 3"/>
    <path d="M 170.672727 83.386392 
L 170.672727 79.914463 
" clip-path="url(#pd0a3806c8b)" style="fill: none; stroke: #49006a; stroke-width: 3"/>
    <path d="M 204.490909 109.559922 
L 204.490909 106.880358 
" clip-path="url(#pd0a3806c8b)" style="fill: none; stroke: #49006a; stroke-width: 3"/>
    <path d="M 238.309091 164.9497 
L 238.309091 163.793417 
" clip-path="url(#pd0a3806c8b)" style="fill: none; stroke: #49006a; stroke-width: 3"/>
    <path d="M 272.127273 176.776658 
L 272.127273 175.995851 
" clip-path="url(#pd0a3806c8b)" style="fill: none; stroke: #49006a; stroke-width: 3"/>
    <path d="M 305.945455 177.198813 
L 305.945455 176.491484 
" clip-path="url(#pd0a3806c8b)" style="fill: none; stroke: #49006a; stroke-width: 3"/>
    <path d="M 339.763636 164.401603 
L 339.763636 163.562783 
" clip-path="url(#pd0a3806c8b)" style="fill: none; stroke: #49006a; stroke-width: 3"/>
    <path d="M 373.581818 75.758669 
L 373.581818 74.513869 
" clip-path="url(#pd0a3806c8b)" style="fill: none; stroke: #49006a; stroke-width: 3"/>
   </g>
   <g id="line2d_9">
    <path d="M 69.218182 242.773011 
L 103.036364 242.856447 
L 136.854545 242.856447 
L 170.672727 242.898164 
L 204.490909 242.842541 
L 238.309091 242.773011 
L 272.127273 242.856447 
L 305.945455 242.842541 
L 339.763636 242.856447 
L 373.581818 229.228667 
" clip-path="url(#pd0a3806c8b)" style="fill: none; stroke-dasharray: 11.1,4.8; stroke-dashoffset: 0; stroke: #fbb6bc; stroke-width: 3"/>
    <defs>
     <path id="m6197eb6f04" d="M 0 3 
C 0.795609 3 1.55874 2.683901 2.12132 2.12132 
C 2.683901 1.55874 3 0.795609 3 0 
C 3 -0.795609 2.683901 -1.55874 2.12132 -2.12132 
C 1.55874 -2.683901 0.795609 -3 0 -3 
C -0.795609 -3 -1.55874 -2.683901 -2.12132 -2.12132 
C -2.683901 -1.55874 -3 -0.795609 -3 0 
C -3 0.795609 -2.683901 1.55874 -2.12132 2.12132 
C -1.55874 2.683901 -0.795609 3 0 3 
z
" style="stroke: #fbb6bc"/>
    </defs>
    <g clip-path="url(#pd0a3806c8b)">
     <use xlink:href="#m6197eb6f04" x="69.218182" y="242.773011" style="fill: #fbb6bc; stroke: #fbb6bc"/>
     <use xlink:href="#m6197eb6f04" x="103.036364" y="242.856447" style="fill: #fbb6bc; stroke: #fbb6bc"/>
     <use xlink:href="#m6197eb6f04" x="136.854545" y="242.856447" style="fill: #fbb6bc; stroke: #fbb6bc"/>
     <use xlink:href="#m6197eb6f04" x="170.672727" y="242.898164" style="fill: #fbb6bc; stroke: #fbb6bc"/>
     <use xlink:href="#m6197eb6f04" x="204.490909" y="242.842541" style="fill: #fbb6bc; stroke: #fbb6bc"/>
     <use xlink:href="#m6197eb6f04" x="238.309091" y="242.773011" style="fill: #fbb6bc; stroke: #fbb6bc"/>
     <use xlink:href="#m6197eb6f04" x="272.127273" y="242.856447" style="fill: #fbb6bc; stroke: #fbb6bc"/>
     <use xlink:href="#m6197eb6f04" x="305.945455" y="242.842541" style="fill: #fbb6bc; stroke: #fbb6bc"/>
     <use xlink:href="#m6197eb6f04" x="339.763636" y="242.856447" style="fill: #fbb6bc; stroke: #fbb6bc"/>
     <use xlink:href="#m6197eb6f04" x="373.581818" y="229.228667" style="fill: #fbb6bc; stroke: #fbb6bc"/>
    </g>
   </g>
   <g id="line2d_10">
    <path d="M 69.218182 242.939882 
L 103.036364 242.842541 
L 136.854545 242.91207 
L 170.672727 242.870353 
L 204.490909 242.925976 
L 238.309091 242.925976 
L 272.127273 242.884258 
L 305.945455 242.800823 
L 339.763636 242.620046 
L 373.581818 224.125202 
" clip-path="url(#pd0a3806c8b)" style="fill: none; stroke-dasharray: 11.1,4.8; stroke-dashoffset: 0; stroke: #f05a9e; stroke-width: 3"/>
    <defs>
     <path id="m16e81e35ec" d="M 0 3 
C 0.795609 3 1.55874 2.683901 2.12132 2.12132 
C 2.683901 1.55874 3 0.795609 3 0 
C 3 -0.795609 2.683901 -1.55874 2.12132 -2.12132 
C 1.55874 -2.683901 0.795609 -3 0 -3 
C -0.795609 -3 -1.55874 -2.683901 -2.12132 -2.12132 
C -2.683901 -1.55874 -3 -0.795609 -3 0 
C -3 0.795609 -2.683901 1.55874 -2.12132 2.12132 
C -1.55874 2.683901 -0.795609 3 0 3 
z
" style="stroke: #f05a9e"/>
    </defs>
    <g clip-path="url(#pd0a3806c8b)">
     <use xlink:href="#m16e81e35ec" x="69.218182" y="242.939882" style="fill: #f05a9e; stroke: #f05a9e"/>
     <use xlink:href="#m16e81e35ec" x="103.036364" y="242.842541" style="fill: #f05a9e; stroke: #f05a9e"/>
     <use xlink:href="#m16e81e35ec" x="136.854545" y="242.91207" style="fill: #f05a9e; stroke: #f05a9e"/>
     <use xlink:href="#m16e81e35ec" x="170.672727" y="242.870353" style="fill: #f05a9e; stroke: #f05a9e"/>
     <use xlink:href="#m16e81e35ec" x="204.490909" y="242.925976" style="fill: #f05a9e; stroke: #f05a9e"/>
     <use xlink:href="#m16e81e35ec" x="238.309091" y="242.925976" style="fill: #f05a9e; stroke: #f05a9e"/>
     <use xlink:href="#m16e81e35ec" x="272.127273" y="242.884258" style="fill: #f05a9e; stroke: #f05a9e"/>
     <use xlink:href="#m16e81e35ec" x="305.945455" y="242.800823" style="fill: #f05a9e; stroke: #f05a9e"/>
     <use xlink:href="#m16e81e35ec" x="339.763636" y="242.620046" style="fill: #f05a9e; stroke: #f05a9e"/>
     <use xlink:href="#m16e81e35ec" x="373.581818" y="224.125202" style="fill: #f05a9e; stroke: #f05a9e"/>
    </g>
   </g>
   <g id="line2d_11">
    <path d="M 69.218182 242.592235 
L 103.036364 242.43927 
L 136.854545 242.564423 
L 170.672727 242.355834 
L 204.490909 242.230681 
L 238.309091 241.869128 
L 272.127273 241.118209 
L 305.945455 239.755431 
L 339.763636 225.766098 
L 373.581818 118.607248 
" clip-path="url(#pd0a3806c8b)" style="fill: none; stroke-dasharray: 11.1,4.8; stroke-dashoffset: 0; stroke: #a6017d; stroke-width: 3"/>
    <defs>
     <path id="m27a8657634" d="M 0 3 
C 0.795609 3 1.55874 2.683901 2.12132 2.12132 
C 2.683901 1.55874 3 0.795609 3 0 
C 3 -0.795609 2.683901 -1.55874 2.12132 -2.12132 
C 1.55874 -2.683901 0.795609 -3 0 -3 
C -0.795609 -3 -1.55874 -2.683901 -2.12132 -2.12132 
C -2.683901 -1.55874 -3 -0.795609 -3 0 
C -3 0.795609 -2.683901 1.55874 -2.12132 2.12132 
C -1.55874 2.683901 -0.795609 3 0 3 
z
" style="stroke: #a6017d"/>
    </defs>
    <g clip-path="url(#pd0a3806c8b)">
     <use xlink:href="#m27a8657634" x="69.218182" y="242.592235" style="fill: #a6017d; stroke: #a6017d"/>
     <use xlink:href="#m27a8657634" x="103.036364" y="242.43927" style="fill: #a6017d; stroke: #a6017d"/>
     <use xlink:href="#m27a8657634" x="136.854545" y="242.564423" style="fill: #a6017d; stroke: #a6017d"/>
     <use xlink:href="#m27a8657634" x="170.672727" y="242.355834" style="fill: #a6017d; stroke: #a6017d"/>
     <use xlink:href="#m27a8657634" x="204.490909" y="242.230681" style="fill: #a6017d; stroke: #a6017d"/>
     <use xlink:href="#m27a8657634" x="238.309091" y="241.869128" style="fill: #a6017d; stroke: #a6017d"/>
     <use xlink:href="#m27a8657634" x="272.127273" y="241.118209" style="fill: #a6017d; stroke: #a6017d"/>
     <use xlink:href="#m27a8657634" x="305.945455" y="239.755431" style="fill: #a6017d; stroke: #a6017d"/>
     <use xlink:href="#m27a8657634" x="339.763636" y="225.766098" style="fill: #a6017d; stroke: #a6017d"/>
     <use xlink:href="#m27a8657634" x="373.581818" y="118.607248" style="fill: #a6017d; stroke: #a6017d"/>
    </g>
   </g>
   <g id="line2d_12">
    <path d="M 69.218182 71.311302 
L 103.036364 67.251059 
L 136.854545 71.724435 
L 170.672727 81.650427 
L 204.490909 108.22014 
L 238.309091 164.371558 
L 272.127273 176.386254 
L 305.945455 176.845149 
L 339.763636 163.982193 
L 373.581818 75.136269 
" clip-path="url(#pd0a3806c8b)" style="fill: none; stroke-dasharray: 11.1,4.8; stroke-dashoffset: 0; stroke: #49006a; stroke-width: 3"/>
    <defs>
     <path id="m6494ef3ccc" d="M 0 3 
C 0.795609 3 1.55874 2.683901 2.12132 2.12132 
C 2.683901 1.55874 3 0.795609 3 0 
C 3 -0.795609 2.683901 -1.55874 2.12132 -2.12132 
C 1.55874 -2.683901 0.795609 -3 0 -3 
C -0.795609 -3 -1.55874 -2.683901 -2.12132 -2.12132 
C -2.683901 -1.55874 -3 -0.795609 -3 0 
C -3 0.795609 -2.683901 1.55874 -2.12132 2.12132 
C -1.55874 2.683901 -0.795609 3 0 3 
z
" style="stroke: #49006a"/>
    </defs>
    <g clip-path="url(#pd0a3806c8b)">
     <use xlink:href="#m6494ef3ccc" x="69.218182" y="71.311302" style="fill: #49006a; stroke: #49006a"/>
     <use xlink:href="#m6494ef3ccc" x="103.036364" y="67.251059" style="fill: #49006a; stroke: #49006a"/>
     <use xlink:href="#m6494ef3ccc" x="136.854545" y="71.724435" style="fill: #49006a; stroke: #49006a"/>
     <use xlink:href="#m6494ef3ccc" x="170.672727" y="81.650427" style="fill: #49006a; stroke: #49006a"/>
     <use xlink:href="#m6494ef3ccc" x="204.490909" y="108.22014" style="fill: #49006a; stroke: #49006a"/>
     <use xlink:href="#m6494ef3ccc" x="238.309091" y="164.371558" style="fill: #49006a; stroke: #49006a"/>
     <use xlink:href="#m6494ef3ccc" x="272.127273" y="176.386254" style="fill: #49006a; stroke: #49006a"/>
     <use xlink:href="#m6494ef3ccc" x="305.945455" y="176.845149" style="fill: #49006a; stroke: #49006a"/>
     <use xlink:href="#m6494ef3ccc" x="339.763636" y="163.982193" style="fill: #49006a; stroke: #49006a"/>
     <use xlink:href="#m6494ef3ccc" x="373.581818" y="75.136269" style="fill: #49006a; stroke: #49006a"/>
    </g>
   </g>
   <g id="patch_3">
    <path d="M 54 252 
L 54 34.56 
" style="fill: none; stroke: #000000; stroke-width: 2; stroke-linejoin: miter; stroke-linecap: square"/>
   </g>
   <g id="patch_4">
    <path d="M 54 252 
L 388.8 252 
" style="fill: none; stroke: #000000; stroke-width: 2; stroke-linejoin: miter; stroke-linecap: square"/>
   </g>
   <g id="legend_1">
    <g id="LineCollection_5">
     <path d="M 76.435313 23.649187 
L 76.435313 5.649187 
" style="fill: none; stroke: #fbb6bc; stroke-width: 3"/>
    </g>
    <g id="line2d_13">
     <path d="M 58.435313 14.649187 
L 94.435313 14.649187 
" style="fill: none; stroke-dasharray: 11.1,4.8; stroke-dashoffset: 0; stroke: #fbb6bc; stroke-width: 3"/>
    </g>
    <g id="line2d_14">
     <g>
      <use xlink:href="#m6197eb6f04" x="76.435313" y="14.649187" style="fill: #fbb6bc; stroke: #fbb6bc"/>
     </g>
    </g>
    <g id="text_11">
     <!-- 0.8 -->
     <g transform="translate(108.835313 20.949187) scale(0.18 -0.18)">
      <defs>
       <path id="DejaVuSans-38" d="M 2034 2216 
Q 1584 2216 1326 1975 
Q 1069 1734 1069 1313 
Q 1069 891 1326 650 
Q 1584 409 2034 409 
Q 2484 409 2743 651 
Q 3003 894 3003 1313 
Q 3003 1734 2745 1975 
Q 2488 2216 2034 2216 
z
M 1403 2484 
Q 997 2584 770 2862 
Q 544 3141 544 3541 
Q 544 4100 942 4425 
Q 1341 4750 2034 4750 
Q 2731 4750 3128 4425 
Q 3525 4100 3525 3541 
Q 3525 3141 3298 2862 
Q 3072 2584 2669 2484 
Q 3125 2378 3379 2068 
Q 3634 1759 3634 1313 
Q 3634 634 3220 271 
Q 2806 -91 2034 -91 
Q 1263 -91 848 271 
Q 434 634 434 1313 
Q 434 1759 690 2068 
Q 947 2378 1403 2484 
z
M 1172 3481 
Q 1172 3119 1398 2916 
Q 1625 2713 2034 2713 
Q 2441 2713 2670 2916 
Q 2900 3119 2900 3481 
Q 2900 3844 2670 4047 
Q 2441 4250 2034 4250 
Q 1625 4250 1398 4047 
Q 1172 3844 1172 3481 
z
" transform="scale(0.015625)"/>
      </defs>
      <use xlink:href="#DejaVuSans-30"/>
      <use xlink:href="#DejaVuSans-2e" x="63.623047"/>
      <use xlink:href="#DejaVuSans-38" x="95.410156"/>
     </g>
    </g>
    <g id="LineCollection_6">
     <path d="M 164.460938 23.649187 
L 164.460938 5.649187 
" style="fill: none; stroke: #f05a9e; stroke-width: 3"/>
    </g>
    <g id="line2d_15">
     <path d="M 146.460938 14.649187 
L 182.460938 14.649187 
" style="fill: none; stroke-dasharray: 11.1,4.8; stroke-dashoffset: 0; stroke: #f05a9e; stroke-width: 3"/>
    </g>
    <g id="line2d_16">
     <g>
      <use xlink:href="#m16e81e35ec" x="164.460938" y="14.649187" style="fill: #f05a9e; stroke: #f05a9e"/>
     </g>
    </g>
    <g id="text_12">
     <!-- 1 -->
     <g transform="translate(196.860938 20.949187) scale(0.18 -0.18)">
      <use xlink:href="#DejaVuSans-31"/>
     </g>
    </g>
    <g id="LineCollection_7">
     <path d="M 235.313438 23.649187 
L 235.313438 5.649187 
" style="fill: none; stroke: #a6017d; stroke-width: 3"/>
    </g>
    <g id="line2d_17">
     <path d="M 217.313438 14.649187 
L 253.313438 14.649187 
" style="fill: none; stroke-dasharray: 11.1,4.8; stroke-dashoffset: 0; stroke: #a6017d; stroke-width: 3"/>
    </g>
    <g id="line2d_18">
     <g>
      <use xlink:href="#m27a8657634" x="235.313438" y="14.649187" style="fill: #a6017d; stroke: #a6017d"/>
     </g>
    </g>
    <g id="text_13">
     <!-- 1.5 -->
     <g transform="translate(267.713437 20.949187) scale(0.18 -0.18)">
      <use xlink:href="#DejaVuSans-31"/>
      <use xlink:href="#DejaVuSans-2e" x="63.623047"/>
      <use xlink:href="#DejaVuSans-35" x="95.410156"/>
     </g>
    </g>
    <g id="LineCollection_8">
     <path d="M 323.339063 23.649187 
L 323.339063 5.649187 
" style="fill: none; stroke: #49006a; stroke-width: 3"/>
    </g>
    <g id="line2d_19">
     <path d="M 305.339063 14.649187 
L 341.339063 14.649187 
" style="fill: none; stroke-dasharray: 11.1,4.8; stroke-dashoffset: 0; stroke: #49006a; stroke-width: 3"/>
    </g>
    <g id="line2d_20">
     <g>
      <use xlink:href="#m6494ef3ccc" x="323.339063" y="14.649187" style="fill: #49006a; stroke: #49006a"/>
     </g>
    </g>
    <g id="text_14">
     <!-- 2.2 -->
     <g transform="translate(355.739062 20.949187) scale(0.18 -0.18)">
      <use xlink:href="#DejaVuSans-32"/>
      <use xlink:href="#DejaVuSans-2e" x="63.623047"/>
      <use xlink:href="#DejaVuSans-32" x="95.410156"/>
     </g>
    </g>
   </g>
  </g>
  <g id="text_15">
   <!-- $k$ -->
   <g transform="translate(31.92 21.0225) scale(0.24 -0.24)">
    <defs>
     <path id="DejaVuSans-Oblique-6b" d="M 1172 4863 
L 1747 4863 
L 1197 2028 
L 3169 3500 
L 3916 3500 
L 1716 1825 
L 3322 0 
L 2625 0 
L 1131 1709 
L 800 0 
L 225 0 
L 1172 4863 
z
" transform="scale(0.015625)"/>
    </defs>
    <use xlink:href="#DejaVuSans-Oblique-6b" transform="translate(0 0.015625)"/>
   </g>
  </g>
 </g>
 <defs>
  <clipPath id="pd0a3806c8b">
   <rect x="54" y="34.56" width="334.8" height="217.44"/>
  </clipPath>
 </defs>
</svg>
