<?xml version="1.0" encoding="utf-8" standalone="no"?>
<!DOCTYPE svg PUBLIC "-//W3C//DTD SVG 1.1//EN"
  "http://www.w3.org/Graphics/SVG/1.1/DTD/svg11.dtd">
<svg xmlns:xlink="http://www.w3.org/1999/xlink" width="288pt" height="288pt" viewBox="0 0 288 288" xmlns="http://www.w3.org/2000/svg" version="1.1">
 <metadata>
  <rdf:RDF xmlns:dc="http://purl.org/dc/elements/1.1/" xmlns:cc="http://creativecommons.org/ns#" xmlns:rdf="http://www.w3.org/1999/02/22-rdf-syntax-ns#">
   <cc:Work>
    <dc:type rdf:resource="http://purl.org/dc/dcmitype/StillImage"/>
    <dc:date>2024-08-23T20:27:31.893634</dc:date>
    <dc:format>image/svg+xml</dc:format>
    <dc:creator>
     <cc:Agent>
      <dc:title>Matplotlib v3.8.4, https://matplotlib.org/</dc:title>
     </cc:Agent>
    </dc:creator>
   </cc:Work>
  </rdf:RDF>
 </metadata>
 <defs>
  <style type="text/css">*{stroke-linejoin: round; stroke-linecap: butt}</style>
 </defs>
 <g id="figure_1">
  <g id="patch_1">
   <path d="M 0 288 
L 288 288 
L 288 0 
L 0 0 
z
" style="fill: #ffffff"/>
  </g>
  <g id="axes_1">
   <g id="patch_2">
    <path d="M 36 252 
L 259.2 252 
L 259.2 34.56 
L 36 34.56 
z
" style="fill: #ffffff"/>
   </g>
   <g id="PathCollection_1">
    <defs>
     <path id="mfac58e3b2d" d="M 0 3 
C 0.795609 3 1.55874 2.683901 2.12132 2.12132 
C 2.683901 1.55874 3 0.795609 3 0 
C 3 -0.795609 2.683901 -1.55874 2.12132 -2.12132 
C 1.55874 -2.683901 0.795609 -3 0 -3 
C -0.795609 -3 -1.55874 -2.683901 -2.12132 -2.12132 
C -2.683901 -1.55874 -3 -0.795609 -3 0 
C -3 0.795609 -2.683901 1.55874 -2.12132 2.12132 
C -1.55874 2.683901 -0.795609 3 0 3 
z
" style="stroke: #1f77b4"/>
    </defs>
    <g clip-path="url(#pf0feeb6c96)">
     <use xlink:href="#mfac58e3b2d" x="116.811637" y="175.513051" style="fill: #1f77b4; stroke: #1f77b4"/>
     <use xlink:href="#mfac58e3b2d" x="223.204484" y="104.199475" style="fill: #1f77b4; stroke: #1f77b4"/>
     <use xlink:href="#mfac58e3b2d" x="167.907126" y="124.589914" style="fill: #1f77b4; stroke: #1f77b4"/>
     <use xlink:href="#mfac58e3b2d" x="179.216939" y="111.071372" style="fill: #1f77b4; stroke: #1f77b4"/>
     <use xlink:href="#mfac58e3b2d" x="156.720095" y="133.363942" style="fill: #1f77b4; stroke: #1f77b4"/>
     <use xlink:href="#mfac58e3b2d" x="213.752729" y="69.631929" style="fill: #1f77b4; stroke: #1f77b4"/>
     <use xlink:href="#mfac58e3b2d" x="162.434634" y="129.103387" style="fill: #1f77b4; stroke: #1f77b4"/>
     <use xlink:href="#mfac58e3b2d" x="124.790662" y="162.342566" style="fill: #1f77b4; stroke: #1f77b4"/>
     <use xlink:href="#mfac58e3b2d" x="128.694774" y="204.093296" style="fill: #1f77b4; stroke: #1f77b4"/>
     <use xlink:href="#mfac58e3b2d" x="125.347005" y="163.919398" style="fill: #1f77b4; stroke: #1f77b4"/>
     <use xlink:href="#mfac58e3b2d" x="230.776268" y="60.966321" style="fill: #1f77b4; stroke: #1f77b4"/>
     <use xlink:href="#mfac58e3b2d" x="139.543027" y="163.315344" style="fill: #1f77b4; stroke: #1f77b4"/>
     <use xlink:href="#mfac58e3b2d" x="120.511633" y="176.834673" style="fill: #1f77b4; stroke: #1f77b4"/>
     <use xlink:href="#mfac58e3b2d" x="189.316985" y="65.858775" style="fill: #1f77b4; stroke: #1f77b4"/>
     <use xlink:href="#mfac58e3b2d" x="112.752689" y="181.343247" style="fill: #1f77b4; stroke: #1f77b4"/>
     <use xlink:href="#mfac58e3b2d" x="221.517576" y="102.762615" style="fill: #1f77b4; stroke: #1f77b4"/>
     <use xlink:href="#mfac58e3b2d" x="181.480649" y="114.289936" style="fill: #1f77b4; stroke: #1f77b4"/>
     <use xlink:href="#mfac58e3b2d" x="116.179401" y="172.299684" style="fill: #1f77b4; stroke: #1f77b4"/>
     <use xlink:href="#mfac58e3b2d" x="154.921311" y="137.342586" style="fill: #1f77b4; stroke: #1f77b4"/>
     <use xlink:href="#mfac58e3b2d" x="190.026402" y="110.954279" style="fill: #1f77b4; stroke: #1f77b4"/>
     <use xlink:href="#mfac58e3b2d" x="237.103071" y="71.235797" style="fill: #1f77b4; stroke: #1f77b4"/>
     <use xlink:href="#mfac58e3b2d" x="168.346861" y="126.501935" style="fill: #1f77b4; stroke: #1f77b4"/>
     <use xlink:href="#mfac58e3b2d" x="186.38117" y="102.110711" style="fill: #1f77b4; stroke: #1f77b4"/>
     <use xlink:href="#mfac58e3b2d" x="151.922147" y="144.480636" style="fill: #1f77b4; stroke: #1f77b4"/>
     <use xlink:href="#mfac58e3b2d" x="123.491288" y="107.627075" style="fill: #1f77b4; stroke: #1f77b4"/>
     <use xlink:href="#mfac58e3b2d" x="144.770461" y="144.720769" style="fill: #1f77b4; stroke: #1f77b4"/>
     <use xlink:href="#mfac58e3b2d" x="177.935131" y="112.596244" style="fill: #1f77b4; stroke: #1f77b4"/>
     <use xlink:href="#mfac58e3b2d" x="112.40107" y="195.858427" style="fill: #1f77b4; stroke: #1f77b4"/>
     <use xlink:href="#mfac58e3b2d" x="198.753539" y="99.26427" style="fill: #1f77b4; stroke: #1f77b4"/>
     <use xlink:href="#mfac58e3b2d" x="143.252555" y="154.055552" style="fill: #1f77b4; stroke: #1f77b4"/>
     <use xlink:href="#mfac58e3b2d" x="172.291094" y="118.803525" style="fill: #1f77b4; stroke: #1f77b4"/>
     <use xlink:href="#mfac58e3b2d" x="234.592566" y="61.809022" style="fill: #1f77b4; stroke: #1f77b4"/>
     <use xlink:href="#mfac58e3b2d" x="113.920749" y="182.127464" style="fill: #1f77b4; stroke: #1f77b4"/>
     <use xlink:href="#mfac58e3b2d" x="227.315084" y="60.09732" style="fill: #1f77b4; stroke: #1f77b4"/>
     <use xlink:href="#mfac58e3b2d" x="161.93177" y="138.300222" style="fill: #1f77b4; stroke: #1f77b4"/>
     <use xlink:href="#mfac58e3b2d" x="191.124065" y="105.779645" style="fill: #1f77b4; stroke: #1f77b4"/>
     <use xlink:href="#mfac58e3b2d" x="151.145805" y="139.51142" style="fill: #1f77b4; stroke: #1f77b4"/>
     <use xlink:href="#mfac58e3b2d" x="188.527886" y="91.913965" style="fill: #1f77b4; stroke: #1f77b4"/>
     <use xlink:href="#mfac58e3b2d" x="229.408211" y="68.969248" style="fill: #1f77b4; stroke: #1f77b4"/>
     <use xlink:href="#mfac58e3b2d" x="236.13746" y="48.244462" style="fill: #1f77b4; stroke: #1f77b4"/>
     <use xlink:href="#mfac58e3b2d" x="150.305145" y="133.636045" style="fill: #1f77b4; stroke: #1f77b4"/>
     <use xlink:href="#mfac58e3b2d" x="192.68412" y="94.2339" style="fill: #1f77b4; stroke: #1f77b4"/>
     <use xlink:href="#mfac58e3b2d" x="214.297433" y="75.996376" style="fill: #1f77b4; stroke: #1f77b4"/>
     <use xlink:href="#mfac58e3b2d" x="144.838503" y="118.036627" style="fill: #1f77b4; stroke: #1f77b4"/>
     <use xlink:href="#mfac58e3b2d" x="235.232479" y="67.495135" style="fill: #1f77b4; stroke: #1f77b4"/>
     <use xlink:href="#mfac58e3b2d" x="240.85965" y="96.877741" style="fill: #1f77b4; stroke: #1f77b4"/>
     <use xlink:href="#mfac58e3b2d" x="167.231601" y="119.913291" style="fill: #1f77b4; stroke: #1f77b4"/>
     <use xlink:href="#mfac58e3b2d" x="238.524333" y="60.395096" style="fill: #1f77b4; stroke: #1f77b4"/>
     <use xlink:href="#mfac58e3b2d" x="177.670414" y="109.144827" style="fill: #1f77b4; stroke: #1f77b4"/>
     <use xlink:href="#mfac58e3b2d" x="133.723181" y="167.061653" style="fill: #1f77b4; stroke: #1f77b4"/>
     <use xlink:href="#mfac58e3b2d" x="128.332887" y="118.036627" style="fill: #1f77b4; stroke: #1f77b4"/>
     <use xlink:href="#mfac58e3b2d" x="122.784324" y="165.921397" style="fill: #1f77b4; stroke: #1f77b4"/>
     <use xlink:href="#mfac58e3b2d" x="118.09446" y="198.739453" style="fill: #1f77b4; stroke: #1f77b4"/>
     <use xlink:href="#mfac58e3b2d" x="237.672769" y="53.830487" style="fill: #1f77b4; stroke: #1f77b4"/>
     <use xlink:href="#mfac58e3b2d" x="184.495275" y="108.592659" style="fill: #1f77b4; stroke: #1f77b4"/>
     <use xlink:href="#mfac58e3b2d" x="177.439745" y="111.04202" style="fill: #1f77b4; stroke: #1f77b4"/>
     <use xlink:href="#mfac58e3b2d" x="115.626727" y="177.350859" style="fill: #1f77b4; stroke: #1f77b4"/>
     <use xlink:href="#mfac58e3b2d" x="226.503378" y="66.048046" style="fill: #1f77b4; stroke: #1f77b4"/>
     <use xlink:href="#mfac58e3b2d" x="234.394159" y="63.772133" style="fill: #1f77b4; stroke: #1f77b4"/>
     <use xlink:href="#mfac58e3b2d" x="236.922741" y="50.869481" style="fill: #1f77b4; stroke: #1f77b4"/>
     <use xlink:href="#mfac58e3b2d" x="191.036964" y="110.865665" style="fill: #1f77b4; stroke: #1f77b4"/>
     <use xlink:href="#mfac58e3b2d" x="159.578076" y="131.875535" style="fill: #1f77b4; stroke: #1f77b4"/>
     <use xlink:href="#mfac58e3b2d" x="177.498471" y="106.711684" style="fill: #1f77b4; stroke: #1f77b4"/>
     <use xlink:href="#mfac58e3b2d" x="241.748494" y="46.751948" style="fill: #1f77b4; stroke: #1f77b4"/>
     <use xlink:href="#mfac58e3b2d" x="189.683361" y="98.29791" style="fill: #1f77b4; stroke: #1f77b4"/>
     <use xlink:href="#mfac58e3b2d" x="223.604554" y="77.424712" style="fill: #1f77b4; stroke: #1f77b4"/>
     <use xlink:href="#mfac58e3b2d" x="232.298977" y="50.451615" style="fill: #1f77b4; stroke: #1f77b4"/>
     <use xlink:href="#mfac58e3b2d" x="238.711067" y="55.287966" style="fill: #1f77b4; stroke: #1f77b4"/>
     <use xlink:href="#mfac58e3b2d" x="161.887454" y="136.767035" style="fill: #1f77b4; stroke: #1f77b4"/>
     <use xlink:href="#mfac58e3b2d" x="238.822365" y="60.899276" style="fill: #1f77b4; stroke: #1f77b4"/>
     <use xlink:href="#mfac58e3b2d" x="131.8841" y="239.917056" style="fill: #1f77b4; stroke: #1f77b4"/>
     <use xlink:href="#mfac58e3b2d" x="151.645025" y="129.947123" style="fill: #1f77b4; stroke: #1f77b4"/>
     <use xlink:href="#mfac58e3b2d" x="118.329251" y="167.155148" style="fill: #1f77b4; stroke: #1f77b4"/>
     <use xlink:href="#mfac58e3b2d" x="184.51201" y="113.368624" style="fill: #1f77b4; stroke: #1f77b4"/>
     <use xlink:href="#mfac58e3b2d" x="187.659599" y="107.295501" style="fill: #1f77b4; stroke: #1f77b4"/>
     <use xlink:href="#mfac58e3b2d" x="179.390133" y="142.38764" style="fill: #1f77b4; stroke: #1f77b4"/>
     <use xlink:href="#mfac58e3b2d" x="186.221854" y="105.645616" style="fill: #1f77b4; stroke: #1f77b4"/>
     <use xlink:href="#mfac58e3b2d" x="205.351085" y="65.752623" style="fill: #1f77b4; stroke: #1f77b4"/>
     <use xlink:href="#mfac58e3b2d" x="225.812273" y="105.333725" style="fill: #1f77b4; stroke: #1f77b4"/>
     <use xlink:href="#mfac58e3b2d" x="186.236888" y="74.597357" style="fill: #1f77b4; stroke: #1f77b4"/>
     <use xlink:href="#mfac58e3b2d" x="169.611505" y="122.944557" style="fill: #1f77b4; stroke: #1f77b4"/>
     <use xlink:href="#mfac58e3b2d" x="218.199782" y="75.486801" style="fill: #1f77b4; stroke: #1f77b4"/>
     <use xlink:href="#mfac58e3b2d" x="147.009066" y="163.315344" style="fill: #1f77b4; stroke: #1f77b4"/>
     <use xlink:href="#mfac58e3b2d" x="149.285003" y="136.996357" style="fill: #1f77b4; stroke: #1f77b4"/>
     <use xlink:href="#mfac58e3b2d" x="132.891402" y="151.636858" style="fill: #1f77b4; stroke: #1f77b4"/>
     <use xlink:href="#mfac58e3b2d" x="141.282076" y="145.129823" style="fill: #1f77b4; stroke: #1f77b4"/>
     <use xlink:href="#mfac58e3b2d" x="181.086589" y="105.590787" style="fill: #1f77b4; stroke: #1f77b4"/>
     <use xlink:href="#mfac58e3b2d" x="144.520236" y="140.369541" style="fill: #1f77b4; stroke: #1f77b4"/>
     <use xlink:href="#mfac58e3b2d" x="166.45328" y="120.62497" style="fill: #1f77b4; stroke: #1f77b4"/>
     <use xlink:href="#mfac58e3b2d" x="129.670515" y="162.626134" style="fill: #1f77b4; stroke: #1f77b4"/>
     <use xlink:href="#mfac58e3b2d" x="233.608622" y="57.382253" style="fill: #1f77b4; stroke: #1f77b4"/>
     <use xlink:href="#mfac58e3b2d" x="133.414635" y="158.307565" style="fill: #1f77b4; stroke: #1f77b4"/>
     <use xlink:href="#mfac58e3b2d" x="244.997011" y="49.157383" style="fill: #1f77b4; stroke: #1f77b4"/>
     <use xlink:href="#mfac58e3b2d" x="203.219455" y="47.830801" style="fill: #1f77b4; stroke: #1f77b4"/>
     <use xlink:href="#mfac58e3b2d" x="157.174602" y="129.228688" style="fill: #1f77b4; stroke: #1f77b4"/>
     <use xlink:href="#mfac58e3b2d" x="242.4204" y="51.29225" style="fill: #1f77b4; stroke: #1f77b4"/>
     <use xlink:href="#mfac58e3b2d" x="164.151884" y="131.708565" style="fill: #1f77b4; stroke: #1f77b4"/>
     <use xlink:href="#mfac58e3b2d" x="177.85483" y="109.21583" style="fill: #1f77b4; stroke: #1f77b4"/>
     <use xlink:href="#mfac58e3b2d" x="224.307515" y="85.165168" style="fill: #1f77b4; stroke: #1f77b4"/>
     <use xlink:href="#mfac58e3b2d" x="115.783479" y="163.315344" style="fill: #1f77b4; stroke: #1f77b4"/>
     <use xlink:href="#mfac58e3b2d" x="153.133367" y="138.648232" style="fill: #1f77b4; stroke: #1f77b4"/>
     <use xlink:href="#mfac58e3b2d" x="236.515186" y="54.764444" style="fill: #1f77b4; stroke: #1f77b4"/>
     <use xlink:href="#mfac58e3b2d" x="161.501905" y="121.523827" style="fill: #1f77b4; stroke: #1f77b4"/>
     <use xlink:href="#mfac58e3b2d" x="238.418048" y="49.716614" style="fill: #1f77b4; stroke: #1f77b4"/>
     <use xlink:href="#mfac58e3b2d" x="166.171546" y="127.267467" style="fill: #1f77b4; stroke: #1f77b4"/>
     <use xlink:href="#mfac58e3b2d" x="118.270019" y="171.620042" style="fill: #1f77b4; stroke: #1f77b4"/>
     <use xlink:href="#mfac58e3b2d" x="133.294589" y="159.855528" style="fill: #1f77b4; stroke: #1f77b4"/>
     <use xlink:href="#mfac58e3b2d" x="163.808519" y="137.905357" style="fill: #1f77b4; stroke: #1f77b4"/>
     <use xlink:href="#mfac58e3b2d" x="210.050809" y="92.21815" style="fill: #1f77b4; stroke: #1f77b4"/>
     <use xlink:href="#mfac58e3b2d" x="185.74968" y="105.39586" style="fill: #1f77b4; stroke: #1f77b4"/>
     <use xlink:href="#mfac58e3b2d" x="119.793266" y="169.910204" style="fill: #1f77b4; stroke: #1f77b4"/>
     <use xlink:href="#mfac58e3b2d" x="142.873375" y="141.564712" style="fill: #1f77b4; stroke: #1f77b4"/>
     <use xlink:href="#mfac58e3b2d" x="244.612413" y="54.050225" style="fill: #1f77b4; stroke: #1f77b4"/>
     <use xlink:href="#mfac58e3b2d" x="209.386071" y="94.143758" style="fill: #1f77b4; stroke: #1f77b4"/>
     <use xlink:href="#mfac58e3b2d" x="117.92497" y="173.514692" style="fill: #1f77b4; stroke: #1f77b4"/>
     <use xlink:href="#mfac58e3b2d" x="236.840393" y="59.783396" style="fill: #1f77b4; stroke: #1f77b4"/>
     <use xlink:href="#mfac58e3b2d" x="245.553394" y="52.012204" style="fill: #1f77b4; stroke: #1f77b4"/>
     <use xlink:href="#mfac58e3b2d" x="186.943376" y="117.026178" style="fill: #1f77b4; stroke: #1f77b4"/>
     <use xlink:href="#mfac58e3b2d" x="114.604697" y="189.083024" style="fill: #1f77b4; stroke: #1f77b4"/>
     <use xlink:href="#mfac58e3b2d" x="197.456359" y="102.87853" style="fill: #1f77b4; stroke: #1f77b4"/>
     <use xlink:href="#mfac58e3b2d" x="170.061197" y="120.655355" style="fill: #1f77b4; stroke: #1f77b4"/>
     <use xlink:href="#mfac58e3b2d" x="161.765065" y="123.71936" style="fill: #1f77b4; stroke: #1f77b4"/>
     <use xlink:href="#mfac58e3b2d" x="144.346541" y="161.422577" style="fill: #1f77b4; stroke: #1f77b4"/>
     <use xlink:href="#mfac58e3b2d" x="185.86198" y="117.333801" style="fill: #1f77b4; stroke: #1f77b4"/>
     <use xlink:href="#mfac58e3b2d" x="140.532382" y="153.838635" style="fill: #1f77b4; stroke: #1f77b4"/>
     <use xlink:href="#mfac58e3b2d" x="147.835791" y="149.913605" style="fill: #1f77b4; stroke: #1f77b4"/>
     <use xlink:href="#mfac58e3b2d" x="231.330049" y="56.242879" style="fill: #1f77b4; stroke: #1f77b4"/>
     <use xlink:href="#mfac58e3b2d" x="122.6724" y="168.437701" style="fill: #1f77b4; stroke: #1f77b4"/>
     <use xlink:href="#mfac58e3b2d" x="172.034865" y="115.717858" style="fill: #1f77b4; stroke: #1f77b4"/>
     <use xlink:href="#mfac58e3b2d" x="134.454697" y="205.660599" style="fill: #1f77b4; stroke: #1f77b4"/>
     <use xlink:href="#mfac58e3b2d" x="236.802285" y="57.342642" style="fill: #1f77b4; stroke: #1f77b4"/>
     <use xlink:href="#mfac58e3b2d" x="234.874493" y="66.68184" style="fill: #1f77b4; stroke: #1f77b4"/>
     <use xlink:href="#mfac58e3b2d" x="164.926956" y="134.222486" style="fill: #1f77b4; stroke: #1f77b4"/>
     <use xlink:href="#mfac58e3b2d" x="175.962957" y="123.382638" style="fill: #1f77b4; stroke: #1f77b4"/>
     <use xlink:href="#mfac58e3b2d" x="156.571782" y="138.750273" style="fill: #1f77b4; stroke: #1f77b4"/>
     <use xlink:href="#mfac58e3b2d" x="142.049617" y="143.348957" style="fill: #1f77b4; stroke: #1f77b4"/>
     <use xlink:href="#mfac58e3b2d" x="212.84425" y="72.126233" style="fill: #1f77b4; stroke: #1f77b4"/>
     <use xlink:href="#mfac58e3b2d" x="158.457759" y="127.913645" style="fill: #1f77b4; stroke: #1f77b4"/>
     <use xlink:href="#mfac58e3b2d" x="229.009651" y="65.343826" style="fill: #1f77b4; stroke: #1f77b4"/>
     <use xlink:href="#mfac58e3b2d" x="237.887406" y="60.496314" style="fill: #1f77b4; stroke: #1f77b4"/>
     <use xlink:href="#mfac58e3b2d" x="208.607623" y="86.069551" style="fill: #1f77b4; stroke: #1f77b4"/>
     <use xlink:href="#mfac58e3b2d" x="208.185103" y="92.186605" style="fill: #1f77b4; stroke: #1f77b4"/>
     <use xlink:href="#mfac58e3b2d" x="120.52697" y="192.101557" style="fill: #1f77b4; stroke: #1f77b4"/>
     <use xlink:href="#mfac58e3b2d" x="198.621402" y="95.349574" style="fill: #1f77b4; stroke: #1f77b4"/>
     <use xlink:href="#mfac58e3b2d" x="119.401043" y="163.389475" style="fill: #1f77b4; stroke: #1f77b4"/>
     <use xlink:href="#mfac58e3b2d" x="186.355328" y="106.85944" style="fill: #1f77b4; stroke: #1f77b4"/>
     <use xlink:href="#mfac58e3b2d" x="181.996271" y="102.233252" style="fill: #1f77b4; stroke: #1f77b4"/>
     <use xlink:href="#mfac58e3b2d" x="207.604679" y="83.431542" style="fill: #1f77b4; stroke: #1f77b4"/>
     <use xlink:href="#mfac58e3b2d" x="168.328001" y="163.315344" style="fill: #1f77b4; stroke: #1f77b4"/>
     <use xlink:href="#mfac58e3b2d" x="150.590569" y="146.484542" style="fill: #1f77b4; stroke: #1f77b4"/>
     <use xlink:href="#mfac58e3b2d" x="165.914592" y="132.379045" style="fill: #1f77b4; stroke: #1f77b4"/>
     <use xlink:href="#mfac58e3b2d" x="181.682662" y="107.324917" style="fill: #1f77b4; stroke: #1f77b4"/>
     <use xlink:href="#mfac58e3b2d" x="223.618428" y="93.939962" style="fill: #1f77b4; stroke: #1f77b4"/>
     <use xlink:href="#mfac58e3b2d" x="135.45421" y="145.257775" style="fill: #1f77b4; stroke: #1f77b4"/>
     <use xlink:href="#mfac58e3b2d" x="192.283916" y="101.815905" style="fill: #1f77b4; stroke: #1f77b4"/>
     <use xlink:href="#mfac58e3b2d" x="166.237278" y="121.893828" style="fill: #1f77b4; stroke: #1f77b4"/>
     <use xlink:href="#mfac58e3b2d" x="121.951474" y="167.006577" style="fill: #1f77b4; stroke: #1f77b4"/>
     <use xlink:href="#mfac58e3b2d" x="150.176905" y="162.105394" style="fill: #1f77b4; stroke: #1f77b4"/>
     <use xlink:href="#mfac58e3b2d" x="184.125587" y="117.333801" style="fill: #1f77b4; stroke: #1f77b4"/>
     <use xlink:href="#mfac58e3b2d" x="247.220874" y="51.079589" style="fill: #1f77b4; stroke: #1f77b4"/>
     <use xlink:href="#mfac58e3b2d" x="155.313935" y="130.362202" style="fill: #1f77b4; stroke: #1f77b4"/>
     <use xlink:href="#mfac58e3b2d" x="168.564853" y="119.238451" style="fill: #1f77b4; stroke: #1f77b4"/>
     <use xlink:href="#mfac58e3b2d" x="241.972588" y="62.441386" style="fill: #1f77b4; stroke: #1f77b4"/>
     <use xlink:href="#mfac58e3b2d" x="128.106136" y="162.159763" style="fill: #1f77b4; stroke: #1f77b4"/>
     <use xlink:href="#mfac58e3b2d" x="120.714392" y="170.8876" style="fill: #1f77b4; stroke: #1f77b4"/>
     <use xlink:href="#mfac58e3b2d" x="221.838994" y="72.579341" style="fill: #1f77b4; stroke: #1f77b4"/>
     <use xlink:href="#mfac58e3b2d" x="192.960053" y="102.474028" style="fill: #1f77b4; stroke: #1f77b4"/>
     <use xlink:href="#mfac58e3b2d" x="124.902602" y="172.042617" style="fill: #1f77b4; stroke: #1f77b4"/>
     <use xlink:href="#mfac58e3b2d" x="141.663125" y="145.203289" style="fill: #1f77b4; stroke: #1f77b4"/>
     <use xlink:href="#mfac58e3b2d" x="113.867544" y="163.315344" style="fill: #1f77b4; stroke: #1f77b4"/>
     <use xlink:href="#mfac58e3b2d" x="190.59645" y="116.203506" style="fill: #1f77b4; stroke: #1f77b4"/>
     <use xlink:href="#mfac58e3b2d" x="168.749676" y="117.830877" style="fill: #1f77b4; stroke: #1f77b4"/>
     <use xlink:href="#mfac58e3b2d" x="128.285367" y="157.665047" style="fill: #1f77b4; stroke: #1f77b4"/>
     <use xlink:href="#mfac58e3b2d" x="120.321388" y="173.649432" style="fill: #1f77b4; stroke: #1f77b4"/>
     <use xlink:href="#mfac58e3b2d" x="170.021161" y="141.998902" style="fill: #1f77b4; stroke: #1f77b4"/>
     <use xlink:href="#mfac58e3b2d" x="125.99121" y="168.313926" style="fill: #1f77b4; stroke: #1f77b4"/>
     <use xlink:href="#mfac58e3b2d" x="235.248604" y="57.527733" style="fill: #1f77b4; stroke: #1f77b4"/>
     <use xlink:href="#mfac58e3b2d" x="124.061075" y="165.550972" style="fill: #1f77b4; stroke: #1f77b4"/>
     <use xlink:href="#mfac58e3b2d" x="202.400868" y="89.144815" style="fill: #1f77b4; stroke: #1f77b4"/>
     <use xlink:href="#mfac58e3b2d" x="144.899754" y="148.881605" style="fill: #1f77b4; stroke: #1f77b4"/>
     <use xlink:href="#mfac58e3b2d" x="203.967439" y="83.763567" style="fill: #1f77b4; stroke: #1f77b4"/>
     <use xlink:href="#mfac58e3b2d" x="190.190217" y="105.11936" style="fill: #1f77b4; stroke: #1f77b4"/>
     <use xlink:href="#mfac58e3b2d" x="220.666772" y="77.579157" style="fill: #1f77b4; stroke: #1f77b4"/>
     <use xlink:href="#mfac58e3b2d" x="160.824998" y="121.535413" style="fill: #1f77b4; stroke: #1f77b4"/>
     <use xlink:href="#mfac58e3b2d" x="201.594439" y="81.211367" style="fill: #1f77b4; stroke: #1f77b4"/>
     <use xlink:href="#mfac58e3b2d" x="126.318447" y="167.390613" style="fill: #1f77b4; stroke: #1f77b4"/>
     <use xlink:href="#mfac58e3b2d" x="230.918587" y="44.914286" style="fill: #1f77b4; stroke: #1f77b4"/>
     <use xlink:href="#mfac58e3b2d" x="146.506701" y="127.625575" style="fill: #1f77b4; stroke: #1f77b4"/>
     <use xlink:href="#mfac58e3b2d" x="135.829486" y="154.047002" style="fill: #1f77b4; stroke: #1f77b4"/>
     <use xlink:href="#mfac58e3b2d" x="211.954664" y="73.771583" style="fill: #1f77b4; stroke: #1f77b4"/>
     <use xlink:href="#mfac58e3b2d" x="171.448565" y="129.361337" style="fill: #1f77b4; stroke: #1f77b4"/>
     <use xlink:href="#mfac58e3b2d" x="239.825054" y="67.353726" style="fill: #1f77b4; stroke: #1f77b4"/>
     <use xlink:href="#mfac58e3b2d" x="148.897193" y="141.232343" style="fill: #1f77b4; stroke: #1f77b4"/>
     <use xlink:href="#mfac58e3b2d" x="200.306296" y="78.843068" style="fill: #1f77b4; stroke: #1f77b4"/>
     <use xlink:href="#mfac58e3b2d" x="187.459817" y="105.385031" style="fill: #1f77b4; stroke: #1f77b4"/>
     <use xlink:href="#mfac58e3b2d" x="200.548901" y="80.222056" style="fill: #1f77b4; stroke: #1f77b4"/>
     <use xlink:href="#mfac58e3b2d" x="168.236484" y="128.353513" style="fill: #1f77b4; stroke: #1f77b4"/>
     <use xlink:href="#mfac58e3b2d" x="141.327871" y="149.351573" style="fill: #1f77b4; stroke: #1f77b4"/>
     <use xlink:href="#mfac58e3b2d" x="119.50422" y="172.152984" style="fill: #1f77b4; stroke: #1f77b4"/>
     <use xlink:href="#mfac58e3b2d" x="119.265644" y="179.144532" style="fill: #1f77b4; stroke: #1f77b4"/>
     <use xlink:href="#mfac58e3b2d" x="177.137495" y="110.651391" style="fill: #1f77b4; stroke: #1f77b4"/>
     <use xlink:href="#mfac58e3b2d" x="117.48164" y="172.883511" style="fill: #1f77b4; stroke: #1f77b4"/>
     <use xlink:href="#mfac58e3b2d" x="235.660706" y="55.375" style="fill: #1f77b4; stroke: #1f77b4"/>
     <use xlink:href="#mfac58e3b2d" x="159.494314" y="163.315344" style="fill: #1f77b4; stroke: #1f77b4"/>
     <use xlink:href="#mfac58e3b2d" x="172.787435" y="127.629362" style="fill: #1f77b4; stroke: #1f77b4"/>
     <use xlink:href="#mfac58e3b2d" x="129.951789" y="153.482897" style="fill: #1f77b4; stroke: #1f77b4"/>
     <use xlink:href="#mfac58e3b2d" x="135.568078" y="139.845205" style="fill: #1f77b4; stroke: #1f77b4"/>
     <use xlink:href="#mfac58e3b2d" x="144.997207" y="148.717145" style="fill: #1f77b4; stroke: #1f77b4"/>
     <use xlink:href="#mfac58e3b2d" x="226.818123" y="66.757409" style="fill: #1f77b4; stroke: #1f77b4"/>
     <use xlink:href="#mfac58e3b2d" x="221.404249" y="72.005578" style="fill: #1f77b4; stroke: #1f77b4"/>
     <use xlink:href="#mfac58e3b2d" x="222.917909" y="80.529883" style="fill: #1f77b4; stroke: #1f77b4"/>
     <use xlink:href="#mfac58e3b2d" x="164.748271" y="132.764014" style="fill: #1f77b4; stroke: #1f77b4"/>
     <use xlink:href="#mfac58e3b2d" x="226.896662" y="69.309898" style="fill: #1f77b4; stroke: #1f77b4"/>
     <use xlink:href="#mfac58e3b2d" x="197.914994" y="105.495684" style="fill: #1f77b4; stroke: #1f77b4"/>
     <use xlink:href="#mfac58e3b2d" x="193.36639" y="94.406587" style="fill: #1f77b4; stroke: #1f77b4"/>
     <use xlink:href="#mfac58e3b2d" x="170.399576" y="122.676534" style="fill: #1f77b4; stroke: #1f77b4"/>
     <use xlink:href="#mfac58e3b2d" x="111.864678" y="189.767345" style="fill: #1f77b4; stroke: #1f77b4"/>
     <use xlink:href="#mfac58e3b2d" x="133.685113" y="155.338181" style="fill: #1f77b4; stroke: #1f77b4"/>
     <use xlink:href="#mfac58e3b2d" x="245.032829" y="49.681611" style="fill: #1f77b4; stroke: #1f77b4"/>
     <use xlink:href="#mfac58e3b2d" x="153.048603" y="113.796487" style="fill: #1f77b4; stroke: #1f77b4"/>
     <use xlink:href="#mfac58e3b2d" x="182.823048" y="109.798762" style="fill: #1f77b4; stroke: #1f77b4"/>
     <use xlink:href="#mfac58e3b2d" x="192.586455" y="103.638899" style="fill: #1f77b4; stroke: #1f77b4"/>
     <use xlink:href="#mfac58e3b2d" x="181.474468" y="111.250999" style="fill: #1f77b4; stroke: #1f77b4"/>
     <use xlink:href="#mfac58e3b2d" x="185.019111" y="150.340535" style="fill: #1f77b4; stroke: #1f77b4"/>
     <use xlink:href="#mfac58e3b2d" x="126.554882" y="167.285212" style="fill: #1f77b4; stroke: #1f77b4"/>
     <use xlink:href="#mfac58e3b2d" x="120.623027" y="172.077185" style="fill: #1f77b4; stroke: #1f77b4"/>
     <use xlink:href="#mfac58e3b2d" x="218.520524" y="74.589675" style="fill: #1f77b4; stroke: #1f77b4"/>
     <use xlink:href="#mfac58e3b2d" x="147.856499" y="218.044391" style="fill: #1f77b4; stroke: #1f77b4"/>
     <use xlink:href="#mfac58e3b2d" x="161.905799" y="132.942802" style="fill: #1f77b4; stroke: #1f77b4"/>
     <use xlink:href="#mfac58e3b2d" x="241.382856" y="51.409424" style="fill: #1f77b4; stroke: #1f77b4"/>
     <use xlink:href="#mfac58e3b2d" x="126.725562" y="163.712625" style="fill: #1f77b4; stroke: #1f77b4"/>
     <use xlink:href="#mfac58e3b2d" x="138.16306" y="154.332513" style="fill: #1f77b4; stroke: #1f77b4"/>
     <use xlink:href="#mfac58e3b2d" x="177.465517" y="109.964145" style="fill: #1f77b4; stroke: #1f77b4"/>
     <use xlink:href="#mfac58e3b2d" x="118.308761" y="171.155936" style="fill: #1f77b4; stroke: #1f77b4"/>
     <use xlink:href="#mfac58e3b2d" x="182.175389" y="101.616131" style="fill: #1f77b4; stroke: #1f77b4"/>
     <use xlink:href="#mfac58e3b2d" x="231.614867" y="53.095394" style="fill: #1f77b4; stroke: #1f77b4"/>
     <use xlink:href="#mfac58e3b2d" x="138.148226" y="154.095898" style="fill: #1f77b4; stroke: #1f77b4"/>
     <use xlink:href="#mfac58e3b2d" x="146.552096" y="150.861299" style="fill: #1f77b4; stroke: #1f77b4"/>
     <use xlink:href="#mfac58e3b2d" x="113.839944" y="174.805668" style="fill: #1f77b4; stroke: #1f77b4"/>
     <use xlink:href="#mfac58e3b2d" x="191.687514" y="103.370405" style="fill: #1f77b4; stroke: #1f77b4"/>
     <use xlink:href="#mfac58e3b2d" x="135.144951" y="161.778228" style="fill: #1f77b4; stroke: #1f77b4"/>
     <use xlink:href="#mfac58e3b2d" x="162.738635" y="140.536922" style="fill: #1f77b4; stroke: #1f77b4"/>
     <use xlink:href="#mfac58e3b2d" x="169.779602" y="133.262258" style="fill: #1f77b4; stroke: #1f77b4"/>
     <use xlink:href="#mfac58e3b2d" x="225.466285" y="65.101596" style="fill: #1f77b4; stroke: #1f77b4"/>
     <use xlink:href="#mfac58e3b2d" x="237.993775" y="54.904461" style="fill: #1f77b4; stroke: #1f77b4"/>
     <use xlink:href="#mfac58e3b2d" x="226.136082" y="54.169029" style="fill: #1f77b4; stroke: #1f77b4"/>
     <use xlink:href="#mfac58e3b2d" x="209.924365" y="89.181571" style="fill: #1f77b4; stroke: #1f77b4"/>
     <use xlink:href="#mfac58e3b2d" x="164.387644" y="135.488536" style="fill: #1f77b4; stroke: #1f77b4"/>
     <use xlink:href="#mfac58e3b2d" x="237.231087" y="81.410386" style="fill: #1f77b4; stroke: #1f77b4"/>
     <use xlink:href="#mfac58e3b2d" x="171.016147" y="131.489392" style="fill: #1f77b4; stroke: #1f77b4"/>
     <use xlink:href="#mfac58e3b2d" x="149.065876" y="142.730025" style="fill: #1f77b4; stroke: #1f77b4"/>
     <use xlink:href="#mfac58e3b2d" x="158.749572" y="133.461657" style="fill: #1f77b4; stroke: #1f77b4"/>
     <use xlink:href="#mfac58e3b2d" x="218.115797" y="88.433304" style="fill: #1f77b4; stroke: #1f77b4"/>
     <use xlink:href="#mfac58e3b2d" x="222.228499" y="72.231456" style="fill: #1f77b4; stroke: #1f77b4"/>
     <use xlink:href="#mfac58e3b2d" x="127.805716" y="119.45285" style="fill: #1f77b4; stroke: #1f77b4"/>
     <use xlink:href="#mfac58e3b2d" x="243.983175" y="50.98922" style="fill: #1f77b4; stroke: #1f77b4"/>
     <use xlink:href="#mfac58e3b2d" x="227.652871" y="77.021957" style="fill: #1f77b4; stroke: #1f77b4"/>
     <use xlink:href="#mfac58e3b2d" x="163.883518" y="137.174534" style="fill: #1f77b4; stroke: #1f77b4"/>
     <use xlink:href="#mfac58e3b2d" x="191.709621" y="106.827981" style="fill: #1f77b4; stroke: #1f77b4"/>
     <use xlink:href="#mfac58e3b2d" x="120.963021" y="169.795168" style="fill: #1f77b4; stroke: #1f77b4"/>
     <use xlink:href="#mfac58e3b2d" x="132.436655" y="151.99936" style="fill: #1f77b4; stroke: #1f77b4"/>
     <use xlink:href="#mfac58e3b2d" x="147.071667" y="147.977178" style="fill: #1f77b4; stroke: #1f77b4"/>
     <use xlink:href="#mfac58e3b2d" x="234.128702" y="50.277667" style="fill: #1f77b4; stroke: #1f77b4"/>
     <use xlink:href="#mfac58e3b2d" x="224.100481" y="62.281419" style="fill: #1f77b4; stroke: #1f77b4"/>
     <use xlink:href="#mfac58e3b2d" x="228.322742" y="58.409465" style="fill: #1f77b4; stroke: #1f77b4"/>
     <use xlink:href="#mfac58e3b2d" x="222.579402" y="86.660702" style="fill: #1f77b4; stroke: #1f77b4"/>
     <use xlink:href="#mfac58e3b2d" x="179.884534" y="118.128829" style="fill: #1f77b4; stroke: #1f77b4"/>
     <use xlink:href="#mfac58e3b2d" x="111.268492" y="180.489526" style="fill: #1f77b4; stroke: #1f77b4"/>
     <use xlink:href="#mfac58e3b2d" x="134.091595" y="173.649432" style="fill: #1f77b4; stroke: #1f77b4"/>
     <use xlink:href="#mfac58e3b2d" x="226.064168" y="56.832819" style="fill: #1f77b4; stroke: #1f77b4"/>
     <use xlink:href="#mfac58e3b2d" x="177.984155" y="114.578656" style="fill: #1f77b4; stroke: #1f77b4"/>
     <use xlink:href="#mfac58e3b2d" x="215.327446" y="86.846796" style="fill: #1f77b4; stroke: #1f77b4"/>
     <use xlink:href="#mfac58e3b2d" x="204.822887" y="69.674402" style="fill: #1f77b4; stroke: #1f77b4"/>
     <use xlink:href="#mfac58e3b2d" x="174.01731" y="125.929723" style="fill: #1f77b4; stroke: #1f77b4"/>
     <use xlink:href="#mfac58e3b2d" x="203.281152" y="87.831876" style="fill: #1f77b4; stroke: #1f77b4"/>
     <use xlink:href="#mfac58e3b2d" x="208.268484" y="108.459566" style="fill: #1f77b4; stroke: #1f77b4"/>
     <use xlink:href="#mfac58e3b2d" x="198.914138" y="50.708307" style="fill: #1f77b4; stroke: #1f77b4"/>
     <use xlink:href="#mfac58e3b2d" x="247.695972" y="48.009701" style="fill: #1f77b4; stroke: #1f77b4"/>
     <use xlink:href="#mfac58e3b2d" x="200.202303" y="92.249422" style="fill: #1f77b4; stroke: #1f77b4"/>
     <use xlink:href="#mfac58e3b2d" x="178.749931" y="124.230096" style="fill: #1f77b4; stroke: #1f77b4"/>
     <use xlink:href="#mfac58e3b2d" x="247.441842" y="47.825948" style="fill: #1f77b4; stroke: #1f77b4"/>
     <use xlink:href="#mfac58e3b2d" x="170.842558" y="121.198812" style="fill: #1f77b4; stroke: #1f77b4"/>
     <use xlink:href="#mfac58e3b2d" x="201.470672" y="91.111405" style="fill: #1f77b4; stroke: #1f77b4"/>
     <use xlink:href="#mfac58e3b2d" x="243.00494" y="70.275004" style="fill: #1f77b4; stroke: #1f77b4"/>
     <use xlink:href="#mfac58e3b2d" x="183.214158" y="115.502008" style="fill: #1f77b4; stroke: #1f77b4"/>
     <use xlink:href="#mfac58e3b2d" x="156.417507" y="128.856037" style="fill: #1f77b4; stroke: #1f77b4"/>
     <use xlink:href="#mfac58e3b2d" x="141.629397" y="147.684977" style="fill: #1f77b4; stroke: #1f77b4"/>
     <use xlink:href="#mfac58e3b2d" x="167.477519" y="134.254305" style="fill: #1f77b4; stroke: #1f77b4"/>
     <use xlink:href="#mfac58e3b2d" x="229.148566" y="72.756232" style="fill: #1f77b4; stroke: #1f77b4"/>
     <use xlink:href="#mfac58e3b2d" x="156.669878" y="146.09912" style="fill: #1f77b4; stroke: #1f77b4"/>
     <use xlink:href="#mfac58e3b2d" x="131.203283" y="160.652367" style="fill: #1f77b4; stroke: #1f77b4"/>
     <use xlink:href="#mfac58e3b2d" x="189.390225" y="100.71421" style="fill: #1f77b4; stroke: #1f77b4"/>
     <use xlink:href="#mfac58e3b2d" x="123.259188" y="177.063171" style="fill: #1f77b4; stroke: #1f77b4"/>
     <use xlink:href="#mfac58e3b2d" x="131.987886" y="157.762873" style="fill: #1f77b4; stroke: #1f77b4"/>
     <use xlink:href="#mfac58e3b2d" x="154.998459" y="125.649128" style="fill: #1f77b4; stroke: #1f77b4"/>
    </g>
   </g>
   <g id="PathCollection_2">
    <defs>
     <path id="mf11fcd63a4" d="M -3 3 
L 3 -3 
M -3 -3 
L 3 3 
" style="stroke: #ff7f0e; stroke-width: 2"/>
    </defs>
    <g clip-path="url(#pf0feeb6c96)">
     <use xlink:href="#mf11fcd63a4" x="134.963435" y="128.118295" style="fill: #ff7f0e; stroke: #ff7f0e; stroke-width: 2"/>
     <use xlink:href="#mf11fcd63a4" x="96.1716" y="161.371898" style="fill: #ff7f0e; stroke: #ff7f0e; stroke-width: 2"/>
     <use xlink:href="#mf11fcd63a4" x="117.435763" y="219.754836" style="fill: #ff7f0e; stroke: #ff7f0e; stroke-width: 2"/>
     <use xlink:href="#mf11fcd63a4" x="248.571429" y="156.946133" style="fill: #ff7f0e; stroke: #ff7f0e; stroke-width: 2"/>
     <use xlink:href="#mf11fcd63a4" x="218.913324" y="180.419383" style="fill: #ff7f0e; stroke: #ff7f0e; stroke-width: 2"/>
     <use xlink:href="#mf11fcd63a4" x="111.129488" y="179.178179" style="fill: #ff7f0e; stroke: #ff7f0e; stroke-width: 2"/>
     <use xlink:href="#mf11fcd63a4" x="165.304673" y="180.010294" style="fill: #ff7f0e; stroke: #ff7f0e; stroke-width: 2"/>
     <use xlink:href="#mf11fcd63a4" x="224.260424" y="68.467573" style="fill: #ff7f0e; stroke: #ff7f0e; stroke-width: 2"/>
    </g>
   </g>
   <g id="matplotlib.axis_1">
    <g id="xtick_1">
     <g id="line2d_1">
      <defs>
       <path id="mcc1692e5bd" d="M 0 0 
L 0 3.5 
" style="stroke: #000000; stroke-width: 0.8"/>
      </defs>
      <g>
       <use xlink:href="#mcc1692e5bd" x="36" y="252" style="stroke: #000000; stroke-width: 0.8"/>
      </g>
     </g>
     <g id="text_1">
      <!-- 0.0 -->
      <g transform="translate(16.91625 277.23625) scale(0.24 -0.24)">
       <defs>
        <path id="DejaVuSans-30" d="M 2034 4250 
Q 1547 4250 1301 3770 
Q 1056 3291 1056 2328 
Q 1056 1369 1301 889 
Q 1547 409 2034 409 
Q 2525 409 2770 889 
Q 3016 1369 3016 2328 
Q 3016 3291 2770 3770 
Q 2525 4250 2034 4250 
z
M 2034 4750 
Q 2819 4750 3233 4129 
Q 3647 3509 3647 2328 
Q 3647 1150 3233 529 
Q 2819 -91 2034 -91 
Q 1250 -91 836 529 
Q 422 1150 422 2328 
Q 422 3509 836 4129 
Q 1250 4750 2034 4750 
z
" transform="scale(0.015625)"/>
        <path id="DejaVuSans-2e" d="M 684 794 
L 1344 794 
L 1344 0 
L 684 0 
L 684 794 
z
" transform="scale(0.015625)"/>
       </defs>
       <use xlink:href="#DejaVuSans-30"/>
       <use xlink:href="#DejaVuSans-2e" x="63.623047"/>
       <use xlink:href="#DejaVuSans-30" x="95.410156"/>
      </g>
     </g>
    </g>
    <g id="xtick_2">
     <g id="line2d_2">
      <g>
       <use xlink:href="#mcc1692e5bd" x="142.285714" y="252" style="stroke: #000000; stroke-width: 0.8"/>
      </g>
     </g>
     <g id="text_2">
      <!-- 0.5 -->
      <g transform="translate(123.201964 277.23625) scale(0.24 -0.24)">
       <defs>
        <path id="DejaVuSans-35" d="M 691 4666 
L 3169 4666 
L 3169 4134 
L 1269 4134 
L 1269 2991 
Q 1406 3038 1543 3061 
Q 1681 3084 1819 3084 
Q 2600 3084 3056 2656 
Q 3513 2228 3513 1497 
Q 3513 744 3044 326 
Q 2575 -91 1722 -91 
Q 1428 -91 1123 -41 
Q 819 9 494 109 
L 494 744 
Q 775 591 1075 516 
Q 1375 441 1709 441 
Q 2250 441 2565 725 
Q 2881 1009 2881 1497 
Q 2881 1984 2565 2268 
Q 2250 2553 1709 2553 
Q 1456 2553 1204 2497 
Q 953 2441 691 2322 
L 691 4666 
z
" transform="scale(0.015625)"/>
       </defs>
       <use xlink:href="#DejaVuSans-30"/>
       <use xlink:href="#DejaVuSans-2e" x="63.623047"/>
       <use xlink:href="#DejaVuSans-35" x="95.410156"/>
      </g>
     </g>
    </g>
    <g id="xtick_3">
     <g id="line2d_3">
      <g>
       <use xlink:href="#mcc1692e5bd" x="248.571429" y="252" style="stroke: #000000; stroke-width: 0.8"/>
      </g>
     </g>
     <g id="text_3">
      <!-- 1.0 -->
      <g transform="translate(229.487679 277.23625) scale(0.24 -0.24)">
       <defs>
        <path id="DejaVuSans-31" d="M 794 531 
L 1825 531 
L 1825 4091 
L 703 3866 
L 703 4441 
L 1819 4666 
L 2450 4666 
L 2450 531 
L 3481 531 
L 3481 0 
L 794 0 
L 794 531 
z
" transform="scale(0.015625)"/>
       </defs>
       <use xlink:href="#DejaVuSans-31"/>
       <use xlink:href="#DejaVuSans-2e" x="63.623047"/>
       <use xlink:href="#DejaVuSans-30" x="95.410156"/>
      </g>
     </g>
    </g>
    <g id="text_4">
     <!-- true $\eta$ -->
     <g transform="translate(111.48 304.415) scale(0.24 -0.24)">
      <defs>
       <path id="DejaVuSans-74" d="M 1172 4494 
L 1172 3500 
L 2356 3500 
L 2356 3053 
L 1172 3053 
L 1172 1153 
Q 1172 725 1289 603 
Q 1406 481 1766 481 
L 2356 481 
L 2356 0 
L 1766 0 
Q 1100 0 847 248 
Q 594 497 594 1153 
L 594 3053 
L 172 3053 
L 172 3500 
L 594 3500 
L 594 4494 
L 1172 4494 
z
" transform="scale(0.015625)"/>
       <path id="DejaVuSans-72" d="M 2631 2963 
Q 2534 3019 2420 3045 
Q 2306 3072 2169 3072 
Q 1681 3072 1420 2755 
Q 1159 2438 1159 1844 
L 1159 0 
L 581 0 
L 581 3500 
L 1159 3500 
L 1159 2956 
Q 1341 3275 1631 3429 
Q 1922 3584 2338 3584 
Q 2397 3584 2469 3576 
Q 2541 3569 2628 3553 
L 2631 2963 
z
" transform="scale(0.015625)"/>
       <path id="DejaVuSans-75" d="M 544 1381 
L 544 3500 
L 1119 3500 
L 1119 1403 
Q 1119 906 1312 657 
Q 1506 409 1894 409 
Q 2359 409 2629 706 
Q 2900 1003 2900 1516 
L 2900 3500 
L 3475 3500 
L 3475 0 
L 2900 0 
L 2900 538 
Q 2691 219 2414 64 
Q 2138 -91 1772 -91 
Q 1169 -91 856 284 
Q 544 659 544 1381 
z
M 1991 3584 
L 1991 3584 
z
" transform="scale(0.015625)"/>
       <path id="DejaVuSans-65" d="M 3597 1894 
L 3597 1613 
L 953 1613 
Q 991 1019 1311 708 
Q 1631 397 2203 397 
Q 2534 397 2845 478 
Q 3156 559 3463 722 
L 3463 178 
Q 3153 47 2828 -22 
Q 2503 -91 2169 -91 
Q 1331 -91 842 396 
Q 353 884 353 1716 
Q 353 2575 817 3079 
Q 1281 3584 2069 3584 
Q 2775 3584 3186 3129 
Q 3597 2675 3597 1894 
z
M 3022 2063 
Q 3016 2534 2758 2815 
Q 2500 3097 2075 3097 
Q 1594 3097 1305 2825 
Q 1016 2553 972 2059 
L 3022 2063 
z
" transform="scale(0.015625)"/>
       <path id="DejaVuSans-20" transform="scale(0.015625)"/>
       <path id="DejaVuSans-Oblique-3b7" d="M 3703 2113 
L 3034 -1331 
L 2459 -1331 
L 3125 2094 
Q 3222 2591 3075 2838 
Q 2931 3084 2544 3084 
Q 2078 3084 1750 2788 
Q 1425 2491 1325 1978 
L 941 0 
L 363 0 
L 1044 3500 
L 1622 3500 
L 1516 2956 
Q 1781 3272 2094 3428 
Q 2403 3584 2769 3584 
Q 3372 3584 3609 3213 
Q 3844 2838 3703 2113 
z
" transform="scale(0.015625)"/>
      </defs>
      <use xlink:href="#DejaVuSans-74" transform="translate(0 0.78125)"/>
      <use xlink:href="#DejaVuSans-72" transform="translate(39.208984 0.78125)"/>
      <use xlink:href="#DejaVuSans-75" transform="translate(80.322266 0.78125)"/>
      <use xlink:href="#DejaVuSans-65" transform="translate(143.701172 0.78125)"/>
      <use xlink:href="#DejaVuSans-20" transform="translate(205.224609 0.78125)"/>
      <use xlink:href="#DejaVuSans-Oblique-3b7" transform="translate(237.011719 0.78125)"/>
     </g>
    </g>
   </g>
   <g id="matplotlib.axis_2">
    <g id="ytick_1">
     <g id="line2d_4">
      <defs>
       <path id="m5582ae146b" d="M 0 0 
L -3.5 0 
" style="stroke: #000000; stroke-width: 0.8"/>
      </defs>
      <g>
       <use xlink:href="#m5582ae146b" x="36" y="252" style="stroke: #000000; stroke-width: 0.8"/>
      </g>
     </g>
     <g id="text_5">
      <!-- 0.0 -->
      <g transform="translate(-9.1675 261.118125) scale(0.24 -0.24)">
       <use xlink:href="#DejaVuSans-30"/>
       <use xlink:href="#DejaVuSans-2e" x="63.623047"/>
       <use xlink:href="#DejaVuSans-30" x="95.410156"/>
      </g>
     </g>
    </g>
    <g id="ytick_2">
     <g id="line2d_5">
      <g>
       <use xlink:href="#m5582ae146b" x="36" y="148.457143" style="stroke: #000000; stroke-width: 0.8"/>
      </g>
     </g>
     <g id="text_6">
      <!-- 0.5 -->
      <g transform="translate(-9.1675 157.575268) scale(0.24 -0.24)">
       <use xlink:href="#DejaVuSans-30"/>
       <use xlink:href="#DejaVuSans-2e" x="63.623047"/>
       <use xlink:href="#DejaVuSans-35" x="95.410156"/>
      </g>
     </g>
    </g>
    <g id="ytick_3">
     <g id="line2d_6">
      <g>
       <use xlink:href="#m5582ae146b" x="36" y="44.914286" style="stroke: #000000; stroke-width: 0.8"/>
      </g>
     </g>
     <g id="text_7">
      <!-- 1.0 -->
      <g transform="translate(-9.1675 54.032411) scale(0.24 -0.24)">
       <use xlink:href="#DejaVuSans-31"/>
       <use xlink:href="#DejaVuSans-2e" x="63.623047"/>
       <use xlink:href="#DejaVuSans-30" x="95.410156"/>
      </g>
     </g>
    </g>
    <g id="text_8">
     <!-- estimated $\eta$ -->
     <g transform="translate(-18.2075 215.16) rotate(-90) scale(0.24 -0.24)">
      <defs>
       <path id="DejaVuSans-73" d="M 2834 3397 
L 2834 2853 
Q 2591 2978 2328 3040 
Q 2066 3103 1784 3103 
Q 1356 3103 1142 2972 
Q 928 2841 928 2578 
Q 928 2378 1081 2264 
Q 1234 2150 1697 2047 
L 1894 2003 
Q 2506 1872 2764 1633 
Q 3022 1394 3022 966 
Q 3022 478 2636 193 
Q 2250 -91 1575 -91 
Q 1294 -91 989 -36 
Q 684 19 347 128 
L 347 722 
Q 666 556 975 473 
Q 1284 391 1588 391 
Q 1994 391 2212 530 
Q 2431 669 2431 922 
Q 2431 1156 2273 1281 
Q 2116 1406 1581 1522 
L 1381 1569 
Q 847 1681 609 1914 
Q 372 2147 372 2553 
Q 372 3047 722 3315 
Q 1072 3584 1716 3584 
Q 2034 3584 2315 3537 
Q 2597 3491 2834 3397 
z
" transform="scale(0.015625)"/>
       <path id="DejaVuSans-69" d="M 603 3500 
L 1178 3500 
L 1178 0 
L 603 0 
L 603 3500 
z
M 603 4863 
L 1178 4863 
L 1178 4134 
L 603 4134 
L 603 4863 
z
" transform="scale(0.015625)"/>
       <path id="DejaVuSans-6d" d="M 3328 2828 
Q 3544 3216 3844 3400 
Q 4144 3584 4550 3584 
Q 5097 3584 5394 3201 
Q 5691 2819 5691 2113 
L 5691 0 
L 5113 0 
L 5113 2094 
Q 5113 2597 4934 2840 
Q 4756 3084 4391 3084 
Q 3944 3084 3684 2787 
Q 3425 2491 3425 1978 
L 3425 0 
L 2847 0 
L 2847 2094 
Q 2847 2600 2669 2842 
Q 2491 3084 2119 3084 
Q 1678 3084 1418 2786 
Q 1159 2488 1159 1978 
L 1159 0 
L 581 0 
L 581 3500 
L 1159 3500 
L 1159 2956 
Q 1356 3278 1631 3431 
Q 1906 3584 2284 3584 
Q 2666 3584 2933 3390 
Q 3200 3197 3328 2828 
z
" transform="scale(0.015625)"/>
       <path id="DejaVuSans-61" d="M 2194 1759 
Q 1497 1759 1228 1600 
Q 959 1441 959 1056 
Q 959 750 1161 570 
Q 1363 391 1709 391 
Q 2188 391 2477 730 
Q 2766 1069 2766 1631 
L 2766 1759 
L 2194 1759 
z
M 3341 1997 
L 3341 0 
L 2766 0 
L 2766 531 
Q 2569 213 2275 61 
Q 1981 -91 1556 -91 
Q 1019 -91 701 211 
Q 384 513 384 1019 
Q 384 1609 779 1909 
Q 1175 2209 1959 2209 
L 2766 2209 
L 2766 2266 
Q 2766 2663 2505 2880 
Q 2244 3097 1772 3097 
Q 1472 3097 1187 3025 
Q 903 2953 641 2809 
L 641 3341 
Q 956 3463 1253 3523 
Q 1550 3584 1831 3584 
Q 2591 3584 2966 3190 
Q 3341 2797 3341 1997 
z
" transform="scale(0.015625)"/>
       <path id="DejaVuSans-64" d="M 2906 2969 
L 2906 4863 
L 3481 4863 
L 3481 0 
L 2906 0 
L 2906 525 
Q 2725 213 2448 61 
Q 2172 -91 1784 -91 
Q 1150 -91 751 415 
Q 353 922 353 1747 
Q 353 2572 751 3078 
Q 1150 3584 1784 3584 
Q 2172 3584 2448 3432 
Q 2725 3281 2906 2969 
z
M 947 1747 
Q 947 1113 1208 752 
Q 1469 391 1925 391 
Q 2381 391 2643 752 
Q 2906 1113 2906 1747 
Q 2906 2381 2643 2742 
Q 2381 3103 1925 3103 
Q 1469 3103 1208 2742 
Q 947 2381 947 1747 
z
" transform="scale(0.015625)"/>
      </defs>
      <use xlink:href="#DejaVuSans-65" transform="translate(0 0.015625)"/>
      <use xlink:href="#DejaVuSans-73" transform="translate(61.523438 0.015625)"/>
      <use xlink:href="#DejaVuSans-74" transform="translate(113.623047 0.015625)"/>
      <use xlink:href="#DejaVuSans-69" transform="translate(152.832031 0.015625)"/>
      <use xlink:href="#DejaVuSans-6d" transform="translate(180.615234 0.015625)"/>
      <use xlink:href="#DejaVuSans-61" transform="translate(278.027344 0.015625)"/>
      <use xlink:href="#DejaVuSans-74" transform="translate(339.306641 0.015625)"/>
      <use xlink:href="#DejaVuSans-65" transform="translate(378.515625 0.015625)"/>
      <use xlink:href="#DejaVuSans-64" transform="translate(440.039062 0.015625)"/>
      <use xlink:href="#DejaVuSans-20" transform="translate(503.515625 0.015625)"/>
      <use xlink:href="#DejaVuSans-Oblique-3b7" transform="translate(535.302734 0.015625)"/>
     </g>
    </g>
   </g>
   <g id="line2d_7">
    <path d="M 36 252 
L 60.8 227.84 
L 85.6 203.68 
L 110.4 179.52 
L 135.2 155.36 
L 160 131.2 
L 184.8 107.04 
L 209.6 82.88 
L 234.4 58.72 
L 259.2 34.56 
" clip-path="url(#pf0feeb6c96)" style="fill: none; stroke: #000000; stroke-linecap: square"/>
   </g>
   <g id="patch_3">
    <path d="M 36 252 
L 36 34.56 
" style="fill: none; stroke: #000000; stroke-width: 2; stroke-linejoin: miter; stroke-linecap: square"/>
   </g>
   <g id="patch_4">
    <path d="M 36 252 
L 259.2 252 
" style="fill: none; stroke: #000000; stroke-width: 2; stroke-linejoin: miter; stroke-linecap: square"/>
   </g>
  </g>
 </g>
 <defs>
  <clipPath id="pf0feeb6c96">
   <rect x="36" y="34.56" width="223.2" height="217.44"/>
  </clipPath>
 </defs>
</svg>
