<?xml version="1.0" encoding="utf-8" standalone="no"?>
<!DOCTYPE svg PUBLIC "-//W3C//DTD SVG 1.1//EN"
  "http://www.w3.org/Graphics/SVG/1.1/DTD/svg11.dtd">
<svg xmlns:xlink="http://www.w3.org/1999/xlink" width="288pt" height="288pt" viewBox="0 0 288 288" xmlns="http://www.w3.org/2000/svg" version="1.1">
 <metadata>
  <rdf:RDF xmlns:dc="http://purl.org/dc/elements/1.1/" xmlns:cc="http://creativecommons.org/ns#" xmlns:rdf="http://www.w3.org/1999/02/22-rdf-syntax-ns#">
   <cc:Work>
    <dc:type rdf:resource="http://purl.org/dc/dcmitype/StillImage"/>
    <dc:date>2024-08-23T20:27:31.870532</dc:date>
    <dc:format>image/svg+xml</dc:format>
    <dc:creator>
     <cc:Agent>
      <dc:title>Matplotlib v3.8.4, https://matplotlib.org/</dc:title>
     </cc:Agent>
    </dc:creator>
   </cc:Work>
  </rdf:RDF>
 </metadata>
 <defs>
  <style type="text/css">*{stroke-linejoin: round; stroke-linecap: butt}</style>
 </defs>
 <g id="figure_1">
  <g id="patch_1">
   <path d="M 0 288 
L 288 288 
L 288 0 
L 0 0 
z
" style="fill: #ffffff"/>
  </g>
  <g id="axes_1">
   <g id="patch_2">
    <path d="M 36 252 
L 259.2 252 
L 259.2 34.56 
L 36 34.56 
z
" style="fill: #ffffff"/>
   </g>
   <g id="PathCollection_1">
    <defs>
     <path id="m7f3b67bca9" d="M 0 3 
C 0.795609 3 1.55874 2.683901 2.12132 2.12132 
C 2.683901 1.55874 3 0.795609 3 0 
C 3 -0.795609 2.683901 -1.55874 2.12132 -2.12132 
C 1.55874 -2.683901 0.795609 -3 0 -3 
C -0.795609 -3 -1.55874 -2.683901 -2.12132 -2.12132 
C -2.683901 -1.55874 -3 -0.795609 -3 0 
C -3 0.795609 -2.683901 1.55874 -2.12132 2.12132 
C -1.55874 2.683901 -0.795609 3 0 3 
z
" style="stroke: #1f77b4"/>
    </defs>
    <g clip-path="url(#p945d937e55)">
     <use xlink:href="#m7f3b67bca9" x="168.881011" y="242.116364" style="fill: #1f77b4; stroke: #1f77b4"/>
     <use xlink:href="#m7f3b67bca9" x="86.144298" y="132.340896" style="fill: #1f77b4; stroke: #1f77b4"/>
     <use xlink:href="#m7f3b67bca9" x="151.532787" y="139.788433" style="fill: #1f77b4; stroke: #1f77b4"/>
     <use xlink:href="#m7f3b67bca9" x="171.655295" y="85.632485" style="fill: #1f77b4; stroke: #1f77b4"/>
     <use xlink:href="#m7f3b67bca9" x="125.62593" y="108.038491" style="fill: #1f77b4; stroke: #1f77b4"/>
     <use xlink:href="#m7f3b67bca9" x="106.414169" y="242.116364" style="fill: #1f77b4; stroke: #1f77b4"/>
     <use xlink:href="#m7f3b67bca9" x="175.672034" y="65.315518" style="fill: #1f77b4; stroke: #1f77b4"/>
     <use xlink:href="#m7f3b67bca9" x="127.227877" y="145.931692" style="fill: #1f77b4; stroke: #1f77b4"/>
     <use xlink:href="#m7f3b67bca9" x="84.516972" y="225.158239" style="fill: #1f77b4; stroke: #1f77b4"/>
     <use xlink:href="#m7f3b67bca9" x="110.634915" y="158.965511" style="fill: #1f77b4; stroke: #1f77b4"/>
     <use xlink:href="#m7f3b67bca9" x="143.215047" y="218.13764" style="fill: #1f77b4; stroke: #1f77b4"/>
     <use xlink:href="#m7f3b67bca9" x="88.314431" y="107.953359" style="fill: #1f77b4; stroke: #1f77b4"/>
     <use xlink:href="#m7f3b67bca9" x="121.669889" y="229.733165" style="fill: #1f77b4; stroke: #1f77b4"/>
     <use xlink:href="#m7f3b67bca9" x="186.145566" y="106.458524" style="fill: #1f77b4; stroke: #1f77b4"/>
     <use xlink:href="#m7f3b67bca9" x="209.81338" y="127.899567" style="fill: #1f77b4; stroke: #1f77b4"/>
     <use xlink:href="#m7f3b67bca9" x="96.57069" y="242.116364" style="fill: #1f77b4; stroke: #1f77b4"/>
     <use xlink:href="#m7f3b67bca9" x="93.254825" y="191.911856" style="fill: #1f77b4; stroke: #1f77b4"/>
     <use xlink:href="#m7f3b67bca9" x="147.211543" y="134.407018" style="fill: #1f77b4; stroke: #1f77b4"/>
     <use xlink:href="#m7f3b67bca9" x="93.564151" y="139.50728" style="fill: #1f77b4; stroke: #1f77b4"/>
     <use xlink:href="#m7f3b67bca9" x="94.798752" y="118.594208" style="fill: #1f77b4; stroke: #1f77b4"/>
     <use xlink:href="#m7f3b67bca9" x="105.068835" y="184.946562" style="fill: #1f77b4; stroke: #1f77b4"/>
     <use xlink:href="#m7f3b67bca9" x="109.515235" y="242.116364" style="fill: #1f77b4; stroke: #1f77b4"/>
     <use xlink:href="#m7f3b67bca9" x="95.795985" y="238.610872" style="fill: #1f77b4; stroke: #1f77b4"/>
     <use xlink:href="#m7f3b67bca9" x="87.651468" y="113.989027" style="fill: #1f77b4; stroke: #1f77b4"/>
     <use xlink:href="#m7f3b67bca9" x="71.52409" y="179.542597" style="fill: #1f77b4; stroke: #1f77b4"/>
     <use xlink:href="#m7f3b67bca9" x="135.566473" y="181.709346" style="fill: #1f77b4; stroke: #1f77b4"/>
     <use xlink:href="#m7f3b67bca9" x="91.820147" y="178.241184" style="fill: #1f77b4; stroke: #1f77b4"/>
     <use xlink:href="#m7f3b67bca9" x="78.473017" y="205.20506" style="fill: #1f77b4; stroke: #1f77b4"/>
     <use xlink:href="#m7f3b67bca9" x="92.392604" y="45.014507" style="fill: #1f77b4; stroke: #1f77b4"/>
     <use xlink:href="#m7f3b67bca9" x="76.681677" y="200.429862" style="fill: #1f77b4; stroke: #1f77b4"/>
     <use xlink:href="#m7f3b67bca9" x="143.691212" y="165.512442" style="fill: #1f77b4; stroke: #1f77b4"/>
     <use xlink:href="#m7f3b67bca9" x="151.27109" y="120.806206" style="fill: #1f77b4; stroke: #1f77b4"/>
     <use xlink:href="#m7f3b67bca9" x="180.608025" y="129.467649" style="fill: #1f77b4; stroke: #1f77b4"/>
     <use xlink:href="#m7f3b67bca9" x="190.702096" y="107.355394" style="fill: #1f77b4; stroke: #1f77b4"/>
     <use xlink:href="#m7f3b67bca9" x="105.722029" y="242.116364" style="fill: #1f77b4; stroke: #1f77b4"/>
     <use xlink:href="#m7f3b67bca9" x="101.672884" y="180.201945" style="fill: #1f77b4; stroke: #1f77b4"/>
     <use xlink:href="#m7f3b67bca9" x="104.41193" y="129.669302" style="fill: #1f77b4; stroke: #1f77b4"/>
     <use xlink:href="#m7f3b67bca9" x="94.5643" y="164.72402" style="fill: #1f77b4; stroke: #1f77b4"/>
     <use xlink:href="#m7f3b67bca9" x="87.539284" y="242.116364" style="fill: #1f77b4; stroke: #1f77b4"/>
     <use xlink:href="#m7f3b67bca9" x="96.917728" y="238.341401" style="fill: #1f77b4; stroke: #1f77b4"/>
     <use xlink:href="#m7f3b67bca9" x="102.930363" y="135.948013" style="fill: #1f77b4; stroke: #1f77b4"/>
     <use xlink:href="#m7f3b67bca9" x="98.747187" y="242.116364" style="fill: #1f77b4; stroke: #1f77b4"/>
     <use xlink:href="#m7f3b67bca9" x="122.02629" y="151.768318" style="fill: #1f77b4; stroke: #1f77b4"/>
     <use xlink:href="#m7f3b67bca9" x="88.835713" y="183.733072" style="fill: #1f77b4; stroke: #1f77b4"/>
     <use xlink:href="#m7f3b67bca9" x="191.368573" y="84.745382" style="fill: #1f77b4; stroke: #1f77b4"/>
     <use xlink:href="#m7f3b67bca9" x="97.581122" y="235.984314" style="fill: #1f77b4; stroke: #1f77b4"/>
     <use xlink:href="#m7f3b67bca9" x="158.083155" y="108.609881" style="fill: #1f77b4; stroke: #1f77b4"/>
     <use xlink:href="#m7f3b67bca9" x="86.355849" y="199.473413" style="fill: #1f77b4; stroke: #1f77b4"/>
     <use xlink:href="#m7f3b67bca9" x="99.868768" y="44.443636" style="fill: #1f77b4; stroke: #1f77b4"/>
     <use xlink:href="#m7f3b67bca9" x="102.542098" y="171.176671" style="fill: #1f77b4; stroke: #1f77b4"/>
     <use xlink:href="#m7f3b67bca9" x="132.195743" y="183.733072" style="fill: #1f77b4; stroke: #1f77b4"/>
     <use xlink:href="#m7f3b67bca9" x="105.880411" y="188.384625" style="fill: #1f77b4; stroke: #1f77b4"/>
     <use xlink:href="#m7f3b67bca9" x="100.504007" y="201.792773" style="fill: #1f77b4; stroke: #1f77b4"/>
     <use xlink:href="#m7f3b67bca9" x="151.555051" y="171.859842" style="fill: #1f77b4; stroke: #1f77b4"/>
     <use xlink:href="#m7f3b67bca9" x="116.322104" y="241.101382" style="fill: #1f77b4; stroke: #1f77b4"/>
     <use xlink:href="#m7f3b67bca9" x="140.390632" y="181.103024" style="fill: #1f77b4; stroke: #1f77b4"/>
     <use xlink:href="#m7f3b67bca9" x="88.001558" y="232.875768" style="fill: #1f77b4; stroke: #1f77b4"/>
     <use xlink:href="#m7f3b67bca9" x="120.139855" y="128.440014" style="fill: #1f77b4; stroke: #1f77b4"/>
     <use xlink:href="#m7f3b67bca9" x="109.810144" y="95.101541" style="fill: #1f77b4; stroke: #1f77b4"/>
     <use xlink:href="#m7f3b67bca9" x="146.259458" y="123.856457" style="fill: #1f77b4; stroke: #1f77b4"/>
     <use xlink:href="#m7f3b67bca9" x="88.098002" y="195.952692" style="fill: #1f77b4; stroke: #1f77b4"/>
     <use xlink:href="#m7f3b67bca9" x="120.382523" y="159.920198" style="fill: #1f77b4; stroke: #1f77b4"/>
     <use xlink:href="#m7f3b67bca9" x="108.754457" y="209.512881" style="fill: #1f77b4; stroke: #1f77b4"/>
     <use xlink:href="#m7f3b67bca9" x="185.859555" y="242.116364" style="fill: #1f77b4; stroke: #1f77b4"/>
     <use xlink:href="#m7f3b67bca9" x="192.955791" y="58.124361" style="fill: #1f77b4; stroke: #1f77b4"/>
     <use xlink:href="#m7f3b67bca9" x="175.548293" y="220.867236" style="fill: #1f77b4; stroke: #1f77b4"/>
     <use xlink:href="#m7f3b67bca9" x="175.76392" y="110.847267" style="fill: #1f77b4; stroke: #1f77b4"/>
     <use xlink:href="#m7f3b67bca9" x="209.440109" y="90.95304" style="fill: #1f77b4; stroke: #1f77b4"/>
     <use xlink:href="#m7f3b67bca9" x="161.215457" y="135.24075" style="fill: #1f77b4; stroke: #1f77b4"/>
     <use xlink:href="#m7f3b67bca9" x="104.338198" y="98.872739" style="fill: #1f77b4; stroke: #1f77b4"/>
     <use xlink:href="#m7f3b67bca9" x="89.715645" y="210.127018" style="fill: #1f77b4; stroke: #1f77b4"/>
     <use xlink:href="#m7f3b67bca9" x="144.599709" y="241.786206" style="fill: #1f77b4; stroke: #1f77b4"/>
     <use xlink:href="#m7f3b67bca9" x="120.774856" y="135.914962" style="fill: #1f77b4; stroke: #1f77b4"/>
     <use xlink:href="#m7f3b67bca9" x="96.048795" y="192.740839" style="fill: #1f77b4; stroke: #1f77b4"/>
     <use xlink:href="#m7f3b67bca9" x="142.103575" y="211.65521" style="fill: #1f77b4; stroke: #1f77b4"/>
     <use xlink:href="#m7f3b67bca9" x="92.972841" y="76.826575" style="fill: #1f77b4; stroke: #1f77b4"/>
     <use xlink:href="#m7f3b67bca9" x="114.56744" y="242.116364" style="fill: #1f77b4; stroke: #1f77b4"/>
     <use xlink:href="#m7f3b67bca9" x="163.449144" y="78.426756" style="fill: #1f77b4; stroke: #1f77b4"/>
     <use xlink:href="#m7f3b67bca9" x="117.714552" y="160.93069" style="fill: #1f77b4; stroke: #1f77b4"/>
     <use xlink:href="#m7f3b67bca9" x="128.135768" y="90.978399" style="fill: #1f77b4; stroke: #1f77b4"/>
     <use xlink:href="#m7f3b67bca9" x="114.04044" y="85.7865" style="fill: #1f77b4; stroke: #1f77b4"/>
     <use xlink:href="#m7f3b67bca9" x="155.213016" y="123.176549" style="fill: #1f77b4; stroke: #1f77b4"/>
     <use xlink:href="#m7f3b67bca9" x="101.825216" y="107.953359" style="fill: #1f77b4; stroke: #1f77b4"/>
     <use xlink:href="#m7f3b67bca9" x="146.478863" y="44.443636" style="fill: #1f77b4; stroke: #1f77b4"/>
     <use xlink:href="#m7f3b67bca9" x="106.444278" y="201.742988" style="fill: #1f77b4; stroke: #1f77b4"/>
     <use xlink:href="#m7f3b67bca9" x="156.060498" y="121.270438" style="fill: #1f77b4; stroke: #1f77b4"/>
     <use xlink:href="#m7f3b67bca9" x="217.056906" y="73.946576" style="fill: #1f77b4; stroke: #1f77b4"/>
     <use xlink:href="#m7f3b67bca9" x="166.503116" y="110.282798" style="fill: #1f77b4; stroke: #1f77b4"/>
     <use xlink:href="#m7f3b67bca9" x="126.85131" y="55.39116" style="fill: #1f77b4; stroke: #1f77b4"/>
     <use xlink:href="#m7f3b67bca9" x="100.27609" y="115.441583" style="fill: #1f77b4; stroke: #1f77b4"/>
     <use xlink:href="#m7f3b67bca9" x="74.810367" y="216.273878" style="fill: #1f77b4; stroke: #1f77b4"/>
     <use xlink:href="#m7f3b67bca9" x="175.603849" y="98.40457" style="fill: #1f77b4; stroke: #1f77b4"/>
     <use xlink:href="#m7f3b67bca9" x="81.532441" y="120.948616" style="fill: #1f77b4; stroke: #1f77b4"/>
     <use xlink:href="#m7f3b67bca9" x="94.124093" y="162.595023" style="fill: #1f77b4; stroke: #1f77b4"/>
     <use xlink:href="#m7f3b67bca9" x="98.591128" y="167.855039" style="fill: #1f77b4; stroke: #1f77b4"/>
     <use xlink:href="#m7f3b67bca9" x="135.535575" y="122.736784" style="fill: #1f77b4; stroke: #1f77b4"/>
     <use xlink:href="#m7f3b67bca9" x="104.958992" y="44.443636" style="fill: #1f77b4; stroke: #1f77b4"/>
     <use xlink:href="#m7f3b67bca9" x="68.418422" y="242.116364" style="fill: #1f77b4; stroke: #1f77b4"/>
     <use xlink:href="#m7f3b67bca9" x="86.990939" y="130.191793" style="fill: #1f77b4; stroke: #1f77b4"/>
     <use xlink:href="#m7f3b67bca9" x="103.210833" y="107.953359" style="fill: #1f77b4; stroke: #1f77b4"/>
     <use xlink:href="#m7f3b67bca9" x="87.59692" y="169.251456" style="fill: #1f77b4; stroke: #1f77b4"/>
     <use xlink:href="#m7f3b67bca9" x="140.727838" y="242.116364" style="fill: #1f77b4; stroke: #1f77b4"/>
     <use xlink:href="#m7f3b67bca9" x="95.163235" y="173.954907" style="fill: #1f77b4; stroke: #1f77b4"/>
     <use xlink:href="#m7f3b67bca9" x="173.379999" y="222.4605" style="fill: #1f77b4; stroke: #1f77b4"/>
     <use xlink:href="#m7f3b67bca9" x="79.755463" y="169.895279" style="fill: #1f77b4; stroke: #1f77b4"/>
     <use xlink:href="#m7f3b67bca9" x="73.016436" y="197.843583" style="fill: #1f77b4; stroke: #1f77b4"/>
     <use xlink:href="#m7f3b67bca9" x="184.191944" y="88.250372" style="fill: #1f77b4; stroke: #1f77b4"/>
     <use xlink:href="#m7f3b67bca9" x="93.098973" y="242.116364" style="fill: #1f77b4; stroke: #1f77b4"/>
     <use xlink:href="#m7f3b67bca9" x="112.411829" y="132.09283" style="fill: #1f77b4; stroke: #1f77b4"/>
     <use xlink:href="#m7f3b67bca9" x="129.260875" y="242.116364" style="fill: #1f77b4; stroke: #1f77b4"/>
     <use xlink:href="#m7f3b67bca9" x="88.681157" y="242.116364" style="fill: #1f77b4; stroke: #1f77b4"/>
     <use xlink:href="#m7f3b67bca9" x="95.327501" y="214.629587" style="fill: #1f77b4; stroke: #1f77b4"/>
     <use xlink:href="#m7f3b67bca9" x="100.965295" y="242.116364" style="fill: #1f77b4; stroke: #1f77b4"/>
     <use xlink:href="#m7f3b67bca9" x="143.875644" y="168.285546" style="fill: #1f77b4; stroke: #1f77b4"/>
     <use xlink:href="#m7f3b67bca9" x="102.616174" y="175.215873" style="fill: #1f77b4; stroke: #1f77b4"/>
     <use xlink:href="#m7f3b67bca9" x="94.096676" y="102.382645" style="fill: #1f77b4; stroke: #1f77b4"/>
     <use xlink:href="#m7f3b67bca9" x="127.633188" y="45.799412" style="fill: #1f77b4; stroke: #1f77b4"/>
     <use xlink:href="#m7f3b67bca9" x="113.965338" y="82.477407" style="fill: #1f77b4; stroke: #1f77b4"/>
     <use xlink:href="#m7f3b67bca9" x="146.396511" y="158.204574" style="fill: #1f77b4; stroke: #1f77b4"/>
     <use xlink:href="#m7f3b67bca9" x="90.990668" y="44.443636" style="fill: #1f77b4; stroke: #1f77b4"/>
     <use xlink:href="#m7f3b67bca9" x="144.841081" y="44.443636" style="fill: #1f77b4; stroke: #1f77b4"/>
     <use xlink:href="#m7f3b67bca9" x="160.360841" y="131.831139" style="fill: #1f77b4; stroke: #1f77b4"/>
     <use xlink:href="#m7f3b67bca9" x="83.486138" y="105.728062" style="fill: #1f77b4; stroke: #1f77b4"/>
     <use xlink:href="#m7f3b67bca9" x="114.978804" y="176.732877" style="fill: #1f77b4; stroke: #1f77b4"/>
     <use xlink:href="#m7f3b67bca9" x="149.126098" y="99.948874" style="fill: #1f77b4; stroke: #1f77b4"/>
     <use xlink:href="#m7f3b67bca9" x="92.300304" y="156.604277" style="fill: #1f77b4; stroke: #1f77b4"/>
     <use xlink:href="#m7f3b67bca9" x="182.486152" y="113.330272" style="fill: #1f77b4; stroke: #1f77b4"/>
     <use xlink:href="#m7f3b67bca9" x="105.476184" y="128.509642" style="fill: #1f77b4; stroke: #1f77b4"/>
     <use xlink:href="#m7f3b67bca9" x="97.746452" y="44.443636" style="fill: #1f77b4; stroke: #1f77b4"/>
     <use xlink:href="#m7f3b67bca9" x="92.186751" y="162.316908" style="fill: #1f77b4; stroke: #1f77b4"/>
     <use xlink:href="#m7f3b67bca9" x="99.185637" y="60.310642" style="fill: #1f77b4; stroke: #1f77b4"/>
     <use xlink:href="#m7f3b67bca9" x="101.398965" y="177.327373" style="fill: #1f77b4; stroke: #1f77b4"/>
     <use xlink:href="#m7f3b67bca9" x="112.86721" y="44.443636" style="fill: #1f77b4; stroke: #1f77b4"/>
     <use xlink:href="#m7f3b67bca9" x="164.014564" y="120.52286" style="fill: #1f77b4; stroke: #1f77b4"/>
     <use xlink:href="#m7f3b67bca9" x="199.884989" y="99.272262" style="fill: #1f77b4; stroke: #1f77b4"/>
     <use xlink:href="#m7f3b67bca9" x="84.284574" y="191.725852" style="fill: #1f77b4; stroke: #1f77b4"/>
     <use xlink:href="#m7f3b67bca9" x="132.180973" y="137.498318" style="fill: #1f77b4; stroke: #1f77b4"/>
     <use xlink:href="#m7f3b67bca9" x="137.064541" y="242.116364" style="fill: #1f77b4; stroke: #1f77b4"/>
     <use xlink:href="#m7f3b67bca9" x="143.173599" y="117.033694" style="fill: #1f77b4; stroke: #1f77b4"/>
     <use xlink:href="#m7f3b67bca9" x="120.762898" y="155.522184" style="fill: #1f77b4; stroke: #1f77b4"/>
     <use xlink:href="#m7f3b67bca9" x="84.804673" y="134.086592" style="fill: #1f77b4; stroke: #1f77b4"/>
     <use xlink:href="#m7f3b67bca9" x="92.561266" y="242.103631" style="fill: #1f77b4; stroke: #1f77b4"/>
     <use xlink:href="#m7f3b67bca9" x="101.952597" y="67.261205" style="fill: #1f77b4; stroke: #1f77b4"/>
     <use xlink:href="#m7f3b67bca9" x="90.279621" y="240.305019" style="fill: #1f77b4; stroke: #1f77b4"/>
     <use xlink:href="#m7f3b67bca9" x="101.389241" y="175.91486" style="fill: #1f77b4; stroke: #1f77b4"/>
     <use xlink:href="#m7f3b67bca9" x="94.542545" y="161.762702" style="fill: #1f77b4; stroke: #1f77b4"/>
     <use xlink:href="#m7f3b67bca9" x="84.497681" y="170.942031" style="fill: #1f77b4; stroke: #1f77b4"/>
     <use xlink:href="#m7f3b67bca9" x="179.324056" y="78.834627" style="fill: #1f77b4; stroke: #1f77b4"/>
     <use xlink:href="#m7f3b67bca9" x="84.355175" y="107.953359" style="fill: #1f77b4; stroke: #1f77b4"/>
     <use xlink:href="#m7f3b67bca9" x="76.598834" y="99.468847" style="fill: #1f77b4; stroke: #1f77b4"/>
     <use xlink:href="#m7f3b67bca9" x="109.744211" y="179.643321" style="fill: #1f77b4; stroke: #1f77b4"/>
     <use xlink:href="#m7f3b67bca9" x="137.367807" y="136.173782" style="fill: #1f77b4; stroke: #1f77b4"/>
     <use xlink:href="#m7f3b67bca9" x="177.909973" y="125.782164" style="fill: #1f77b4; stroke: #1f77b4"/>
     <use xlink:href="#m7f3b67bca9" x="88.488488" y="206.238146" style="fill: #1f77b4; stroke: #1f77b4"/>
     <use xlink:href="#m7f3b67bca9" x="135.190401" y="171.303249" style="fill: #1f77b4; stroke: #1f77b4"/>
     <use xlink:href="#m7f3b67bca9" x="114.983105" y="163.585954" style="fill: #1f77b4; stroke: #1f77b4"/>
     <use xlink:href="#m7f3b67bca9" x="107.260226" y="236.632015" style="fill: #1f77b4; stroke: #1f77b4"/>
     <use xlink:href="#m7f3b67bca9" x="159.28093" y="89.404801" style="fill: #1f77b4; stroke: #1f77b4"/>
     <use xlink:href="#m7f3b67bca9" x="132.654821" y="176.732877" style="fill: #1f77b4; stroke: #1f77b4"/>
     <use xlink:href="#m7f3b67bca9" x="87.02716" y="68.733695" style="fill: #1f77b4; stroke: #1f77b4"/>
     <use xlink:href="#m7f3b67bca9" x="84.872387" y="44.443636" style="fill: #1f77b4; stroke: #1f77b4"/>
     <use xlink:href="#m7f3b67bca9" x="154.561982" y="55.337281" style="fill: #1f77b4; stroke: #1f77b4"/>
     <use xlink:href="#m7f3b67bca9" x="88.078486" y="207.780569" style="fill: #1f77b4; stroke: #1f77b4"/>
     <use xlink:href="#m7f3b67bca9" x="111.945407" y="97.180071" style="fill: #1f77b4; stroke: #1f77b4"/>
     <use xlink:href="#m7f3b67bca9" x="128.774445" y="44.443636" style="fill: #1f77b4; stroke: #1f77b4"/>
     <use xlink:href="#m7f3b67bca9" x="92.76425" y="140.881765" style="fill: #1f77b4; stroke: #1f77b4"/>
     <use xlink:href="#m7f3b67bca9" x="141.153229" y="76.647441" style="fill: #1f77b4; stroke: #1f77b4"/>
     <use xlink:href="#m7f3b67bca9" x="139.779811" y="176.185448" style="fill: #1f77b4; stroke: #1f77b4"/>
     <use xlink:href="#m7f3b67bca9" x="125.624639" y="162.986247" style="fill: #1f77b4; stroke: #1f77b4"/>
     <use xlink:href="#m7f3b67bca9" x="128.38691" y="107.953359" style="fill: #1f77b4; stroke: #1f77b4"/>
     <use xlink:href="#m7f3b67bca9" x="163.962923" y="174.696046" style="fill: #1f77b4; stroke: #1f77b4"/>
     <use xlink:href="#m7f3b67bca9" x="108.185874" y="175.412867" style="fill: #1f77b4; stroke: #1f77b4"/>
     <use xlink:href="#m7f3b67bca9" x="170.315511" y="104.102679" style="fill: #1f77b4; stroke: #1f77b4"/>
     <use xlink:href="#m7f3b67bca9" x="155.940378" y="106.295284" style="fill: #1f77b4; stroke: #1f77b4"/>
     <use xlink:href="#m7f3b67bca9" x="100.032357" y="188.53364" style="fill: #1f77b4; stroke: #1f77b4"/>
     <use xlink:href="#m7f3b67bca9" x="198.597156" y="44.443636" style="fill: #1f77b4; stroke: #1f77b4"/>
     <use xlink:href="#m7f3b67bca9" x="130.400332" y="242.116364" style="fill: #1f77b4; stroke: #1f77b4"/>
     <use xlink:href="#m7f3b67bca9" x="90.929754" y="195.906556" style="fill: #1f77b4; stroke: #1f77b4"/>
     <use xlink:href="#m7f3b67bca9" x="114.218903" y="51.634635" style="fill: #1f77b4; stroke: #1f77b4"/>
     <use xlink:href="#m7f3b67bca9" x="89.769001" y="157.103061" style="fill: #1f77b4; stroke: #1f77b4"/>
     <use xlink:href="#m7f3b67bca9" x="101.207087" y="242.116364" style="fill: #1f77b4; stroke: #1f77b4"/>
     <use xlink:href="#m7f3b67bca9" x="164.937967" y="50.048978" style="fill: #1f77b4; stroke: #1f77b4"/>
     <use xlink:href="#m7f3b67bca9" x="110.326022" y="242.116364" style="fill: #1f77b4; stroke: #1f77b4"/>
     <use xlink:href="#m7f3b67bca9" x="190.198255" y="106.48214" style="fill: #1f77b4; stroke: #1f77b4"/>
     <use xlink:href="#m7f3b67bca9" x="86.776897" y="242.036311" style="fill: #1f77b4; stroke: #1f77b4"/>
     <use xlink:href="#m7f3b67bca9" x="177.830242" y="130.173564" style="fill: #1f77b4; stroke: #1f77b4"/>
     <use xlink:href="#m7f3b67bca9" x="200.116523" y="109.757211" style="fill: #1f77b4; stroke: #1f77b4"/>
     <use xlink:href="#m7f3b67bca9" x="145.36313" y="74.865269" style="fill: #1f77b4; stroke: #1f77b4"/>
     <use xlink:href="#m7f3b67bca9" x="165.203924" y="116.677589" style="fill: #1f77b4; stroke: #1f77b4"/>
     <use xlink:href="#m7f3b67bca9" x="77.101122" y="49.126442" style="fill: #1f77b4; stroke: #1f77b4"/>
     <use xlink:href="#m7f3b67bca9" x="92.258919" y="44.443636" style="fill: #1f77b4; stroke: #1f77b4"/>
     <use xlink:href="#m7f3b67bca9" x="187.77653" y="79.859907" style="fill: #1f77b4; stroke: #1f77b4"/>
     <use xlink:href="#m7f3b67bca9" x="88.32913" y="242.116364" style="fill: #1f77b4; stroke: #1f77b4"/>
     <use xlink:href="#m7f3b67bca9" x="126.752493" y="146.86306" style="fill: #1f77b4; stroke: #1f77b4"/>
     <use xlink:href="#m7f3b67bca9" x="91.08027" y="151.839004" style="fill: #1f77b4; stroke: #1f77b4"/>
     <use xlink:href="#m7f3b67bca9" x="88.81253" y="137.589677" style="fill: #1f77b4; stroke: #1f77b4"/>
     <use xlink:href="#m7f3b67bca9" x="173.548167" y="146.587742" style="fill: #1f77b4; stroke: #1f77b4"/>
     <use xlink:href="#m7f3b67bca9" x="86.785561" y="188.95062" style="fill: #1f77b4; stroke: #1f77b4"/>
     <use xlink:href="#m7f3b67bca9" x="148.126249" y="138.186194" style="fill: #1f77b4; stroke: #1f77b4"/>
     <use xlink:href="#m7f3b67bca9" x="105.248404" y="159.43776" style="fill: #1f77b4; stroke: #1f77b4"/>
     <use xlink:href="#m7f3b67bca9" x="99.376541" y="183.434347" style="fill: #1f77b4; stroke: #1f77b4"/>
     <use xlink:href="#m7f3b67bca9" x="122.288984" y="165.243727" style="fill: #1f77b4; stroke: #1f77b4"/>
     <use xlink:href="#m7f3b67bca9" x="171.887151" y="148.875727" style="fill: #1f77b4; stroke: #1f77b4"/>
     <use xlink:href="#m7f3b67bca9" x="169.051206" y="107.953359" style="fill: #1f77b4; stroke: #1f77b4"/>
     <use xlink:href="#m7f3b67bca9" x="197.831351" y="118.957433" style="fill: #1f77b4; stroke: #1f77b4"/>
     <use xlink:href="#m7f3b67bca9" x="105.396953" y="242.116364" style="fill: #1f77b4; stroke: #1f77b4"/>
     <use xlink:href="#m7f3b67bca9" x="105.232371" y="65.194589" style="fill: #1f77b4; stroke: #1f77b4"/>
     <use xlink:href="#m7f3b67bca9" x="98.814133" y="170.884595" style="fill: #1f77b4; stroke: #1f77b4"/>
     <use xlink:href="#m7f3b67bca9" x="116.493718" y="63.039821" style="fill: #1f77b4; stroke: #1f77b4"/>
     <use xlink:href="#m7f3b67bca9" x="145.201488" y="124.072411" style="fill: #1f77b4; stroke: #1f77b4"/>
     <use xlink:href="#m7f3b67bca9" x="92.652444" y="187.517537" style="fill: #1f77b4; stroke: #1f77b4"/>
     <use xlink:href="#m7f3b67bca9" x="74.953586" y="82.688453" style="fill: #1f77b4; stroke: #1f77b4"/>
     <use xlink:href="#m7f3b67bca9" x="87.906872" y="159.005261" style="fill: #1f77b4; stroke: #1f77b4"/>
     <use xlink:href="#m7f3b67bca9" x="104.907833" y="234.321011" style="fill: #1f77b4; stroke: #1f77b4"/>
     <use xlink:href="#m7f3b67bca9" x="103.070379" y="242.116364" style="fill: #1f77b4; stroke: #1f77b4"/>
     <use xlink:href="#m7f3b67bca9" x="112.283062" y="62.025481" style="fill: #1f77b4; stroke: #1f77b4"/>
     <use xlink:href="#m7f3b67bca9" x="96.831398" y="106.632425" style="fill: #1f77b4; stroke: #1f77b4"/>
     <use xlink:href="#m7f3b67bca9" x="104.651025" y="143.903622" style="fill: #1f77b4; stroke: #1f77b4"/>
     <use xlink:href="#m7f3b67bca9" x="190.561453" y="132.615664" style="fill: #1f77b4; stroke: #1f77b4"/>
     <use xlink:href="#m7f3b67bca9" x="193.257481" y="73.843971" style="fill: #1f77b4; stroke: #1f77b4"/>
     <use xlink:href="#m7f3b67bca9" x="137.65028" y="206.160002" style="fill: #1f77b4; stroke: #1f77b4"/>
     <use xlink:href="#m7f3b67bca9" x="182.705913" y="242.116364" style="fill: #1f77b4; stroke: #1f77b4"/>
     <use xlink:href="#m7f3b67bca9" x="143.26937" y="64.025" style="fill: #1f77b4; stroke: #1f77b4"/>
     <use xlink:href="#m7f3b67bca9" x="121.20671" y="111.225515" style="fill: #1f77b4; stroke: #1f77b4"/>
     <use xlink:href="#m7f3b67bca9" x="171.134806" y="133.649119" style="fill: #1f77b4; stroke: #1f77b4"/>
     <use xlink:href="#m7f3b67bca9" x="81.505041" y="211.066142" style="fill: #1f77b4; stroke: #1f77b4"/>
     <use xlink:href="#m7f3b67bca9" x="113.334678" y="198.257989" style="fill: #1f77b4; stroke: #1f77b4"/>
     <use xlink:href="#m7f3b67bca9" x="97.27033" y="106.004369" style="fill: #1f77b4; stroke: #1f77b4"/>
     <use xlink:href="#m7f3b67bca9" x="86.687916" y="44.443636" style="fill: #1f77b4; stroke: #1f77b4"/>
     <use xlink:href="#m7f3b67bca9" x="92.567273" y="154.719156" style="fill: #1f77b4; stroke: #1f77b4"/>
     <use xlink:href="#m7f3b67bca9" x="155.134254" y="44.443636" style="fill: #1f77b4; stroke: #1f77b4"/>
     <use xlink:href="#m7f3b67bca9" x="100.602627" y="202.881612" style="fill: #1f77b4; stroke: #1f77b4"/>
     <use xlink:href="#m7f3b67bca9" x="90.662916" y="210.367738" style="fill: #1f77b4; stroke: #1f77b4"/>
     <use xlink:href="#m7f3b67bca9" x="168.784354" y="146.63128" style="fill: #1f77b4; stroke: #1f77b4"/>
     <use xlink:href="#m7f3b67bca9" x="86.924064" y="161.291942" style="fill: #1f77b4; stroke: #1f77b4"/>
     <use xlink:href="#m7f3b67bca9" x="106.626653" y="80.841196" style="fill: #1f77b4; stroke: #1f77b4"/>
     <use xlink:href="#m7f3b67bca9" x="93.913777" y="157.100051" style="fill: #1f77b4; stroke: #1f77b4"/>
     <use xlink:href="#m7f3b67bca9" x="143.165997" y="107.601596" style="fill: #1f77b4; stroke: #1f77b4"/>
     <use xlink:href="#m7f3b67bca9" x="118.775282" y="158.717037" style="fill: #1f77b4; stroke: #1f77b4"/>
     <use xlink:href="#m7f3b67bca9" x="179.07832" y="76.684723" style="fill: #1f77b4; stroke: #1f77b4"/>
     <use xlink:href="#m7f3b67bca9" x="129.055708" y="99.026337" style="fill: #1f77b4; stroke: #1f77b4"/>
     <use xlink:href="#m7f3b67bca9" x="149.884674" y="196.443213" style="fill: #1f77b4; stroke: #1f77b4"/>
     <use xlink:href="#m7f3b67bca9" x="108.112969" y="44.443636" style="fill: #1f77b4; stroke: #1f77b4"/>
     <use xlink:href="#m7f3b67bca9" x="90.369597" y="145.526345" style="fill: #1f77b4; stroke: #1f77b4"/>
     <use xlink:href="#m7f3b67bca9" x="108.855063" y="242.116364" style="fill: #1f77b4; stroke: #1f77b4"/>
     <use xlink:href="#m7f3b67bca9" x="129.416531" y="44.443636" style="fill: #1f77b4; stroke: #1f77b4"/>
     <use xlink:href="#m7f3b67bca9" x="169.554356" y="129.044473" style="fill: #1f77b4; stroke: #1f77b4"/>
     <use xlink:href="#m7f3b67bca9" x="180.283644" y="225.423724" style="fill: #1f77b4; stroke: #1f77b4"/>
     <use xlink:href="#m7f3b67bca9" x="116.953674" y="156.279785" style="fill: #1f77b4; stroke: #1f77b4"/>
     <use xlink:href="#m7f3b67bca9" x="87.694543" y="242.115628" style="fill: #1f77b4; stroke: #1f77b4"/>
     <use xlink:href="#m7f3b67bca9" x="143.910127" y="132.468363" style="fill: #1f77b4; stroke: #1f77b4"/>
     <use xlink:href="#m7f3b67bca9" x="89.856486" y="44.443636" style="fill: #1f77b4; stroke: #1f77b4"/>
     <use xlink:href="#m7f3b67bca9" x="125.046943" y="192.496432" style="fill: #1f77b4; stroke: #1f77b4"/>
     <use xlink:href="#m7f3b67bca9" x="111.926033" y="162.797246" style="fill: #1f77b4; stroke: #1f77b4"/>
     <use xlink:href="#m7f3b67bca9" x="113.719338" y="141.90438" style="fill: #1f77b4; stroke: #1f77b4"/>
     <use xlink:href="#m7f3b67bca9" x="87.610561" y="242.116364" style="fill: #1f77b4; stroke: #1f77b4"/>
     <use xlink:href="#m7f3b67bca9" x="83.339" y="44.572258" style="fill: #1f77b4; stroke: #1f77b4"/>
     <use xlink:href="#m7f3b67bca9" x="97.613558" y="242.116364" style="fill: #1f77b4; stroke: #1f77b4"/>
     <use xlink:href="#m7f3b67bca9" x="119.782973" y="204.075423" style="fill: #1f77b4; stroke: #1f77b4"/>
     <use xlink:href="#m7f3b67bca9" x="102.009967" y="170.794376" style="fill: #1f77b4; stroke: #1f77b4"/>
     <use xlink:href="#m7f3b67bca9" x="93.716884" y="203.498076" style="fill: #1f77b4; stroke: #1f77b4"/>
     <use xlink:href="#m7f3b67bca9" x="104.351753" y="83.711492" style="fill: #1f77b4; stroke: #1f77b4"/>
     <use xlink:href="#m7f3b67bca9" x="143.180428" y="242.116364" style="fill: #1f77b4; stroke: #1f77b4"/>
     <use xlink:href="#m7f3b67bca9" x="89.326149" y="167.170513" style="fill: #1f77b4; stroke: #1f77b4"/>
     <use xlink:href="#m7f3b67bca9" x="173.708469" y="128.033486" style="fill: #1f77b4; stroke: #1f77b4"/>
     <use xlink:href="#m7f3b67bca9" x="99.944102" y="167.656413" style="fill: #1f77b4; stroke: #1f77b4"/>
     <use xlink:href="#m7f3b67bca9" x="95.31185" y="201.229559" style="fill: #1f77b4; stroke: #1f77b4"/>
     <use xlink:href="#m7f3b67bca9" x="84.626633" y="199.54668" style="fill: #1f77b4; stroke: #1f77b4"/>
     <use xlink:href="#m7f3b67bca9" x="115.871266" y="106.295284" style="fill: #1f77b4; stroke: #1f77b4"/>
     <use xlink:href="#m7f3b67bca9" x="115.616285" y="242.116364" style="fill: #1f77b4; stroke: #1f77b4"/>
     <use xlink:href="#m7f3b67bca9" x="82.103732" y="44.443636" style="fill: #1f77b4; stroke: #1f77b4"/>
     <use xlink:href="#m7f3b67bca9" x="105.694133" y="206.297827" style="fill: #1f77b4; stroke: #1f77b4"/>
     <use xlink:href="#m7f3b67bca9" x="195.404802" y="173.822478" style="fill: #1f77b4; stroke: #1f77b4"/>
     <use xlink:href="#m7f3b67bca9" x="157.353727" y="75.696736" style="fill: #1f77b4; stroke: #1f77b4"/>
     <use xlink:href="#m7f3b67bca9" x="100.121286" y="119.816228" style="fill: #1f77b4; stroke: #1f77b4"/>
     <use xlink:href="#m7f3b67bca9" x="164.823908" y="118.087095" style="fill: #1f77b4; stroke: #1f77b4"/>
     <use xlink:href="#m7f3b67bca9" x="81.068188" y="120.896898" style="fill: #1f77b4; stroke: #1f77b4"/>
     <use xlink:href="#m7f3b67bca9" x="172.557448" y="100.229481" style="fill: #1f77b4; stroke: #1f77b4"/>
     <use xlink:href="#m7f3b67bca9" x="97.004415" y="59.251686" style="fill: #1f77b4; stroke: #1f77b4"/>
     <use xlink:href="#m7f3b67bca9" x="109.217974" y="128.715346" style="fill: #1f77b4; stroke: #1f77b4"/>
     <use xlink:href="#m7f3b67bca9" x="94.056272" y="151.087132" style="fill: #1f77b4; stroke: #1f77b4"/>
     <use xlink:href="#m7f3b67bca9" x="93.799722" y="182.759729" style="fill: #1f77b4; stroke: #1f77b4"/>
     <use xlink:href="#m7f3b67bca9" x="146.39382" y="208.049644" style="fill: #1f77b4; stroke: #1f77b4"/>
     <use xlink:href="#m7f3b67bca9" x="89.048173" y="176.256183" style="fill: #1f77b4; stroke: #1f77b4"/>
     <use xlink:href="#m7f3b67bca9" x="130.583101" y="91.178257" style="fill: #1f77b4; stroke: #1f77b4"/>
     <use xlink:href="#m7f3b67bca9" x="87.685449" y="86.99252" style="fill: #1f77b4; stroke: #1f77b4"/>
     <use xlink:href="#m7f3b67bca9" x="89.728979" y="180.378433" style="fill: #1f77b4; stroke: #1f77b4"/>
     <use xlink:href="#m7f3b67bca9" x="145.214709" y="223.427577" style="fill: #1f77b4; stroke: #1f77b4"/>
     <use xlink:href="#m7f3b67bca9" x="122.620077" y="85.8245" style="fill: #1f77b4; stroke: #1f77b4"/>
     <use xlink:href="#m7f3b67bca9" x="204.208847" y="158.64663" style="fill: #1f77b4; stroke: #1f77b4"/>
     <use xlink:href="#m7f3b67bca9" x="138.990778" y="114.715561" style="fill: #1f77b4; stroke: #1f77b4"/>
     <use xlink:href="#m7f3b67bca9" x="212.813203" y="191.680048" style="fill: #1f77b4; stroke: #1f77b4"/>
     <use xlink:href="#m7f3b67bca9" x="91.58816" y="228.847523" style="fill: #1f77b4; stroke: #1f77b4"/>
     <use xlink:href="#m7f3b67bca9" x="168.400073" y="44.443636" style="fill: #1f77b4; stroke: #1f77b4"/>
     <use xlink:href="#m7f3b67bca9" x="129.743703" y="121.993988" style="fill: #1f77b4; stroke: #1f77b4"/>
    </g>
   </g>
   <g id="PathCollection_2">
    <defs>
     <path id="m906f22b7aa" d="M -3 3 
L 3 -3 
M -3 -3 
L 3 3 
" style="stroke: #ff7f0e; stroke-width: 2"/>
    </defs>
    <g clip-path="url(#p945d937e55)">
     <use xlink:href="#m906f22b7aa" x="247.031502" y="46.538435" style="fill: #ff7f0e; stroke: #ff7f0e; stroke-width: 2"/>
     <use xlink:href="#m906f22b7aa" x="245.635274" y="46.952152" style="fill: #ff7f0e; stroke: #ff7f0e; stroke-width: 2"/>
     <use xlink:href="#m906f22b7aa" x="244.583608" y="127.40755" style="fill: #ff7f0e; stroke: #ff7f0e; stroke-width: 2"/>
     <use xlink:href="#m906f22b7aa" x="245.999573" y="48.843451" style="fill: #ff7f0e; stroke: #ff7f0e; stroke-width: 2"/>
     <use xlink:href="#m906f22b7aa" x="243.820596" y="56.182039" style="fill: #ff7f0e; stroke: #ff7f0e; stroke-width: 2"/>
     <use xlink:href="#m906f22b7aa" x="106.226578" y="242.116364" style="fill: #ff7f0e; stroke: #ff7f0e; stroke-width: 2"/>
     <use xlink:href="#m906f22b7aa" x="241.383335" y="54.862611" style="fill: #ff7f0e; stroke: #ff7f0e; stroke-width: 2"/>
     <use xlink:href="#m906f22b7aa" x="236.828443" y="55.890883" style="fill: #ff7f0e; stroke: #ff7f0e; stroke-width: 2"/>
    </g>
   </g>
   <g id="matplotlib.axis_1">
    <g id="xtick_1">
     <g id="line2d_1">
      <defs>
       <path id="me6c0267027" d="M 0 0 
L 0 3.5 
" style="stroke: #000000; stroke-width: 0.8"/>
      </defs>
      <g>
       <use xlink:href="#me6c0267027" x="46.145455" y="252" style="stroke: #000000; stroke-width: 0.8"/>
      </g>
     </g>
     <g id="text_1">
      <!-- 0.0 -->
      <g transform="translate(27.061705 277.23625) scale(0.24 -0.24)">
       <defs>
        <path id="DejaVuSans-30" d="M 2034 4250 
Q 1547 4250 1301 3770 
Q 1056 3291 1056 2328 
Q 1056 1369 1301 889 
Q 1547 409 2034 409 
Q 2525 409 2770 889 
Q 3016 1369 3016 2328 
Q 3016 3291 2770 3770 
Q 2525 4250 2034 4250 
z
M 2034 4750 
Q 2819 4750 3233 4129 
Q 3647 3509 3647 2328 
Q 3647 1150 3233 529 
Q 2819 -91 2034 -91 
Q 1250 -91 836 529 
Q 422 1150 422 2328 
Q 422 3509 836 4129 
Q 1250 4750 2034 4750 
z
" transform="scale(0.015625)"/>
        <path id="DejaVuSans-2e" d="M 684 794 
L 1344 794 
L 1344 0 
L 684 0 
L 684 794 
z
" transform="scale(0.015625)"/>
       </defs>
       <use xlink:href="#DejaVuSans-30"/>
       <use xlink:href="#DejaVuSans-2e" x="63.623047"/>
       <use xlink:href="#DejaVuSans-30" x="95.410156"/>
      </g>
     </g>
    </g>
    <g id="xtick_2">
     <g id="line2d_2">
      <g>
       <use xlink:href="#me6c0267027" x="147.6" y="252" style="stroke: #000000; stroke-width: 0.8"/>
      </g>
     </g>
     <g id="text_2">
      <!-- 0.5 -->
      <g transform="translate(128.51625 277.23625) scale(0.24 -0.24)">
       <defs>
        <path id="DejaVuSans-35" d="M 691 4666 
L 3169 4666 
L 3169 4134 
L 1269 4134 
L 1269 2991 
Q 1406 3038 1543 3061 
Q 1681 3084 1819 3084 
Q 2600 3084 3056 2656 
Q 3513 2228 3513 1497 
Q 3513 744 3044 326 
Q 2575 -91 1722 -91 
Q 1428 -91 1123 -41 
Q 819 9 494 109 
L 494 744 
Q 775 591 1075 516 
Q 1375 441 1709 441 
Q 2250 441 2565 725 
Q 2881 1009 2881 1497 
Q 2881 1984 2565 2268 
Q 2250 2553 1709 2553 
Q 1456 2553 1204 2497 
Q 953 2441 691 2322 
L 691 4666 
z
" transform="scale(0.015625)"/>
       </defs>
       <use xlink:href="#DejaVuSans-30"/>
       <use xlink:href="#DejaVuSans-2e" x="63.623047"/>
       <use xlink:href="#DejaVuSans-35" x="95.410156"/>
      </g>
     </g>
    </g>
    <g id="xtick_3">
     <g id="line2d_3">
      <g>
       <use xlink:href="#me6c0267027" x="249.054545" y="252" style="stroke: #000000; stroke-width: 0.8"/>
      </g>
     </g>
     <g id="text_3">
      <!-- 1.0 -->
      <g transform="translate(229.970795 277.23625) scale(0.24 -0.24)">
       <defs>
        <path id="DejaVuSans-31" d="M 794 531 
L 1825 531 
L 1825 4091 
L 703 3866 
L 703 4441 
L 1819 4666 
L 2450 4666 
L 2450 531 
L 3481 531 
L 3481 0 
L 794 0 
L 794 531 
z
" transform="scale(0.015625)"/>
       </defs>
       <use xlink:href="#DejaVuSans-31"/>
       <use xlink:href="#DejaVuSans-2e" x="63.623047"/>
       <use xlink:href="#DejaVuSans-30" x="95.410156"/>
      </g>
     </g>
    </g>
    <g id="text_4">
     <!-- true $\gamma_{effort}$ -->
     <g transform="translate(88.68 304.415) scale(0.24 -0.24)">
      <defs>
       <path id="DejaVuSans-74" d="M 1172 4494 
L 1172 3500 
L 2356 3500 
L 2356 3053 
L 1172 3053 
L 1172 1153 
Q 1172 725 1289 603 
Q 1406 481 1766 481 
L 2356 481 
L 2356 0 
L 1766 0 
Q 1100 0 847 248 
Q 594 497 594 1153 
L 594 3053 
L 172 3053 
L 172 3500 
L 594 3500 
L 594 4494 
L 1172 4494 
z
" transform="scale(0.015625)"/>
       <path id="DejaVuSans-72" d="M 2631 2963 
Q 2534 3019 2420 3045 
Q 2306 3072 2169 3072 
Q 1681 3072 1420 2755 
Q 1159 2438 1159 1844 
L 1159 0 
L 581 0 
L 581 3500 
L 1159 3500 
L 1159 2956 
Q 1341 3275 1631 3429 
Q 1922 3584 2338 3584 
Q 2397 3584 2469 3576 
Q 2541 3569 2628 3553 
L 2631 2963 
z
" transform="scale(0.015625)"/>
       <path id="DejaVuSans-75" d="M 544 1381 
L 544 3500 
L 1119 3500 
L 1119 1403 
Q 1119 906 1312 657 
Q 1506 409 1894 409 
Q 2359 409 2629 706 
Q 2900 1003 2900 1516 
L 2900 3500 
L 3475 3500 
L 3475 0 
L 2900 0 
L 2900 538 
Q 2691 219 2414 64 
Q 2138 -91 1772 -91 
Q 1169 -91 856 284 
Q 544 659 544 1381 
z
M 1991 3584 
L 1991 3584 
z
" transform="scale(0.015625)"/>
       <path id="DejaVuSans-65" d="M 3597 1894 
L 3597 1613 
L 953 1613 
Q 991 1019 1311 708 
Q 1631 397 2203 397 
Q 2534 397 2845 478 
Q 3156 559 3463 722 
L 3463 178 
Q 3153 47 2828 -22 
Q 2503 -91 2169 -91 
Q 1331 -91 842 396 
Q 353 884 353 1716 
Q 353 2575 817 3079 
Q 1281 3584 2069 3584 
Q 2775 3584 3186 3129 
Q 3597 2675 3597 1894 
z
M 3022 2063 
Q 3016 2534 2758 2815 
Q 2500 3097 2075 3097 
Q 1594 3097 1305 2825 
Q 1016 2553 972 2059 
L 3022 2063 
z
" transform="scale(0.015625)"/>
       <path id="DejaVuSans-20" transform="scale(0.015625)"/>
       <path id="DejaVuSans-Oblique-3b3" d="M 1491 2950 
L 1838 788 
L 3456 3500 
L 4066 3500 
L 1972 0 
L 1713 -1331 
L 1138 -1331 
L 1397 0 
L 988 2613 
Q 925 3006 628 3006 
L 475 3006 
L 569 3500 
L 788 3500 
Q 1403 3500 1491 2950 
z
" transform="scale(0.015625)"/>
       <path id="DejaVuSans-Oblique-65" d="M 3078 2063 
Q 3088 2113 3092 2166 
Q 3097 2219 3097 2272 
Q 3097 2653 2873 2875 
Q 2650 3097 2266 3097 
Q 1838 3097 1509 2826 
Q 1181 2556 1013 2059 
L 3078 2063 
z
M 3578 1613 
L 903 1613 
Q 884 1494 878 1425 
Q 872 1356 872 1306 
Q 872 872 1139 634 
Q 1406 397 1894 397 
Q 2269 397 2603 481 
Q 2938 566 3225 728 
L 3116 159 
Q 2806 34 2476 -28 
Q 2147 -91 1806 -91 
Q 1078 -91 686 257 
Q 294 606 294 1247 
Q 294 1794 489 2264 
Q 684 2734 1063 3103 
Q 1306 3334 1642 3459 
Q 1978 3584 2356 3584 
Q 2950 3584 3301 3228 
Q 3653 2872 3653 2272 
Q 3653 2128 3634 1964 
Q 3616 1800 3578 1613 
z
" transform="scale(0.015625)"/>
       <path id="DejaVuSans-Oblique-66" d="M 3059 4863 
L 2969 4384 
L 2419 4384 
Q 2106 4384 1964 4261 
Q 1822 4138 1753 3809 
L 1691 3500 
L 2638 3500 
L 2553 3053 
L 1606 3053 
L 1013 0 
L 434 0 
L 1031 3053 
L 481 3053 
L 563 3500 
L 1113 3500 
L 1159 3744 
Q 1278 4363 1576 4613 
Q 1875 4863 2516 4863 
L 3059 4863 
z
" transform="scale(0.015625)"/>
       <path id="DejaVuSans-Oblique-6f" d="M 1625 -91 
Q 1009 -91 651 289 
Q 294 669 294 1325 
Q 294 1706 417 2101 
Q 541 2497 738 2766 
Q 1047 3184 1428 3384 
Q 1809 3584 2291 3584 
Q 2888 3584 3255 3212 
Q 3622 2841 3622 2241 
Q 3622 1825 3500 1412 
Q 3378 1000 3181 728 
Q 2875 309 2494 109 
Q 2113 -91 1625 -91 
z
M 891 1344 
Q 891 869 1089 633 
Q 1288 397 1691 397 
Q 2269 397 2648 901 
Q 3028 1406 3028 2181 
Q 3028 2634 2825 2865 
Q 2622 3097 2228 3097 
Q 1903 3097 1650 2945 
Q 1397 2794 1197 2484 
Q 1050 2253 970 1956 
Q 891 1659 891 1344 
z
" transform="scale(0.015625)"/>
       <path id="DejaVuSans-Oblique-72" d="M 2853 2969 
Q 2766 3016 2653 3041 
Q 2541 3066 2413 3066 
Q 1953 3066 1609 2717 
Q 1266 2369 1153 1784 
L 800 0 
L 225 0 
L 909 3500 
L 1484 3500 
L 1375 2956 
Q 1603 3259 1920 3421 
Q 2238 3584 2597 3584 
Q 2691 3584 2781 3573 
Q 2872 3563 2963 3538 
L 2853 2969 
z
" transform="scale(0.015625)"/>
       <path id="DejaVuSans-Oblique-74" d="M 2706 3500 
L 2619 3053 
L 1472 3053 
L 1100 1153 
Q 1081 1047 1072 975 
Q 1063 903 1063 863 
Q 1063 663 1183 572 
Q 1303 481 1569 481 
L 2150 481 
L 2053 0 
L 1503 0 
Q 991 0 739 200 
Q 488 400 488 806 
Q 488 878 497 964 
Q 506 1050 525 1153 
L 897 3053 
L 409 3053 
L 500 3500 
L 978 3500 
L 1172 4494 
L 1747 4494 
L 1556 3500 
L 2706 3500 
z
" transform="scale(0.015625)"/>
      </defs>
      <use xlink:href="#DejaVuSans-74" transform="translate(0 0.78125)"/>
      <use xlink:href="#DejaVuSans-72" transform="translate(39.208984 0.78125)"/>
      <use xlink:href="#DejaVuSans-75" transform="translate(80.322266 0.78125)"/>
      <use xlink:href="#DejaVuSans-65" transform="translate(143.701172 0.78125)"/>
      <use xlink:href="#DejaVuSans-20" transform="translate(205.224609 0.78125)"/>
      <use xlink:href="#DejaVuSans-Oblique-3b3" transform="translate(237.011719 0.78125)"/>
      <use xlink:href="#DejaVuSans-Oblique-65" transform="translate(296.191406 -15.625) scale(0.7)"/>
      <use xlink:href="#DejaVuSans-Oblique-66" transform="translate(339.257812 -15.625) scale(0.7)"/>
      <use xlink:href="#DejaVuSans-Oblique-66" transform="translate(363.901367 -15.625) scale(0.7)"/>
      <use xlink:href="#DejaVuSans-Oblique-6f" transform="translate(388.544922 -15.625) scale(0.7)"/>
      <use xlink:href="#DejaVuSans-Oblique-72" transform="translate(431.37207 -15.625) scale(0.7)"/>
      <use xlink:href="#DejaVuSans-Oblique-74" transform="translate(460.151367 -15.625) scale(0.7)"/>
     </g>
    </g>
   </g>
   <g id="matplotlib.axis_2">
    <g id="ytick_1">
     <g id="line2d_4">
      <defs>
       <path id="me77e65d574" d="M 0 0 
L -3.5 0 
" style="stroke: #000000; stroke-width: 0.8"/>
      </defs>
      <g>
       <use xlink:href="#me77e65d574" x="36" y="242.116364" style="stroke: #000000; stroke-width: 0.8"/>
      </g>
     </g>
     <g id="text_5">
      <!-- 0.0 -->
      <g transform="translate(-9.1675 251.234489) scale(0.24 -0.24)">
       <use xlink:href="#DejaVuSans-30"/>
       <use xlink:href="#DejaVuSans-2e" x="63.623047"/>
       <use xlink:href="#DejaVuSans-30" x="95.410156"/>
      </g>
     </g>
    </g>
    <g id="ytick_2">
     <g id="line2d_5">
      <g>
       <use xlink:href="#me77e65d574" x="36" y="143.28" style="stroke: #000000; stroke-width: 0.8"/>
      </g>
     </g>
     <g id="text_6">
      <!-- 0.5 -->
      <g transform="translate(-9.1675 152.398125) scale(0.24 -0.24)">
       <use xlink:href="#DejaVuSans-30"/>
       <use xlink:href="#DejaVuSans-2e" x="63.623047"/>
       <use xlink:href="#DejaVuSans-35" x="95.410156"/>
      </g>
     </g>
    </g>
    <g id="ytick_3">
     <g id="line2d_6">
      <g>
       <use xlink:href="#me77e65d574" x="36" y="44.443636" style="stroke: #000000; stroke-width: 0.8"/>
      </g>
     </g>
     <g id="text_7">
      <!-- 1.0 -->
      <g transform="translate(-9.1675 53.561761) scale(0.24 -0.24)">
       <use xlink:href="#DejaVuSans-31"/>
       <use xlink:href="#DejaVuSans-2e" x="63.623047"/>
       <use xlink:href="#DejaVuSans-30" x="95.410156"/>
      </g>
     </g>
    </g>
    <g id="text_8">
     <!-- estimated $\gamma_{effort}$ -->
     <g transform="translate(-18.2075 237.96) rotate(-90) scale(0.24 -0.24)">
      <defs>
       <path id="DejaVuSans-73" d="M 2834 3397 
L 2834 2853 
Q 2591 2978 2328 3040 
Q 2066 3103 1784 3103 
Q 1356 3103 1142 2972 
Q 928 2841 928 2578 
Q 928 2378 1081 2264 
Q 1234 2150 1697 2047 
L 1894 2003 
Q 2506 1872 2764 1633 
Q 3022 1394 3022 966 
Q 3022 478 2636 193 
Q 2250 -91 1575 -91 
Q 1294 -91 989 -36 
Q 684 19 347 128 
L 347 722 
Q 666 556 975 473 
Q 1284 391 1588 391 
Q 1994 391 2212 530 
Q 2431 669 2431 922 
Q 2431 1156 2273 1281 
Q 2116 1406 1581 1522 
L 1381 1569 
Q 847 1681 609 1914 
Q 372 2147 372 2553 
Q 372 3047 722 3315 
Q 1072 3584 1716 3584 
Q 2034 3584 2315 3537 
Q 2597 3491 2834 3397 
z
" transform="scale(0.015625)"/>
       <path id="DejaVuSans-69" d="M 603 3500 
L 1178 3500 
L 1178 0 
L 603 0 
L 603 3500 
z
M 603 4863 
L 1178 4863 
L 1178 4134 
L 603 4134 
L 603 4863 
z
" transform="scale(0.015625)"/>
       <path id="DejaVuSans-6d" d="M 3328 2828 
Q 3544 3216 3844 3400 
Q 4144 3584 4550 3584 
Q 5097 3584 5394 3201 
Q 5691 2819 5691 2113 
L 5691 0 
L 5113 0 
L 5113 2094 
Q 5113 2597 4934 2840 
Q 4756 3084 4391 3084 
Q 3944 3084 3684 2787 
Q 3425 2491 3425 1978 
L 3425 0 
L 2847 0 
L 2847 2094 
Q 2847 2600 2669 2842 
Q 2491 3084 2119 3084 
Q 1678 3084 1418 2786 
Q 1159 2488 1159 1978 
L 1159 0 
L 581 0 
L 581 3500 
L 1159 3500 
L 1159 2956 
Q 1356 3278 1631 3431 
Q 1906 3584 2284 3584 
Q 2666 3584 2933 3390 
Q 3200 3197 3328 2828 
z
" transform="scale(0.015625)"/>
       <path id="DejaVuSans-61" d="M 2194 1759 
Q 1497 1759 1228 1600 
Q 959 1441 959 1056 
Q 959 750 1161 570 
Q 1363 391 1709 391 
Q 2188 391 2477 730 
Q 2766 1069 2766 1631 
L 2766 1759 
L 2194 1759 
z
M 3341 1997 
L 3341 0 
L 2766 0 
L 2766 531 
Q 2569 213 2275 61 
Q 1981 -91 1556 -91 
Q 1019 -91 701 211 
Q 384 513 384 1019 
Q 384 1609 779 1909 
Q 1175 2209 1959 2209 
L 2766 2209 
L 2766 2266 
Q 2766 2663 2505 2880 
Q 2244 3097 1772 3097 
Q 1472 3097 1187 3025 
Q 903 2953 641 2809 
L 641 3341 
Q 956 3463 1253 3523 
Q 1550 3584 1831 3584 
Q 2591 3584 2966 3190 
Q 3341 2797 3341 1997 
z
" transform="scale(0.015625)"/>
       <path id="DejaVuSans-64" d="M 2906 2969 
L 2906 4863 
L 3481 4863 
L 3481 0 
L 2906 0 
L 2906 525 
Q 2725 213 2448 61 
Q 2172 -91 1784 -91 
Q 1150 -91 751 415 
Q 353 922 353 1747 
Q 353 2572 751 3078 
Q 1150 3584 1784 3584 
Q 2172 3584 2448 3432 
Q 2725 3281 2906 2969 
z
M 947 1747 
Q 947 1113 1208 752 
Q 1469 391 1925 391 
Q 2381 391 2643 752 
Q 2906 1113 2906 1747 
Q 2906 2381 2643 2742 
Q 2381 3103 1925 3103 
Q 1469 3103 1208 2742 
Q 947 2381 947 1747 
z
" transform="scale(0.015625)"/>
      </defs>
      <use xlink:href="#DejaVuSans-65" transform="translate(0 0.015625)"/>
      <use xlink:href="#DejaVuSans-73" transform="translate(61.523438 0.015625)"/>
      <use xlink:href="#DejaVuSans-74" transform="translate(113.623047 0.015625)"/>
      <use xlink:href="#DejaVuSans-69" transform="translate(152.832031 0.015625)"/>
      <use xlink:href="#DejaVuSans-6d" transform="translate(180.615234 0.015625)"/>
      <use xlink:href="#DejaVuSans-61" transform="translate(278.027344 0.015625)"/>
      <use xlink:href="#DejaVuSans-74" transform="translate(339.306641 0.015625)"/>
      <use xlink:href="#DejaVuSans-65" transform="translate(378.515625 0.015625)"/>
      <use xlink:href="#DejaVuSans-64" transform="translate(440.039062 0.015625)"/>
      <use xlink:href="#DejaVuSans-20" transform="translate(503.515625 0.015625)"/>
      <use xlink:href="#DejaVuSans-Oblique-3b3" transform="translate(535.302734 0.015625)"/>
      <use xlink:href="#DejaVuSans-Oblique-65" transform="translate(594.482422 -16.390625) scale(0.7)"/>
      <use xlink:href="#DejaVuSans-Oblique-66" transform="translate(637.548828 -16.390625) scale(0.7)"/>
      <use xlink:href="#DejaVuSans-Oblique-66" transform="translate(662.192383 -16.390625) scale(0.7)"/>
      <use xlink:href="#DejaVuSans-Oblique-6f" transform="translate(686.835938 -16.390625) scale(0.7)"/>
      <use xlink:href="#DejaVuSans-Oblique-72" transform="translate(729.663086 -16.390625) scale(0.7)"/>
      <use xlink:href="#DejaVuSans-Oblique-74" transform="translate(758.442383 -16.390625) scale(0.7)"/>
     </g>
    </g>
   </g>
   <g id="line2d_7">
    <path d="M 36 252 
L 60.8 227.84 
L 85.6 203.68 
L 110.4 179.52 
L 135.2 155.36 
L 160 131.2 
L 184.8 107.04 
L 209.6 82.88 
L 234.4 58.72 
L 259.2 34.56 
" clip-path="url(#p945d937e55)" style="fill: none; stroke: #000000; stroke-linecap: square"/>
   </g>
   <g id="patch_3">
    <path d="M 36 252 
L 36 34.56 
" style="fill: none; stroke: #000000; stroke-width: 2; stroke-linejoin: miter; stroke-linecap: square"/>
   </g>
   <g id="patch_4">
    <path d="M 36 252 
L 259.2 252 
" style="fill: none; stroke: #000000; stroke-width: 2; stroke-linejoin: miter; stroke-linecap: square"/>
   </g>
  </g>
 </g>
 <defs>
  <clipPath id="p945d937e55">
   <rect x="36" y="34.56" width="223.2" height="217.44"/>
  </clipPath>
 </defs>
</svg>
