<?xml version="1.0" encoding="utf-8" standalone="no"?>
<!DOCTYPE svg PUBLIC "-//W3C//DTD SVG 1.1//EN"
  "http://www.w3.org/Graphics/SVG/1.1/DTD/svg11.dtd">
<svg xmlns:xlink="http://www.w3.org/1999/xlink" width="288pt" height="288pt" viewBox="0 0 288 288" xmlns="http://www.w3.org/2000/svg" version="1.1">
 <metadata>
  <rdf:RDF xmlns:dc="http://purl.org/dc/elements/1.1/" xmlns:cc="http://creativecommons.org/ns#" xmlns:rdf="http://www.w3.org/1999/02/22-rdf-syntax-ns#">
   <cc:Work>
    <dc:type rdf:resource="http://purl.org/dc/dcmitype/StillImage"/>
    <dc:date>2024-08-23T20:27:31.913135</dc:date>
    <dc:format>image/svg+xml</dc:format>
    <dc:creator>
     <cc:Agent>
      <dc:title>Matplotlib v3.8.4, https://matplotlib.org/</dc:title>
     </cc:Agent>
    </dc:creator>
   </cc:Work>
  </rdf:RDF>
 </metadata>
 <defs>
  <style type="text/css">*{stroke-linejoin: round; stroke-linecap: butt}</style>
 </defs>
 <g id="figure_1">
  <g id="patch_1">
   <path d="M 0 288 
L 288 288 
L 288 0 
L 0 0 
z
" style="fill: #ffffff"/>
  </g>
  <g id="axes_1">
   <g id="patch_2">
    <path d="M 36 252 
L 259.2 252 
L 259.2 34.56 
L 36 34.56 
z
" style="fill: #ffffff"/>
   </g>
   <g id="PathCollection_1">
    <defs>
     <path id="m4873e6c10b" d="M 0 3 
C 0.795609 3 1.55874 2.683901 2.12132 2.12132 
C 2.683901 1.55874 3 0.795609 3 0 
C 3 -0.795609 2.683901 -1.55874 2.12132 -2.12132 
C 1.55874 -2.683901 0.795609 -3 0 -3 
C -0.795609 -3 -1.55874 -2.683901 -2.12132 -2.12132 
C -2.683901 -1.55874 -3 -0.795609 -3 0 
C -3 0.795609 -2.683901 1.55874 -2.12132 2.12132 
C -1.55874 2.683901 -0.795609 3 0 3 
z
" style="stroke: #1f77b4"/>
    </defs>
    <g clip-path="url(#p6be8765909)">
     <use xlink:href="#m4873e6c10b" x="231.320387" y="55.951349" style="fill: #1f77b4; stroke: #1f77b4"/>
     <use xlink:href="#m4873e6c10b" x="113.960336" y="165.499667" style="fill: #1f77b4; stroke: #1f77b4"/>
     <use xlink:href="#m4873e6c10b" x="136.464777" y="169.847549" style="fill: #1f77b4; stroke: #1f77b4"/>
     <use xlink:href="#m4873e6c10b" x="166.587318" y="121.68445" style="fill: #1f77b4; stroke: #1f77b4"/>
     <use xlink:href="#m4873e6c10b" x="244.711802" y="44.914286" style="fill: #1f77b4; stroke: #1f77b4"/>
     <use xlink:href="#m4873e6c10b" x="228.541091" y="44.914286" style="fill: #1f77b4; stroke: #1f77b4"/>
     <use xlink:href="#m4873e6c10b" x="228.478831" y="78.679571" style="fill: #1f77b4; stroke: #1f77b4"/>
     <use xlink:href="#m4873e6c10b" x="173.162354" y="120.051242" style="fill: #1f77b4; stroke: #1f77b4"/>
     <use xlink:href="#m4873e6c10b" x="175.12065" y="118.537804" style="fill: #1f77b4; stroke: #1f77b4"/>
     <use xlink:href="#m4873e6c10b" x="209.798791" y="85.834173" style="fill: #1f77b4; stroke: #1f77b4"/>
     <use xlink:href="#m4873e6c10b" x="95.224518" y="168.565917" style="fill: #1f77b4; stroke: #1f77b4"/>
     <use xlink:href="#m4873e6c10b" x="145.852288" y="201.182493" style="fill: #1f77b4; stroke: #1f77b4"/>
     <use xlink:href="#m4873e6c10b" x="192.334851" y="87.939806" style="fill: #1f77b4; stroke: #1f77b4"/>
     <use xlink:href="#m4873e6c10b" x="201.106044" y="102.346709" style="fill: #1f77b4; stroke: #1f77b4"/>
     <use xlink:href="#m4873e6c10b" x="234.855724" y="54.17151" style="fill: #1f77b4; stroke: #1f77b4"/>
     <use xlink:href="#m4873e6c10b" x="165.522667" y="121.075132" style="fill: #1f77b4; stroke: #1f77b4"/>
     <use xlink:href="#m4873e6c10b" x="159.757963" y="135.604233" style="fill: #1f77b4; stroke: #1f77b4"/>
     <use xlink:href="#m4873e6c10b" x="198.140008" y="92.206474" style="fill: #1f77b4; stroke: #1f77b4"/>
     <use xlink:href="#m4873e6c10b" x="243.773529" y="55.066324" style="fill: #1f77b4; stroke: #1f77b4"/>
     <use xlink:href="#m4873e6c10b" x="244.422602" y="56.949472" style="fill: #1f77b4; stroke: #1f77b4"/>
     <use xlink:href="#m4873e6c10b" x="218.456149" y="96.183176" style="fill: #1f77b4; stroke: #1f77b4"/>
     <use xlink:href="#m4873e6c10b" x="182.012087" y="101.153826" style="fill: #1f77b4; stroke: #1f77b4"/>
     <use xlink:href="#m4873e6c10b" x="134.874756" y="139.65202" style="fill: #1f77b4; stroke: #1f77b4"/>
     <use xlink:href="#m4873e6c10b" x="246.351245" y="44.914286" style="fill: #1f77b4; stroke: #1f77b4"/>
     <use xlink:href="#m4873e6c10b" x="184.837076" y="179.18497" style="fill: #1f77b4; stroke: #1f77b4"/>
     <use xlink:href="#m4873e6c10b" x="191.768284" y="92.89454" style="fill: #1f77b4; stroke: #1f77b4"/>
     <use xlink:href="#m4873e6c10b" x="225.713752" y="69.712857" style="fill: #1f77b4; stroke: #1f77b4"/>
     <use xlink:href="#m4873e6c10b" x="191.594681" y="107.59341" style="fill: #1f77b4; stroke: #1f77b4"/>
     <use xlink:href="#m4873e6c10b" x="196.266028" y="96.494308" style="fill: #1f77b4; stroke: #1f77b4"/>
     <use xlink:href="#m4873e6c10b" x="231.307292" y="60.547943" style="fill: #1f77b4; stroke: #1f77b4"/>
     <use xlink:href="#m4873e6c10b" x="99.149301" y="200.18728" style="fill: #1f77b4; stroke: #1f77b4"/>
     <use xlink:href="#m4873e6c10b" x="97.520432" y="204.306309" style="fill: #1f77b4; stroke: #1f77b4"/>
     <use xlink:href="#m4873e6c10b" x="225.579088" y="69.734391" style="fill: #1f77b4; stroke: #1f77b4"/>
     <use xlink:href="#m4873e6c10b" x="193.46541" y="100.845624" style="fill: #1f77b4; stroke: #1f77b4"/>
     <use xlink:href="#m4873e6c10b" x="210.833327" y="80.771423" style="fill: #1f77b4; stroke: #1f77b4"/>
     <use xlink:href="#m4873e6c10b" x="213.804911" y="88.651143" style="fill: #1f77b4; stroke: #1f77b4"/>
     <use xlink:href="#m4873e6c10b" x="193.891491" y="118.866054" style="fill: #1f77b4; stroke: #1f77b4"/>
     <use xlink:href="#m4873e6c10b" x="183.367928" y="113.389016" style="fill: #1f77b4; stroke: #1f77b4"/>
     <use xlink:href="#m4873e6c10b" x="234.509431" y="44.914286" style="fill: #1f77b4; stroke: #1f77b4"/>
     <use xlink:href="#m4873e6c10b" x="232.183384" y="44.914286" style="fill: #1f77b4; stroke: #1f77b4"/>
     <use xlink:href="#m4873e6c10b" x="185.980266" y="117.136909" style="fill: #1f77b4; stroke: #1f77b4"/>
     <use xlink:href="#m4873e6c10b" x="149.240232" y="113.943091" style="fill: #1f77b4; stroke: #1f77b4"/>
     <use xlink:href="#m4873e6c10b" x="159.521922" y="129.40294" style="fill: #1f77b4; stroke: #1f77b4"/>
     <use xlink:href="#m4873e6c10b" x="143.186181" y="252.843784" style="fill: #1f77b4; stroke: #1f77b4"/>
     <use xlink:href="#m4873e6c10b" x="225.638279" y="62.863534" style="fill: #1f77b4; stroke: #1f77b4"/>
     <use xlink:href="#m4873e6c10b" x="232.390763" y="55.124989" style="fill: #1f77b4; stroke: #1f77b4"/>
     <use xlink:href="#m4873e6c10b" x="161.43381" y="124.887433" style="fill: #1f77b4; stroke: #1f77b4"/>
     <use xlink:href="#m4873e6c10b" x="222.360154" y="44.914286" style="fill: #1f77b4; stroke: #1f77b4"/>
     <use xlink:href="#m4873e6c10b" x="162.338728" y="134.973938" style="fill: #1f77b4; stroke: #1f77b4"/>
     <use xlink:href="#m4873e6c10b" x="175.531977" y="107.820634" style="fill: #1f77b4; stroke: #1f77b4"/>
     <use xlink:href="#m4873e6c10b" x="146.91584" y="252.843784" style="fill: #1f77b4; stroke: #1f77b4"/>
     <use xlink:href="#m4873e6c10b" x="204.881013" y="87.039331" style="fill: #1f77b4; stroke: #1f77b4"/>
     <use xlink:href="#m4873e6c10b" x="178.406336" y="112.384236" style="fill: #1f77b4; stroke: #1f77b4"/>
     <use xlink:href="#m4873e6c10b" x="247.868359" y="71.030113" style="fill: #1f77b4; stroke: #1f77b4"/>
     <use xlink:href="#m4873e6c10b" x="137.111715" y="130.392941" style="fill: #1f77b4; stroke: #1f77b4"/>
     <use xlink:href="#m4873e6c10b" x="103.333447" y="196.928533" style="fill: #1f77b4; stroke: #1f77b4"/>
     <use xlink:href="#m4873e6c10b" x="179.565926" y="103.12187" style="fill: #1f77b4; stroke: #1f77b4"/>
     <use xlink:href="#m4873e6c10b" x="98.20525" y="197.782275" style="fill: #1f77b4; stroke: #1f77b4"/>
     <use xlink:href="#m4873e6c10b" x="242.335841" y="49.811487" style="fill: #1f77b4; stroke: #1f77b4"/>
     <use xlink:href="#m4873e6c10b" x="221.084933" y="96.317419" style="fill: #1f77b4; stroke: #1f77b4"/>
     <use xlink:href="#m4873e6c10b" x="168.118863" y="136.160673" style="fill: #1f77b4; stroke: #1f77b4"/>
     <use xlink:href="#m4873e6c10b" x="165.102698" y="129.642206" style="fill: #1f77b4; stroke: #1f77b4"/>
     <use xlink:href="#m4873e6c10b" x="230.522274" y="44.914286" style="fill: #1f77b4; stroke: #1f77b4"/>
     <use xlink:href="#m4873e6c10b" x="200.426968" y="78.113116" style="fill: #1f77b4; stroke: #1f77b4"/>
     <use xlink:href="#m4873e6c10b" x="231.600852" y="85.530698" style="fill: #1f77b4; stroke: #1f77b4"/>
     <use xlink:href="#m4873e6c10b" x="240.109161" y="44.914286" style="fill: #1f77b4; stroke: #1f77b4"/>
     <use xlink:href="#m4873e6c10b" x="70.920542" y="232.724183" style="fill: #1f77b4; stroke: #1f77b4"/>
     <use xlink:href="#m4873e6c10b" x="160.338122" y="129.724566" style="fill: #1f77b4; stroke: #1f77b4"/>
     <use xlink:href="#m4873e6c10b" x="142.655912" y="137.939824" style="fill: #1f77b4; stroke: #1f77b4"/>
     <use xlink:href="#m4873e6c10b" x="158.957384" y="146.427105" style="fill: #1f77b4; stroke: #1f77b4"/>
     <use xlink:href="#m4873e6c10b" x="165.865592" y="71.322792" style="fill: #1f77b4; stroke: #1f77b4"/>
     <use xlink:href="#m4873e6c10b" x="238.703547" y="46.610682" style="fill: #1f77b4; stroke: #1f77b4"/>
     <use xlink:href="#m4873e6c10b" x="154.351641" y="151.973779" style="fill: #1f77b4; stroke: #1f77b4"/>
     <use xlink:href="#m4873e6c10b" x="163.96662" y="135.734941" style="fill: #1f77b4; stroke: #1f77b4"/>
     <use xlink:href="#m4873e6c10b" x="163.477692" y="124.969161" style="fill: #1f77b4; stroke: #1f77b4"/>
     <use xlink:href="#m4873e6c10b" x="105.488508" y="170.933856" style="fill: #1f77b4; stroke: #1f77b4"/>
     <use xlink:href="#m4873e6c10b" x="225.918902" y="51.960617" style="fill: #1f77b4; stroke: #1f77b4"/>
     <use xlink:href="#m4873e6c10b" x="224.521566" y="93.818349" style="fill: #1f77b4; stroke: #1f77b4"/>
     <use xlink:href="#m4873e6c10b" x="151.986156" y="138.269736" style="fill: #1f77b4; stroke: #1f77b4"/>
     <use xlink:href="#m4873e6c10b" x="182.338172" y="121.489223" style="fill: #1f77b4; stroke: #1f77b4"/>
     <use xlink:href="#m4873e6c10b" x="197.16556" y="96.131884" style="fill: #1f77b4; stroke: #1f77b4"/>
     <use xlink:href="#m4873e6c10b" x="173.552429" y="137.232919" style="fill: #1f77b4; stroke: #1f77b4"/>
     <use xlink:href="#m4873e6c10b" x="127.939496" y="201.182493" style="fill: #1f77b4; stroke: #1f77b4"/>
     <use xlink:href="#m4873e6c10b" x="226.597676" y="78.113637" style="fill: #1f77b4; stroke: #1f77b4"/>
     <use xlink:href="#m4873e6c10b" x="233.630342" y="67.650286" style="fill: #1f77b4; stroke: #1f77b4"/>
     <use xlink:href="#m4873e6c10b" x="184.260132" y="120.950142" style="fill: #1f77b4; stroke: #1f77b4"/>
     <use xlink:href="#m4873e6c10b" x="185.286822" y="107.092672" style="fill: #1f77b4; stroke: #1f77b4"/>
     <use xlink:href="#m4873e6c10b" x="171.151294" y="140.877595" style="fill: #1f77b4; stroke: #1f77b4"/>
     <use xlink:href="#m4873e6c10b" x="231.744638" y="74.595972" style="fill: #1f77b4; stroke: #1f77b4"/>
     <use xlink:href="#m4873e6c10b" x="231.391957" y="65.568108" style="fill: #1f77b4; stroke: #1f77b4"/>
     <use xlink:href="#m4873e6c10b" x="234.674484" y="44.914286" style="fill: #1f77b4; stroke: #1f77b4"/>
     <use xlink:href="#m4873e6c10b" x="216.045653" y="82.451445" style="fill: #1f77b4; stroke: #1f77b4"/>
     <use xlink:href="#m4873e6c10b" x="245.148615" y="44.914286" style="fill: #1f77b4; stroke: #1f77b4"/>
     <use xlink:href="#m4873e6c10b" x="202.834904" y="103.974066" style="fill: #1f77b4; stroke: #1f77b4"/>
     <use xlink:href="#m4873e6c10b" x="209.423986" y="92.100822" style="fill: #1f77b4; stroke: #1f77b4"/>
     <use xlink:href="#m4873e6c10b" x="94.496962" y="208.749515" style="fill: #1f77b4; stroke: #1f77b4"/>
     <use xlink:href="#m4873e6c10b" x="244.497996" y="44.914286" style="fill: #1f77b4; stroke: #1f77b4"/>
     <use xlink:href="#m4873e6c10b" x="199.121517" y="89.516982" style="fill: #1f77b4; stroke: #1f77b4"/>
     <use xlink:href="#m4873e6c10b" x="209.414443" y="95.894374" style="fill: #1f77b4; stroke: #1f77b4"/>
     <use xlink:href="#m4873e6c10b" x="97.04288" y="201.182493" style="fill: #1f77b4; stroke: #1f77b4"/>
     <use xlink:href="#m4873e6c10b" x="191.250269" y="108.115422" style="fill: #1f77b4; stroke: #1f77b4"/>
     <use xlink:href="#m4873e6c10b" x="74.601534" y="214.683365" style="fill: #1f77b4; stroke: #1f77b4"/>
     <use xlink:href="#m4873e6c10b" x="149.671581" y="155.510151" style="fill: #1f77b4; stroke: #1f77b4"/>
     <use xlink:href="#m4873e6c10b" x="147.980569" y="146.446214" style="fill: #1f77b4; stroke: #1f77b4"/>
     <use xlink:href="#m4873e6c10b" x="164.927584" y="133.662699" style="fill: #1f77b4; stroke: #1f77b4"/>
     <use xlink:href="#m4873e6c10b" x="214.731264" y="83.981638" style="fill: #1f77b4; stroke: #1f77b4"/>
     <use xlink:href="#m4873e6c10b" x="213.807055" y="78.887641" style="fill: #1f77b4; stroke: #1f77b4"/>
     <use xlink:href="#m4873e6c10b" x="210.344462" y="80.929714" style="fill: #1f77b4; stroke: #1f77b4"/>
     <use xlink:href="#m4873e6c10b" x="222.721674" y="75.262102" style="fill: #1f77b4; stroke: #1f77b4"/>
     <use xlink:href="#m4873e6c10b" x="226.898204" y="49.661809" style="fill: #1f77b4; stroke: #1f77b4"/>
     <use xlink:href="#m4873e6c10b" x="231.371297" y="48.78405" style="fill: #1f77b4; stroke: #1f77b4"/>
     <use xlink:href="#m4873e6c10b" x="226.962364" y="75.003055" style="fill: #1f77b4; stroke: #1f77b4"/>
     <use xlink:href="#m4873e6c10b" x="81.684656" y="217.395434" style="fill: #1f77b4; stroke: #1f77b4"/>
     <use xlink:href="#m4873e6c10b" x="117.330605" y="163.248142" style="fill: #1f77b4; stroke: #1f77b4"/>
     <use xlink:href="#m4873e6c10b" x="211.094227" y="81.495342" style="fill: #1f77b4; stroke: #1f77b4"/>
     <use xlink:href="#m4873e6c10b" x="185.758523" y="106.724453" style="fill: #1f77b4; stroke: #1f77b4"/>
     <use xlink:href="#m4873e6c10b" x="239.977396" y="45.177894" style="fill: #1f77b4; stroke: #1f77b4"/>
     <use xlink:href="#m4873e6c10b" x="229.030693" y="71.983224" style="fill: #1f77b4; stroke: #1f77b4"/>
     <use xlink:href="#m4873e6c10b" x="181.918494" y="104.040843" style="fill: #1f77b4; stroke: #1f77b4"/>
     <use xlink:href="#m4873e6c10b" x="245.728531" y="62.297921" style="fill: #1f77b4; stroke: #1f77b4"/>
     <use xlink:href="#m4873e6c10b" x="205.018984" y="94.161693" style="fill: #1f77b4; stroke: #1f77b4"/>
     <use xlink:href="#m4873e6c10b" x="199.616423" y="96.874729" style="fill: #1f77b4; stroke: #1f77b4"/>
     <use xlink:href="#m4873e6c10b" x="148.88602" y="202.989191" style="fill: #1f77b4; stroke: #1f77b4"/>
     <use xlink:href="#m4873e6c10b" x="84.164743" y="257.501005" style="fill: #1f77b4; stroke: #1f77b4"/>
     <use xlink:href="#m4873e6c10b" x="141.436" y="170.488418" style="fill: #1f77b4; stroke: #1f77b4"/>
     <use xlink:href="#m4873e6c10b" x="200.048221" y="94.858162" style="fill: #1f77b4; stroke: #1f77b4"/>
     <use xlink:href="#m4873e6c10b" x="89.068846" y="209.124413" style="fill: #1f77b4; stroke: #1f77b4"/>
     <use xlink:href="#m4873e6c10b" x="189.510497" y="122.448729" style="fill: #1f77b4; stroke: #1f77b4"/>
     <use xlink:href="#m4873e6c10b" x="244.454644" y="75.798266" style="fill: #1f77b4; stroke: #1f77b4"/>
     <use xlink:href="#m4873e6c10b" x="161.599015" y="148.25772" style="fill: #1f77b4; stroke: #1f77b4"/>
     <use xlink:href="#m4873e6c10b" x="242.164218" y="73.270391" style="fill: #1f77b4; stroke: #1f77b4"/>
     <use xlink:href="#m4873e6c10b" x="199.818882" y="93.976116" style="fill: #1f77b4; stroke: #1f77b4"/>
     <use xlink:href="#m4873e6c10b" x="242.379629" y="62.659271" style="fill: #1f77b4; stroke: #1f77b4"/>
     <use xlink:href="#m4873e6c10b" x="201.637016" y="93.811556" style="fill: #1f77b4; stroke: #1f77b4"/>
     <use xlink:href="#m4873e6c10b" x="178.002998" y="114.193654" style="fill: #1f77b4; stroke: #1f77b4"/>
     <use xlink:href="#m4873e6c10b" x="196.472463" y="107.778354" style="fill: #1f77b4; stroke: #1f77b4"/>
     <use xlink:href="#m4873e6c10b" x="168.641719" y="131.684728" style="fill: #1f77b4; stroke: #1f77b4"/>
     <use xlink:href="#m4873e6c10b" x="192.689185" y="93.653854" style="fill: #1f77b4; stroke: #1f77b4"/>
     <use xlink:href="#m4873e6c10b" x="120.563424" y="170.291878" style="fill: #1f77b4; stroke: #1f77b4"/>
     <use xlink:href="#m4873e6c10b" x="126.571988" y="162.845721" style="fill: #1f77b4; stroke: #1f77b4"/>
     <use xlink:href="#m4873e6c10b" x="238.182394" y="47.285386" style="fill: #1f77b4; stroke: #1f77b4"/>
     <use xlink:href="#m4873e6c10b" x="242.937916" y="56.947456" style="fill: #1f77b4; stroke: #1f77b4"/>
     <use xlink:href="#m4873e6c10b" x="183.393798" y="118.889448" style="fill: #1f77b4; stroke: #1f77b4"/>
     <use xlink:href="#m4873e6c10b" x="224.651672" y="77.431717" style="fill: #1f77b4; stroke: #1f77b4"/>
     <use xlink:href="#m4873e6c10b" x="185.237588" y="111.556241" style="fill: #1f77b4; stroke: #1f77b4"/>
     <use xlink:href="#m4873e6c10b" x="187.54404" y="117.053942" style="fill: #1f77b4; stroke: #1f77b4"/>
     <use xlink:href="#m4873e6c10b" x="126.585041" y="175.211063" style="fill: #1f77b4; stroke: #1f77b4"/>
     <use xlink:href="#m4873e6c10b" x="190.323119" y="100.317291" style="fill: #1f77b4; stroke: #1f77b4"/>
     <use xlink:href="#m4873e6c10b" x="131.642613" y="201.182493" style="fill: #1f77b4; stroke: #1f77b4"/>
     <use xlink:href="#m4873e6c10b" x="205.207755" y="82.87058" style="fill: #1f77b4; stroke: #1f77b4"/>
     <use xlink:href="#m4873e6c10b" x="238.851597" y="64.190897" style="fill: #1f77b4; stroke: #1f77b4"/>
     <use xlink:href="#m4873e6c10b" x="93.996255" y="183.72764" style="fill: #1f77b4; stroke: #1f77b4"/>
     <use xlink:href="#m4873e6c10b" x="143.605295" y="167.674716" style="fill: #1f77b4; stroke: #1f77b4"/>
     <use xlink:href="#m4873e6c10b" x="204.036371" y="93.05361" style="fill: #1f77b4; stroke: #1f77b4"/>
     <use xlink:href="#m4873e6c10b" x="139.21109" y="143.364263" style="fill: #1f77b4; stroke: #1f77b4"/>
     <use xlink:href="#m4873e6c10b" x="149.016813" y="150.323142" style="fill: #1f77b4; stroke: #1f77b4"/>
     <use xlink:href="#m4873e6c10b" x="234.669602" y="53.752555" style="fill: #1f77b4; stroke: #1f77b4"/>
     <use xlink:href="#m4873e6c10b" x="137.016619" y="149.004092" style="fill: #1f77b4; stroke: #1f77b4"/>
     <use xlink:href="#m4873e6c10b" x="48.91536" y="257.501005" style="fill: #1f77b4; stroke: #1f77b4"/>
     <use xlink:href="#m4873e6c10b" x="193.18782" y="104.036482" style="fill: #1f77b4; stroke: #1f77b4"/>
     <use xlink:href="#m4873e6c10b" x="228.964696" y="65.312416" style="fill: #1f77b4; stroke: #1f77b4"/>
     <use xlink:href="#m4873e6c10b" x="243.238888" y="73.546792" style="fill: #1f77b4; stroke: #1f77b4"/>
     <use xlink:href="#m4873e6c10b" x="192.60176" y="93.900335" style="fill: #1f77b4; stroke: #1f77b4"/>
     <use xlink:href="#m4873e6c10b" x="200.72959" y="110.336726" style="fill: #1f77b4; stroke: #1f77b4"/>
     <use xlink:href="#m4873e6c10b" x="235.017024" y="66.390481" style="fill: #1f77b4; stroke: #1f77b4"/>
     <use xlink:href="#m4873e6c10b" x="157.147935" y="159.318293" style="fill: #1f77b4; stroke: #1f77b4"/>
     <use xlink:href="#m4873e6c10b" x="244.5619" y="70.625753" style="fill: #1f77b4; stroke: #1f77b4"/>
     <use xlink:href="#m4873e6c10b" x="241.309538" y="58.408656" style="fill: #1f77b4; stroke: #1f77b4"/>
     <use xlink:href="#m4873e6c10b" x="190.263297" y="106.859667" style="fill: #1f77b4; stroke: #1f77b4"/>
     <use xlink:href="#m4873e6c10b" x="122.26326" y="201.182493" style="fill: #1f77b4; stroke: #1f77b4"/>
     <use xlink:href="#m4873e6c10b" x="56.872498" y="239.736894" style="fill: #1f77b4; stroke: #1f77b4"/>
     <use xlink:href="#m4873e6c10b" x="66.743157" y="259.494862" style="fill: #1f77b4; stroke: #1f77b4"/>
     <use xlink:href="#m4873e6c10b" x="187.046107" y="112.553051" style="fill: #1f77b4; stroke: #1f77b4"/>
     <use xlink:href="#m4873e6c10b" x="116.289533" y="137.239512" style="fill: #1f77b4; stroke: #1f77b4"/>
     <use xlink:href="#m4873e6c10b" x="117.461812" y="147.274938" style="fill: #1f77b4; stroke: #1f77b4"/>
     <use xlink:href="#m4873e6c10b" x="235.502594" y="65.992872" style="fill: #1f77b4; stroke: #1f77b4"/>
     <use xlink:href="#m4873e6c10b" x="76.468777" y="196.682747" style="fill: #1f77b4; stroke: #1f77b4"/>
     <use xlink:href="#m4873e6c10b" x="185.321104" y="110.27729" style="fill: #1f77b4; stroke: #1f77b4"/>
     <use xlink:href="#m4873e6c10b" x="215.044894" y="79.103021" style="fill: #1f77b4; stroke: #1f77b4"/>
     <use xlink:href="#m4873e6c10b" x="207.772876" y="87.002834" style="fill: #1f77b4; stroke: #1f77b4"/>
     <use xlink:href="#m4873e6c10b" x="235.268098" y="67.839637" style="fill: #1f77b4; stroke: #1f77b4"/>
     <use xlink:href="#m4873e6c10b" x="226.532192" y="88.757764" style="fill: #1f77b4; stroke: #1f77b4"/>
     <use xlink:href="#m4873e6c10b" x="88.145141" y="194.69975" style="fill: #1f77b4; stroke: #1f77b4"/>
     <use xlink:href="#m4873e6c10b" x="172.610953" y="115.551658" style="fill: #1f77b4; stroke: #1f77b4"/>
     <use xlink:href="#m4873e6c10b" x="215.889405" y="49.178663" style="fill: #1f77b4; stroke: #1f77b4"/>
     <use xlink:href="#m4873e6c10b" x="162.446715" y="120.74386" style="fill: #1f77b4; stroke: #1f77b4"/>
     <use xlink:href="#m4873e6c10b" x="216.171576" y="74.555466" style="fill: #1f77b4; stroke: #1f77b4"/>
     <use xlink:href="#m4873e6c10b" x="142.273892" y="170.715408" style="fill: #1f77b4; stroke: #1f77b4"/>
     <use xlink:href="#m4873e6c10b" x="209.722154" y="84.18281" style="fill: #1f77b4; stroke: #1f77b4"/>
     <use xlink:href="#m4873e6c10b" x="210.167118" y="87.414781" style="fill: #1f77b4; stroke: #1f77b4"/>
     <use xlink:href="#m4873e6c10b" x="170.399236" y="122.484641" style="fill: #1f77b4; stroke: #1f77b4"/>
     <use xlink:href="#m4873e6c10b" x="208.520381" y="101.253817" style="fill: #1f77b4; stroke: #1f77b4"/>
     <use xlink:href="#m4873e6c10b" x="223.032527" y="47.090857" style="fill: #1f77b4; stroke: #1f77b4"/>
     <use xlink:href="#m4873e6c10b" x="139.378058" y="172.3081" style="fill: #1f77b4; stroke: #1f77b4"/>
     <use xlink:href="#m4873e6c10b" x="196.739582" y="113.270615" style="fill: #1f77b4; stroke: #1f77b4"/>
     <use xlink:href="#m4873e6c10b" x="160.609925" y="182.565206" style="fill: #1f77b4; stroke: #1f77b4"/>
     <use xlink:href="#m4873e6c10b" x="156.824045" y="140.94565" style="fill: #1f77b4; stroke: #1f77b4"/>
     <use xlink:href="#m4873e6c10b" x="178.434901" y="128.759918" style="fill: #1f77b4; stroke: #1f77b4"/>
     <use xlink:href="#m4873e6c10b" x="213.259477" y="80.972589" style="fill: #1f77b4; stroke: #1f77b4"/>
     <use xlink:href="#m4873e6c10b" x="151.556754" y="135.482837" style="fill: #1f77b4; stroke: #1f77b4"/>
     <use xlink:href="#m4873e6c10b" x="212.309839" y="82.019016" style="fill: #1f77b4; stroke: #1f77b4"/>
     <use xlink:href="#m4873e6c10b" x="181.024206" y="107.533897" style="fill: #1f77b4; stroke: #1f77b4"/>
     <use xlink:href="#m4873e6c10b" x="208.679447" y="84.560083" style="fill: #1f77b4; stroke: #1f77b4"/>
     <use xlink:href="#m4873e6c10b" x="112.713232" y="201.182493" style="fill: #1f77b4; stroke: #1f77b4"/>
     <use xlink:href="#m4873e6c10b" x="176.990773" y="140.590616" style="fill: #1f77b4; stroke: #1f77b4"/>
     <use xlink:href="#m4873e6c10b" x="214.978741" y="75.268593" style="fill: #1f77b4; stroke: #1f77b4"/>
     <use xlink:href="#m4873e6c10b" x="177.360448" y="162.181687" style="fill: #1f77b4; stroke: #1f77b4"/>
     <use xlink:href="#m4873e6c10b" x="211.772871" y="81.615474" style="fill: #1f77b4; stroke: #1f77b4"/>
     <use xlink:href="#m4873e6c10b" x="213.854554" y="90.127459" style="fill: #1f77b4; stroke: #1f77b4"/>
     <use xlink:href="#m4873e6c10b" x="90.090328" y="198.883834" style="fill: #1f77b4; stroke: #1f77b4"/>
     <use xlink:href="#m4873e6c10b" x="150.710388" y="136.605072" style="fill: #1f77b4; stroke: #1f77b4"/>
     <use xlink:href="#m4873e6c10b" x="208.497225" y="80.862297" style="fill: #1f77b4; stroke: #1f77b4"/>
     <use xlink:href="#m4873e6c10b" x="119.345475" y="195.816898" style="fill: #1f77b4; stroke: #1f77b4"/>
     <use xlink:href="#m4873e6c10b" x="133.868559" y="152.529618" style="fill: #1f77b4; stroke: #1f77b4"/>
     <use xlink:href="#m4873e6c10b" x="171.081636" y="105.780985" style="fill: #1f77b4; stroke: #1f77b4"/>
     <use xlink:href="#m4873e6c10b" x="181.079284" y="110.676214" style="fill: #1f77b4; stroke: #1f77b4"/>
     <use xlink:href="#m4873e6c10b" x="175.486424" y="160.124056" style="fill: #1f77b4; stroke: #1f77b4"/>
     <use xlink:href="#m4873e6c10b" x="203.118207" y="96.094219" style="fill: #1f77b4; stroke: #1f77b4"/>
     <use xlink:href="#m4873e6c10b" x="139.163465" y="179.973102" style="fill: #1f77b4; stroke: #1f77b4"/>
     <use xlink:href="#m4873e6c10b" x="99.449901" y="200.202567" style="fill: #1f77b4; stroke: #1f77b4"/>
     <use xlink:href="#m4873e6c10b" x="158.994103" y="121.037478" style="fill: #1f77b4; stroke: #1f77b4"/>
     <use xlink:href="#m4873e6c10b" x="241.347463" y="48.482787" style="fill: #1f77b4; stroke: #1f77b4"/>
     <use xlink:href="#m4873e6c10b" x="244.087608" y="44.914286" style="fill: #1f77b4; stroke: #1f77b4"/>
     <use xlink:href="#m4873e6c10b" x="82.8718" y="145.850985" style="fill: #1f77b4; stroke: #1f77b4"/>
     <use xlink:href="#m4873e6c10b" x="154.267196" y="138.766191" style="fill: #1f77b4; stroke: #1f77b4"/>
     <use xlink:href="#m4873e6c10b" x="212.809814" y="75.744404" style="fill: #1f77b4; stroke: #1f77b4"/>
     <use xlink:href="#m4873e6c10b" x="194.915281" y="89.594777" style="fill: #1f77b4; stroke: #1f77b4"/>
     <use xlink:href="#m4873e6c10b" x="162.438713" y="102.782332" style="fill: #1f77b4; stroke: #1f77b4"/>
     <use xlink:href="#m4873e6c10b" x="227.571756" y="44.914286" style="fill: #1f77b4; stroke: #1f77b4"/>
     <use xlink:href="#m4873e6c10b" x="177.304373" y="106.597639" style="fill: #1f77b4; stroke: #1f77b4"/>
     <use xlink:href="#m4873e6c10b" x="227.184375" y="66.858922" style="fill: #1f77b4; stroke: #1f77b4"/>
     <use xlink:href="#m4873e6c10b" x="173.182452" y="114.36084" style="fill: #1f77b4; stroke: #1f77b4"/>
     <use xlink:href="#m4873e6c10b" x="100.330953" y="177.132326" style="fill: #1f77b4; stroke: #1f77b4"/>
     <use xlink:href="#m4873e6c10b" x="229.819477" y="59.319572" style="fill: #1f77b4; stroke: #1f77b4"/>
     <use xlink:href="#m4873e6c10b" x="139.796949" y="166.196017" style="fill: #1f77b4; stroke: #1f77b4"/>
     <use xlink:href="#m4873e6c10b" x="147.9723" y="148.027723" style="fill: #1f77b4; stroke: #1f77b4"/>
     <use xlink:href="#m4873e6c10b" x="215.899286" y="78.51188" style="fill: #1f77b4; stroke: #1f77b4"/>
     <use xlink:href="#m4873e6c10b" x="166.099448" y="126.49059" style="fill: #1f77b4; stroke: #1f77b4"/>
     <use xlink:href="#m4873e6c10b" x="214.232315" y="78.118954" style="fill: #1f77b4; stroke: #1f77b4"/>
     <use xlink:href="#m4873e6c10b" x="238.722842" y="71.534194" style="fill: #1f77b4; stroke: #1f77b4"/>
     <use xlink:href="#m4873e6c10b" x="211.291693" y="77.870713" style="fill: #1f77b4; stroke: #1f77b4"/>
     <use xlink:href="#m4873e6c10b" x="146.160078" y="139.461723" style="fill: #1f77b4; stroke: #1f77b4"/>
     <use xlink:href="#m4873e6c10b" x="184.568235" y="105.030723" style="fill: #1f77b4; stroke: #1f77b4"/>
     <use xlink:href="#m4873e6c10b" x="131.672098" y="158.822081" style="fill: #1f77b4; stroke: #1f77b4"/>
     <use xlink:href="#m4873e6c10b" x="94.390176" y="215.160959" style="fill: #1f77b4; stroke: #1f77b4"/>
     <use xlink:href="#m4873e6c10b" x="168.858451" y="130.976488" style="fill: #1f77b4; stroke: #1f77b4"/>
     <use xlink:href="#m4873e6c10b" x="239.88527" y="70.335827" style="fill: #1f77b4; stroke: #1f77b4"/>
     <use xlink:href="#m4873e6c10b" x="243.852408" y="44.914286" style="fill: #1f77b4; stroke: #1f77b4"/>
     <use xlink:href="#m4873e6c10b" x="227.149349" y="89.120493" style="fill: #1f77b4; stroke: #1f77b4"/>
     <use xlink:href="#m4873e6c10b" x="226.174305" y="71.999937" style="fill: #1f77b4; stroke: #1f77b4"/>
     <use xlink:href="#m4873e6c10b" x="233.313048" y="44.914286" style="fill: #1f77b4; stroke: #1f77b4"/>
     <use xlink:href="#m4873e6c10b" x="224.327474" y="44.914286" style="fill: #1f77b4; stroke: #1f77b4"/>
     <use xlink:href="#m4873e6c10b" x="122.183696" y="161.271036" style="fill: #1f77b4; stroke: #1f77b4"/>
     <use xlink:href="#m4873e6c10b" x="191.403762" y="119.897186" style="fill: #1f77b4; stroke: #1f77b4"/>
     <use xlink:href="#m4873e6c10b" x="117.898929" y="193.178563" style="fill: #1f77b4; stroke: #1f77b4"/>
     <use xlink:href="#m4873e6c10b" x="189.050644" y="91.46734" style="fill: #1f77b4; stroke: #1f77b4"/>
     <use xlink:href="#m4873e6c10b" x="210.456787" y="81.765518" style="fill: #1f77b4; stroke: #1f77b4"/>
     <use xlink:href="#m4873e6c10b" x="221.956626" y="71.735372" style="fill: #1f77b4; stroke: #1f77b4"/>
     <use xlink:href="#m4873e6c10b" x="136.347762" y="148.57939" style="fill: #1f77b4; stroke: #1f77b4"/>
     <use xlink:href="#m4873e6c10b" x="220.517479" y="67.566669" style="fill: #1f77b4; stroke: #1f77b4"/>
     <use xlink:href="#m4873e6c10b" x="227.702316" y="67.39236" style="fill: #1f77b4; stroke: #1f77b4"/>
     <use xlink:href="#m4873e6c10b" x="225.194983" y="73.996055" style="fill: #1f77b4; stroke: #1f77b4"/>
     <use xlink:href="#m4873e6c10b" x="183.89577" y="107.487141" style="fill: #1f77b4; stroke: #1f77b4"/>
     <use xlink:href="#m4873e6c10b" x="96.611313" y="204.458903" style="fill: #1f77b4; stroke: #1f77b4"/>
     <use xlink:href="#m4873e6c10b" x="135.726446" y="153.655938" style="fill: #1f77b4; stroke: #1f77b4"/>
     <use xlink:href="#m4873e6c10b" x="195.25364" y="99.267519" style="fill: #1f77b4; stroke: #1f77b4"/>
     <use xlink:href="#m4873e6c10b" x="215.150373" y="80.946586" style="fill: #1f77b4; stroke: #1f77b4"/>
     <use xlink:href="#m4873e6c10b" x="223.487821" y="69.68894" style="fill: #1f77b4; stroke: #1f77b4"/>
     <use xlink:href="#m4873e6c10b" x="144.442267" y="137.239512" style="fill: #1f77b4; stroke: #1f77b4"/>
     <use xlink:href="#m4873e6c10b" x="84.831976" y="218.665794" style="fill: #1f77b4; stroke: #1f77b4"/>
     <use xlink:href="#m4873e6c10b" x="176.646211" y="114.712179" style="fill: #1f77b4; stroke: #1f77b4"/>
     <use xlink:href="#m4873e6c10b" x="128.90147" y="158.217259" style="fill: #1f77b4; stroke: #1f77b4"/>
     <use xlink:href="#m4873e6c10b" x="171.492378" y="126.075995" style="fill: #1f77b4; stroke: #1f77b4"/>
     <use xlink:href="#m4873e6c10b" x="220.948007" y="78.584917" style="fill: #1f77b4; stroke: #1f77b4"/>
     <use xlink:href="#m4873e6c10b" x="243.897049" y="77.861343" style="fill: #1f77b4; stroke: #1f77b4"/>
     <use xlink:href="#m4873e6c10b" x="213.585206" y="75.206938" style="fill: #1f77b4; stroke: #1f77b4"/>
     <use xlink:href="#m4873e6c10b" x="205.173468" y="106.209825" style="fill: #1f77b4; stroke: #1f77b4"/>
     <use xlink:href="#m4873e6c10b" x="76.822452" y="228.077121" style="fill: #1f77b4; stroke: #1f77b4"/>
     <use xlink:href="#m4873e6c10b" x="231.14466" y="74.590855" style="fill: #1f77b4; stroke: #1f77b4"/>
     <use xlink:href="#m4873e6c10b" x="218.302975" y="79.319007" style="fill: #1f77b4; stroke: #1f77b4"/>
     <use xlink:href="#m4873e6c10b" x="105.372251" y="227.969329" style="fill: #1f77b4; stroke: #1f77b4"/>
     <use xlink:href="#m4873e6c10b" x="152.040576" y="144.375654" style="fill: #1f77b4; stroke: #1f77b4"/>
     <use xlink:href="#m4873e6c10b" x="138.889894" y="115.803543" style="fill: #1f77b4; stroke: #1f77b4"/>
     <use xlink:href="#m4873e6c10b" x="188.777488" y="127.40385" style="fill: #1f77b4; stroke: #1f77b4"/>
     <use xlink:href="#m4873e6c10b" x="190.881493" y="98.547199" style="fill: #1f77b4; stroke: #1f77b4"/>
     <use xlink:href="#m4873e6c10b" x="212.923064" y="81.787536" style="fill: #1f77b4; stroke: #1f77b4"/>
     <use xlink:href="#m4873e6c10b" x="171.592984" y="133.48294" style="fill: #1f77b4; stroke: #1f77b4"/>
     <use xlink:href="#m4873e6c10b" x="213.045894" y="77.666779" style="fill: #1f77b4; stroke: #1f77b4"/>
     <use xlink:href="#m4873e6c10b" x="236.839367" y="67.755787" style="fill: #1f77b4; stroke: #1f77b4"/>
     <use xlink:href="#m4873e6c10b" x="196.627883" y="85.002351" style="fill: #1f77b4; stroke: #1f77b4"/>
     <use xlink:href="#m4873e6c10b" x="184.20178" y="123.526752" style="fill: #1f77b4; stroke: #1f77b4"/>
     <use xlink:href="#m4873e6c10b" x="236.674643" y="82.794921" style="fill: #1f77b4; stroke: #1f77b4"/>
     <use xlink:href="#m4873e6c10b" x="244.618548" y="44.914286" style="fill: #1f77b4; stroke: #1f77b4"/>
     <use xlink:href="#m4873e6c10b" x="239.711754" y="54.993443" style="fill: #1f77b4; stroke: #1f77b4"/>
     <use xlink:href="#m4873e6c10b" x="124.537865" y="180.978451" style="fill: #1f77b4; stroke: #1f77b4"/>
    </g>
   </g>
   <g id="PathCollection_2">
    <defs>
     <path id="mea0c8f0efc" d="M -3 3 
L 3 -3 
M -3 -3 
L 3 3 
" style="stroke: #ff7f0e; stroke-width: 2"/>
    </defs>
    <g clip-path="url(#p6be8765909)">
     <use xlink:href="#mea0c8f0efc" x="181.869385" y="120.139711" style="fill: #ff7f0e; stroke: #ff7f0e; stroke-width: 2"/>
     <use xlink:href="#mea0c8f0efc" x="222.353582" y="82.800688" style="fill: #ff7f0e; stroke: #ff7f0e; stroke-width: 2"/>
     <use xlink:href="#mea0c8f0efc" x="208.724381" y="53.297447" style="fill: #ff7f0e; stroke: #ff7f0e; stroke-width: 2"/>
     <use xlink:href="#mea0c8f0efc" x="175.851839" y="80.079236" style="fill: #ff7f0e; stroke: #ff7f0e; stroke-width: 2"/>
     <use xlink:href="#mea0c8f0efc" x="188.072061" y="70.752081" style="fill: #ff7f0e; stroke: #ff7f0e; stroke-width: 2"/>
     <use xlink:href="#mea0c8f0efc" x="230.069091" y="62.86935" style="fill: #ff7f0e; stroke: #ff7f0e; stroke-width: 2"/>
     <use xlink:href="#mea0c8f0efc" x="191.655925" y="77.593435" style="fill: #ff7f0e; stroke: #ff7f0e; stroke-width: 2"/>
     <use xlink:href="#mea0c8f0efc" x="65.20209" y="225.963855" style="fill: #ff7f0e; stroke: #ff7f0e; stroke-width: 2"/>
    </g>
   </g>
   <g id="matplotlib.axis_1">
    <g id="xtick_1">
     <g id="line2d_1">
      <defs>
       <path id="m83f5473fef" d="M 0 0 
L 0 3.5 
" style="stroke: #000000; stroke-width: 0.8"/>
      </defs>
      <g>
       <use xlink:href="#m83f5473fef" x="36" y="252" style="stroke: #000000; stroke-width: 0.8"/>
      </g>
     </g>
     <g id="text_1">
      <!-- −1.0 -->
      <g transform="translate(6.860625 277.23625) scale(0.24 -0.24)">
       <defs>
        <path id="DejaVuSans-2212" d="M 678 2272 
L 4684 2272 
L 4684 1741 
L 678 1741 
L 678 2272 
z
" transform="scale(0.015625)"/>
        <path id="DejaVuSans-31" d="M 794 531 
L 1825 531 
L 1825 4091 
L 703 3866 
L 703 4441 
L 1819 4666 
L 2450 4666 
L 2450 531 
L 3481 531 
L 3481 0 
L 794 0 
L 794 531 
z
" transform="scale(0.015625)"/>
        <path id="DejaVuSans-2e" d="M 684 794 
L 1344 794 
L 1344 0 
L 684 0 
L 684 794 
z
" transform="scale(0.015625)"/>
        <path id="DejaVuSans-30" d="M 2034 4250 
Q 1547 4250 1301 3770 
Q 1056 3291 1056 2328 
Q 1056 1369 1301 889 
Q 1547 409 2034 409 
Q 2525 409 2770 889 
Q 3016 1369 3016 2328 
Q 3016 3291 2770 3770 
Q 2525 4250 2034 4250 
z
M 2034 4750 
Q 2819 4750 3233 4129 
Q 3647 3509 3647 2328 
Q 3647 1150 3233 529 
Q 2819 -91 2034 -91 
Q 1250 -91 836 529 
Q 422 1150 422 2328 
Q 422 3509 836 4129 
Q 1250 4750 2034 4750 
z
" transform="scale(0.015625)"/>
       </defs>
       <use xlink:href="#DejaVuSans-2212"/>
       <use xlink:href="#DejaVuSans-31" x="83.789062"/>
       <use xlink:href="#DejaVuSans-2e" x="147.412109"/>
       <use xlink:href="#DejaVuSans-30" x="179.199219"/>
      </g>
     </g>
    </g>
    <g id="xtick_2">
     <g id="line2d_2">
      <g>
       <use xlink:href="#m83f5473fef" x="142.285714" y="252" style="stroke: #000000; stroke-width: 0.8"/>
      </g>
     </g>
     <g id="text_2">
      <!-- −0.5 -->
      <g transform="translate(113.146339 277.23625) scale(0.24 -0.24)">
       <defs>
        <path id="DejaVuSans-35" d="M 691 4666 
L 3169 4666 
L 3169 4134 
L 1269 4134 
L 1269 2991 
Q 1406 3038 1543 3061 
Q 1681 3084 1819 3084 
Q 2600 3084 3056 2656 
Q 3513 2228 3513 1497 
Q 3513 744 3044 326 
Q 2575 -91 1722 -91 
Q 1428 -91 1123 -41 
Q 819 9 494 109 
L 494 744 
Q 775 591 1075 516 
Q 1375 441 1709 441 
Q 2250 441 2565 725 
Q 2881 1009 2881 1497 
Q 2881 1984 2565 2268 
Q 2250 2553 1709 2553 
Q 1456 2553 1204 2497 
Q 953 2441 691 2322 
L 691 4666 
z
" transform="scale(0.015625)"/>
       </defs>
       <use xlink:href="#DejaVuSans-2212"/>
       <use xlink:href="#DejaVuSans-30" x="83.789062"/>
       <use xlink:href="#DejaVuSans-2e" x="147.412109"/>
       <use xlink:href="#DejaVuSans-35" x="179.199219"/>
      </g>
     </g>
    </g>
    <g id="xtick_3">
     <g id="line2d_3">
      <g>
       <use xlink:href="#m83f5473fef" x="248.571429" y="252" style="stroke: #000000; stroke-width: 0.8"/>
      </g>
     </g>
     <g id="text_3">
      <!-- 0.0 -->
      <g transform="translate(229.487679 277.23625) scale(0.24 -0.24)">
       <use xlink:href="#DejaVuSans-30"/>
       <use xlink:href="#DejaVuSans-2e" x="63.623047"/>
       <use xlink:href="#DejaVuSans-30" x="95.410156"/>
      </g>
     </g>
    </g>
    <g id="text_4">
     <!-- true $r_{effort}$ -->
     <g transform="translate(90.84 304.46375) scale(0.24 -0.24)">
      <defs>
       <path id="DejaVuSans-74" d="M 1172 4494 
L 1172 3500 
L 2356 3500 
L 2356 3053 
L 1172 3053 
L 1172 1153 
Q 1172 725 1289 603 
Q 1406 481 1766 481 
L 2356 481 
L 2356 0 
L 1766 0 
Q 1100 0 847 248 
Q 594 497 594 1153 
L 594 3053 
L 172 3053 
L 172 3500 
L 594 3500 
L 594 4494 
L 1172 4494 
z
" transform="scale(0.015625)"/>
       <path id="DejaVuSans-72" d="M 2631 2963 
Q 2534 3019 2420 3045 
Q 2306 3072 2169 3072 
Q 1681 3072 1420 2755 
Q 1159 2438 1159 1844 
L 1159 0 
L 581 0 
L 581 3500 
L 1159 3500 
L 1159 2956 
Q 1341 3275 1631 3429 
Q 1922 3584 2338 3584 
Q 2397 3584 2469 3576 
Q 2541 3569 2628 3553 
L 2631 2963 
z
" transform="scale(0.015625)"/>
       <path id="DejaVuSans-75" d="M 544 1381 
L 544 3500 
L 1119 3500 
L 1119 1403 
Q 1119 906 1312 657 
Q 1506 409 1894 409 
Q 2359 409 2629 706 
Q 2900 1003 2900 1516 
L 2900 3500 
L 3475 3500 
L 3475 0 
L 2900 0 
L 2900 538 
Q 2691 219 2414 64 
Q 2138 -91 1772 -91 
Q 1169 -91 856 284 
Q 544 659 544 1381 
z
M 1991 3584 
L 1991 3584 
z
" transform="scale(0.015625)"/>
       <path id="DejaVuSans-65" d="M 3597 1894 
L 3597 1613 
L 953 1613 
Q 991 1019 1311 708 
Q 1631 397 2203 397 
Q 2534 397 2845 478 
Q 3156 559 3463 722 
L 3463 178 
Q 3153 47 2828 -22 
Q 2503 -91 2169 -91 
Q 1331 -91 842 396 
Q 353 884 353 1716 
Q 353 2575 817 3079 
Q 1281 3584 2069 3584 
Q 2775 3584 3186 3129 
Q 3597 2675 3597 1894 
z
M 3022 2063 
Q 3016 2534 2758 2815 
Q 2500 3097 2075 3097 
Q 1594 3097 1305 2825 
Q 1016 2553 972 2059 
L 3022 2063 
z
" transform="scale(0.015625)"/>
       <path id="DejaVuSans-20" transform="scale(0.015625)"/>
       <path id="DejaVuSans-Oblique-72" d="M 2853 2969 
Q 2766 3016 2653 3041 
Q 2541 3066 2413 3066 
Q 1953 3066 1609 2717 
Q 1266 2369 1153 1784 
L 800 0 
L 225 0 
L 909 3500 
L 1484 3500 
L 1375 2956 
Q 1603 3259 1920 3421 
Q 2238 3584 2597 3584 
Q 2691 3584 2781 3573 
Q 2872 3563 2963 3538 
L 2853 2969 
z
" transform="scale(0.015625)"/>
       <path id="DejaVuSans-Oblique-65" d="M 3078 2063 
Q 3088 2113 3092 2166 
Q 3097 2219 3097 2272 
Q 3097 2653 2873 2875 
Q 2650 3097 2266 3097 
Q 1838 3097 1509 2826 
Q 1181 2556 1013 2059 
L 3078 2063 
z
M 3578 1613 
L 903 1613 
Q 884 1494 878 1425 
Q 872 1356 872 1306 
Q 872 872 1139 634 
Q 1406 397 1894 397 
Q 2269 397 2603 481 
Q 2938 566 3225 728 
L 3116 159 
Q 2806 34 2476 -28 
Q 2147 -91 1806 -91 
Q 1078 -91 686 257 
Q 294 606 294 1247 
Q 294 1794 489 2264 
Q 684 2734 1063 3103 
Q 1306 3334 1642 3459 
Q 1978 3584 2356 3584 
Q 2950 3584 3301 3228 
Q 3653 2872 3653 2272 
Q 3653 2128 3634 1964 
Q 3616 1800 3578 1613 
z
" transform="scale(0.015625)"/>
       <path id="DejaVuSans-Oblique-66" d="M 3059 4863 
L 2969 4384 
L 2419 4384 
Q 2106 4384 1964 4261 
Q 1822 4138 1753 3809 
L 1691 3500 
L 2638 3500 
L 2553 3053 
L 1606 3053 
L 1013 0 
L 434 0 
L 1031 3053 
L 481 3053 
L 563 3500 
L 1113 3500 
L 1159 3744 
Q 1278 4363 1576 4613 
Q 1875 4863 2516 4863 
L 3059 4863 
z
" transform="scale(0.015625)"/>
       <path id="DejaVuSans-Oblique-6f" d="M 1625 -91 
Q 1009 -91 651 289 
Q 294 669 294 1325 
Q 294 1706 417 2101 
Q 541 2497 738 2766 
Q 1047 3184 1428 3384 
Q 1809 3584 2291 3584 
Q 2888 3584 3255 3212 
Q 3622 2841 3622 2241 
Q 3622 1825 3500 1412 
Q 3378 1000 3181 728 
Q 2875 309 2494 109 
Q 2113 -91 1625 -91 
z
M 891 1344 
Q 891 869 1089 633 
Q 1288 397 1691 397 
Q 2269 397 2648 901 
Q 3028 1406 3028 2181 
Q 3028 2634 2825 2865 
Q 2622 3097 2228 3097 
Q 1903 3097 1650 2945 
Q 1397 2794 1197 2484 
Q 1050 2253 970 1956 
Q 891 1659 891 1344 
z
" transform="scale(0.015625)"/>
       <path id="DejaVuSans-Oblique-74" d="M 2706 3500 
L 2619 3053 
L 1472 3053 
L 1100 1153 
Q 1081 1047 1072 975 
Q 1063 903 1063 863 
Q 1063 663 1183 572 
Q 1303 481 1569 481 
L 2150 481 
L 2053 0 
L 1503 0 
Q 991 0 739 200 
Q 488 400 488 806 
Q 488 878 497 964 
Q 506 1050 525 1153 
L 897 3053 
L 409 3053 
L 500 3500 
L 978 3500 
L 1172 4494 
L 1747 4494 
L 1556 3500 
L 2706 3500 
z
" transform="scale(0.015625)"/>
      </defs>
      <use xlink:href="#DejaVuSans-74" transform="translate(0 0.78125)"/>
      <use xlink:href="#DejaVuSans-72" transform="translate(39.208984 0.78125)"/>
      <use xlink:href="#DejaVuSans-75" transform="translate(80.322266 0.78125)"/>
      <use xlink:href="#DejaVuSans-65" transform="translate(143.701172 0.78125)"/>
      <use xlink:href="#DejaVuSans-20" transform="translate(205.224609 0.78125)"/>
      <use xlink:href="#DejaVuSans-Oblique-72" transform="translate(237.011719 0.78125)"/>
      <use xlink:href="#DejaVuSans-Oblique-65" transform="translate(278.125 -15.625) scale(0.7)"/>
      <use xlink:href="#DejaVuSans-Oblique-66" transform="translate(321.191406 -15.625) scale(0.7)"/>
      <use xlink:href="#DejaVuSans-Oblique-66" transform="translate(345.834961 -15.625) scale(0.7)"/>
      <use xlink:href="#DejaVuSans-Oblique-6f" transform="translate(370.478516 -15.625) scale(0.7)"/>
      <use xlink:href="#DejaVuSans-Oblique-72" transform="translate(413.305664 -15.625) scale(0.7)"/>
      <use xlink:href="#DejaVuSans-Oblique-74" transform="translate(442.084961 -15.625) scale(0.7)"/>
     </g>
    </g>
   </g>
   <g id="matplotlib.axis_2">
    <g id="ytick_1">
     <g id="line2d_4">
      <defs>
       <path id="m7ccace5a0c" d="M 0 0 
L -3.5 0 
" style="stroke: #000000; stroke-width: 0.8"/>
      </defs>
      <g>
       <use xlink:href="#m7ccace5a0c" x="36" y="252" style="stroke: #000000; stroke-width: 0.8"/>
      </g>
     </g>
     <g id="text_5">
      <!-- −1.0 -->
      <g transform="translate(-29.27875 261.118125) scale(0.24 -0.24)">
       <use xlink:href="#DejaVuSans-2212"/>
       <use xlink:href="#DejaVuSans-31" x="83.789062"/>
       <use xlink:href="#DejaVuSans-2e" x="147.412109"/>
       <use xlink:href="#DejaVuSans-30" x="179.199219"/>
      </g>
     </g>
    </g>
    <g id="ytick_2">
     <g id="line2d_5">
      <g>
       <use xlink:href="#m7ccace5a0c" x="36" y="148.457143" style="stroke: #000000; stroke-width: 0.8"/>
      </g>
     </g>
     <g id="text_6">
      <!-- −0.5 -->
      <g transform="translate(-29.27875 157.575268) scale(0.24 -0.24)">
       <use xlink:href="#DejaVuSans-2212"/>
       <use xlink:href="#DejaVuSans-30" x="83.789062"/>
       <use xlink:href="#DejaVuSans-2e" x="147.412109"/>
       <use xlink:href="#DejaVuSans-35" x="179.199219"/>
      </g>
     </g>
    </g>
    <g id="ytick_3">
     <g id="line2d_6">
      <g>
       <use xlink:href="#m7ccace5a0c" x="36" y="44.914286" style="stroke: #000000; stroke-width: 0.8"/>
      </g>
     </g>
     <g id="text_7">
      <!-- 0.0 -->
      <g transform="translate(-9.1675 54.032411) scale(0.24 -0.24)">
       <use xlink:href="#DejaVuSans-30"/>
       <use xlink:href="#DejaVuSans-2e" x="63.623047"/>
       <use xlink:href="#DejaVuSans-30" x="95.410156"/>
      </g>
     </g>
    </g>
    <g id="text_8">
     <!-- estimated $r_{effort}$ -->
     <g transform="translate(-38.27 235.8) rotate(-90) scale(0.24 -0.24)">
      <defs>
       <path id="DejaVuSans-73" d="M 2834 3397 
L 2834 2853 
Q 2591 2978 2328 3040 
Q 2066 3103 1784 3103 
Q 1356 3103 1142 2972 
Q 928 2841 928 2578 
Q 928 2378 1081 2264 
Q 1234 2150 1697 2047 
L 1894 2003 
Q 2506 1872 2764 1633 
Q 3022 1394 3022 966 
Q 3022 478 2636 193 
Q 2250 -91 1575 -91 
Q 1294 -91 989 -36 
Q 684 19 347 128 
L 347 722 
Q 666 556 975 473 
Q 1284 391 1588 391 
Q 1994 391 2212 530 
Q 2431 669 2431 922 
Q 2431 1156 2273 1281 
Q 2116 1406 1581 1522 
L 1381 1569 
Q 847 1681 609 1914 
Q 372 2147 372 2553 
Q 372 3047 722 3315 
Q 1072 3584 1716 3584 
Q 2034 3584 2315 3537 
Q 2597 3491 2834 3397 
z
" transform="scale(0.015625)"/>
       <path id="DejaVuSans-69" d="M 603 3500 
L 1178 3500 
L 1178 0 
L 603 0 
L 603 3500 
z
M 603 4863 
L 1178 4863 
L 1178 4134 
L 603 4134 
L 603 4863 
z
" transform="scale(0.015625)"/>
       <path id="DejaVuSans-6d" d="M 3328 2828 
Q 3544 3216 3844 3400 
Q 4144 3584 4550 3584 
Q 5097 3584 5394 3201 
Q 5691 2819 5691 2113 
L 5691 0 
L 5113 0 
L 5113 2094 
Q 5113 2597 4934 2840 
Q 4756 3084 4391 3084 
Q 3944 3084 3684 2787 
Q 3425 2491 3425 1978 
L 3425 0 
L 2847 0 
L 2847 2094 
Q 2847 2600 2669 2842 
Q 2491 3084 2119 3084 
Q 1678 3084 1418 2786 
Q 1159 2488 1159 1978 
L 1159 0 
L 581 0 
L 581 3500 
L 1159 3500 
L 1159 2956 
Q 1356 3278 1631 3431 
Q 1906 3584 2284 3584 
Q 2666 3584 2933 3390 
Q 3200 3197 3328 2828 
z
" transform="scale(0.015625)"/>
       <path id="DejaVuSans-61" d="M 2194 1759 
Q 1497 1759 1228 1600 
Q 959 1441 959 1056 
Q 959 750 1161 570 
Q 1363 391 1709 391 
Q 2188 391 2477 730 
Q 2766 1069 2766 1631 
L 2766 1759 
L 2194 1759 
z
M 3341 1997 
L 3341 0 
L 2766 0 
L 2766 531 
Q 2569 213 2275 61 
Q 1981 -91 1556 -91 
Q 1019 -91 701 211 
Q 384 513 384 1019 
Q 384 1609 779 1909 
Q 1175 2209 1959 2209 
L 2766 2209 
L 2766 2266 
Q 2766 2663 2505 2880 
Q 2244 3097 1772 3097 
Q 1472 3097 1187 3025 
Q 903 2953 641 2809 
L 641 3341 
Q 956 3463 1253 3523 
Q 1550 3584 1831 3584 
Q 2591 3584 2966 3190 
Q 3341 2797 3341 1997 
z
" transform="scale(0.015625)"/>
       <path id="DejaVuSans-64" d="M 2906 2969 
L 2906 4863 
L 3481 4863 
L 3481 0 
L 2906 0 
L 2906 525 
Q 2725 213 2448 61 
Q 2172 -91 1784 -91 
Q 1150 -91 751 415 
Q 353 922 353 1747 
Q 353 2572 751 3078 
Q 1150 3584 1784 3584 
Q 2172 3584 2448 3432 
Q 2725 3281 2906 2969 
z
M 947 1747 
Q 947 1113 1208 752 
Q 1469 391 1925 391 
Q 2381 391 2643 752 
Q 2906 1113 2906 1747 
Q 2906 2381 2643 2742 
Q 2381 3103 1925 3103 
Q 1469 3103 1208 2742 
Q 947 2381 947 1747 
z
" transform="scale(0.015625)"/>
      </defs>
      <use xlink:href="#DejaVuSans-65" transform="translate(0 0.015625)"/>
      <use xlink:href="#DejaVuSans-73" transform="translate(61.523438 0.015625)"/>
      <use xlink:href="#DejaVuSans-74" transform="translate(113.623047 0.015625)"/>
      <use xlink:href="#DejaVuSans-69" transform="translate(152.832031 0.015625)"/>
      <use xlink:href="#DejaVuSans-6d" transform="translate(180.615234 0.015625)"/>
      <use xlink:href="#DejaVuSans-61" transform="translate(278.027344 0.015625)"/>
      <use xlink:href="#DejaVuSans-74" transform="translate(339.306641 0.015625)"/>
      <use xlink:href="#DejaVuSans-65" transform="translate(378.515625 0.015625)"/>
      <use xlink:href="#DejaVuSans-64" transform="translate(440.039062 0.015625)"/>
      <use xlink:href="#DejaVuSans-20" transform="translate(503.515625 0.015625)"/>
      <use xlink:href="#DejaVuSans-Oblique-72" transform="translate(535.302734 0.015625)"/>
      <use xlink:href="#DejaVuSans-Oblique-65" transform="translate(576.416016 -16.390625) scale(0.7)"/>
      <use xlink:href="#DejaVuSans-Oblique-66" transform="translate(619.482422 -16.390625) scale(0.7)"/>
      <use xlink:href="#DejaVuSans-Oblique-66" transform="translate(644.125977 -16.390625) scale(0.7)"/>
      <use xlink:href="#DejaVuSans-Oblique-6f" transform="translate(668.769531 -16.390625) scale(0.7)"/>
      <use xlink:href="#DejaVuSans-Oblique-72" transform="translate(711.59668 -16.390625) scale(0.7)"/>
      <use xlink:href="#DejaVuSans-Oblique-74" transform="translate(740.375977 -16.390625) scale(0.7)"/>
     </g>
    </g>
   </g>
   <g id="line2d_7">
    <path d="M 36 252 
L 60.8 227.84 
L 85.6 203.68 
L 110.4 179.52 
L 135.2 155.36 
L 160 131.2 
L 184.8 107.04 
L 209.6 82.88 
L 234.4 58.72 
L 259.2 34.56 
" clip-path="url(#p6be8765909)" style="fill: none; stroke: #000000; stroke-linecap: square"/>
   </g>
   <g id="patch_3">
    <path d="M 36 252 
L 36 34.56 
" style="fill: none; stroke: #000000; stroke-width: 2; stroke-linejoin: miter; stroke-linecap: square"/>
   </g>
   <g id="patch_4">
    <path d="M 36 252 
L 259.2 252 
" style="fill: none; stroke: #000000; stroke-width: 2; stroke-linejoin: miter; stroke-linecap: square"/>
   </g>
  </g>
 </g>
 <defs>
  <clipPath id="p6be8765909">
   <rect x="36" y="34.56" width="223.2" height="217.44"/>
  </clipPath>
 </defs>
</svg>
