<?xml version="1.0" encoding="UTF-8" standalone="no"?>
<svg
   width="127.77468mm"
   height="87.585846mm"
   viewBox="0 0 362.19594 248.27484"
   version="1.1"
   id="svg96"
   sodipodi:docname="inertia.svg"
   inkscape:export-filename="suppl_figure1.png"
   inkscape:export-xdpi="500"
   inkscape:export-ydpi="500"
   inkscape:version="1.3.2 (091e20e, 2023-11-25)"
   xmlns:inkscape="http://www.inkscape.org/namespaces/inkscape"
   xmlns:sodipodi="http://sodipodi.sourceforge.net/DTD/sodipodi-0.dtd"
   xmlns:xlink="http://www.w3.org/1999/xlink"
   xmlns="http://www.w3.org/2000/svg"
   xmlns:svg="http://www.w3.org/2000/svg"
   xmlns:rdf="http://www.w3.org/1999/02/22-rdf-syntax-ns#"
   xmlns:cc="http://creativecommons.org/ns#"
   xmlns:dc="http://purl.org/dc/elements/1.1/">
  <sodipodi:namedview
     id="namedview96"
     pagecolor="#ffffff"
     bordercolor="#000000"
     borderopacity="0.02352941"
     inkscape:showpageshadow="2"
     inkscape:pageopacity="0.0"
     inkscape:pagecheckerboard="0"
     inkscape:deskcolor="#d1d1d1"
     inkscape:document-units="pt"
     showgrid="true"
     inkscape:zoom="0.95436349"
     inkscape:cx="246.23742"
     inkscape:cy="255.66779"
     inkscape:window-width="1512"
     inkscape:window-height="835"
     inkscape:window-x="0"
     inkscape:window-y="38"
     inkscape:window-maximized="1"
     inkscape:current-layer="svg96">
    <inkscape:grid
       id="grid96"
       units="pt"
       originx="0.41225017"
       originy="0.15999975"
       spacingx="1"
       spacingy="0.99999998"
       empcolor="#0099e5"
       empopacity="0.30196078"
       color="#0099e5"
       opacity="0.14902"
       empspacing="5"
       dotted="false"
       gridanglex="30"
       gridanglez="30"
       visible="true" />
  </sodipodi:namedview>
  <metadata
     id="metadata1">
    <rdf:RDF>
      <cc:Work>
        <dc:type
           rdf:resource="http://purl.org/dc/dcmitype/StillImage" />
        <dc:date>2024-07-22T10:28:50.710162</dc:date>
        <dc:format>image/svg+xml</dc:format>
        <dc:creator>
          <cc:Agent>
            <dc:title>Matplotlib v3.8.0, https://matplotlib.org/</dc:title>
          </cc:Agent>
        </dc:creator>
      </cc:Work>
    </rdf:RDF>
  </metadata>
  <defs
     id="defs1">
    <style
       type="text/css"
       id="style1">*{stroke-linejoin: round; stroke-linecap: butt}</style>
  </defs>
  <defs
     id="defs96">
    <clipPath
       id="p2ddfa1b35b">
      <rect
         x="72"
         y="51.84"
         width="446.39999"
         height="326.16"
         id="rect96" />
    </clipPath>
  </defs>
  <g
     id="g11"
     transform="scale(0.90026385)"
     inkscape:export-filename="../suppl_figure1.png"
     inkscape:export-xdpi="500"
     inkscape:export-ydpi="500">
    <g
       id="g96"
       transform="matrix(0.7258039,0,0,0.7258039,25.339447,-36.89987)">
      <g
         id="matplotlib.axis_1">
        <g
           id="xtick_1">
          <g
             id="line2d_1">
            <defs
               id="defs2">
              <path
                 id="m995ed39340"
                 d="M 0,0 V 3.5"
                 style="stroke:#000000;stroke-width:0.8" />
            </defs>
            <g
               id="g2">
              <use
                 xlink:href="#m995ed39340"
                 x="92.290909"
                 y="378"
                 style="stroke:#000000;stroke-width:0.8"
                 id="use2" />
            </g>
          </g>
          <g
             id="text_1">
            <!-- 2 -->
            <g
               transform="matrix(0.24,0,0,-0.24,84.655909,403.23625)"
               id="g3">
              <defs
                 id="defs3">
                <path
                   id="DejaVuSans-32"
                   d="M 1228,531 H 3431 V 0 H 469 v 531 q 359,372 979,998 621,627 780,809 303,340 423,576 121,236 121,464 0,372 -261,606 -261,235 -680,235 -297,0 -627,-103 -329,-103 -704,-313 v 638 q 381,153 712,231 332,78 607,78 725,0 1156,-363 431,-362 431,-968 0,-288 -108,-546 -107,-257 -392,-607 -78,-91 -497,-524 Q 1991,1309 1228,531 Z"
                   transform="scale(0.015625)" />
              </defs>
              <use
                 xlink:href="#DejaVuSans-32"
                 id="use3" />
            </g>
          </g>
        </g>
        <g
           id="xtick_2">
          <g
             id="line2d_2">
            <g
               id="g4">
              <use
                 xlink:href="#m995ed39340"
                 x="159.92728"
                 y="378"
                 style="stroke:#000000;stroke-width:0.8"
                 id="use4" />
            </g>
          </g>
          <g
             id="text_2">
            <!-- 4 -->
            <g
               transform="matrix(0.24,0,0,-0.24,152.29227,403.23625)"
               id="g5">
              <defs
                 id="defs4">
                <path
                   id="DejaVuSans-34"
                   d="M 2419,4116 825,1625 h 1594 z m -166,550 h 794 V 1625 h 666 V 1100 H 3047 V 0 H 2419 V 1100 H 313 v 609 z"
                   transform="scale(0.015625)" />
              </defs>
              <use
                 xlink:href="#DejaVuSans-34"
                 id="use5" />
            </g>
          </g>
        </g>
        <g
           id="xtick_3">
          <g
             id="line2d_3">
            <g
               id="g6">
              <use
                 xlink:href="#m995ed39340"
                 x="227.56363"
                 y="378"
                 style="stroke:#000000;stroke-width:0.8"
                 id="use6" />
            </g>
          </g>
          <g
             id="text_3">
            <!-- 6 -->
            <g
               transform="matrix(0.24,0,0,-0.24,219.92864,403.23625)"
               id="g7">
              <defs
                 id="defs6">
                <path
                   id="DejaVuSans-36"
                   d="m 2113,2584 q -425,0 -674,-291 -248,-290 -248,-796 0,-503 248,-796 249,-292 674,-292 425,0 673,292 248,293 248,796 0,506 -248,796 -248,291 -673,291 z m 1253,1979 v -575 q -238,112 -480,171 -242,60 -480,60 -625,0 -955,-422 -329,-422 -376,-1275 184,272 462,417 279,145 613,145 703,0 1111,-427 408,-426 408,-1160 0,-719 -425,-1154 -425,-434 -1131,-434 -810,0 -1238,620 -428,621 -428,1799 0,1106 525,1764 525,658 1409,658 238,0 480,-47 242,-47 505,-140 z"
                   transform="scale(0.015625)" />
              </defs>
              <use
                 xlink:href="#DejaVuSans-36"
                 id="use7" />
            </g>
          </g>
        </g>
        <g
           id="xtick_4">
          <g
             id="line2d_4">
            <g
               id="g8">
              <use
                 xlink:href="#m995ed39340"
                 x="295.20001"
                 y="378"
                 style="stroke:#000000;stroke-width:0.8"
                 id="use8" />
            </g>
          </g>
          <g
             id="text_4">
            <!-- 8 -->
            <g
               transform="matrix(0.24,0,0,-0.24,287.565,403.23625)"
               id="g9">
              <defs
                 id="defs8">
                <path
                   id="DejaVuSans-38"
                   d="m 2034,2216 q -450,0 -708,-241 -257,-241 -257,-662 0,-422 257,-663 258,-241 708,-241 450,0 709,242 260,243 260,662 0,421 -258,662 -257,241 -711,241 z m -631,268 q -406,100 -633,378 -226,279 -226,679 0,559 398,884 399,325 1092,325 697,0 1094,-325 397,-325 397,-884 0,-400 -227,-679 -226,-278 -629,-378 456,-106 710,-416 255,-309 255,-755 Q 3634,634 3220,271 2806,-91 2034,-91 1263,-91 848,271 434,634 434,1313 q 0,446 256,755 257,310 713,416 z m -231,997 q 0,-362 226,-565 227,-203 636,-203 407,0 636,203 230,203 230,565 0,363 -230,566 -229,203 -636,203 -409,0 -636,-203 -226,-203 -226,-566 z"
                   transform="scale(0.015625)" />
              </defs>
              <use
                 xlink:href="#DejaVuSans-38"
                 id="use9" />
            </g>
          </g>
        </g>
        <g
           id="xtick_5">
          <g
             id="line2d_5">
            <g
               id="g10">
              <use
                 xlink:href="#m995ed39340"
                 x="362.83636"
                 y="378"
                 style="stroke:#000000;stroke-width:0.8"
                 id="use10" />
            </g>
          </g>
          <g
             id="text_5">
            <!-- 10 -->
            <g
               transform="matrix(0.24,0,0,-0.24,347.56636,403.23625)"
               id="g12">
              <defs
                 id="defs10">
                <path
                   id="DejaVuSans-31"
                   d="M 794,531 H 1825 V 4091 L 703,3866 v 575 l 1116,225 h 631 V 531 H 3481 V 0 H 794 Z"
                   transform="scale(0.015625)" />
                <path
                   id="DejaVuSans-30"
                   d="m 2034,4250 q -487,0 -733,-480 -245,-479 -245,-1442 0,-959 245,-1439 246,-480 733,-480 491,0 736,480 246,480 246,1439 0,963 -246,1442 -245,480 -736,480 z m 0,500 q 785,0 1199,-621 414,-620 414,-1801 0,-1178 -414,-1799 -414,-620 -1199,-620 -784,0 -1198,620 -414,621 -414,1799 0,1181 414,1801 414,621 1198,621 z"
                   transform="scale(0.015625)" />
              </defs>
              <use
                 xlink:href="#DejaVuSans-31"
                 id="use11" />
              <use
                 xlink:href="#DejaVuSans-30"
                 x="63.623047"
                 id="use12" />
            </g>
          </g>
        </g>
        <g
           id="xtick_6">
          <g
             id="line2d_6">
            <g
               id="g13">
              <use
                 xlink:href="#m995ed39340"
                 x="430.47272"
                 y="378"
                 style="stroke:#000000;stroke-width:0.8"
                 id="use13" />
            </g>
          </g>
          <g
             id="text_6">
            <!-- 12 -->
            <g
               transform="matrix(0.24,0,0,-0.24,415.20273,403.23625)"
               id="g15">
              <use
                 xlink:href="#DejaVuSans-31"
                 id="use14" />
              <use
                 xlink:href="#DejaVuSans-32"
                 x="63.623047"
                 id="use15" />
            </g>
          </g>
        </g>
        <g
           id="xtick_7">
          <g
             id="line2d_7">
            <g
               id="g16">
              <use
                 xlink:href="#m995ed39340"
                 x="498.1091"
                 y="378"
                 style="stroke:#000000;stroke-width:0.8"
                 id="use16" />
            </g>
          </g>
          <g
             id="text_7">
            <!-- 14 -->
            <g
               transform="matrix(0.24,0,0,-0.24,482.83909,403.23625)"
               id="g18">
              <use
                 xlink:href="#DejaVuSans-31"
                 id="use17" />
              <use
                 xlink:href="#DejaVuSans-34"
                 x="63.623047"
                 id="use18" />
            </g>
          </g>
        </g>
        <g
           id="text_8">
          <!-- cluster number -->
          <g
             transform="matrix(0.24,0,0,-0.24,203.74312,430.46375)"
             id="g32">
            <defs
               id="defs18">
              <path
                 id="DejaVuSans-63"
                 d="m 3122,3366 v -538 q -244,135 -489,202 -245,67 -495,67 -560,0 -870,-355 -309,-354 -309,-995 0,-641 309,-996 310,-354 870,-354 250,0 495,67 245,67 489,202 V 134 Q 2881,22 2623,-34 2366,-91 2075,-91 1284,-91 818,406 353,903 353,1747 q 0,856 470,1346 471,491 1290,491 265,0 518,-55 253,-54 491,-163 z"
                 transform="scale(0.015625)" />
              <path
                 id="DejaVuSans-6c"
                 d="m 603,4863 h 575 V 0 H 603 Z"
                 transform="scale(0.015625)" />
              <path
                 id="DejaVuSans-75"
                 d="m 544,1381 v 2119 h 575 V 1403 q 0,-497 193,-746 194,-248 582,-248 465,0 735,297 271,297 271,810 v 1984 h 575 V 0 H 2900 V 538 Q 2691,219 2414,64 2138,-91 1772,-91 1169,-91 856,284 544,659 544,1381 Z m 1447,2203 z"
                 transform="scale(0.015625)" />
              <path
                 id="DejaVuSans-73"
                 d="m 2834,3397 v -544 q -243,125 -506,187 -262,63 -544,63 -428,0 -642,-131 -214,-131 -214,-394 0,-200 153,-314 153,-114 616,-217 l 197,-44 q 612,-131 870,-370 258,-239 258,-667 0,-488 -386,-773 Q 2250,-91 1575,-91 1294,-91 989,-36 684,19 347,128 v 594 q 319,-166 628,-249 309,-82 613,-82 406,0 624,139 219,139 219,392 0,234 -158,359 -157,125 -692,241 l -200,47 q -534,112 -772,345 -237,233 -237,639 0,494 350,762 350,269 994,269 318,0 599,-47 282,-46 519,-140 z"
                 transform="scale(0.015625)" />
              <path
                 id="DejaVuSans-74"
                 d="M 1172,4494 V 3500 H 2356 V 3053 H 1172 V 1153 q 0,-428 117,-550 117,-122 477,-122 h 590 V 0 H 1766 Q 1100,0 847,248 594,497 594,1153 V 3053 H 172 v 447 h 422 v 994 z"
                 transform="scale(0.015625)" />
              <path
                 id="DejaVuSans-65"
                 d="M 3597,1894 V 1613 H 953 q 38,-594 358,-905 320,-311 892,-311 331,0 642,81 311,81 618,244 V 178 Q 3153,47 2828,-22 2503,-91 2169,-91 1331,-91 842,396 353,884 353,1716 q 0,859 464,1363 464,505 1252,505 706,0 1117,-455 411,-454 411,-1235 z m -575,169 q -6,471 -264,752 -258,282 -683,282 -481,0 -770,-272 -289,-272 -333,-766 z"
                 transform="scale(0.015625)" />
              <path
                 id="DejaVuSans-72"
                 d="m 2631,2963 q -97,56 -211,82 -114,27 -251,27 -488,0 -749,-317 -261,-317 -261,-911 V 0 H 581 v 3500 h 578 v -544 q 182,319 472,473 291,155 707,155 59,0 131,-8 72,-7 159,-23 z"
                 transform="scale(0.015625)" />
              <path
                 id="DejaVuSans-20"
                 transform="scale(0.015625)"
                 d="" />
              <path
                 id="DejaVuSans-6e"
                 d="M 3513,2113 V 0 h -575 v 2094 q 0,497 -194,743 -194,247 -581,247 -466,0 -735,-297 -269,-296 -269,-809 V 0 H 581 v 3500 h 578 v -544 q 207,316 486,472 280,156 646,156 603,0 912,-373 310,-373 310,-1098 z"
                 transform="scale(0.015625)" />
              <path
                 id="DejaVuSans-6d"
                 d="m 3328,2828 q 216,388 516,572 300,184 706,184 547,0 844,-383 297,-382 297,-1088 V 0 h -578 v 2094 q 0,503 -179,746 -178,244 -543,244 -447,0 -707,-297 -259,-296 -259,-809 V 0 h -578 v 2094 q 0,506 -178,748 -178,242 -550,242 -441,0 -701,-298 -259,-298 -259,-808 V 0 H 581 v 3500 h 578 v -544 q 197,322 472,475 275,153 653,153 382,0 649,-194 267,-193 395,-562 z"
                 transform="scale(0.015625)" />
              <path
                 id="DejaVuSans-62"
                 d="m 3116,1747 q 0,634 -261,995 -261,361 -717,361 -457,0 -718,-361 -261,-361 -261,-995 0,-634 261,-995 261,-361 718,-361 456,0 717,361 261,361 261,995 z M 1159,2969 q 182,312 458,463 277,152 661,152 638,0 1036,-506 399,-506 399,-1331 Q 3713,922 3314,415 2916,-91 2278,-91 1894,-91 1617,61 1341,213 1159,525 V 0 H 581 v 4863 h 578 z"
                 transform="scale(0.015625)" />
            </defs>
            <use
               xlink:href="#DejaVuSans-63"
               id="use19" />
            <use
               xlink:href="#DejaVuSans-6c"
               x="54.980469"
               id="use20" />
            <use
               xlink:href="#DejaVuSans-75"
               x="82.763672"
               id="use21" />
            <use
               xlink:href="#DejaVuSans-73"
               x="146.14258"
               id="use22" />
            <use
               xlink:href="#DejaVuSans-74"
               x="198.24219"
               id="use23" />
            <use
               xlink:href="#DejaVuSans-65"
               x="237.45117"
               id="use24" />
            <use
               xlink:href="#DejaVuSans-72"
               x="298.97461"
               id="use25" />
            <use
               xlink:href="#DejaVuSans-20"
               x="340.08789"
               id="use26" />
            <use
               xlink:href="#DejaVuSans-6e"
               x="371.875"
               id="use27" />
            <use
               xlink:href="#DejaVuSans-75"
               x="435.25391"
               id="use28" />
            <use
               xlink:href="#DejaVuSans-6d"
               x="498.63281"
               id="use29" />
            <use
               xlink:href="#DejaVuSans-62"
               x="596.04492"
               id="use30" />
            <use
               xlink:href="#DejaVuSans-65"
               x="659.52148"
               id="use31" />
            <use
               xlink:href="#DejaVuSans-72"
               x="721.04492"
               id="use32" />
          </g>
        </g>
      </g>
      <g
         id="matplotlib.axis_2">
        <g
           id="ytick_1">
          <g
             id="line2d_8">
            <defs
               id="defs32">
              <path
                 id="m8b2a4bb06e"
                 d="M 0,0 H -3.5"
                 style="stroke:#000000;stroke-width:0.8" />
            </defs>
            <g
               id="g33">
              <use
                 xlink:href="#m8b2a4bb06e"
                 x="72"
                 y="347.91428"
                 style="stroke:#000000;stroke-width:0.8"
                 id="use33" />
            </g>
          </g>
          <g
             id="text_9">
            <!-- 100 -->
            <g
               transform="matrix(0.24,0,0,-0.24,19.19,357.0324)"
               id="g36">
              <use
                 xlink:href="#DejaVuSans-31"
                 id="use34" />
              <use
                 xlink:href="#DejaVuSans-30"
                 x="63.623047"
                 id="use35" />
              <use
                 xlink:href="#DejaVuSans-30"
                 x="127.24609"
                 id="use36" />
            </g>
          </g>
        </g>
        <g
           id="ytick_2">
          <g
             id="line2d_9">
            <g
               id="g37">
              <use
                 xlink:href="#m8b2a4bb06e"
                 x="72"
                 y="290.31784"
                 style="stroke:#000000;stroke-width:0.8"
                 id="use37" />
            </g>
          </g>
          <g
             id="text_10">
            <!-- 150 -->
            <g
               transform="matrix(0.24,0,0,-0.24,19.19,299.43596)"
               id="g40">
              <defs
                 id="defs37">
                <path
                   id="DejaVuSans-35"
                   d="M 691,4666 H 3169 V 4134 H 1269 V 2991 q 137,47 274,70 138,23 276,23 781,0 1237,-428 457,-428 457,-1159 Q 3513,744 3044,326 2575,-91 1722,-91 1428,-91 1123,-41 819,9 494,109 v 635 q 281,-153 581,-228 300,-75 634,-75 541,0 856,284 316,284 316,772 0,487 -316,771 -315,285 -856,285 -253,0 -505,-56 -251,-56 -513,-175 z"
                   transform="scale(0.015625)" />
              </defs>
              <use
                 xlink:href="#DejaVuSans-31"
                 id="use38" />
              <use
                 xlink:href="#DejaVuSans-35"
                 x="63.623047"
                 id="use39" />
              <use
                 xlink:href="#DejaVuSans-30"
                 x="127.24609"
                 id="use40" />
            </g>
          </g>
        </g>
        <g
           id="ytick_3">
          <g
             id="line2d_10">
            <g
               id="g41">
              <use
                 xlink:href="#m8b2a4bb06e"
                 x="72"
                 y="232.72139"
                 style="stroke:#000000;stroke-width:0.8"
                 id="use41" />
            </g>
          </g>
          <g
             id="text_11">
            <!-- 200 -->
            <g
               transform="matrix(0.24,0,0,-0.24,19.19,241.83951)"
               id="g44">
              <use
                 xlink:href="#DejaVuSans-32"
                 id="use42" />
              <use
                 xlink:href="#DejaVuSans-30"
                 x="63.623047"
                 id="use43" />
              <use
                 xlink:href="#DejaVuSans-30"
                 x="127.24609"
                 id="use44" />
            </g>
          </g>
        </g>
        <g
           id="ytick_4">
          <g
             id="line2d_11">
            <g
               id="g45">
              <use
                 xlink:href="#m8b2a4bb06e"
                 x="72"
                 y="175.12495"
                 style="stroke:#000000;stroke-width:0.8"
                 id="use45" />
            </g>
          </g>
          <g
             id="text_12">
            <!-- 250 -->
            <g
               transform="matrix(0.24,0,0,-0.24,19.19,184.24307)"
               id="g48">
              <use
                 xlink:href="#DejaVuSans-32"
                 id="use46" />
              <use
                 xlink:href="#DejaVuSans-35"
                 x="63.623047"
                 id="use47" />
              <use
                 xlink:href="#DejaVuSans-30"
                 x="127.24609"
                 id="use48" />
            </g>
          </g>
        </g>
        <g
           id="ytick_5">
          <g
             id="line2d_12">
            <g
               id="g49">
              <use
                 xlink:href="#m8b2a4bb06e"
                 x="72"
                 y="117.5285"
                 style="stroke:#000000;stroke-width:0.8"
                 id="use49" />
            </g>
          </g>
          <g
             id="text_13">
            <!-- 300 -->
            <g
               transform="matrix(0.24,0,0,-0.24,19.19,126.64663)"
               id="g52">
              <defs
                 id="defs49">
                <path
                   id="DejaVuSans-33"
                   d="m 2597,2516 q 453,-97 707,-404 255,-306 255,-756 0,-690 -475,-1069 -475,-378 -1350,-378 -293,0 -604,58 -311,58 -642,174 v 609 q 262,-153 574,-231 313,-78 654,-78 593,0 904,234 311,234 311,681 0,413 -289,645 -289,233 -804,233 h -544 v 519 h 569 q 465,0 712,186 247,186 247,536 0,359 -255,551 -254,193 -729,193 -260,0 -557,-57 -297,-56 -653,-174 v 562 q 360,100 674,150 314,50 592,50 719,0 1137,-327 419,-326 419,-882 0,-388 -222,-655 -222,-267 -631,-370 z"
                   transform="scale(0.015625)" />
              </defs>
              <use
                 xlink:href="#DejaVuSans-33"
                 id="use50" />
              <use
                 xlink:href="#DejaVuSans-30"
                 x="63.623047"
                 id="use51" />
              <use
                 xlink:href="#DejaVuSans-30"
                 x="127.24609"
                 id="use52" />
            </g>
          </g>
        </g>
        <g
           id="ytick_6">
          <g
             id="line2d_13">
            <g
               id="g53">
              <use
                 xlink:href="#m8b2a4bb06e"
                 x="72"
                 y="59.932064"
                 style="stroke:#000000;stroke-width:0.8"
                 id="use53" />
            </g>
          </g>
          <g
             id="text_14">
            <!-- 350 -->
            <g
               transform="matrix(0.24,0,0,-0.24,19.19,69.05019)"
               id="g56">
              <use
                 xlink:href="#DejaVuSans-33"
                 id="use54" />
              <use
                 xlink:href="#DejaVuSans-35"
                 x="63.623047"
                 id="use55" />
              <use
                 xlink:href="#DejaVuSans-30"
                 x="127.24609"
                 id="use56" />
            </g>
          </g>
        </g>
        <g
           id="text_15">
          <!-- total within-cluster  -->
          <g
             transform="matrix(0,-0.24,-0.24,0,-16.676,331.52062)"
             id="g77">
            <defs
               id="defs56">
              <path
                 id="DejaVuSans-6f"
                 d="m 1959,3097 q -462,0 -731,-361 -269,-361 -269,-989 0,-628 267,-989 268,-361 733,-361 460,0 728,362 269,363 269,988 0,622 -269,986 -268,364 -728,364 z m 0,487 q 750,0 1178,-488 429,-487 429,-1349 Q 3566,888 3137,398 2709,-91 1959,-91 1206,-91 779,398 353,888 353,1747 q 0,862 426,1349 427,488 1180,488 z"
                 transform="scale(0.015625)" />
              <path
                 id="DejaVuSans-61"
                 d="m 2194,1759 q -697,0 -966,-159 -269,-159 -269,-544 0,-306 202,-486 202,-179 548,-179 479,0 768,339 289,339 289,901 v 128 z m 1147,238 V 0 H 2766 V 531 Q 2569,213 2275,61 1981,-91 1556,-91 q -537,0 -855,302 -317,302 -317,808 0,590 395,890 396,300 1180,300 h 807 v 57 q 0,397 -261,614 -261,217 -733,217 -300,0 -585,-72 -284,-72 -546,-216 v 532 q 315,122 612,182 297,61 578,61 760,0 1135,-394 375,-393 375,-1193 z"
                 transform="scale(0.015625)" />
              <path
                 id="DejaVuSans-77"
                 d="m 269,3500 h 575 l 719,-2731 715,2731 h 678 l 719,-2731 716,2731 h 575 L 4050,0 H 3372 L 2619,2869 1863,0 h -679 z"
                 transform="scale(0.015625)" />
              <path
                 id="DejaVuSans-69"
                 d="m 603,3500 h 575 V 0 H 603 Z m 0,1363 h 575 V 4134 H 603 Z"
                 transform="scale(0.015625)" />
              <path
                 id="DejaVuSans-68"
                 d="M 3513,2113 V 0 h -575 v 2094 q 0,497 -194,743 -194,247 -581,247 -466,0 -735,-297 -269,-296 -269,-809 V 0 H 581 v 4863 h 578 V 2956 q 207,316 486,472 280,156 646,156 603,0 912,-373 310,-373 310,-1098 z"
                 transform="scale(0.015625)" />
              <path
                 id="DejaVuSans-2d"
                 d="M 313,2009 H 1997 V 1497 H 313 Z"
                 transform="scale(0.015625)" />
            </defs>
            <use
               xlink:href="#DejaVuSans-74"
               id="use57" />
            <use
               xlink:href="#DejaVuSans-6f"
               x="39.208984"
               id="use58" />
            <use
               xlink:href="#DejaVuSans-74"
               x="100.39062"
               id="use59" />
            <use
               xlink:href="#DejaVuSans-61"
               x="139.59961"
               id="use60" />
            <use
               xlink:href="#DejaVuSans-6c"
               x="200.87891"
               id="use61" />
            <use
               xlink:href="#DejaVuSans-20"
               x="228.66211"
               id="use62" />
            <use
               xlink:href="#DejaVuSans-77"
               x="260.44922"
               id="use63" />
            <use
               xlink:href="#DejaVuSans-69"
               x="342.23633"
               id="use64" />
            <use
               xlink:href="#DejaVuSans-74"
               x="370.01953"
               id="use65" />
            <use
               xlink:href="#DejaVuSans-68"
               x="409.22852"
               id="use66" />
            <use
               xlink:href="#DejaVuSans-69"
               x="472.60742"
               id="use67" />
            <use
               xlink:href="#DejaVuSans-6e"
               x="500.39062"
               id="use68" />
            <use
               xlink:href="#DejaVuSans-2d"
               x="563.76953"
               id="use69" />
            <use
               xlink:href="#DejaVuSans-63"
               x="599.85352"
               id="use70" />
            <use
               xlink:href="#DejaVuSans-6c"
               x="654.83398"
               id="use71" />
            <use
               xlink:href="#DejaVuSans-75"
               x="682.61719"
               id="use72" />
            <use
               xlink:href="#DejaVuSans-73"
               x="745.99609"
               id="use73" />
            <use
               xlink:href="#DejaVuSans-74"
               x="798.0957"
               id="use74" />
            <use
               xlink:href="#DejaVuSans-65"
               x="837.30469"
               id="use75" />
            <use
               xlink:href="#DejaVuSans-72"
               x="898.82812"
               id="use76" />
            <use
               xlink:href="#DejaVuSans-20"
               x="939.94141"
               id="use77" />
          </g>
          <!--  sum of squares -->
          <g
             transform="matrix(0,-0.24,-0.24,0,10.19875,310.59937)"
             id="g92">
            <defs
               id="defs77">
              <path
                 id="DejaVuSans-66"
                 d="m 2375,4863 v -479 h -550 q -309,0 -430,-125 -120,-125 -120,-450 v -309 h 947 V 3053 H 1275 V 0 H 697 V 3053 H 147 v 447 h 550 v 244 q 0,584 272,851 272,268 862,268 z"
                 transform="scale(0.015625)" />
              <path
                 id="DejaVuSans-71"
                 d="m 947,1747 q 0,-634 261,-995 261,-361 717,-361 456,0 718,361 263,361 263,995 0,634 -263,995 -262,361 -718,361 -456,0 -717,-361 Q 947,2381 947,1747 Z M 2906,525 Q 2725,213 2448,61 2172,-91 1784,-91 1150,-91 751,415 353,922 353,1747 q 0,825 398,1331 399,506 1033,506 388,0 664,-152 277,-151 458,-463 v 531 h 575 v -4831 h -575 z"
                 transform="scale(0.015625)" />
            </defs>
            <use
               xlink:href="#DejaVuSans-20"
               id="use78" />
            <use
               xlink:href="#DejaVuSans-73"
               x="31.787109"
               id="use79" />
            <use
               xlink:href="#DejaVuSans-75"
               x="83.886719"
               id="use80" />
            <use
               xlink:href="#DejaVuSans-6d"
               x="147.26562"
               id="use81" />
            <use
               xlink:href="#DejaVuSans-20"
               x="244.67773"
               id="use82" />
            <use
               xlink:href="#DejaVuSans-6f"
               x="276.46484"
               id="use83" />
            <use
               xlink:href="#DejaVuSans-66"
               x="337.64648"
               id="use84" />
            <use
               xlink:href="#DejaVuSans-20"
               x="372.85156"
               id="use85" />
            <use
               xlink:href="#DejaVuSans-73"
               x="404.63867"
               id="use86" />
            <use
               xlink:href="#DejaVuSans-71"
               x="456.73828"
               id="use87" />
            <use
               xlink:href="#DejaVuSans-75"
               x="520.21484"
               id="use88" />
            <use
               xlink:href="#DejaVuSans-61"
               x="583.59375"
               id="use89" />
            <use
               xlink:href="#DejaVuSans-72"
               x="644.87305"
               id="use90" />
            <use
               xlink:href="#DejaVuSans-65"
               x="683.73633"
               id="use91" />
            <use
               xlink:href="#DejaVuSans-73"
               x="745.25977"
               id="use92" />
          </g>
        </g>
      </g>
      <g
         id="line2d_14">
        <path
           d="m 92.290909,66.665455 33.818181,117.699065 33.81818,66.09795 33.81818,29.50659 33.81819,18.6164 33.81818,16.6367 33.81818,10.81595 33.81818,11.83377 33.81818,6.76529 33.81818,6.03386 33.81819,4.17445 33.81818,3.41997 33.81818,4.9091"
           clip-path="url(#p2ddfa1b35b)"
           style="fill:none;stroke:#1f77b4;stroke-width:3;stroke-linecap:square"
           id="path92" />
      </g>
      <g
         id="patch_3">
        <path
           d="M 72,378 V 51.84"
           style="fill:none;stroke:#000000;stroke-width:2;stroke-linecap:square;stroke-linejoin:miter"
           id="path93" />
      </g>
      <g
         id="patch_5">
        <path
           d="M 72,378 H 518.4"
           style="fill:none;stroke:#000000;stroke-width:2;stroke-linecap:square;stroke-linejoin:miter"
           id="path95" />
      </g>
    </g>
    <path
       style="fill:#000000;fill-opacity:0.299107;stroke:#ff0602;stroke-width:2.079;stroke-dasharray:4.15802, 2.079;stroke-dashoffset:0"
       d="m 239.59694,236.40139 c 0.221,-36.02198 0.221,-36.02198 0.221,-36.02198 v 0"
       id="path1" />
    <path
       style="fill:#000000;fill-opacity:0.299107;stroke:#ff0602;stroke-width:2.079;stroke-dasharray:4.15802, 2.079;stroke-dashoffset:0"
       d="M 238.39929,200.09092 C 77.720913,199.82975 77.720913,199.82975 77.720913,199.82975 v 0"
       id="path2" />
  </g>
</svg>
